<?xml version="1.0" encoding="UTF-8" standalone="no"?>
<!DOCTYPE svg PUBLIC "-//W3C//DTD SVG 1.1//EN" "http://www.w3.org/Graphics/SVG/1.1/DTD/svg11.dtd">
<svg width="100%" height="100%" viewBox="0 0 128 128" version="1.1" xmlns="http://www.w3.org/2000/svg" xmlns:xlink="http://www.w3.org/1999/xlink" xml:space="preserve" style="fill-rule:evenodd;clip-rule:evenodd;stroke-linejoin:round;stroke-miterlimit:1.41421;">
    <g transform="matrix(1,0,0,1,-461,-1776)">
        <g id="PIKColor" transform="matrix(1,0,0,1,-1141.59,1776.21)">
            <rect x="1602.5" y="0" width="128" height="128" style="fill:none;"/>
            <g transform="matrix(1,0,0,1,1141.59,-1776.21)">
                <path d="M588.913,1776.21L588.913,1904.21L460.913,1904.21L460.913,1776.21L588.913,1776.21ZM548.071,1876.76C556.103,1876.32 563.917,1871.52 568.692,1864.32C573.033,1857.56 574.119,1849.48 571.514,1842.5C568.475,1834.21 560.878,1826.79 554.148,1820.25C552.629,1818.72 551.11,1817.19 549.807,1815.88C545.032,1811.08 540.256,1806.5 535.698,1802.14C533.093,1799.74 530.343,1797.12 527.738,1794.5L524.916,1791.66L521.878,1794.28C513.276,1802.1 504.85,1810.26 496.192,1818.94C495.322,1819.81 494.455,1820.9 493.37,1821.77C487.075,1828.32 479.043,1836.39 477.307,1846.21C476.004,1854.28 477.958,1862.14 482.733,1867.81C487.292,1873.27 494.021,1876.32 501.401,1876.32L502.487,1876.32C511.958,1875.97 518.053,1872.05 522.22,1867.8C520.832,1878.01 513.606,1885.54 504.913,1885.54L504.913,1890.66C505.352,1890.66 505.788,1890.68 506.219,1890.71L543.606,1890.71C544.038,1890.68 544.473,1890.66 544.913,1890.66L544.913,1885.54C536.301,1885.54 529.129,1878.14 527.646,1868.08C531.915,1872.56 538.424,1876.76 546.768,1876.76L548.071,1876.76Z" style="fill:rgb(142,189,141);"/>
            </g>
        </g>
    </g>
</svg>
