<?xml version="1.0" encoding="iso-8859-1"?>
<!-- Generator: Adobe Illustrator 16.0.3, SVG Export Plug-In . SVG Version: 6.00 Build 0)  -->
<!DOCTYPE svg PUBLIC "-//W3C//DTD SVG 1.1//EN" "http://www.w3.org/Graphics/SVG/1.1/DTD/svg11.dtd">
<svg version="1.1" xmlns="http://www.w3.org/2000/svg" xmlns:xlink="http://www.w3.org/1999/xlink" x="0px" y="0px" width="127px"
	 height="127px" viewBox="0 0 127 127" style="enable-background:new 0 0 127 127;" xml:space="preserve">
<g id="Ot_BackDrop">
	<g>
		<rect x="2" y="3" style="fill:#254359;" width="122" height="122"/>
		<path d="M121,6v116H5V6H121 M127,0H-1v128h128V0L127,0z"/>
	</g>
	<g>
		<rect x="2" y="3" style="fill:#36576B;" width="122" height="29"/>
		<path style="fill:#080808;" d="M121,6v23H5V6H121 M127,0H-1v35h128V0L127,0z"/>
	</g>
	<g>
		<polygon style="fill:#36576B;" points="95.329,125 124,97.526 124,125 		"/>
		<path style="fill:#080808;" d="M121,104v18h-18.008L121,104.386 M127,90.666L87.666,128H127V90.666L127,90.666z"/>
	</g>
	<line style="fill:none;stroke:#000000;stroke-width:6;stroke-miterlimit:10;" x1="46" y1="17" x2="81" y2="17"/>
</g>
<g id="Layer_1">
</g>
</svg>
