<?xml version="1.0" encoding="utf-8"?>
<!-- Generator: Adobe Illustrator 25.0.1, SVG Export Plug-In . SVG Version: 6.00 Build 0)  -->
<svg version="1.1" id="Layer_1" xmlns="http://www.w3.org/2000/svg" xmlns:xlink="http://www.w3.org/1999/xlink" x="0px" y="0px"
	 viewBox="0 0 16 16" style="enable-background:new 0 0 16 16;" xml:space="preserve">
<style type="text/css">
	.st0{fill-rule:evenodd;clip-rule:evenodd;fill:#c7c7c7;}
</style>
<path id="path20483" class="st0" d="M8.13,0.85c-3.86,0-7,3.14-7,7s3.14,7,7,7s7-3.14,7-7S11.99,0.85,8.13,0.85z M11.12,3.83
	c0.55-0.01,1.01,0.42,1.02,0.98c0.01,0.28-0.1,0.55-0.31,0.74L9.55,7.85l2.29,2.29c0.4,0.38,0.41,1.02,0.03,1.41
	s-1.02,0.41-1.41,0.03c-0.01-0.01-0.02-0.02-0.03-0.03L8.13,9.26l-2.29,2.29c-0.38,0.4-1.02,0.41-1.41,0.03
	c-0.4-0.38-0.41-1.02-0.03-1.41c0.01-0.01,0.02-0.02,0.03-0.03l2.29-2.29L4.43,5.55c-0.4-0.39-0.4-1.02-0.02-1.41
	c0.19-0.19,0.45-0.3,0.72-0.3c0.27,0,0.53,0.11,0.72,0.3l2.29,2.29l2.29-2.29C10.61,3.95,10.86,3.84,11.12,3.83z"/>
</svg>
