<?xml version="1.0" encoding="iso-8859-1"?>
<!-- Generator: Adobe Illustrator 16.0.3, SVG Export Plug-In . SVG Version: 6.00 Build 0)  -->
<!DOCTYPE svg PUBLIC "-//W3C//DTD SVG 1.1//EN" "http://www.w3.org/Graphics/SVG/1.1/DTD/svg11.dtd">
<svg version="1.1" xmlns="http://www.w3.org/2000/svg" xmlns:xlink="http://www.w3.org/1999/xlink" x="0px" y="0px" width="109px"
	 height="124.16px" viewBox="0 0 109 124.16" style="enable-background:new 0 0 109 124.16;" xml:space="preserve">
<g id="OtDiskCache">
	<g>
		<rect y="44.16" style="fill:#4D4D4D;" width="109" height="80"/>
		<path style="fill:#E6E6E6;" d="M69.5,51C50.999,51,36,65.998,36,84.5S50.999,118,69.5,118c18.502,0,33.5-14.998,33.5-33.5
			S88.002,51,69.5,51z M69.5,92.875c-4.625,0-8.375-3.75-8.375-8.375s3.75-8.375,8.375-8.375s8.375,3.75,8.375,8.375
			S74.125,92.875,69.5,92.875z"/>
		<path style="fill:#999999;" d="M21.505,84.16c-0.015,0,0.052-0.563,0.052-0.86C21.557,74.637,29,67.596,37,67.139V50.915
			C20,51.383,5.334,65.677,5.334,83.3c0,0.297-0.061,0.86-0.052,0.86H21.505z"/>
		<polygon style="fill:#999999;" points="25.368,79.09 49.721,101.27 33.549,72.572 28.178,73.85 		"/>
	</g>
	<polygon style="fill:#E6E6E6;stroke:#000000;stroke-width:3.96;stroke-miterlimit:10;" points="76.545,1.964 54.56,32.983 
		32.482,1.832 	"/>
</g>
<g id="Layer_1">
</g>
</svg>
