<?xml version="1.0" standalone="no"?>
<!DOCTYPE svg PUBLIC "-//W3C//DTD SVG 1.1//EN" "http://www.w3.org/Graphics/SVG/1.1/DTD/svg11.dtd">
<svg width="128px" height="128px" version="1.1" xmlns="http://www.w3.org/2000/svg" xmlns:xlink="http://www.w3.org/1999/xlink" xml:space="preserve" style="fill-rule:evenodd;clip-rule:evenodd;stroke-linejoin:round;stroke-miterlimit:1.41421;">
    <g>
        <g id="Ot Group">
            <g>
                <path d="M60.4281,73.7315L67.5719,73.7315C67.5719,73.7315 74.7156,73.7315 74.7156,73.7315L64,91.162L53.2844,73.7315L60.4281,73.7315L60.4281,73.7315Z" style="fill:rgb(200,200,200);"/>
            </g>
            <g>
                <path d="M60.4281,39.0323L67.5719,39.0323C67.5719,39.0323 74.7156,39.0323 74.7156,39.0323L64,56.4628L53.2844,39.0323L60.4281,39.0323L60.4281,39.0323Z" style="fill:rgb(200,200,200);"/>
            </g>
            <g>
                <rect x="43.1364" y="21.8085" width="41.7271" height="17.2398" style="fill:rgb(68,136,136);"/>
            </g>
            <g>
                <rect x="43.1364" y="56.4788" width="41.7271" height="17.2398" style="fill:rgb(102,102,102);"/>
            </g>
            <g>
                <rect x="43.1364" y="91.1492" width="41.7271" height="17.2398" style="fill:rgb(136,68,68);"/>
            </g>
            <g>
                <path d="M32,128L31.793,127.999L31.5864,127.997L31.3801,127.994L31.1741,127.99L30.9684,127.984L30.763,127.977L30.558,127.968L30.3533,127.958L30.1489,127.947L29.9449,127.935L29.7412,127.922L29.5379,127.907L29.3349,127.891L29.1323,127.873L28.9301,127.855L28.7282,127.835L28.5267,127.814L28.3255,127.791L28.1248,127.768L27.9244,127.743L27.7244,127.717L27.5248,127.69L27.3255,127.661L27.1267,127.631L26.9283,127.6L26.7303,127.568L26.5327,127.535L26.3355,127.5L26.1387,127.464L25.9423,127.427L25.7464,127.389L25.5509,127.35L25.3558,127.309L25.1612,127.268L24.967,127.225L24.7732,127.181L24.5799,127.135L24.387,127.089L24.1946,127.041L24.0027,126.993L23.8112,126.943L23.6202,126.892L23.4297,126.839L23.2396,126.786L23.05,126.732L22.8609,126.676L22.6723,126.619L22.4842,126.561L22.2965,126.502L22.1094,126.442L21.9228,126.381L21.7367,126.319L21.5511,126.255L21.366,126.191L21.1814,126.125L20.9973,126.058L20.8138,125.99L20.6308,125.921L20.4483,125.851L20.2664,125.78L20.085,125.708L19.9042,125.635L19.7239,125.561L19.5442,125.485L19.365,125.409L19.1864,125.331L19.0083,125.253L18.8308,125.173L18.6539,125.093L18.4776,125.011L18.3018,124.928L18.1267,124.844L17.9521,124.76L17.7781,124.674L17.6047,124.587L17.4319,124.499L17.2598,124.41L17.0882,124.321L16.9172,124.23L16.7469,124.138L16.5772,124.045L16.4081,123.951L16.2396,123.856L16.0718,123.76L15.9046,123.664L15.738,123.566L15.5721,123.467L15.4068,123.367L15.2422,123.267L15.0783,123.165L14.915,123.062L14.7523,122.959L14.5904,122.854L14.4291,122.749L14.2684,122.642L14.1085,122.535L13.9492,122.427L13.7907,122.317L13.6328,122.207L13.4756,122.096L13.3191,121.984L13.1633,121.871L13.0083,121.757L12.8539,121.643L12.7002,121.527L12.5473,121.411L12.3951,121.293L12.2436,121.175L12.0929,121.056L11.9428,120.936L11.7936,120.815L11.645,120.693L11.4972,120.57L11.3502,120.446L11.2039,120.322L11.0584,120.197L10.9136,120.071L10.7696,119.944L10.6264,119.816L10.4839,119.687L10.3422,119.557L10.2013,119.427L10.0612,119.296L9.92191,119.164L9.78338,119.031L9.64564,118.897L9.50871,118.763L9.37258,118.627L9.23726,118.491L9.10276,118.354L8.96907,118.217L8.8362,118.078L8.70416,117.939L8.57295,117.799L8.44257,117.658L8.31302,117.516L8.18432,117.374L8.05645,117.23L7.92944,117.086L7.80328,116.942L7.67798,116.796L7.55354,116.65L7.42996,116.503L7.30724,116.355L7.1854,116.206L7.06444,116.057L6.94436,115.907L6.82516,115.756L6.70684,115.605L6.58942,115.453L6.47289,115.3L6.35727,115.146L6.24254,114.992L6.12873,114.837L6.01582,114.681L5.90383,114.524L5.79276,114.367L5.68261,114.209L5.57339,114.051L5.4651,113.892L5.35774,113.732L5.25132,113.571L5.14585,113.41L5.04132,113.248L4.93774,113.085L4.83512,112.922L4.73345,112.758L4.63275,112.593L4.53301,112.428L4.43424,112.262L4.33645,112.095L4.23963,111.928L4.1438,111.76L4.04895,111.592L3.95509,111.423L3.86223,111.253L3.77036,111.083L3.67949,110.912L3.58963,110.74L3.50078,110.568L3.41294,110.395L3.32612,110.222L3.24032,110.048L3.15555,109.873L3.0718,109.698L2.98909,109.522L2.90741,109.346L2.82678,109.169L2.74718,108.992L2.66864,108.814L2.59115,108.635L2.51472,108.456L2.43935,108.276L2.36504,108.096L2.2918,107.915L2.21963,107.734L2.14853,107.552L2.07852,107.369L2.00959,107.186L1.94175,107.003L1.875,106.819L1.80935,106.634L1.74479,106.449L1.68134,106.263L1.619,106.077L1.55777,105.891L1.49765,105.703L1.43866,105.516L1.38078,105.328L1.32404,105.139L1.26842,104.95L1.21394,104.76L1.1606,104.57L1.1084,104.38L1.05735,104.189L1.00744,103.997L0.958698,103.805L0.911109,103.613L0.864683,103.42L0.819423,103.227L0.775334,103.033L0.732418,102.839L0.690681,102.644L0.650126,102.449L0.610757,102.254L0.572578,102.058L0.535593,101.861L0.499805,101.665L0.46522,101.467L0.43184,101.27L0.399669,101.072L0.368712,100.873L0.338972,100.674L0.310454,100.475L0.283161,100.276L0.257097,100.076L0.232266,99.8752L0.208673,99.6745L0.18632,99.4733L0.165212,99.2718L0.145353,99.0699L0.126747,98.8677L0.109398,98.6651L0.093309,98.4621L0.0784846,98.2588L0.0649288,98.0551L0.0526453,97.8511L0.0416382,97.6467L0.0319113,97.442L0.0234686,97.237L0.016314,97.0316L0.0104514,96.8259L0.00588482,96.6199L0.0026181,96.4136L0.000655178,96.207L3.55271e-15,96L3.55271e-15,32L0.000655178,31.793L0.0026181,31.5864L0.00588482,31.3801L0.0104514,31.1741L0.016314,30.9684L0.0234686,30.763L0.0319113,30.558L0.0416382,30.3533L0.0526453,30.1489L0.0649288,29.9449L0.0784846,29.7412L0.093309,29.5379L0.109398,29.3349L0.126747,29.1323L0.145353,28.9301L0.165212,28.7282L0.18632,28.5267L0.208673,28.3255L0.232266,28.1248L0.257097,27.9244L0.283161,27.7244L0.310454,27.5248L0.338972,27.3255L0.368712,27.1267L0.399669,26.9283L0.43184,26.7303L0.46522,26.5327L0.499805,26.3355L0.535593,26.1387L0.572578,25.9423L0.610757,25.7464L0.650126,25.5509L0.690681,25.3558L0.732418,25.1612L0.775334,24.967L0.819423,24.7732L0.864683,24.5799L0.911109,24.387L0.958698,24.1946L1.00744,24.0027L1.05735,23.8112L1.1084,23.6202L1.1606,23.4297L1.21394,23.2396L1.26842,23.05L1.32404,22.8609L1.38078,22.6723L1.43866,22.4842L1.49765,22.2965L1.55777,22.1094L1.619,21.9228L1.68134,21.7367L1.74479,21.5511L1.80935,21.366L1.875,21.1814L1.94175,20.9973L2.00959,20.8138L2.07852,20.6308L2.14853,20.4483L2.21963,20.2664L2.2918,20.085L2.36504,19.9042L2.43935,19.7239L2.51472,19.5442L2.59115,19.365L2.66864,19.1864L2.74718,19.0083L2.82678,18.8308L2.90741,18.6539L2.98909,18.4776L3.0718,18.3018L3.15555,18.1267L3.24032,17.9521L3.32612,17.7781L3.41294,17.6047L3.50078,17.4319L3.58963,17.2598L3.67949,17.0882L3.77036,16.9172L3.86223,16.7469L3.95509,16.5772L4.04895,16.4081L4.1438,16.2396L4.23963,16.0718L4.33645,15.9046L4.43424,15.738L4.53301,15.5721L4.63275,15.4068L4.73345,15.2422L4.83512,15.0783L4.93774,14.915L5.04132,14.7523L5.14585,14.5904L5.25132,14.4291L5.35774,14.2684L5.4651,14.1085L5.57339,13.9492L5.68261,13.7907L5.79276,13.6328L5.90383,13.4756L6.01582,13.3191L6.12873,13.1633L6.24254,13.0083L6.35727,12.8539L6.47289,12.7002L6.58942,12.5473L6.70684,12.3951L6.82516,12.2436L6.94436,12.0929L7.06444,11.9428L7.1854,11.7936L7.30724,11.645L7.42996,11.4972L7.55354,11.3502L7.67798,11.2039L7.80328,11.0584L7.92944,10.9136L8.05645,10.7696L8.18432,10.6264L8.31302,10.4839L8.44257,10.3422L8.57295,10.2013L8.70416,10.0612L8.8362,9.92191L8.96907,9.78338L9.10276,9.64564L9.23726,9.50871L9.37258,9.37258L9.50871,9.23726L9.64564,9.10276L9.78338,8.96907L9.92191,8.8362L10.0612,8.70416L10.2013,8.57295L10.3422,8.44257L10.4839,8.31302L10.6264,8.18432L10.7696,8.05645L10.9136,7.92944L11.0584,7.80328L11.2039,7.67798L11.3502,7.55354L11.4972,7.42996L11.645,7.30724L11.7936,7.1854L11.9428,7.06444L12.0929,6.94436L12.2436,6.82516L12.3951,6.70684L12.5473,6.58942L12.7002,6.47289L12.8539,6.35727L13.0083,6.24254L13.1633,6.12873L13.3191,6.01582L13.4756,5.90383L13.6328,5.79276L13.7907,5.68261L13.9492,5.57339L14.1085,5.4651L14.2684,5.35774L14.4291,5.25132L14.5904,5.14585L14.7523,5.04132L14.915,4.93774L15.0783,4.83512L15.2422,4.73345L15.4068,4.63275L15.5721,4.53301L15.738,4.43424L15.9046,4.33645L16.0718,4.23963L16.2396,4.1438L16.4081,4.04895L16.5772,3.95509L16.7469,3.86223L16.9172,3.77036L17.0882,3.67949L17.2598,3.58963L17.4319,3.50078L17.6047,3.41294L17.7781,3.32612L17.9521,3.24032L18.1267,3.15555L18.3018,3.0718L18.4776,2.98909L18.6539,2.90741L18.8308,2.82678L19.0083,2.74718L19.1864,2.66864L19.365,2.59115L19.5442,2.51472L19.7239,2.43935L19.9042,2.36504L20.085,2.2918L20.2664,2.21963L20.4483,2.14853L20.6308,2.07852L20.8138,2.00959L20.9973,1.94175L21.1814,1.875L21.366,1.80935L21.5511,1.74479L21.7367,1.68134L21.9228,1.619L22.1094,1.55777L22.2965,1.49765L22.4842,1.43866L22.6723,1.38078L22.8609,1.32404L23.05,1.26842L23.2396,1.21394L23.4297,1.1606L23.6202,1.1084L23.8112,1.05735L24.0027,1.00744L24.1946,0.958698L24.387,0.911109L24.5799,0.864683L24.7732,0.819423L24.967,0.775334L25.1612,0.732418L25.3558,0.690681L25.5509,0.650126L25.7464,0.610757L25.9423,0.572578L26.1387,0.535593L26.3355,0.499805L26.5327,0.46522L26.7303,0.43184L26.9283,0.399669L27.1267,0.368712L27.3255,0.338972L27.5248,0.310454L27.7244,0.283161L27.9244,0.257097L28.1248,0.232266L28.3255,0.208673L28.5267,0.18632L28.7282,0.165212L28.9301,0.145353L29.1323,0.126747L29.3349,0.109398L29.5379,0.093309L29.7412,0.0784846L29.9449,0.0649288L30.1489,0.0526453L30.3533,0.0416382L30.558,0.0319113L30.763,0.0234686L30.9684,0.016314L31.1741,0.0104514L31.3801,0.00588482L31.5864,0.0026181L31.793,0.000655178L32,-5.32907e-15L96,-5.32907e-15L96.207,0.000655178L96.4136,0.0026181L96.6199,0.00588482L96.8259,0.0104514L97.0316,0.016314L97.237,0.0234686L97.442,0.0319113L97.6467,0.0416382L97.8511,0.0526453L98.0551,0.0649288L98.2588,0.0784846L98.4621,0.093309L98.6651,0.109398L98.8677,0.126747L99.0699,0.145353L99.2718,0.165212L99.4733,0.18632L99.6745,0.208673L99.8752,0.232266L100.076,0.257097L100.276,0.283161L100.475,0.310454L100.674,0.338972L100.873,0.368712L101.072,0.399669L101.27,0.43184L101.467,0.46522L101.665,0.499805L101.861,0.535593L102.058,0.572578L102.254,0.610757L102.449,0.650126L102.644,0.690681L102.839,0.732418L103.033,0.775334L103.227,0.819423L103.42,0.864683L103.613,0.911109L103.805,0.958698L103.997,1.00744L104.189,1.05735L104.38,1.1084L104.57,1.1606L104.76,1.21394L104.95,1.26842L105.139,1.32404L105.328,1.38078L105.516,1.43866L105.703,1.49765L105.891,1.55777L106.077,1.619L106.263,1.68134L106.449,1.74479L106.634,1.80935L106.819,1.875L107.003,1.94175L107.186,2.00959L107.369,2.07852L107.552,2.14853L107.734,2.21963L107.915,2.2918L108.096,2.36504L108.276,2.43935L108.456,2.51472L108.635,2.59115L108.814,2.66864L108.992,2.74718L109.169,2.82678L109.346,2.90741L109.522,2.98909L109.698,3.0718L109.873,3.15555L110.048,3.24032L110.222,3.32612L110.395,3.41294L110.568,3.50078L110.74,3.58963L110.912,3.67949L111.083,3.77036L111.253,3.86223L111.423,3.95509L111.592,4.04895L111.76,4.1438L111.928,4.23963L112.095,4.33645L112.262,4.43424L112.428,4.53301L112.593,4.63275L112.758,4.73345L112.922,4.83512L113.085,4.93774L113.248,5.04132L113.41,5.14585L113.571,5.25132L113.732,5.35774L113.892,5.4651L114.051,5.57339L114.209,5.68261L114.367,5.79276L114.524,5.90383L114.681,6.01582L114.837,6.12873L114.992,6.24254L115.146,6.35727L115.3,6.47289L115.453,6.58942L115.605,6.70684L115.756,6.82516L115.907,6.94436L116.057,7.06444L116.206,7.1854L116.355,7.30724L116.503,7.42996L116.65,7.55354L116.796,7.67798L116.942,7.80328L117.086,7.92944L117.23,8.05645L117.374,8.18432L117.516,8.31302L117.658,8.44257L117.799,8.57295L117.939,8.70416L118.078,8.8362L118.217,8.96907L118.354,9.10276L118.491,9.23726L118.627,9.37258L118.763,9.50871L118.897,9.64564L119.031,9.78338L119.164,9.92191L119.296,10.0612L119.427,10.2013L119.557,10.3422L119.687,10.4839L119.816,10.6264L119.944,10.7696L120.071,10.9136L120.197,11.0584L120.322,11.2039L120.446,11.3502L120.57,11.4972L120.693,11.645L120.815,11.7936L120.936,11.9428L121.056,12.0929L121.175,12.2436L121.293,12.3951L121.411,12.5473L121.527,12.7002L121.643,12.8539L121.757,13.0083L121.871,13.1633L121.984,13.3191L122.096,13.4756L122.207,13.6328L122.317,13.7907L122.427,13.9492L122.535,14.1085L122.642,14.2684L122.749,14.4291L122.854,14.5904L122.959,14.7523L123.062,14.915L123.165,15.0783L123.267,15.2422L123.367,15.4068L123.467,15.5721L123.566,15.738L123.664,15.9046L123.76,16.0718L123.856,16.2396L123.951,16.4081L124.045,16.5772L124.138,16.7469L124.23,16.9172L124.321,17.0882L124.41,17.2598L124.499,17.4319L124.587,17.6047L124.674,17.7781L124.76,17.9521L124.844,18.1267L124.928,18.3018L125.011,18.4776L125.093,18.6539L125.173,18.8308L125.253,19.0083L125.331,19.1864L125.409,19.365L125.485,19.5442L125.561,19.7239L125.635,19.9042L125.708,20.085L125.78,20.2664L125.851,20.4483L125.921,20.6308L125.99,20.8138L126.058,20.9973L126.125,21.1814L126.191,21.366L126.255,21.5511L126.319,21.7367L126.381,21.9228L126.442,22.1094L126.502,22.2965L126.561,22.4842L126.619,22.6723L126.676,22.8609L126.732,23.05L126.786,23.2396L126.839,23.4297L126.892,23.6202L126.943,23.8112L126.993,24.0027L127.041,24.1946L127.089,24.387L127.135,24.5799L127.181,24.7732L127.225,24.967L127.268,25.1612L127.309,25.3558L127.35,25.5509L127.389,25.7464L127.427,25.9423L127.464,26.1387L127.5,26.3355L127.535,26.5327L127.568,26.7303L127.6,26.9283L127.631,27.1267L127.661,27.3255L127.69,27.5248L127.717,27.7244L127.743,27.9244L127.768,28.1248L127.791,28.3255L127.814,28.5267L127.835,28.7282L127.855,28.9301L127.873,29.1323L127.891,29.3349L127.907,29.5379L127.922,29.7412L127.935,29.9449L127.947,30.1489L127.958,30.3533L127.968,30.558L127.977,30.763L127.984,30.9684L127.99,31.1741L127.994,31.3801L127.997,31.5864L127.999,31.793L128,32L128,96L127.999,96.207L127.997,96.4136L127.994,96.6199L127.99,96.8259L127.984,97.0316L127.977,97.237L127.968,97.442L127.958,97.6467L127.947,97.8511L127.935,98.0551L127.922,98.2588L127.907,98.4621L127.891,98.6651L127.873,98.8677L127.855,99.0699L127.835,99.2718L127.814,99.4733L127.791,99.6745L127.768,99.8752L127.743,100.076L127.717,100.276L127.69,100.475L127.661,100.674L127.631,100.873L127.6,101.072L127.568,101.27L127.535,101.467L127.5,101.665L127.464,101.861L127.427,102.058L127.389,102.254L127.35,102.449L127.309,102.644L127.268,102.839L127.225,103.033L127.181,103.227L127.135,103.42L127.089,103.613L127.041,103.805L126.993,103.997L126.943,104.189L126.892,104.38L126.839,104.57L126.786,104.76L126.732,104.95L126.676,105.139L126.619,105.328L126.561,105.516L126.502,105.703L126.442,105.891L126.381,106.077L126.319,106.263L126.255,106.449L126.191,106.634L126.125,106.819L126.058,107.003L125.99,107.186L125.921,107.369L125.851,107.552L125.78,107.734L125.708,107.915L125.635,108.096L125.561,108.276L125.485,108.456L125.409,108.635L125.331,108.814L125.253,108.992L125.173,109.169L125.093,109.346L125.011,109.522L124.928,109.698L124.844,109.873L124.76,110.048L124.674,110.222L124.587,110.395L124.499,110.568L124.41,110.74L124.321,110.912L124.23,111.083L124.138,111.253L124.045,111.423L123.951,111.592L123.856,111.76L123.76,111.928L123.664,112.095L123.566,112.262L123.467,112.428L123.367,112.593L123.267,112.758L123.165,112.922L123.062,113.085L122.959,113.248L122.854,113.41L122.749,113.571L122.642,113.732L122.535,113.892L122.427,114.051L122.317,114.209L122.207,114.367L122.096,114.524L121.984,114.681L121.871,114.837L121.757,114.992L121.643,115.146L121.527,115.3L121.411,115.453L121.293,115.605L121.175,115.756L121.056,115.907L120.936,116.057L120.815,116.206L120.693,116.355L120.57,116.503L120.446,116.65L120.322,116.796L120.197,116.942L120.071,117.086L119.944,117.23L119.816,117.374L119.687,117.516L119.557,117.658L119.427,117.799L119.296,117.939L119.164,118.078L119.031,118.217L118.897,118.354L118.763,118.491L118.627,118.627L118.491,118.763L118.354,118.897L118.217,119.031L118.078,119.164L117.939,119.296L117.799,119.427L117.658,119.557L117.516,119.687L117.374,119.816L117.23,119.944L117.086,120.071L116.942,120.197L116.796,120.322L116.65,120.446L116.503,120.57L116.355,120.693L116.206,120.815L116.057,120.936L115.907,121.056L115.756,121.175L115.605,121.293L115.453,121.411L115.3,121.527L115.146,121.643L114.992,121.757L114.837,121.871L114.681,121.984L114.524,122.096L114.367,122.207L114.209,122.317L114.051,122.427L113.892,122.535L113.732,122.642L113.571,122.749L113.41,122.854L113.248,122.959L113.085,123.062L112.922,123.165L112.758,123.267L112.593,123.367L112.428,123.467L112.262,123.566L112.095,123.664L111.928,123.76L111.76,123.856L111.592,123.951L111.423,124.045L111.253,124.138L111.083,124.23L110.912,124.321L110.74,124.41L110.568,124.499L110.395,124.587L110.222,124.674L110.048,124.76L109.873,124.844L109.698,124.928L109.522,125.011L109.346,125.093L109.169,125.173L108.992,125.253L108.814,125.331L108.635,125.409L108.456,125.485L108.276,125.561L108.096,125.635L107.915,125.708L107.734,125.78L107.552,125.851L107.369,125.921L107.186,125.99L107.003,126.058L106.819,126.125L106.634,126.191L106.449,126.255L106.263,126.319L106.077,126.381L105.891,126.442L105.703,126.502L105.516,126.561L105.328,126.619L105.139,126.676L104.95,126.732L104.76,126.786L104.57,126.839L104.38,126.892L104.189,126.943L103.997,126.993L103.805,127.041L103.613,127.089L103.42,127.135L103.227,127.181L103.033,127.225L102.839,127.268L102.644,127.309L102.449,127.35L102.254,127.389L102.058,127.427L101.861,127.464L101.665,127.5L101.467,127.535L101.27,127.568L101.072,127.6L100.873,127.631L100.674,127.661L100.475,127.69L100.276,127.717L100.076,127.743L99.8752,127.768L99.6745,127.791L99.4733,127.814L99.2718,127.835L99.0699,127.855L98.8677,127.873L98.6651,127.891L98.4621,127.907L98.2588,127.922L98.0551,127.935L97.8511,127.947L97.6467,127.958L97.442,127.968L97.237,127.977L97.0316,127.984L96.8259,127.99L96.6199,127.994L96.4136,127.997L96.207,127.999L96,128L32,128ZM32.0126,120L95.9874,120L96.1564,119.999L96.3121,119.998L96.4679,119.996L96.6234,119.992L96.7785,119.988L96.9331,119.982L97.0875,119.976L97.2417,119.969L97.3956,119.96L97.5491,119.951L97.7021,119.941L97.8552,119.93L98.0077,119.918L98.1601,119.905L98.312,119.891L98.4634,119.876L98.6148,119.86L98.766,119.843L98.9165,119.825L99.0667,119.807L99.217,119.787L99.3665,119.767L99.5158,119.745L99.6649,119.723L99.8137,119.7L99.962,119.676L100.11,119.651L100.258,119.625L100.405,119.598L100.552,119.57L100.699,119.542L100.845,119.512L100.991,119.482L101.137,119.451L101.282,119.419L101.427,119.386L101.572,119.352L101.716,119.317L101.86,119.281L102.004,119.245L102.147,119.207L102.29,119.169L102.433,119.13L102.575,119.09L102.716,119.05L102.858,119.008L102.999,118.966L103.14,118.922L103.28,118.878L103.42,118.833L103.56,118.787L103.699,118.741L103.838,118.693L103.976,118.645L104.114,118.596L104.252,118.546L104.389,118.495L104.526,118.444L104.663,118.391L104.799,118.338L104.935,118.284L105.07,118.229L105.205,118.174L105.34,118.117L105.473,118.06L105.607,118.002L105.74,117.943L105.873,117.884L106.006,117.823L106.138,117.762L106.269,117.7L106.401,117.637L106.531,117.574L106.662,117.51L106.792,117.445L106.921,117.379L107.05,117.312L107.179,117.245L107.307,117.177L107.434,117.108L107.561,117.038L107.688,116.968L107.815,116.897L107.94,116.825L108.066,116.753L108.191,116.679L108.315,116.605L108.439,116.53L108.563,116.455L108.685,116.379L108.808,116.302L108.93,116.224L109.051,116.145L109.172,116.066L109.293,115.986L109.413,115.906L109.533,115.825L109.652,115.743L109.77,115.66L109.888,115.577L110.006,115.492L110.123,115.408L110.239,115.322L110.355,115.236L110.47,115.149L110.585,115.062L110.7,114.973L110.813,114.885L110.926,114.795L111.039,114.705L111.151,114.614L111.263,114.523L111.374,114.43L111.484,114.338L111.594,114.244L111.704,114.15L111.812,114.055L111.921,113.96L112.028,113.864L112.135,113.767L112.242,113.669L112.348,113.572L112.453,113.473L112.558,113.374L112.662,113.274L112.765,113.173L112.868,113.072L112.971,112.971L113.072,112.868L113.173,112.765L113.274,112.662L113.374,112.558L113.473,112.453L113.572,112.348L113.669,112.242L113.767,112.135L113.864,112.028L113.96,111.921L114.055,111.812L114.15,111.704L114.244,111.594L114.338,111.484L114.43,111.374L114.523,111.263L114.614,111.151L114.705,111.039L114.795,110.926L114.885,110.813L114.973,110.7L115.062,110.585L115.149,110.47L115.236,110.355L115.322,110.239L115.408,110.123L115.492,110.006L115.577,109.888L115.66,109.77L115.743,109.652L115.825,109.533L115.906,109.413L115.986,109.293L116.066,109.172L116.145,109.051L116.224,108.93L116.302,108.808L116.379,108.685L116.455,108.563L116.53,108.439L116.605,108.315L116.679,108.191L116.753,108.066L116.825,107.94L116.897,107.815L116.968,107.688L117.038,107.561L117.108,107.434L117.177,107.307L117.245,107.179L117.312,107.05L117.379,106.921L117.445,106.792L117.51,106.662L117.574,106.531L117.637,106.401L117.7,106.269L117.762,106.138L117.823,106.006L117.884,105.873L117.943,105.74L118.002,105.607L118.06,105.473L118.117,105.34L118.174,105.205L118.229,105.07L118.284,104.935L118.338,104.799L118.391,104.663L118.444,104.526L118.495,104.389L118.546,104.252L118.596,104.114L118.645,103.976L118.693,103.838L118.741,103.699L118.787,103.56L118.833,103.42L118.878,103.28L118.922,103.14L118.966,102.999L119.008,102.858L119.05,102.716L119.09,102.575L119.13,102.433L119.169,102.29L119.207,102.147L119.245,102.004L119.281,101.86L119.317,101.716L119.352,101.572L119.386,101.427L119.419,101.282L119.451,101.137L119.482,100.991L119.512,100.845L119.542,100.699L119.57,100.552L119.598,100.405L119.625,100.258L119.651,100.11L119.676,99.962L119.7,99.8137L119.723,99.6649L119.745,99.5158L119.767,99.3665L119.787,99.217L119.807,99.0667L119.825,98.9165L119.843,98.766L119.86,98.6148L119.876,98.4634L119.891,98.312L119.905,98.1601L119.918,98.0077L119.93,97.8552L119.941,97.7021L119.951,97.5491L119.96,97.3956L119.969,97.2417L119.976,97.0875L119.982,96.9331L119.988,96.7785L119.992,96.6234L119.996,96.4679L119.998,96.3121L119.999,96.1564L120,95.9874L120,32.0126L119.999,31.8436L119.998,31.6879L119.996,31.5321L119.992,31.3766L119.988,31.2215L119.982,31.0669L119.976,30.9125L119.969,30.7584L119.96,30.6044L119.951,30.4509L119.941,30.2979L119.93,30.1448L119.918,29.9923L119.905,29.8399L119.891,29.688L119.876,29.5366L119.86,29.3852L119.843,29.234L119.825,29.0835L119.807,28.9333L119.787,28.783L119.767,28.6335L119.745,28.4842L119.723,28.3351L119.7,28.1863L119.676,28.038L119.651,27.8899L119.625,27.742L119.598,27.5949L119.57,27.448L119.542,27.3011L119.512,27.1547L119.482,27.0086L119.451,26.8629L119.419,26.7178L119.386,26.5726L119.352,26.428L119.317,26.2836L119.281,26.1397L119.245,25.9961L119.207,25.8528L119.169,25.7099L119.13,25.5673L119.09,25.4253L119.05,25.2835L119.008,25.142L118.966,25.001L118.922,24.86L118.878,24.7198L118.833,24.5799L118.787,24.4403L118.741,24.3011L118.693,24.1621L118.645,24.0236L118.596,23.8856L118.546,23.7479L118.495,23.6107L118.444,23.4739L118.391,23.3371L118.338,23.2011L118.284,23.0654L118.229,22.93L118.174,22.795L118.117,22.6605L118.06,22.5265L118.002,22.3929L117.943,22.2596L117.884,22.1266L117.823,21.9942L117.762,21.8621L117.7,21.7306L117.637,21.5994L117.574,21.4686L117.51,21.3382L117.445,21.2085L117.379,21.0792L117.312,20.9498L117.245,20.8214L117.177,20.6934L117.108,20.5656L117.038,20.4385L116.968,20.3118L116.897,20.1855L116.825,20.0596L116.752,19.9341L116.679,19.8094L116.605,19.6851L116.53,19.561L116.455,19.4375L116.379,19.3146L116.302,19.1922L116.224,19.0702L116.145,18.9485L116.066,18.8274L115.986,18.707L115.906,18.587L115.825,18.4674L115.743,18.3485L115.66,18.2298L115.577,18.1119L115.493,17.9945L115.408,17.8773L115.322,17.761L115.236,17.6451L115.149,17.5298L115.062,17.4149L114.973,17.3004L114.885,17.1868L114.795,17.0736L114.705,16.9609L114.614,16.8488L114.523,16.7371L114.43,16.626L114.338,16.5156L114.244,16.4057L114.15,16.2963L114.055,16.1875L113.96,16.0794L113.864,15.9718L113.767,15.8647L113.669,15.7582L113.572,15.6524L113.473,15.5469L113.374,15.4423L113.274,15.3383L113.173,15.2346L113.072,15.1318L112.971,15.0295L112.868,14.9277L112.765,14.8266L112.662,14.7263L112.558,14.6263L112.453,14.527L112.348,14.4285L112.242,14.3306L112.135,14.2332L112.028,14.1364L111.921,14.0404L111.812,13.9449L111.704,13.8502L111.594,13.7561L111.484,13.6624L111.374,13.5696L111.263,13.4774L111.151,13.386L111.039,13.2951L110.926,13.2048L110.813,13.1153L110.7,13.0265L110.585,12.9382L110.47,12.8507L110.355,12.7639L110.239,12.6777L110.123,12.5923L110.006,12.5076L109.888,12.4235L109.77,12.34L109.652,12.2574L109.533,12.1754L109.413,12.0941L109.293,12.0135L109.172,11.9337L109.051,11.8545L108.93,11.7762L108.808,11.6984L108.685,11.6215L108.562,11.5452L108.439,11.4696L108.315,11.3949L108.191,11.3208L108.066,11.2474L107.94,11.1749L107.815,11.1031L107.688,11.0319L107.561,10.9616L107.434,10.892L107.307,10.8231L107.179,10.7551L107.05,10.6877L106.921,10.6211L106.792,10.5554L106.662,10.4903L106.531,10.426L106.401,10.3626L106.269,10.2998L106.138,10.2379L106.006,10.1768L105.873,10.1164L105.741,10.0568L105.607,9.99799L105.473,9.93998L105.339,9.88279L105.205,9.82638L105.07,9.7708L104.935,9.71596L104.799,9.66196L104.663,9.60878L104.526,9.55638L104.389,9.5048L104.252,9.45406L104.114,9.40413L103.976,9.35501L103.838,9.3067L103.699,9.25924L103.56,9.21262L103.42,9.16682L103.28,9.12185L103.14,9.07771L102.999,9.03445L102.858,8.992L102.717,8.95037L102.575,8.90962L102.433,8.86973L102.29,8.83069L102.147,8.79249L102.004,8.75515L101.86,8.71869L101.716,8.68308L101.572,8.64834L101.427,8.61447L101.282,8.58148L101.137,8.54935L100.991,8.51811L100.845,8.48776L100.699,8.45829L100.552,8.42969L100.405,8.40199L100.258,8.3752L100.11,8.34929L99.962,8.32428L99.8136,8.30017L99.6649,8.27697L99.5159,8.25468L99.3665,8.23329L99.2168,8.21283L99.0668,8.19328L98.9165,8.17465L98.7658,8.15694L98.6148,8.14016L98.4635,8.12432L98.3119,8.1094L98.16,8.09542L98.0077,8.08239L97.8551,8.07029L97.7023,8.05914L97.5491,8.04895L97.3955,8.03971L97.2417,8.03142L97.0876,8.0241L96.9331,8.01774L96.7784,8.01235L96.6233,8.00793L96.468,8.00448L96.3123,8.00202L96.1563,8.00053L95.9873,8L32.0127,8L31.8437,8.00053L31.6877,8.00202L31.532,8.00448L31.3767,8.00793L31.2216,8.01235L31.0669,8.01774L30.9124,8.0241L30.7583,8.03142L30.6045,8.03971L30.4509,8.04895L30.2977,8.05914L30.1449,8.07029L29.9923,8.08239L29.84,8.09542L29.6881,8.1094L29.5365,8.12432L29.3852,8.14016L29.2342,8.15694L29.0835,8.17465L28.9332,8.19328L28.7832,8.21283L28.6335,8.23329L28.4841,8.25468L28.3351,8.27697L28.1864,8.30017L28.038,8.32428L27.8899,8.34929L27.7422,8.37519L27.5948,8.402L27.4478,8.42969L27.3011,8.45828L27.1547,8.48776L27.0086,8.51812L26.863,8.54936L26.7176,8.58148L26.5726,8.61447L26.428,8.64834L26.2837,8.68308L26.1397,8.71869L25.9961,8.75516L25.8528,8.79249L25.7099,8.83068L25.5674,8.86973L25.4252,8.90963L25.2834,8.95038L25.142,8.99199L25.0009,9.03443L24.8602,9.07772L24.7198,9.12185L24.5799,9.16681L24.4402,9.21262L24.301,9.25925L24.1622,9.30672L24.0237,9.35501L23.8856,9.40412L23.7479,9.45406L23.6106,9.50481L23.4737,9.55638L23.3372,9.60876L23.2011,9.66196L23.0653,9.71596L22.93,9.77077L22.7951,9.82638L22.6606,9.88279L22.5265,9.94L22.3928,9.998L22.2595,10.0568L22.1266,10.1164L21.9942,10.1768L21.8621,10.2379L21.7305,10.2998L21.5994,10.3626L21.4686,10.4261L21.3383,10.4903L21.2084,10.5553L21.079,10.6212L20.95,10.6877L20.8214,10.7551L20.6933,10.8231L20.5657,10.892L20.4385,10.9616L20.3117,11.0319L20.1854,11.103L20.0596,11.1749L19.9343,11.2475L19.8094,11.3208L19.685,11.3949L19.561,11.4696L19.4376,11.5452L19.3146,11.6214L19.1921,11.6984L19.0701,11.7761L18.9486,11.8546L18.8275,11.9337L18.707,12.0136L18.587,12.0941L18.4674,12.1754L18.3484,12.2574L18.2299,12.3401L18.1119,12.4234L17.9944,12.5075L17.8775,12.5923L17.761,12.6777L17.6451,12.7639L17.5297,12.8507L17.4149,12.9382L17.3005,13.0264L17.1868,13.1153L17.0735,13.2048L16.9608,13.295L16.8487,13.3859L16.7371,13.4774L16.6261,13.5696L16.5156,13.6625L16.4057,13.756L16.2963,13.8501L16.1876,13.9449L16.0794,14.0404L15.9717,14.1364L15.8647,14.2332L15.7582,14.3305L15.6523,14.4285L15.547,14.5271L15.4423,14.6263L15.3382,14.7262L15.2347,14.8267L15.1318,14.9278L15.0295,15.0295L14.9278,15.1318L14.8267,15.2347L14.7262,15.3382L14.6263,15.4423L14.5271,15.547L14.4285,15.6523L14.3305,15.7582L14.2332,15.8647L14.1364,15.9717L14.0404,16.0794L13.9449,16.1876L13.8501,16.2963L13.756,16.4057L13.6625,16.5156L13.5696,16.6261L13.4774,16.7371L13.3859,16.8487L13.295,16.9608L13.2048,17.0735L13.1153,17.1868L13.0264,17.3005L12.9382,17.4149L12.8507,17.5297L12.7639,17.6451L12.6777,17.761L12.5923,17.8775L12.5075,17.9944L12.4234,18.1119L12.3401,18.2299L12.2574,18.3484L12.1754,18.4674L12.0941,18.587L12.0136,18.707L11.9337,18.8275L11.8546,18.9486L11.7761,19.0701L11.6984,19.1921L11.6214,19.3146L11.5452,19.4376L11.4696,19.561L11.3949,19.685L11.3208,19.8094L11.2475,19.9343L11.1749,20.0596L11.103,20.1854L11.0319,20.3117L10.9616,20.4385L10.892,20.5657L10.8231,20.6933L10.7551,20.8214L10.6877,20.95L10.6212,21.079L10.5553,21.2084L10.4903,21.3383L10.4261,21.4686L10.3626,21.5994L10.2998,21.7305L10.2379,21.8621L10.1768,21.9942L10.1164,22.1266L10.0568,22.2595L9.998,22.3928L9.94,22.5265L9.88279,22.6606L9.82638,22.7951L9.77077,22.93L9.71596,23.0653L9.66196,23.2011L9.60876,23.3372L9.55638,23.4737L9.50481,23.6106L9.45406,23.7479L9.40412,23.8856L9.35501,24.0237L9.30672,24.1622L9.25925,24.301L9.21262,24.4402L9.16681,24.5799L9.12185,24.7198L9.07772,24.8602L9.03443,25.0009L8.99199,25.142L8.95038,25.2834L8.90963,25.4252L8.86973,25.5674L8.83068,25.7099L8.79249,25.8528L8.75516,25.9961L8.71869,26.1397L8.68308,26.2837L8.64834,26.428L8.61447,26.5726L8.58148,26.7176L8.54936,26.863L8.51812,27.0086L8.48776,27.1547L8.45828,27.3011L8.42969,27.4478L8.402,27.5948L8.37519,27.7422L8.34929,27.8899L8.32428,28.038L8.30017,28.1864L8.27697,28.3351L8.25468,28.4841L8.23329,28.6335L8.21283,28.7832L8.19328,28.9332L8.17465,29.0835L8.15694,29.2342L8.14016,29.3852L8.12432,29.5365L8.1094,29.6881L8.09542,29.84L8.08239,29.9923L8.07029,30.1449L8.05914,30.2977L8.04895,30.4509L8.03971,30.6045L8.03142,30.7583L8.0241,30.9124L8.01774,31.0669L8.01235,31.2216L8.00793,31.3767L8.00448,31.532L8.00202,31.6877L8.00053,31.8437L8,32.0127L8,95.9873L8.00053,96.1563L8.00202,96.3123L8.00448,96.468L8.00793,96.6233L8.01235,96.7784L8.01774,96.9331L8.0241,97.0876L8.03142,97.2417L8.03971,97.3955L8.04895,97.5491L8.05914,97.7023L8.07029,97.8551L8.08239,98.0077L8.09542,98.16L8.1094,98.3119L8.12432,98.4635L8.14016,98.6148L8.15694,98.7658L8.17465,98.9165L8.19328,99.0668L8.21283,99.2168L8.23329,99.3665L8.25468,99.5159L8.27697,99.6649L8.30017,99.8136L8.32428,99.962L8.34929,100.11L8.3752,100.258L8.40199,100.405L8.42969,100.552L8.45829,100.699L8.48776,100.845L8.51811,100.991L8.54935,101.137L8.58148,101.282L8.61447,101.427L8.64834,101.572L8.68308,101.716L8.71869,101.86L8.75515,102.004L8.79249,102.147L8.83069,102.29L8.86973,102.433L8.90962,102.575L8.95037,102.717L8.992,102.858L9.03445,102.999L9.07771,103.14L9.12185,103.28L9.16682,103.42L9.21262,103.56L9.25924,103.699L9.3067,103.838L9.35501,103.976L9.40413,104.114L9.45406,104.252L9.5048,104.389L9.55638,104.526L9.60878,104.663L9.66196,104.799L9.71596,104.935L9.7708,105.07L9.82638,105.205L9.88279,105.339L9.93998,105.473L9.99799,105.607L10.0568,105.741L10.1164,105.873L10.1768,106.006L10.2379,106.138L10.2998,106.269L10.3626,106.401L10.426,106.531L10.4903,106.662L10.5554,106.792L10.6211,106.921L10.6877,107.05L10.7551,107.179L10.8231,107.307L10.892,107.434L10.9616,107.561L11.0319,107.688L11.1031,107.815L11.1749,107.94L11.2474,108.066L11.3208,108.191L11.3949,108.315L11.4696,108.439L11.5452,108.562L11.6215,108.685L11.6984,108.808L11.7762,108.93L11.8545,109.051L11.9337,109.172L12.0135,109.293L12.0941,109.413L12.1754,109.533L12.2574,109.652L12.34,109.77L12.4235,109.888L12.5076,110.006L12.5923,110.123L12.6777,110.239L12.7639,110.355L12.8507,110.47L12.9382,110.585L13.0265,110.7L13.1153,110.813L13.2048,110.926L13.2951,111.039L13.386,111.151L13.4774,111.263L13.5696,111.374L13.6624,111.484L13.7561,111.594L13.8502,111.704L13.9449,111.812L14.0404,111.921L14.1364,112.028L14.2332,112.135L14.3306,112.242L14.4285,112.348L14.527,112.453L14.6263,112.558L14.7263,112.662L14.8266,112.765L14.9277,112.868L15.0295,112.971L15.1318,113.072L15.2346,113.173L15.3383,113.274L15.4423,113.374L15.5469,113.473L15.6524,113.572L15.7582,113.669L15.8647,113.767L15.9718,113.864L16.0794,113.96L16.1875,114.055L16.2963,114.15L16.4057,114.244L16.5156,114.338L16.626,114.43L16.7371,114.523L16.8488,114.614L16.9609,114.705L17.0736,114.795L17.1868,114.885L17.3004,114.973L17.4149,115.062L17.5298,115.149L17.6451,115.236L17.761,115.322L17.8773,115.408L17.9945,115.493L18.1119,115.577L18.2298,115.66L18.3485,115.743L18.4674,115.825L18.587,115.906L18.707,115.986L18.8274,116.066L18.9485,116.145L19.0702,116.224L19.1922,116.302L19.3146,116.379L19.4375,116.455L19.561,116.53L19.6851,116.605L19.8094,116.679L19.9341,116.752L20.0596,116.825L20.1855,116.897L20.3118,116.968L20.4385,117.038L20.5656,117.108L20.6934,117.177L20.8214,117.245L20.9498,117.312L21.0792,117.379L21.2085,117.445L21.3382,117.51L21.4686,117.574L21.5994,117.637L21.7306,117.7L21.8621,117.762L21.9942,117.823L22.1266,117.884L22.2596,117.943L22.3929,118.002L22.5265,118.06L22.6605,118.117L22.795,118.174L22.93,118.229L23.0654,118.284L23.2011,118.338L23.3371,118.391L23.4739,118.444L23.6107,118.495L23.7479,118.546L23.8856,118.596L24.0236,118.645L24.1621,118.693L24.3011,118.741L24.4403,118.787L24.5799,118.833L24.7198,118.878L24.86,118.922L25.001,118.966L25.142,119.008L25.2835,119.05L25.4253,119.09L25.5673,119.13L25.7099,119.169L25.8528,119.207L25.9961,119.245L26.1397,119.281L26.2836,119.317L26.428,119.352L26.5726,119.386L26.7178,119.419L26.8629,119.451L27.0086,119.482L27.1547,119.512L27.3011,119.542L27.448,119.57L27.5949,119.598L27.742,119.625L27.8899,119.651L28.038,119.676L28.1863,119.7L28.3351,119.723L28.4842,119.745L28.6335,119.767L28.783,119.787L28.9333,119.807L29.0835,119.825L29.234,119.843L29.3852,119.86L29.5366,119.876L29.688,119.891L29.8399,119.905L29.9923,119.918L30.1448,119.93L30.2979,119.941L30.4509,119.951L30.6044,119.96L30.7584,119.969L30.9125,119.976L31.0669,119.982L31.2215,119.988L31.3766,119.992L31.5321,119.996L31.6879,119.998L31.8436,119.999L32.0126,120Z" style="fill:rgb(102,102,102);"/>
            </g>
        </g>
    </g>
</svg>
