<?xml version="1.0" standalone="no"?>
<!DOCTYPE svg PUBLIC "-//W3C//DTD SVG 1.1//EN" "http://www.w3.org/Graphics/SVG/1.1/DTD/svg11.dtd">
<svg width="100%" height="100%" viewBox="0 0 128 128" version="1.1" xmlns="http://www.w3.org/2000/svg" xmlns:xlink="http://www.w3.org/1999/xlink" xml:space="preserve" style="fill-rule:evenodd;clip-rule:evenodd;stroke-linejoin:round;stroke-miterlimit:1.41421;">
    <g id="Me Merge GRAIN EXTRACT">
        <g>
            <path d="M121.23,63.986C121.23,95.593 95.608,121.215 64,121.215C32.394,121.215 6.772,95.593 6.772,63.986C6.772,32.379 32.394,6.757 64,6.757C95.608,6.757 121.23,32.379 121.23,63.986" style="fill:rgb(102,102,102);fill-rule:nonzero;"/>
            <path d="M64,126.215L63.599,126.214L63.197,126.21L62.797,126.204L62.397,126.195L61.997,126.184L61.598,126.17L61.2,126.153L60.802,126.134L60.405,126.113L60.009,126.089L59.613,126.063L59.218,126.034L58.823,126.003L58.43,125.969L58.036,125.933L57.644,125.894L57.252,125.853L56.861,125.81L56.471,125.764L56.081,125.716L55.692,125.665L55.304,125.612L54.916,125.556L54.53,125.499L54.144,125.438L53.759,125.376L53.374,125.311L52.991,125.244L52.608,125.174L52.226,125.102L51.845,125.028L51.464,124.951L51.085,124.872L50.706,124.791L50.328,124.708L49.951,124.622L49.575,124.534L49.2,124.443L48.826,124.351L48.452,124.256L48.08,124.159L47.708,124.059L47.337,123.958L46.967,123.854L46.598,123.748L46.23,123.64L45.863,123.529L45.497,123.417L45.132,123.302L44.768,123.185L44.405,123.066L44.043,122.945L43.682,122.821L43.321,122.696L42.962,122.568L42.604,122.438L42.247,122.306L41.891,122.172L41.536,122.036L41.182,121.897L40.829,121.757L40.477,121.614L40.126,121.47L39.777,121.323L39.428,121.174L39.08,121.024L38.734,120.871L38.389,120.716L38.045,120.559L37.701,120.4L37.36,120.239L37.019,120.076L36.679,119.911L36.341,119.745L36.004,119.576L35.667,119.405L35.332,119.232L34.999,119.057L34.666,118.88L34.335,118.702L34.005,118.521L33.676,118.339L33.348,118.154L33.022,117.968L32.697,117.779L32.373,117.589L32.05,117.397L31.729,117.203L31.409,117.007L31.09,116.81L30.772,116.61L30.456,116.409L30.141,116.205L29.827,116L29.515,115.793L29.204,115.585L28.894,115.374L28.586,115.162L28.279,114.948L27.974,114.732L27.669,114.514L27.366,114.294L27.065,114.073L26.765,113.85L26.466,113.625L26.169,113.399L25.873,113.171L25.578,112.941L25.285,112.709L24.994,112.475L24.704,112.24L24.415,112.003L24.128,111.765L23.842,111.525L23.557,111.283L23.275,111.039L22.993,110.794L22.713,110.547L22.435,110.299L22.158,110.048L21.883,109.797L21.609,109.543L21.336,109.288L21.066,109.032L20.796,108.773L20.529,108.513L20.262,108.252L19.998,107.989L19.735,107.724L19.473,107.458L19.214,107.191L18.955,106.921L18.699,106.65L18.444,106.378L18.19,106.104L17.938,105.829L17.688,105.552L17.44,105.274L17.193,104.994L16.948,104.712L16.704,104.429L16.462,104.145L16.222,103.859L15.983,103.572L15.747,103.283L15.511,102.993L15.278,102.701L15.046,102.408L14.816,102.114L14.588,101.818L14.361,101.521L14.137,101.222L13.914,100.922L13.692,100.62L13.473,100.318L13.255,100.013L13.039,99.708L12.825,99.401L12.613,99.092L12.402,98.783L12.193,98.472L11.986,98.159L11.781,97.846L11.578,97.531L11.377,97.215L11.177,96.897L10.979,96.578L10.784,96.258L10.59,95.937L10.398,95.614L10.207,95.29L10.019,94.965L9.833,94.639L9.648,94.311L9.466,93.982L9.285,93.652L9.106,93.321L8.93,92.988L8.755,92.654L8.582,92.319L8.411,91.983L8.242,91.646L8.075,91.308L7.91,90.968L7.748,90.627L7.587,90.285L7.428,89.942L7.271,89.598L7.116,89.253L6.963,88.906L6.812,88.559L6.664,88.21L6.517,87.861L6.373,87.51L6.23,87.158L6.09,86.805L5.951,86.451L5.815,86.096L5.681,85.74L5.549,85.383L5.419,85.025L5.291,84.665L5.166,84.305L5.042,83.944L4.921,83.582L4.802,83.219L4.685,82.855L4.57,82.49L4.457,82.123L4.347,81.756L4.239,81.388L4.133,81.02L4.029,80.65L3.927,80.279L3.828,79.907L3.731,79.535L3.636,79.161L3.543,78.787L3.453,78.412L3.365,78.035L3.279,77.658L3.196,77.281L3.115,76.902L3.036,76.522L2.959,76.142L2.885,75.761L2.813,75.379L2.743,74.996L2.676,74.612L2.611,74.228L2.548,73.843L2.488,73.457L2.43,73.07L2.375,72.683L2.322,72.295L2.271,71.906L2.223,71.516L2.177,71.126L2.134,70.735L2.093,70.343L2.054,69.95L2.018,69.557L1.984,69.163L1.953,68.769L1.924,68.374L1.898,67.978L1.874,67.582L1.852,67.184L1.833,66.787L1.817,66.388L1.803,65.99L1.792,65.59L1.783,65.19L1.777,64.789L1.773,64.388L1.771,63.986L1.773,63.585L1.777,63.183L1.783,62.783L1.792,62.383L1.803,61.983L1.817,61.584L1.833,61.186L1.852,60.788L1.874,60.391L1.898,59.995L1.924,59.599L1.953,59.204L1.984,58.809L2.018,58.415L2.054,58.022L2.093,57.63L2.134,57.238L2.177,56.847L2.223,56.457L2.271,56.067L2.322,55.678L2.375,55.29L2.43,54.902L2.488,54.516L2.548,54.13L2.611,53.745L2.676,53.36L2.743,52.977L2.813,52.594L2.885,52.212L2.959,51.831L3.036,51.45L3.115,51.071L3.196,50.692L3.279,50.314L3.365,49.937L3.453,49.561L3.543,49.186L3.636,48.811L3.731,48.438L3.828,48.065L3.927,47.694L4.029,47.323L4.133,46.953L4.239,46.584L4.347,46.216L4.457,45.849L4.57,45.483L4.685,45.118L4.802,44.754L4.921,44.391L5.042,44.028L5.166,43.667L5.291,43.307L5.419,42.948L5.549,42.59L5.681,42.233L5.815,41.877L5.951,41.522L6.09,41.168L6.23,40.815L6.373,40.463L6.517,40.112L6.664,39.762L6.812,39.414L6.963,39.066L7.116,38.72L7.271,38.374L7.428,38.03L7.587,37.687L7.748,37.345L7.91,37.005L8.075,36.665L8.242,36.327L8.411,35.989L8.582,35.653L8.755,35.318L8.93,34.985L9.106,34.652L9.285,34.321L9.466,33.991L9.648,33.662L9.833,33.334L10.019,33.008L10.207,32.682L10.398,32.359L10.59,32.036L10.784,31.714L10.979,31.394L11.177,31.076L11.377,30.758L11.578,30.442L11.781,30.127L11.986,29.813L12.193,29.501L12.402,29.19L12.613,28.88L12.825,28.572L13.039,28.265L13.255,27.959L13.473,27.655L13.692,27.352L13.914,27.051L14.137,26.751L14.361,26.452L14.588,26.155L14.816,25.859L15.046,25.564L15.278,25.271L15.511,24.98L15.747,24.689L15.983,24.401L16.222,24.113L16.462,23.828L16.704,23.543L16.948,23.26L17.193,22.979L17.44,22.699L17.688,22.421L17.938,22.144L18.19,21.868L18.444,21.594L18.699,21.322L18.955,21.051L19.214,20.782L19.473,20.514L19.735,20.248L19.998,19.984L20.262,19.721L20.529,19.459L20.796,19.199L21.066,18.941L21.336,18.684L21.609,18.429L21.883,18.176L22.158,17.924L22.435,17.674L22.713,17.425L22.993,17.179L23.275,16.933L23.557,16.69L23.842,16.448L24.128,16.208L24.415,15.969L24.704,15.732L24.994,15.497L25.285,15.264L25.578,15.032L25.873,14.802L26.169,14.574L26.466,14.347L26.765,14.122L27.065,13.899L27.366,13.678L27.669,13.459L27.974,13.241L28.279,13.025L28.586,12.811L28.894,12.598L29.204,12.388L29.515,12.179L29.827,11.972L30.141,11.767L30.456,11.564L30.772,11.362L31.09,11.163L31.409,10.965L31.729,10.769L32.05,10.575L32.373,10.383L32.697,10.193L33.022,10.005L33.348,9.819L33.676,9.634L34.005,9.451L34.335,9.271L34.666,9.092L34.999,8.915L35.332,8.741L35.667,8.568L36.003,8.397L36.341,8.228L36.679,8.061L37.019,7.896L37.36,7.733L37.701,7.572L38.045,7.414L38.389,7.257L38.734,7.102L39.08,6.949L39.428,6.798L39.777,6.65L40.126,6.503L40.477,6.358L40.829,6.216L41.182,6.075L41.536,5.937L41.891,5.801L42.247,5.667L42.604,5.535L42.962,5.405L43.321,5.277L43.681,5.151L44.043,5.028L44.405,4.907L44.768,4.788L45.132,4.671L45.497,4.556L45.863,4.443L46.23,4.333L46.598,4.224L46.967,4.118L47.337,4.015L47.708,3.913L48.08,3.814L48.452,3.717L48.826,3.622L49.2,3.529L49.575,3.439L49.951,3.351L50.328,3.265L50.706,3.182L51.085,3.1L51.464,3.021L51.845,2.945L52.226,2.871L52.608,2.799L52.991,2.729L53.374,2.662L53.759,2.597L54.144,2.534L54.53,2.474L54.917,2.416L55.304,2.361L55.692,2.308L56.081,2.257L56.471,2.209L56.861,2.163L57.252,2.119L57.644,2.078L58.036,2.04L58.43,2.004L58.823,1.97L59.218,1.939L59.613,1.91L60.009,1.883L60.405,1.86L60.802,1.838L61.2,1.819L61.598,1.803L61.997,1.789L62.397,1.778L62.797,1.769L63.197,1.762L63.599,1.759L64,1.757L64.402,1.759L64.804,1.762L65.204,1.769L65.604,1.778L66.004,1.789L66.403,1.803L66.801,1.819L67.199,1.838L67.596,1.86L67.992,1.883L68.388,1.91L68.783,1.939L69.178,1.97L69.571,2.004L69.965,2.04L70.357,2.078L70.749,2.119L71.14,2.163L71.53,2.209L71.92,2.257L72.309,2.308L72.697,2.361L73.084,2.416L73.471,2.474L73.857,2.534L74.242,2.597L74.627,2.662L75.01,2.729L75.393,2.799L75.775,2.871L76.156,2.945L76.537,3.021L76.916,3.1L77.295,3.182L77.673,3.265L78.05,3.351L78.426,3.439L78.801,3.529L79.175,3.622L79.549,3.717L79.921,3.814L80.293,3.913L80.664,4.015L81.034,4.118L81.403,4.224L81.771,4.333L82.138,4.443L82.504,4.556L82.869,4.671L83.233,4.788L83.596,4.907L83.958,5.028L84.32,5.151L84.68,5.277L85.039,5.405L85.397,5.535L85.754,5.667L86.11,5.801L86.465,5.937L86.819,6.075L87.172,6.216L87.524,6.358L87.875,6.503L88.224,6.65L88.573,6.798L88.921,6.949L89.267,7.102L89.612,7.257L89.956,7.414L90.3,7.572L90.641,7.733L90.982,7.896L91.322,8.061L91.66,8.228L91.997,8.397L92.334,8.568L92.669,8.741L93.002,8.915L93.335,9.092L93.666,9.271L93.996,9.451L94.325,9.634L94.653,9.819L94.979,10.005L95.304,10.193L95.628,10.383L95.951,10.575L96.272,10.769L96.592,10.965L96.911,11.163L97.229,11.362L97.545,11.564L97.86,11.767L98.174,11.972L98.486,12.179L98.797,12.388L99.107,12.598L99.415,12.811L99.722,13.025L100.027,13.241L100.332,13.459L100.635,13.678L100.936,13.899L101.236,14.122L101.535,14.347L101.832,14.574L102.128,14.802L102.423,15.032L102.716,15.264L103.007,15.497L103.297,15.732L103.586,15.969L103.873,16.208L104.159,16.448L104.444,16.69L104.726,16.933L105.008,17.179L105.288,17.425L105.566,17.674L105.843,17.924L106.118,18.176L106.392,18.429L106.665,18.684L106.935,18.941L107.205,19.199L107.472,19.459L107.739,19.721L108.003,19.984L108.266,20.248L108.528,20.514L108.787,20.782L109.046,21.051L109.302,21.322L109.557,21.594L109.811,21.868L110.063,22.144L110.313,22.421L110.561,22.699L110.808,22.979L111.053,23.26L111.297,23.543L111.539,23.828L111.779,24.113L112.018,24.401L112.255,24.689L112.49,24.98L112.723,25.271L112.955,25.564L113.185,25.859L113.413,26.155L113.64,26.452L113.864,26.751L114.087,27.051L114.309,27.352L114.528,27.655L114.746,27.959L114.962,28.265L115.176,28.572L115.388,28.88L115.599,29.19L115.808,29.501L116.015,29.813L116.22,30.127L116.423,30.442L116.624,30.758L116.824,31.076L117.022,31.394L117.217,31.714L117.411,32.036L117.603,32.359L117.794,32.682L117.982,33.008L118.168,33.334L118.353,33.662L118.535,33.991L118.716,34.321L118.895,34.652L119.071,34.985L119.246,35.318L119.419,35.653L119.59,35.989L119.759,36.327L119.926,36.665L120.091,37.005L120.253,37.345L120.414,37.687L120.573,38.03L120.73,38.374L120.885,38.72L121.038,39.066L121.189,39.414L121.337,39.762L121.484,40.112L121.629,40.463L121.771,40.815L121.911,41.168L122.05,41.522L122.186,41.877L122.32,42.233L122.452,42.59L122.582,42.948L122.71,43.307L122.835,43.667L122.959,44.029L123.08,44.391L123.199,44.754L123.316,45.118L123.431,45.483L123.544,45.849L123.654,46.216L123.762,46.584L123.868,46.953L123.972,47.323L124.074,47.694L124.173,48.065L124.27,48.438L124.365,48.811L124.458,49.186L124.548,49.561L124.636,49.937L124.722,50.314L124.805,50.692L124.886,51.071L124.965,51.45L125.042,51.831L125.116,52.212L125.188,52.594L125.258,52.977L125.325,53.36L125.39,53.745L125.453,54.13L125.513,54.516L125.571,54.902L125.626,55.29L125.679,55.678L125.73,56.067L125.778,56.457L125.824,56.847L125.867,57.238L125.908,57.63L125.947,58.022L125.983,58.415L126.017,58.809L126.048,59.204L126.077,59.599L126.103,59.995L126.127,60.391L126.149,60.788L126.168,61.186L126.184,61.584L126.198,61.983L126.209,62.383L126.218,62.783L126.224,63.183L126.228,63.585L126.229,63.97L121.229,63.986L126.229,64.002L126.228,64.388L126.224,64.789L126.218,65.19L126.209,65.59L126.198,65.99L126.184,66.388L126.168,66.787L126.149,67.184L126.127,67.581L126.103,67.978L126.077,68.374L126.048,68.769L126.017,69.163L125.983,69.557L125.947,69.95L125.908,70.343L125.867,70.735L125.824,71.126L125.778,71.516L125.73,71.906L125.679,72.295L125.626,72.683L125.571,73.07L125.513,73.457L125.453,73.843L125.39,74.228L125.325,74.613L125.258,74.996L125.188,75.379L125.116,75.761L125.042,76.142L124.965,76.522L124.886,76.902L124.805,77.281L124.722,77.658L124.636,78.035L124.548,78.412L124.458,78.787L124.365,79.161L124.27,79.535L124.173,79.907L124.074,80.279L123.972,80.65L123.868,81.02L123.762,81.389L123.654,81.756L123.544,82.123L123.431,82.49L123.316,82.855L123.199,83.219L123.08,83.582L122.959,83.944L122.835,84.305L122.71,84.665L122.582,85.025L122.452,85.383L122.32,85.74L122.186,86.096L122.05,86.451L121.911,86.805L121.771,87.158L121.629,87.51L121.484,87.861L121.337,88.21L121.189,88.559L121.038,88.906L120.885,89.253L120.73,89.598L120.573,89.942L120.414,90.285L120.253,90.627L120.091,90.968L119.926,91.308L119.759,91.646L119.59,91.983L119.419,92.319L119.246,92.654L119.071,92.988L118.895,93.321L118.716,93.652L118.535,93.982L118.353,94.311L118.168,94.639L117.982,94.965L117.794,95.29L117.603,95.614L117.411,95.937L117.217,96.258L117.022,96.578L116.824,96.897L116.624,97.215L116.423,97.531L116.22,97.846L116.015,98.159L115.808,98.472L115.599,98.783L115.388,99.092L115.176,99.401L114.962,99.708L114.746,100.013L114.528,100.317L114.309,100.62L114.087,100.922L113.864,101.222L113.64,101.521L113.413,101.818L113.185,102.114L112.955,102.408L112.723,102.701L112.49,102.993L112.254,103.283L112.018,103.572L111.779,103.859L111.539,104.145L111.297,104.429L111.053,104.712L110.808,104.994L110.561,105.274L110.313,105.552L110.063,105.829L109.811,106.104L109.557,106.378L109.302,106.65L109.046,106.921L108.787,107.191L108.528,107.458L108.266,107.724L108.003,107.989L107.739,108.252L107.472,108.513L107.205,108.773L106.936,109.031L106.665,109.288L106.392,109.543L106.118,109.797L105.843,110.048L105.566,110.299L105.288,110.547L105.008,110.794L104.726,111.039L104.444,111.283L104.159,111.525L103.873,111.765L103.586,112.003L103.297,112.24L103.007,112.475L102.716,112.709L102.423,112.941L102.128,113.171L101.832,113.399L101.535,113.625L101.236,113.85L100.936,114.073L100.635,114.294L100.332,114.514L100.027,114.732L99.722,114.948L99.415,115.162L99.107,115.374L98.797,115.585L98.486,115.793L98.174,116L97.86,116.205L97.545,116.409L97.229,116.61L96.911,116.81L96.592,117.007L96.272,117.203L95.951,117.397L95.628,117.589L95.304,117.779L94.979,117.968L94.653,118.154L94.325,118.339L93.996,118.521L93.666,118.702L93.335,118.88L93.002,119.057L92.669,119.232L92.334,119.405L91.997,119.576L91.66,119.745L91.322,119.911L90.982,120.076L90.641,120.239L90.3,120.4L89.957,120.559L89.612,120.716L89.267,120.871L88.921,121.024L88.573,121.174L88.224,121.323L87.875,121.47L87.524,121.614L87.172,121.757L86.819,121.897L86.465,122.036L86.11,122.172L85.754,122.306L85.397,122.438L85.039,122.568L84.68,122.696L84.319,122.821L83.958,122.945L83.596,123.066L83.233,123.185L82.869,123.302L82.504,123.417L82.138,123.529L81.771,123.64L81.403,123.748L81.034,123.854L80.664,123.958L80.293,124.059L79.921,124.159L79.549,124.256L79.175,124.351L78.801,124.443L78.426,124.534L78.05,124.622L77.673,124.708L77.295,124.791L76.916,124.872L76.537,124.951L76.156,125.028L75.775,125.102L75.393,125.174L75.01,125.244L74.627,125.311L74.242,125.376L73.857,125.438L73.471,125.499L73.085,125.556L72.697,125.612L72.309,125.665L71.92,125.716L71.53,125.764L71.14,125.81L70.749,125.853L70.357,125.894L69.965,125.933L69.571,125.969L69.178,126.003L68.783,126.034L68.388,126.063L67.992,126.089L67.596,126.113L67.199,126.134L66.801,126.153L66.403,126.17L66.004,126.184L65.604,126.195L65.204,126.204L64.804,126.21L64.402,126.214L64,126.215ZM64,116.215L64.339,116.214L64.677,116.211L65.014,116.206L65.351,116.198L65.687,116.189L66.023,116.177L66.358,116.163L66.692,116.147L67.026,116.129L67.36,116.109L67.692,116.087L68.024,116.063L68.356,116.037L68.687,116.008L69.017,115.978L69.347,115.945L69.676,115.911L70.004,115.874L70.332,115.836L70.659,115.795L70.985,115.753L71.311,115.708L71.636,115.662L71.961,115.613L72.285,115.563L72.608,115.51L72.93,115.456L73.252,115.399L73.573,115.341L73.893,115.281L74.213,115.218L74.532,115.154L74.85,115.088L75.168,115.02L75.484,114.95L75.8,114.878L76.116,114.804L76.43,114.728L76.744,114.651L77.057,114.571L77.37,114.49L77.681,114.407L77.992,114.322L78.302,114.235L78.611,114.146L78.919,114.055L79.227,113.962L79.534,113.868L79.84,113.772L80.145,113.674L80.449,113.574L80.753,113.472L81.056,113.369L81.358,113.263L81.659,113.156L81.959,113.047L82.258,112.937L82.557,112.824L82.854,112.71L83.151,112.594L83.447,112.477L83.742,112.357L84.036,112.236L84.329,112.113L84.621,111.988L84.913,111.862L85.203,111.734L85.493,111.604L85.781,111.472L86.069,111.339L86.356,111.204L86.641,111.068L86.926,110.929L87.21,110.789L87.493,110.648L87.775,110.504L88.056,110.359L88.336,110.213L88.615,110.064L88.893,109.915L89.17,109.763L89.446,109.61L89.72,109.455L89.994,109.299L90.267,109.141L90.539,108.981L90.81,108.82L91.08,108.657L91.348,108.493L91.616,108.327L91.882,108.159L92.148,107.99L92.412,107.82L92.676,107.647L92.938,107.474L93.199,107.298L93.459,107.122L93.718,106.943L93.976,106.763L94.232,106.582L94.488,106.399L94.742,106.215L94.995,106.029L95.247,105.842L95.498,105.653L95.748,105.463L95.996,105.271L96.244,105.078L96.49,104.883L96.735,104.687L96.978,104.49L97.221,104.291L97.462,104.09L97.702,103.889L97.941,103.685L98.179,103.481L98.415,103.275L98.651,103.067L98.884,102.858L99.117,102.648L99.349,102.437L99.579,102.224L99.807,102.01L100.035,101.794L100.261,101.577L100.486,101.359L100.71,101.139L100.932,100.918L101.153,100.696L101.373,100.472L101.591,100.247L101.808,100.021L102.024,99.793L102.238,99.564L102.451,99.334L102.662,99.103L102.873,98.87L103.081,98.636L103.289,98.401L103.495,98.165L103.699,97.927L103.903,97.688L104.105,97.448L104.305,97.207L104.504,96.964L104.701,96.721L104.897,96.476L105.092,96.229L105.285,95.982L105.477,95.734L105.667,95.484L105.856,95.233L106.043,94.981L106.229,94.728L106.414,94.473L106.596,94.218L106.778,93.961L106.958,93.704L107.136,93.445L107.313,93.185L107.488,92.924L107.662,92.661L107.834,92.398L108.004,92.134L108.173,91.868L108.341,91.602L108.507,91.334L108.671,91.065L108.834,90.796L108.995,90.525L109.155,90.253L109.313,89.98L109.469,89.706L109.624,89.431L109.777,89.155L109.929,88.878L110.079,88.6L110.227,88.322L110.374,88.042L110.518,87.761L110.662,87.479L110.803,87.196L110.943,86.912L111.082,86.627L111.218,86.341L111.353,86.055L111.487,85.767L111.618,85.478L111.748,85.189L111.876,84.898L112.002,84.607L112.127,84.315L112.25,84.022L112.371,83.728L112.491,83.433L112.608,83.137L112.724,82.84L112.839,82.542L112.951,82.244L113.062,81.945L113.171,81.644L113.278,81.343L113.383,81.041L113.486,80.739L113.588,80.435L113.688,80.131L113.786,79.826L113.882,79.52L113.977,79.213L114.069,78.905L114.16,78.597L114.249,78.288L114.336,77.978L114.421,77.667L114.504,77.355L114.585,77.043L114.665,76.73L114.743,76.416L114.818,76.101L114.892,75.786L114.964,75.47L115.034,75.153L115.102,74.836L115.168,74.518L115.233,74.199L115.295,73.879L115.355,73.559L115.414,73.238L115.47,72.916L115.524,72.593L115.577,72.27L115.627,71.947L115.676,71.622L115.723,71.297L115.767,70.971L115.81,70.645L115.85,70.318L115.889,69.99L115.925,69.662L115.96,69.332L115.992,69.003L116.022,68.673L116.051,68.342L116.077,68.01L116.101,67.678L116.123,67.345L116.143,67.012L116.161,66.678L116.177,66.344L116.191,66.009L116.203,65.673L116.212,65.337L116.22,65L116.225,64.663L116.228,64.325L116.229,63.986L116.228,63.648L116.225,63.31L116.22,62.973L116.212,62.636L116.203,62.3L116.191,61.964L116.177,61.629L116.161,61.294L116.143,60.96L116.123,60.627L116.101,60.294L116.077,59.962L116.051,59.631L116.022,59.3L115.992,58.97L115.96,58.64L115.925,58.311L115.889,57.983L115.85,57.655L115.81,57.328L115.767,57.001L115.723,56.676L115.676,56.35L115.627,56.026L115.577,55.702L115.524,55.379L115.47,55.057L115.414,54.735L115.355,54.414L115.295,54.094L115.233,53.774L115.168,53.455L115.102,53.137L115.034,52.819L114.964,52.502L114.892,52.186L114.818,51.871L114.743,51.556L114.665,51.243L114.585,50.93L114.504,50.617L114.421,50.306L114.336,49.995L114.249,49.685L114.16,49.376L114.069,49.067L113.977,48.76L113.882,48.453L113.786,48.147L113.688,47.842L113.588,47.537L113.486,47.234L113.383,46.931L113.278,46.629L113.171,46.328L113.062,46.028L112.951,45.729L112.839,45.43L112.724,45.133L112.608,44.836L112.491,44.54L112.371,44.245L112.25,43.951L112.127,43.658L112.002,43.366L111.876,43.074L111.748,42.784L111.618,42.494L111.487,42.206L111.353,41.918L111.218,41.631L111.082,41.345L110.943,41.061L110.803,40.777L110.662,40.494L110.518,40.212L110.374,39.931L110.227,39.651L110.079,39.372L109.929,39.094L109.777,38.817L109.624,38.541L109.469,38.266L109.313,37.992L109.155,37.72L108.995,37.448L108.834,37.177L108.671,36.907L108.507,36.639L108.341,36.371L108.173,36.104L108.004,35.839L107.834,35.575L107.662,35.311L107.488,35.049L107.313,34.788L107.136,34.528L106.958,34.269L106.778,34.011L106.596,33.755L106.414,33.499L106.229,33.245L106.043,32.992L105.856,32.74L105.667,32.489L105.477,32.239L105.285,31.991L105.092,31.743L104.897,31.497L104.701,31.252L104.504,31.008L104.305,30.766L104.105,30.524L103.903,30.284L103.699,30.045L103.495,29.808L103.289,29.571L103.081,29.336L102.873,29.102L102.662,28.87L102.451,28.638L102.238,28.408L102.024,28.179L101.808,27.952L101.591,27.726L101.373,27.501L101.153,27.277L100.932,27.055L100.71,26.834L100.486,26.614L100.261,26.396L100.035,26.179L99.807,25.963L99.579,25.749L99.349,25.536L99.117,25.324L98.884,25.114L98.651,24.905L98.415,24.698L98.179,24.492L97.941,24.287L97.702,24.084L97.462,23.882L97.221,23.682L96.979,23.483L96.735,23.285L96.49,23.089L96.244,22.895L95.996,22.702L95.748,22.51L95.498,22.32L95.247,22.131L94.995,21.943L94.742,21.758L94.488,21.573L94.232,21.39L93.975,21.209L93.718,21.029L93.459,20.851L93.199,20.674L92.938,20.499L92.676,20.325L92.412,20.153L92.148,19.982L91.882,19.813L91.616,19.646L91.348,19.48L91.08,19.316L90.81,19.153L90.539,18.992L90.267,18.832L89.994,18.674L89.72,18.518L89.446,18.363L89.17,18.21L88.893,18.058L88.615,17.908L88.336,17.76L88.056,17.613L87.775,17.468L87.493,17.325L87.21,17.183L86.926,17.043L86.641,16.905L86.356,16.768L86.069,16.633L85.781,16.5L85.493,16.369L85.203,16.239L84.913,16.111L84.621,15.984L84.329,15.86L84.036,15.737L83.742,15.615L83.447,15.496L83.151,15.378L82.854,15.262L82.557,15.148L82.258,15.036L81.959,14.925L81.659,14.816L81.358,14.709L81.056,14.604L80.753,14.5L80.449,14.399L80.145,14.299L79.84,14.201L79.534,14.105L79.227,14.01L78.919,13.918L78.611,13.827L78.302,13.738L77.992,13.651L77.681,13.566L77.369,13.483L77.057,13.401L76.744,13.322L76.43,13.244L76.116,13.168L75.8,13.095L75.484,13.023L75.168,12.953L74.85,12.885L74.532,12.818L74.213,12.754L73.893,12.692L73.573,12.632L73.252,12.573L72.93,12.517L72.608,12.462L72.285,12.41L71.961,12.359L71.636,12.311L71.311,12.264L70.985,12.22L70.659,12.177L70.332,12.137L70.004,12.098L69.676,12.062L69.347,12.027L69.017,11.995L68.687,11.964L68.356,11.936L68.024,11.91L67.692,11.886L67.36,11.863L67.026,11.843L66.692,11.825L66.358,11.809L66.023,11.796L65.687,11.784L65.351,11.774L65.014,11.767L64.677,11.762L64.339,11.758L64,11.757L63.662,11.758L63.324,11.762L62.987,11.767L62.65,11.774L62.314,11.784L61.978,11.796L61.643,11.809L61.309,11.825L60.975,11.843L60.641,11.863L60.309,11.886L59.977,11.91L59.645,11.936L59.314,11.964L58.984,11.995L58.654,12.027L58.325,12.062L57.997,12.098L57.669,12.137L57.342,12.177L57.016,12.22L56.69,12.264L56.365,12.311L56.04,12.359L55.716,12.41L55.393,12.462L55.071,12.517L54.749,12.573L54.428,12.632L54.108,12.692L53.788,12.754L53.469,12.819L53.151,12.885L52.833,12.953L52.517,13.023L52.201,13.095L51.885,13.168L51.571,13.244L51.257,13.322L50.944,13.401L50.632,13.483L50.32,13.566L50.009,13.651L49.699,13.738L49.39,13.827L49.082,13.918L48.774,14.01L48.467,14.105L48.161,14.201L47.856,14.299L47.552,14.399L47.248,14.5L46.945,14.604L46.643,14.709L46.342,14.816L46.042,14.925L45.743,15.036L45.444,15.148L45.147,15.262L44.85,15.378L44.554,15.496L44.259,15.615L43.965,15.737L43.672,15.86L43.38,15.984L43.088,16.111L42.798,16.239L42.508,16.369L42.22,16.5L41.932,16.633L41.645,16.768L41.36,16.905L41.075,17.043L40.791,17.183L40.508,17.325L40.226,17.468L39.945,17.613L39.665,17.76L39.386,17.908L39.108,18.058L38.831,18.21L38.555,18.363L38.281,18.518L38.007,18.674L37.734,18.832L37.462,18.992L37.191,19.153L36.921,19.316L36.653,19.48L36.385,19.646L36.119,19.813L35.853,19.982L35.589,20.153L35.325,20.325L35.063,20.499L34.802,20.674L34.542,20.851L34.283,21.029L34.026,21.209L33.769,21.39L33.513,21.573L33.259,21.758L33.006,21.943L32.754,22.131L32.503,22.32L32.253,22.51L32.005,22.702L31.757,22.895L31.511,23.089L31.266,23.285L31.023,23.483L30.78,23.682L30.539,23.882L30.299,24.084L30.06,24.287L29.822,24.492L29.586,24.698L29.35,24.905L29.117,25.114L28.884,25.324L28.652,25.536L28.422,25.749L28.194,25.963L27.966,26.179L27.74,26.396L27.515,26.614L27.291,26.834L27.069,27.055L26.848,27.277L26.628,27.501L26.41,27.726L26.193,27.952L25.977,28.179L25.763,28.408L25.55,28.638L25.339,28.87L25.128,29.102L24.92,29.336L24.712,29.571L24.506,29.808L24.302,30.045L24.098,30.284L23.896,30.524L23.696,30.766L23.497,31.008L23.3,31.252L23.104,31.497L22.909,31.743L22.716,31.991L22.524,32.239L22.334,32.489L22.145,32.74L21.958,32.992L21.772,33.245L21.587,33.499L21.405,33.755L21.223,34.011L21.043,34.269L20.865,34.528L20.688,34.788L20.513,35.049L20.339,35.311L20.167,35.575L19.997,35.839L19.828,36.104L19.66,36.371L19.494,36.639L19.33,36.907L19.167,37.177L19.006,37.448L18.846,37.72L18.688,37.992L18.532,38.266L18.377,38.541L18.224,38.817L18.072,39.094L17.922,39.372L17.774,39.651L17.627,39.931L17.483,40.212L17.339,40.494L17.198,40.777L17.058,41.061L16.919,41.345L16.783,41.631L16.648,41.918L16.514,42.206L16.383,42.494L16.253,42.784L16.125,43.074L15.999,43.366L15.874,43.658L15.751,43.951L15.63,44.245L15.51,44.54L15.393,44.836L15.277,45.133L15.162,45.43L15.05,45.729L14.939,46.028L14.83,46.328L14.723,46.629L14.618,46.931L14.515,47.234L14.413,47.537L14.313,47.842L14.215,48.147L14.119,48.453L14.024,48.76L13.932,49.067L13.841,49.376L13.752,49.685L13.665,49.995L13.58,50.306L13.497,50.617L13.416,50.93L13.336,51.243L13.258,51.557L13.183,51.871L13.109,52.186L13.037,52.502L12.967,52.819L12.899,53.137L12.833,53.455L12.768,53.774L12.706,54.094L12.646,54.414L12.587,54.735L12.531,55.057L12.477,55.379L12.424,55.702L12.374,56.026L12.325,56.35L12.278,56.676L12.234,57.001L12.191,57.328L12.151,57.655L12.112,57.983L12.076,58.311L12.041,58.64L12.009,58.97L11.979,59.3L11.95,59.631L11.924,59.962L11.9,60.294L11.878,60.627L11.858,60.96L11.84,61.294L11.824,61.629L11.81,61.964L11.798,62.3L11.789,62.636L11.781,62.973L11.776,63.31L11.773,63.648L11.772,63.986L11.773,64.325L11.776,64.663L11.781,65L11.789,65.337L11.798,65.673L11.81,66.009L11.824,66.344L11.84,66.678L11.858,67.012L11.878,67.345L11.9,67.678L11.924,68.01L11.95,68.342L11.979,68.673L12.009,69.003L12.041,69.333L12.076,69.662L12.112,69.99L12.151,70.318L12.191,70.645L12.234,70.971L12.278,71.297L12.325,71.622L12.374,71.947L12.424,72.27L12.477,72.593L12.531,72.916L12.587,73.238L12.646,73.559L12.706,73.879L12.768,74.199L12.833,74.518L12.899,74.836L12.967,75.153L13.037,75.47L13.109,75.786L13.183,76.102L13.258,76.416L13.336,76.73L13.416,77.043L13.497,77.355L13.58,77.667L13.665,77.978L13.752,78.288L13.841,78.597L13.932,78.905L14.024,79.213L14.119,79.52L14.215,79.826L14.313,80.131L14.413,80.435L14.515,80.739L14.618,81.041L14.723,81.343L14.83,81.644L14.939,81.945L15.05,82.244L15.162,82.542L15.277,82.84L15.393,83.137L15.51,83.433L15.63,83.728L15.751,84.022L15.874,84.315L15.999,84.607L16.125,84.898L16.253,85.189L16.383,85.478L16.514,85.767L16.648,86.055L16.783,86.341L16.919,86.627L17.058,86.912L17.198,87.196L17.339,87.479L17.482,87.761L17.627,88.042L17.774,88.322L17.922,88.6L18.072,88.878L18.224,89.155L18.377,89.431L18.532,89.706L18.688,89.98L18.846,90.253L19.006,90.525L19.167,90.796L19.33,91.065L19.494,91.334L19.66,91.602L19.828,91.868L19.997,92.134L20.167,92.398L20.339,92.661L20.513,92.924L20.688,93.185L20.865,93.445L21.043,93.704L21.223,93.961L21.405,94.218L21.587,94.473L21.772,94.728L21.958,94.981L22.145,95.233L22.334,95.484L22.524,95.734L22.716,95.982L22.909,96.229L23.104,96.476L23.3,96.721L23.497,96.964L23.696,97.207L23.896,97.448L24.098,97.688L24.302,97.927L24.506,98.165L24.712,98.401L24.92,98.636L25.128,98.87L25.339,99.103L25.55,99.334L25.763,99.564L25.977,99.793L26.193,100.021L26.41,100.247L26.628,100.472L26.848,100.696L27.069,100.918L27.291,101.139L27.515,101.359L27.74,101.577L27.966,101.794L28.194,102.009L28.422,102.224L28.652,102.437L28.884,102.648L29.116,102.858L29.35,103.067L29.586,103.275L29.822,103.481L30.06,103.685L30.298,103.888L30.539,104.09L30.78,104.291L31.023,104.49L31.266,104.687L31.511,104.883L31.757,105.078L32.005,105.271L32.253,105.463L32.503,105.653L32.754,105.842L33.006,106.029L33.259,106.215L33.513,106.399L33.769,106.582L34.026,106.764L34.283,106.943L34.542,107.122L34.802,107.298L35.063,107.474L35.325,107.647L35.589,107.82L35.853,107.99L36.119,108.159L36.385,108.327L36.653,108.493L36.921,108.657L37.191,108.82L37.462,108.981L37.734,109.141L38.007,109.299L38.281,109.455L38.555,109.61L38.831,109.763L39.108,109.915L39.386,110.064L39.665,110.213L39.945,110.359L40.226,110.504L40.508,110.648L40.791,110.789L41.075,110.929L41.36,111.068L41.645,111.204L41.932,111.339L42.22,111.472L42.508,111.604L42.798,111.734L43.088,111.862L43.38,111.988L43.672,112.113L43.965,112.236L44.259,112.357L44.554,112.477L44.85,112.594L45.147,112.71L45.444,112.824L45.743,112.937L46.042,113.047L46.342,113.156L46.643,113.263L46.945,113.369L47.248,113.472L47.552,113.574L47.856,113.674L48.161,113.772L48.467,113.868L48.774,113.962L49.082,114.055L49.39,114.146L49.699,114.234L50.009,114.322L50.32,114.407L50.632,114.49L50.944,114.571L51.257,114.651L51.571,114.728L51.885,114.804L52.201,114.878L52.517,114.95L52.833,115.02L53.151,115.088L53.469,115.154L53.788,115.218L54.108,115.281L54.428,115.341L54.749,115.399L55.071,115.456L55.393,115.51L55.716,115.563L56.04,115.613L56.365,115.662L56.69,115.708L57.016,115.753L57.342,115.795L57.669,115.836L57.997,115.874L58.325,115.911L58.654,115.945L58.984,115.978L59.314,116.008L59.645,116.037L59.977,116.063L60.309,116.087L60.641,116.109L60.975,116.129L61.309,116.147L61.643,116.163L61.978,116.177L62.314,116.189L62.65,116.198L62.987,116.206L63.324,116.211L63.662,116.214L64,116.215Z" style="fill:rgb(140,140,140);"/>
        </g>
        <g transform="matrix(1,0,0,1,-8.15008,-1.45907)">
            <circle cx="72.15" cy="65.459" r="35.147" style="fill:rgb(191,191,191);"/>
            <path d="M72.15,105.606L71.891,105.605L71.633,105.603L71.375,105.599L71.117,105.593L70.859,105.586L70.602,105.577L70.345,105.566L70.089,105.554L69.833,105.54L69.578,105.525L69.322,105.508L69.068,105.489L68.813,105.469L68.559,105.447L68.306,105.424L68.053,105.399L67.8,105.372L67.548,105.344L67.296,105.315L67.045,105.284L66.794,105.251L66.544,105.217L66.294,105.181L66.044,105.143L65.795,105.105L65.547,105.064L65.299,105.022L65.052,104.979L64.805,104.934L64.558,104.887L64.312,104.839L64.067,104.79L63.822,104.739L63.578,104.687L63.334,104.633L63.091,104.577L62.848,104.52L62.606,104.462L62.365,104.402L62.124,104.341L61.883,104.278L61.643,104.214L61.404,104.148L61.165,104.081L60.927,104.013L60.69,103.943L60.453,103.872L60.217,103.799L59.981,103.725L59.746,103.649L59.512,103.572L59.278,103.494L59.045,103.414L58.813,103.333L58.581,103.251L58.35,103.167L58.12,103.082L57.89,102.995L57.661,102.907L57.433,102.818L57.205,102.727L56.978,102.635L56.751,102.542L56.526,102.447L56.301,102.351L56.077,102.254L55.853,102.155L55.63,102.055L55.408,101.954L55.187,101.851L54.966,101.747L54.746,101.642L54.527,101.536L54.309,101.428L54.091,101.319L53.875,101.208L53.658,101.097L53.443,100.984L53.229,100.87L53.015,100.755L52.802,100.638L52.59,100.52L52.378,100.401L52.168,100.281L51.958,100.159L51.749,100.036L51.541,99.913L51.334,99.787L51.127,99.661L50.921,99.533L50.717,99.405L50.513,99.275L50.309,99.143L50.107,99.011L49.906,98.878L49.705,98.743L49.505,98.607L49.306,98.47L49.108,98.332L48.911,98.192L48.715,98.052L48.52,97.91L48.325,97.768L48.132,97.624L47.939,97.479L47.747,97.332L47.556,97.185L47.366,97.037L47.177,96.887L46.989,96.737L46.802,96.585L46.616,96.432L46.43,96.278L46.246,96.123L46.063,95.967L45.88,95.81L45.699,95.652L45.518,95.493L45.339,95.332L45.16,95.171L44.982,95.009L44.806,94.845L44.63,94.681L44.455,94.515L44.282,94.348L44.109,94.181L43.937,94.012L43.767,93.843L43.597,93.672L43.428,93.5L43.261,93.327L43.094,93.154L42.929,92.979L42.764,92.803L42.601,92.627L42.438,92.449L42.277,92.271L42.116,92.091L41.957,91.91L41.799,91.729L41.642,91.546L41.486,91.363L41.331,91.179L41.177,90.993L41.024,90.807L40.872,90.62L40.722,90.432L40.572,90.243L40.424,90.053L40.277,89.862L40.131,89.67L39.985,89.478L39.842,89.284L39.699,89.09L39.557,88.894L39.417,88.698L39.277,88.501L39.139,88.303L39.002,88.104L38.866,87.904L38.732,87.704L38.598,87.502L38.466,87.3L38.335,87.097L38.205,86.893L38.076,86.688L37.948,86.482L37.822,86.276L37.697,86.068L37.573,85.86L37.45,85.651L37.328,85.441L37.208,85.231L37.089,85.019L36.971,84.807L36.855,84.594L36.739,84.381L36.625,84.166L36.512,83.951L36.401,83.735L36.29,83.518L36.181,83.3L36.074,83.082L35.967,82.863L35.862,82.643L35.758,82.422L35.656,82.201L35.554,81.979L35.454,81.756L35.356,81.533L35.258,81.308L35.162,81.083L35.068,80.858L34.974,80.631L34.882,80.404L34.792,80.177L34.702,79.948L34.614,79.719L34.528,79.489L34.442,79.259L34.358,79.028L34.276,78.796L34.195,78.564L34.115,78.331L34.037,78.097L33.96,77.863L33.884,77.628L33.81,77.392L33.737,77.156L33.666,76.919L33.596,76.682L33.528,76.444L33.461,76.205L33.395,75.966L33.331,75.726L33.268,75.486L33.207,75.245L33.147,75.003L33.089,74.761L33.032,74.518L32.977,74.275L32.923,74.031L32.87,73.787L32.819,73.542L32.77,73.297L32.722,73.051L32.675,72.804L32.63,72.557L32.587,72.31L32.545,72.062L32.505,71.814L32.466,71.565L32.428,71.315L32.393,71.065L32.358,70.815L32.326,70.564L32.294,70.313L32.265,70.061L32.237,69.809L32.21,69.556L32.185,69.303L32.162,69.05L32.14,68.796L32.12,68.541L32.101,68.287L32.084,68.032L32.069,67.776L32.055,67.52L32.043,67.264L32.032,67.007L32.023,66.75L32.016,66.492L32.01,66.235L32.006,65.976L32.004,65.718L32.003,65.459L32.004,65.2L32.006,64.942L32.01,64.684L32.016,64.426L32.023,64.168L32.032,63.911L32.043,63.654L32.055,63.398L32.069,63.142L32.084,62.887L32.101,62.631L32.12,62.377L32.14,62.122L32.162,61.868L32.185,61.615L32.21,61.362L32.237,61.109L32.265,60.857L32.294,60.605L32.326,60.354L32.358,60.103L32.393,59.853L32.428,59.603L32.466,59.353L32.505,59.105L32.545,58.856L32.587,58.608L32.63,58.361L32.675,58.114L32.722,57.867L32.77,57.621L32.819,57.376L32.87,57.131L32.923,56.887L32.977,56.643L33.032,56.4L33.089,56.157L33.147,55.915L33.207,55.674L33.268,55.433L33.331,55.192L33.395,54.952L33.461,54.713L33.528,54.474L33.596,54.236L33.666,53.999L33.737,53.762L33.81,53.526L33.884,53.29L33.96,53.055L34.037,52.821L34.115,52.587L34.195,52.354L34.276,52.122L34.358,51.89L34.442,51.659L34.528,51.429L34.614,51.199L34.702,50.97L34.792,50.741L34.882,50.514L34.974,50.287L35.068,50.06L35.162,49.835L35.258,49.61L35.356,49.386L35.454,49.162L35.554,48.939L35.656,48.717L35.758,48.496L35.862,48.275L35.967,48.055L36.074,47.836L36.181,47.618L36.29,47.4L36.401,47.184L36.512,46.967L36.625,46.752L36.739,46.538L36.855,46.324L36.971,46.111L37.089,45.899L37.208,45.687L37.328,45.477L37.45,45.267L37.573,45.058L37.697,44.85L37.822,44.643L37.948,44.436L38.076,44.23L38.205,44.026L38.335,43.822L38.466,43.618L38.598,43.416L38.732,43.215L38.866,43.014L39.002,42.814L39.139,42.615L39.277,42.417L39.417,42.22L39.557,42.024L39.699,41.829L39.842,41.634L39.985,41.441L40.131,41.248L40.277,41.056L40.424,40.865L40.572,40.675L40.722,40.486L40.872,40.298L41.024,40.111L41.177,39.925L41.331,39.739L41.486,39.555L41.642,39.372L41.799,39.189L41.957,39.008L42.116,38.827L42.277,38.648L42.438,38.469L42.601,38.291L42.764,38.115L42.929,37.939L43.094,37.764L43.261,37.591L43.428,37.418L43.597,37.246L43.767,37.076L43.937,36.906L44.109,36.737L44.282,36.57L44.455,36.403L44.63,36.238L44.806,36.073L44.982,35.91L45.16,35.747L45.339,35.586L45.518,35.425L45.699,35.266L45.88,35.108L46.063,34.951L46.246,34.795L46.43,34.64L46.616,34.486L46.802,34.333L46.989,34.181L47.177,34.031L47.366,33.881L47.556,33.733L47.747,33.586L47.939,33.44L48.132,33.294L48.325,33.151L48.52,33.008L48.715,32.866L48.911,32.726L49.108,32.586L49.306,32.448L49.505,32.311L49.705,32.175L49.906,32.041L50.107,31.907L50.309,31.775L50.513,31.644L50.717,31.514L50.921,31.385L51.127,31.257L51.334,31.131L51.541,31.006L51.749,30.882L51.958,30.759L52.168,30.637L52.378,30.517L52.59,30.398L52.802,30.28L53.015,30.164L53.229,30.048L53.443,29.934L53.658,29.821L53.875,29.71L54.091,29.599L54.309,29.49L54.527,29.383L54.746,29.276L54.966,29.171L55.187,29.067L55.408,28.965L55.63,28.863L55.853,28.763L56.077,28.665L56.301,28.567L56.526,28.471L56.751,28.377L56.978,28.283L57.205,28.191L57.432,28.101L57.661,28.011L57.89,27.923L58.12,27.837L58.35,27.751L58.581,27.667L58.813,27.585L59.045,27.504L59.278,27.424L59.512,27.346L59.746,27.269L59.981,27.193L60.217,27.119L60.453,27.046L60.69,26.975L60.927,26.905L61.165,26.837L61.404,26.77L61.643,26.704L61.883,26.64L62.124,26.577L62.365,26.516L62.606,26.456L62.848,26.398L63.091,26.341L63.334,26.286L63.578,26.232L63.822,26.179L64.067,26.128L64.312,26.079L64.558,26.031L64.805,25.984L65.052,25.939L65.299,25.896L65.547,25.854L65.796,25.814L66.044,25.775L66.294,25.737L66.544,25.702L66.794,25.667L67.045,25.635L67.296,25.603L67.548,25.574L67.8,25.546L68.053,25.519L68.306,25.494L68.559,25.471L68.813,25.449L69.068,25.429L69.322,25.41L69.578,25.393L69.833,25.378L70.089,25.364L70.345,25.352L70.602,25.341L70.859,25.332L71.117,25.325L71.375,25.319L71.633,25.315L71.891,25.313L72.15,25.312L72.409,25.313L72.667,25.315L72.926,25.319L73.183,25.325L73.441,25.332L73.698,25.341L73.955,25.352L74.211,25.364L74.467,25.378L74.723,25.393L74.978,25.41L75.233,25.429L75.487,25.449L75.741,25.471L75.994,25.494L76.247,25.519L76.5,25.546L76.752,25.574L77.004,25.603L77.255,25.635L77.506,25.667L77.756,25.702L78.006,25.737L78.256,25.775L78.505,25.814L78.753,25.854L79.001,25.896L79.248,25.939L79.495,25.984L79.742,26.031L79.988,26.079L80.233,26.128L80.478,26.179L80.722,26.232L80.966,26.286L81.209,26.341L81.452,26.398L81.694,26.456L81.936,26.516L82.177,26.577L82.417,26.64L82.657,26.704L82.896,26.77L83.135,26.837L83.373,26.905L83.61,26.975L83.847,27.046L84.083,27.119L84.319,27.193L84.554,27.269L84.788,27.346L85.022,27.424L85.255,27.504L85.487,27.585L85.719,27.667L85.95,27.751L86.18,27.837L86.41,27.923L86.639,28.011L86.868,28.101L87.095,28.191L87.322,28.283L87.549,28.377L87.774,28.471L87.999,28.567L88.224,28.665L88.447,28.763L88.67,28.863L88.892,28.965L89.113,29.067L89.334,29.171L89.554,29.276L89.773,29.383L89.991,29.49L90.209,29.599L90.426,29.71L90.642,29.821L90.857,29.934L91.072,30.048L91.285,30.164L91.498,30.28L91.71,30.398L91.922,30.517L92.132,30.637L92.342,30.759L92.551,30.882L92.759,31.006L92.967,31.131L93.173,31.257L93.379,31.385L93.584,31.514L93.788,31.644L93.991,31.775L94.193,31.907L94.395,32.041L94.595,32.175L94.795,32.311L94.994,32.448L95.192,32.586L95.389,32.726L95.585,32.866L95.781,33.008L95.975,33.151L96.169,33.294L96.361,33.44L96.553,33.586L96.744,33.733L96.934,33.881L97.123,34.031L97.311,34.181L97.498,34.333L97.684,34.486L97.87,34.64L98.054,34.795L98.237,34.951L98.42,35.108L98.601,35.266L98.782,35.425L98.962,35.586L99.14,35.747L99.318,35.91L99.494,36.073L99.67,36.238L99.845,36.403L100.018,36.57L100.191,36.737L100.363,36.906L100.534,37.076L100.703,37.246L100.872,37.418L101.039,37.591L101.206,37.764L101.372,37.939L101.536,38.115L101.7,38.291L101.862,38.469L102.023,38.648L102.184,38.827L102.343,39.008L102.501,39.189L102.658,39.372L102.814,39.555L102.969,39.739L103.123,39.925L103.276,40.111L103.428,40.298L103.578,40.486L103.728,40.675L103.876,40.865L104.023,41.056L104.17,41.248L104.315,41.441L104.459,41.634L104.601,41.829L104.743,42.024L104.883,42.22L105.023,42.417L105.161,42.615L105.298,42.814L105.434,43.014L105.569,43.215L105.702,43.416L105.834,43.618L105.966,43.822L106.096,44.026L106.224,44.23L106.352,44.436L106.478,44.643L106.604,44.85L106.728,45.058L106.85,45.267L106.972,45.477L107.092,45.687L107.211,45.899L107.329,46.111L107.446,46.324L107.561,46.538L107.675,46.752L107.788,46.967L107.899,47.184L108.01,47.4L108.119,47.618L108.227,47.836L108.333,48.055L108.438,48.275L108.542,48.496L108.645,48.717L108.746,48.939L108.846,49.162L108.945,49.386L109.042,49.61L109.138,49.835L109.233,50.06L109.326,50.287L109.418,50.514L109.509,50.742L109.598,50.97L109.686,51.199L109.773,51.429L109.858,51.659L109.942,51.89L110.024,52.122L110.105,52.354L110.185,52.587L110.263,52.821L110.34,53.055L110.416,53.29L110.49,53.526L110.563,53.762L110.634,53.999L110.704,54.236L110.772,54.474L110.839,54.713L110.905,54.952L110.969,55.192L111.032,55.433L111.093,55.674L111.153,55.915L111.211,56.157L111.268,56.4L111.324,56.643L111.378,56.887L111.43,57.131L111.481,57.376L111.53,57.621L111.578,57.867L111.625,58.114L111.67,58.361L111.713,58.608L111.755,58.856L111.796,59.104L111.834,59.353L111.872,59.603L111.908,59.853L111.942,60.103L111.975,60.354L112.006,60.605L112.035,60.857L112.063,61.109L112.09,61.362L112.115,61.615L112.138,61.868L112.16,62.122L112.18,62.377L112.199,62.631L112.216,62.887L112.231,63.142L112.245,63.398L112.257,63.654L112.268,63.911L112.277,64.168L112.284,64.426L112.29,64.684L112.294,64.942L112.296,65.2L112.297,65.459L112.296,65.718L112.294,65.977L112.29,66.235L112.284,66.492L112.277,66.75L112.268,67.007L112.257,67.264L112.245,67.52L112.231,67.776L112.216,68.032L112.199,68.287L112.18,68.541L112.16,68.796L112.138,69.05L112.115,69.303L112.09,69.556L112.063,69.809L112.035,70.061L112.006,70.313L111.975,70.564L111.942,70.815L111.908,71.065L111.872,71.315L111.834,71.565L111.796,71.814L111.755,72.062L111.713,72.31L111.67,72.558L111.625,72.804L111.578,73.051L111.53,73.297L111.481,73.542L111.43,73.787L111.378,74.031L111.324,74.275L111.268,74.518L111.211,74.761L111.153,75.003L111.093,75.245L111.032,75.486L110.969,75.726L110.905,75.966L110.839,76.205L110.772,76.444L110.704,76.682L110.634,76.919L110.563,77.156L110.49,77.392L110.416,77.628L110.34,77.863L110.263,78.097L110.185,78.331L110.105,78.564L110.024,78.796L109.942,79.028L109.858,79.259L109.773,79.489L109.686,79.719L109.598,79.948L109.509,80.177L109.418,80.404L109.326,80.631L109.233,80.858L109.138,81.083L109.042,81.308L108.945,81.533L108.846,81.756L108.746,81.979L108.645,82.201L108.542,82.422L108.438,82.643L108.333,82.863L108.227,83.082L108.119,83.3L108.01,83.518L107.899,83.735L107.788,83.951L107.675,84.166L107.561,84.38L107.446,84.594L107.329,84.807L107.211,85.019L107.092,85.231L106.972,85.441L106.85,85.651L106.728,85.86L106.604,86.068L106.478,86.276L106.352,86.482L106.224,86.688L106.096,86.893L105.966,87.097L105.834,87.3L105.702,87.502L105.569,87.704L105.434,87.904L105.298,88.104L105.161,88.303L105.023,88.501L104.883,88.698L104.743,88.894L104.601,89.09L104.459,89.284L104.315,89.478L104.17,89.67L104.023,89.862L103.876,90.053L103.728,90.243L103.578,90.432L103.428,90.62L103.276,90.807L103.123,90.993L102.969,91.179L102.814,91.363L102.658,91.546L102.501,91.729L102.343,91.91L102.184,92.091L102.023,92.271L101.862,92.449L101.7,92.627L101.536,92.803L101.372,92.979L101.206,93.154L101.039,93.328L100.872,93.5L100.703,93.672L100.534,93.843L100.363,94.012L100.191,94.181L100.019,94.348L99.845,94.515L99.67,94.681L99.494,94.845L99.318,95.009L99.14,95.171L98.962,95.332L98.782,95.493L98.601,95.652L98.42,95.81L98.237,95.967L98.054,96.123L97.87,96.278L97.684,96.432L97.498,96.585L97.311,96.737L97.123,96.887L96.934,97.037L96.744,97.185L96.553,97.332L96.361,97.479L96.169,97.624L95.975,97.768L95.781,97.91L95.585,98.052L95.389,98.192L95.192,98.332L94.994,98.47L94.795,98.607L94.595,98.743L94.395,98.878L94.193,99.011L93.991,99.143L93.788,99.275L93.584,99.405L93.379,99.533L93.173,99.661L92.967,99.787L92.759,99.913L92.551,100.036L92.342,100.159L92.132,100.281L91.922,100.401L91.71,100.52L91.498,100.638L91.285,100.755L91.071,100.87L90.857,100.984L90.642,101.097L90.426,101.208L90.209,101.319L89.991,101.428L89.773,101.536L89.554,101.642L89.334,101.747L89.113,101.851L88.892,101.954L88.67,102.055L88.447,102.155L88.224,102.254L87.999,102.351L87.774,102.447L87.549,102.542L87.322,102.635L87.095,102.727L86.868,102.818L86.639,102.907L86.41,102.995L86.18,103.082L85.95,103.167L85.719,103.251L85.487,103.333L85.255,103.414L85.022,103.494L84.788,103.572L84.554,103.649L84.319,103.725L84.083,103.799L83.847,103.872L83.61,103.943L83.373,104.013L83.135,104.081L82.896,104.148L82.657,104.214L82.417,104.278L82.177,104.341L81.936,104.402L81.694,104.462L81.452,104.52L81.209,104.577L80.966,104.633L80.722,104.687L80.478,104.739L80.233,104.79L79.988,104.839L79.742,104.887L79.495,104.934L79.249,104.979L79.001,105.022L78.753,105.064L78.505,105.105L78.256,105.143L78.006,105.181L77.756,105.217L77.506,105.251L77.255,105.284L77.004,105.315L76.752,105.344L76.5,105.372L76.247,105.399L75.994,105.424L75.741,105.447L75.487,105.469L75.233,105.489L74.978,105.508L74.723,105.525L74.467,105.54L74.211,105.554L73.955,105.566L73.698,105.577L73.441,105.586L73.183,105.593L72.926,105.599L72.668,105.603L72.409,105.605L72.15,105.606ZM72.15,95.606L72.345,95.606L72.541,95.604L72.735,95.601L72.93,95.596L73.124,95.591L73.318,95.584L73.511,95.576L73.704,95.567L73.897,95.556L74.089,95.545L74.281,95.532L74.473,95.518L74.664,95.503L74.855,95.487L75.046,95.469L75.236,95.45L75.426,95.43L75.615,95.409L75.804,95.387L75.993,95.364L76.181,95.339L76.369,95.313L76.556,95.286L76.744,95.258L76.93,95.229L77.117,95.199L77.303,95.167L77.488,95.135L77.673,95.101L77.858,95.066L78.042,95.03L78.226,94.993L78.41,94.955L78.593,94.916L78.776,94.875L78.958,94.834L79.14,94.791L79.321,94.748L79.502,94.703L79.683,94.657L79.863,94.61L80.042,94.562L80.221,94.513L80.4,94.462L80.579,94.411L80.756,94.359L80.934,94.305L81.111,94.251L81.287,94.195L81.463,94.139L81.639,94.081L81.814,94.022L81.988,93.963L82.163,93.902L82.336,93.84L82.509,93.777L82.682,93.713L82.854,93.649L83.026,93.583L83.197,93.516L83.368,93.448L83.538,93.379L83.707,93.309L83.877,93.238L84.045,93.166L84.213,93.093L84.381,93.019L84.548,92.944L84.714,92.868L84.88,92.791L85.046,92.713L85.211,92.634L85.375,92.554L85.539,92.474L85.702,92.392L85.865,92.309L86.027,92.225L86.188,92.141L86.349,92.055L86.51,91.968L86.67,91.881L86.829,91.792L86.988,91.703L87.146,91.613L87.303,91.522L87.46,91.429L87.616,91.336L87.772,91.242L87.927,91.147L88.082,91.051L88.236,90.955L88.389,90.857L88.542,90.759L88.694,90.659L88.845,90.559L88.996,90.458L89.146,90.355L89.295,90.252L89.444,90.149L89.592,90.044L89.74,89.938L89.887,89.832L90.033,89.724L90.179,89.616L90.323,89.507L90.468,89.397L90.611,89.286L90.754,89.175L90.896,89.062L91.038,88.949L91.179,88.835L91.319,88.72L91.458,88.604L91.597,88.488L91.735,88.37L91.872,88.252L92.009,88.133L92.144,88.013L92.28,87.893L92.414,87.771L92.548,87.649L92.681,87.526L92.813,87.402L92.944,87.278L93.075,87.152L93.205,87.026L93.334,86.899L93.462,86.771L93.59,86.643L93.717,86.514L93.843,86.384L93.969,86.253L94.093,86.122L94.217,85.99L94.34,85.857L94.462,85.723L94.584,85.589L94.704,85.453L94.824,85.318L94.943,85.181L95.061,85.044L95.179,84.906L95.295,84.767L95.411,84.628L95.526,84.488L95.64,84.347L95.753,84.205L95.866,84.063L95.977,83.92L96.088,83.777L96.198,83.632L96.307,83.488L96.415,83.342L96.523,83.196L96.629,83.049L96.735,82.901L96.84,82.753L96.943,82.604L97.046,82.455L97.149,82.305L97.25,82.154L97.35,82.003L97.45,81.851L97.548,81.698L97.646,81.545L97.742,81.391L97.838,81.236L97.933,81.081L98.027,80.925L98.12,80.769L98.213,80.612L98.304,80.455L98.394,80.297L98.483,80.138L98.572,79.979L98.659,79.819L98.746,79.658L98.832,79.497L98.916,79.336L99,79.174L99.083,79.011L99.165,78.848L99.245,78.684L99.325,78.52L99.404,78.355L99.482,78.189L99.559,78.023L99.635,77.857L99.71,77.69L99.784,77.522L99.857,77.354L99.929,77.185L100,77.016L100.07,76.847L100.139,76.676L100.207,76.506L100.274,76.335L100.34,76.163L100.404,75.991L100.468,75.818L100.531,75.645L100.593,75.471L100.654,75.297L100.713,75.123L100.772,74.948L100.83,74.772L100.886,74.596L100.942,74.42L100.996,74.243L101.05,74.065L101.102,73.888L101.153,73.709L101.204,73.53L101.253,73.351L101.301,73.172L101.348,72.992L101.394,72.811L101.439,72.63L101.482,72.449L101.525,72.267L101.566,72.085L101.607,71.902L101.646,71.719L101.684,71.535L101.721,71.351L101.757,71.167L101.792,70.982L101.826,70.797L101.858,70.612L101.89,70.426L101.92,70.239L101.949,70.053L101.977,69.865L102.004,69.678L102.03,69.49L102.055,69.302L102.078,69.113L102.1,68.924L102.121,68.735L102.141,68.545L102.16,68.355L102.178,68.164L102.194,67.973L102.209,67.782L102.223,67.59L102.236,67.398L102.247,67.206L102.258,67.013L102.267,66.82L102.275,66.627L102.282,66.433L102.287,66.239L102.292,66.044L102.295,65.85L102.297,65.654L102.297,65.459L102.297,65.264L102.295,65.069L102.292,64.874L102.287,64.679L102.282,64.485L102.275,64.291L102.267,64.098L102.258,63.905L102.247,63.712L102.236,63.52L102.223,63.328L102.209,63.136L102.194,62.945L102.178,62.754L102.16,62.564L102.141,62.373L102.121,62.184L102.1,61.994L102.078,61.805L102.055,61.616L102.03,61.428L102.004,61.24L101.977,61.053L101.949,60.866L101.92,60.679L101.89,60.493L101.858,60.307L101.826,60.121L101.792,59.936L101.757,59.751L101.721,59.567L101.684,59.383L101.646,59.199L101.607,59.016L101.566,58.834L101.525,58.651L101.482,58.469L101.439,58.288L101.394,58.107L101.348,57.927L101.301,57.747L101.253,57.567L101.204,57.388L101.153,57.209L101.102,57.031L101.05,56.853L100.996,56.675L100.942,56.498L100.886,56.322L100.83,56.146L100.772,55.97L100.713,55.795L100.654,55.621L100.593,55.447L100.531,55.273L100.468,55.1L100.404,54.927L100.34,54.755L100.274,54.583L100.207,54.412L100.139,54.242L100.07,54.071L100,53.902L99.929,53.733L99.857,53.564L99.784,53.396L99.71,53.228L99.635,53.061L99.559,52.895L99.482,52.729L99.404,52.563L99.325,52.399L99.245,52.234L99.165,52.07L99.083,51.907L99,51.744L98.916,51.582L98.832,51.421L98.746,51.26L98.659,51.099L98.572,50.939L98.484,50.78L98.394,50.622L98.304,50.463L98.213,50.306L98.12,50.149L98.027,49.993L97.933,49.837L97.838,49.682L97.742,49.527L97.646,49.373L97.548,49.22L97.45,49.068L97.35,48.916L97.25,48.764L97.149,48.613L97.046,48.463L96.943,48.314L96.84,48.165L96.735,48.017L96.629,47.869L96.523,47.722L96.415,47.576L96.307,47.431L96.198,47.286L96.088,47.141L95.977,46.998L95.866,46.855L95.753,46.713L95.64,46.571L95.526,46.431L95.411,46.29L95.295,46.151L95.179,46.012L95.061,45.874L94.943,45.737L94.824,45.601L94.704,45.465L94.584,45.33L94.462,45.195L94.34,45.062L94.217,44.929L94.093,44.796L93.969,44.665L93.843,44.534L93.717,44.404L93.59,44.275L93.462,44.147L93.334,44.019L93.205,43.892L93.075,43.766L92.944,43.641L92.813,43.516L92.681,43.392L92.548,43.269L92.414,43.147L92.28,43.026L92.144,42.905L92.009,42.785L91.872,42.666L91.735,42.548L91.597,42.43L91.458,42.314L91.319,42.198L91.179,42.083L91.038,41.969L90.896,41.856L90.754,41.743L90.611,41.632L90.468,41.521L90.323,41.411L90.179,41.302L90.033,41.194L89.887,41.086L89.74,40.98L89.592,40.874L89.444,40.77L89.295,40.666L89.146,40.563L88.996,40.461L88.845,40.359L88.694,40.259L88.542,40.16L88.389,40.061L88.236,39.963L88.082,39.867L87.927,39.771L87.772,39.676L87.616,39.582L87.46,39.489L87.303,39.397L87.146,39.305L86.988,39.215L86.829,39.126L86.67,39.037L86.51,38.95L86.349,38.863L86.188,38.778L86.027,38.693L85.865,38.609L85.702,38.526L85.539,38.445L85.375,38.364L85.211,38.284L85.046,38.205L84.88,38.127L84.714,38.05L84.548,37.974L84.381,37.899L84.213,37.825L84.045,37.752L83.877,37.68L83.707,37.609L83.538,37.539L83.368,37.47L83.197,37.402L83.026,37.336L82.854,37.27L82.682,37.205L82.509,37.141L82.336,37.078L82.163,37.016L81.988,36.955L81.814,36.896L81.639,36.837L81.463,36.779L81.287,36.723L81.111,36.667L80.934,36.613L80.756,36.559L80.579,36.507L80.4,36.456L80.221,36.405L80.042,36.356L79.863,36.308L79.683,36.261L79.502,36.215L79.321,36.171L79.14,36.127L78.958,36.084L78.776,36.043L78.593,36.002L78.41,35.963L78.226,35.925L78.042,35.888L77.858,35.852L77.673,35.817L77.488,35.783L77.303,35.751L77.117,35.719L76.93,35.689L76.744,35.66L76.556,35.632L76.369,35.605L76.181,35.579L75.993,35.555L75.804,35.531L75.615,35.509L75.426,35.488L75.236,35.468L75.046,35.449L74.855,35.432L74.664,35.415L74.473,35.4L74.281,35.386L74.089,35.373L73.897,35.362L73.704,35.351L73.511,35.342L73.318,35.334L73.124,35.327L72.93,35.322L72.735,35.318L72.541,35.314L72.346,35.313L72.15,35.312L71.955,35.313L71.76,35.314L71.565,35.318L71.37,35.322L71.176,35.327L70.982,35.334L70.789,35.342L70.596,35.351L70.403,35.362L70.211,35.373L70.019,35.386L69.827,35.4L69.636,35.415L69.445,35.432L69.255,35.449L69.064,35.468L68.875,35.488L68.685,35.509L68.496,35.531L68.307,35.555L68.119,35.579L67.931,35.605L67.744,35.632L67.557,35.66L67.37,35.689L67.184,35.719L66.998,35.751L66.812,35.783L66.627,35.817L66.442,35.852L66.258,35.888L66.074,35.925L65.89,35.963L65.707,36.002L65.525,36.043L65.342,36.084L65.16,36.127L64.979,36.171L64.798,36.215L64.618,36.261L64.438,36.308L64.258,36.356L64.079,36.405L63.9,36.456L63.722,36.507L63.544,36.559L63.366,36.613L63.189,36.667L63.013,36.723L62.837,36.779L62.661,36.837L62.486,36.896L62.312,36.955L62.138,37.016L61.964,37.078L61.791,37.141L61.618,37.205L61.446,37.27L61.274,37.336L61.103,37.402L60.933,37.47L60.762,37.539L60.593,37.609L60.424,37.68L60.255,37.752L60.087,37.825L59.919,37.899L59.752,37.974L59.586,38.05L59.42,38.127L59.254,38.205L59.09,38.284L58.925,38.364L58.761,38.445L58.598,38.526L58.435,38.609L58.273,38.693L58.112,38.778L57.951,38.863L57.79,38.95L57.63,39.037L57.471,39.126L57.313,39.215L57.154,39.305L56.997,39.397L56.84,39.489L56.684,39.582L56.528,39.676L56.373,39.771L56.218,39.867L56.064,39.963L55.911,40.061L55.759,40.16L55.607,40.259L55.455,40.359L55.304,40.461L55.154,40.563L55.005,40.666L54.856,40.77L54.708,40.874L54.56,40.98L54.413,41.086L54.267,41.194L54.122,41.302L53.977,41.411L53.832,41.521L53.689,41.632L53.546,41.743L53.404,41.856L53.262,41.969L53.122,42.083L52.982,42.198L52.842,42.314L52.703,42.43L52.565,42.548L52.428,42.666L52.292,42.785L52.156,42.905L52.021,43.026L51.886,43.147L51.753,43.269L51.62,43.392L51.487,43.516L51.356,43.641L51.225,43.766L51.095,43.892L50.966,44.019L50.838,44.147L50.71,44.275L50.583,44.404L50.457,44.534L50.332,44.665L50.207,44.796L50.083,44.929L49.96,45.062L49.838,45.195L49.717,45.33L49.596,45.465L49.476,45.601L49.357,45.737L49.239,45.874L49.121,46.012L49.005,46.151L48.889,46.291L48.774,46.431L48.66,46.571L48.547,46.713L48.434,46.855L48.323,46.998L48.212,47.141L48.102,47.286L47.993,47.431L47.885,47.576L47.777,47.722L47.671,47.869L47.565,48.017L47.461,48.165L47.357,48.314L47.254,48.463L47.152,48.613L47.05,48.764L46.95,48.916L46.851,49.068L46.752,49.22L46.654,49.373L46.558,49.527L46.462,49.682L46.367,49.837L46.273,49.993L46.18,50.149L46.088,50.306L45.996,50.463L45.906,50.622L45.817,50.78L45.728,50.939L45.641,51.099L45.554,51.26L45.469,51.421L45.384,51.582L45.3,51.744L45.217,51.907L45.136,52.07L45.055,52.234L44.975,52.399L44.896,52.563L44.818,52.729L44.741,52.895L44.665,53.061L44.59,53.228L44.516,53.396L44.443,53.564L44.371,53.733L44.3,53.902L44.23,54.071L44.161,54.242L44.093,54.412L44.027,54.583L43.961,54.755L43.896,54.927L43.832,55.1L43.769,55.273L43.707,55.447L43.646,55.621L43.587,55.795L43.528,55.97L43.47,56.146L43.414,56.322L43.358,56.498L43.304,56.675L43.25,56.853L43.198,57.031L43.147,57.209L43.096,57.388L43.047,57.567L42.999,57.747L42.952,57.927L42.906,58.107L42.862,58.288L42.818,58.469L42.775,58.651L42.734,58.834L42.693,59.016L42.654,59.199L42.616,59.383L42.579,59.567L42.543,59.751L42.508,59.936L42.474,60.121L42.442,60.307L42.41,60.493L42.38,60.679L42.351,60.866L42.323,61.053L42.296,61.24L42.27,61.428L42.246,61.616L42.222,61.805L42.2,61.994L42.179,62.184L42.159,62.373L42.14,62.564L42.123,62.754L42.106,62.945L42.091,63.136L42.077,63.328L42.064,63.52L42.053,63.712L42.042,63.905L42.033,64.098L42.025,64.291L42.018,64.485L42.013,64.679L42.009,64.874L42.005,65.069L42.004,65.264L42.003,65.459L42.004,65.654L42.005,65.85L42.009,66.044L42.013,66.239L42.018,66.433L42.025,66.627L42.033,66.82L42.042,67.013L42.053,67.206L42.064,67.398L42.077,67.59L42.091,67.782L42.106,67.973L42.123,68.164L42.14,68.355L42.159,68.545L42.179,68.735L42.2,68.924L42.222,69.113L42.246,69.302L42.27,69.49L42.296,69.678L42.323,69.865L42.351,70.053L42.38,70.239L42.41,70.426L42.442,70.612L42.474,70.797L42.508,70.982L42.543,71.167L42.579,71.351L42.616,71.535L42.654,71.719L42.693,71.902L42.734,72.085L42.775,72.267L42.818,72.449L42.862,72.63L42.906,72.811L42.952,72.992L42.999,73.172L43.047,73.351L43.096,73.53L43.147,73.709L43.198,73.888L43.25,74.065L43.304,74.243L43.358,74.42L43.414,74.596L43.47,74.772L43.528,74.948L43.587,75.123L43.646,75.297L43.707,75.471L43.769,75.645L43.832,75.818L43.896,75.991L43.961,76.163L44.027,76.335L44.093,76.506L44.161,76.677L44.23,76.847L44.3,77.016L44.371,77.185L44.443,77.354L44.516,77.522L44.59,77.69L44.665,77.857L44.741,78.023L44.818,78.189L44.896,78.355L44.975,78.52L45.055,78.684L45.136,78.848L45.217,79.011L45.3,79.174L45.384,79.336L45.469,79.497L45.554,79.658L45.641,79.819L45.728,79.979L45.817,80.138L45.906,80.297L45.996,80.455L46.088,80.612L46.18,80.769L46.273,80.925L46.367,81.081L46.462,81.236L46.558,81.391L46.654,81.545L46.752,81.698L46.851,81.851L46.95,82.003L47.05,82.154L47.152,82.305L47.254,82.455L47.357,82.604L47.461,82.753L47.565,82.901L47.671,83.049L47.777,83.196L47.885,83.342L47.993,83.488L48.102,83.632L48.212,83.777L48.323,83.92L48.434,84.063L48.547,84.205L48.66,84.347L48.774,84.488L48.889,84.628L49.005,84.767L49.121,84.906L49.239,85.044L49.357,85.181L49.476,85.318L49.596,85.453L49.717,85.589L49.838,85.723L49.96,85.857L50.083,85.99L50.207,86.122L50.332,86.253L50.457,86.384L50.583,86.514L50.71,86.643L50.838,86.771L50.966,86.899L51.095,87.026L51.225,87.152L51.356,87.278L51.487,87.402L51.62,87.526L51.753,87.649L51.886,87.771L52.021,87.893L52.156,88.013L52.292,88.133L52.428,88.252L52.565,88.37L52.703,88.488L52.842,88.604L52.982,88.72L53.122,88.835L53.262,88.949L53.404,89.062L53.546,89.175L53.689,89.286L53.832,89.397L53.977,89.507L54.122,89.616L54.267,89.724L54.413,89.832L54.56,89.938L54.708,90.044L54.856,90.149L55.005,90.252L55.154,90.355L55.304,90.458L55.455,90.559L55.607,90.659L55.759,90.759L55.911,90.857L56.064,90.955L56.218,91.051L56.373,91.147L56.528,91.242L56.684,91.336L56.84,91.429L56.997,91.522L57.154,91.613L57.313,91.703L57.471,91.793L57.63,91.881L57.79,91.968L57.951,92.055L58.112,92.141L58.273,92.225L58.435,92.309L58.598,92.392L58.761,92.474L58.925,92.554L59.09,92.634L59.254,92.713L59.42,92.791L59.586,92.868L59.752,92.944L59.919,93.019L60.087,93.093L60.255,93.166L60.424,93.238L60.593,93.309L60.762,93.379L60.933,93.448L61.103,93.516L61.274,93.583L61.446,93.649L61.618,93.713L61.791,93.777L61.964,93.84L62.138,93.902L62.312,93.963L62.486,94.022L62.661,94.081L62.837,94.139L63.013,94.195L63.189,94.251L63.366,94.305L63.544,94.359L63.722,94.411L63.9,94.462L64.079,94.513L64.258,94.562L64.438,94.61L64.618,94.657L64.798,94.703L64.979,94.748L65.16,94.791L65.342,94.834L65.525,94.875L65.707,94.916L65.89,94.955L66.074,94.993L66.258,95.03L66.442,95.066L66.627,95.101L66.812,95.135L66.998,95.167L67.184,95.199L67.37,95.229L67.557,95.258L67.744,95.286L67.931,95.313L68.119,95.339L68.307,95.364L68.496,95.387L68.685,95.409L68.875,95.43L69.064,95.45L69.255,95.469L69.445,95.487L69.636,95.503L69.827,95.518L70.019,95.532L70.211,95.545L70.403,95.556L70.596,95.567L70.789,95.576L70.982,95.584L71.176,95.591L71.37,95.596L71.565,95.601L71.76,95.604L71.955,95.606L72.15,95.606Z" style="fill:rgb(191,191,191);"/>
        </g>
        <g transform="matrix(1,0,0,1,0.5,0)">
            <rect x="32" y="56" width="63" height="16" style="fill:black;"/>
        </g>
    </g>
</svg>
