<?xml version="1.0" standalone="no"?>
<!DOCTYPE svg PUBLIC "-//W3C//DTD SVG 1.1//EN" "http://www.w3.org/Graphics/SVG/1.1/DTD/svg11.dtd">
<svg width="128px" height="128px" version="1.1" xmlns="http://www.w3.org/2000/svg" xmlns:xlink="http://www.w3.org/1999/xlink" xml:space="preserve" style="fill-rule:evenodd;clip-rule:evenodd;stroke-linejoin:round;stroke-miterlimit:1.41421;">
    <g>
        <g id="Me Merge MATTE">
            <g>
                <path d="M121.23,63.9863C121.23,95.5933 95.6075,121.215 64.0005,121.215C32.3935,121.215 6.7715,95.5933 6.7715,63.9863C6.7715,32.3793 32.3935,6.7573 64.0005,6.7573C95.6075,6.7573 121.23,32.3793 121.23,63.9863" style="fill:rgb(153,153,153);fill-rule:nonzero;"/>
                <path d="M64.0005,126.215L63.5987,126.214L63.1975,126.21L62.7969,126.204L62.3968,126.195L61.9972,126.184L61.5983,126.17L61.2001,126.153L60.8024,126.134L60.4053,126.113L60.0088,126.089L59.613,126.063L59.2179,126.034L58.8234,126.003L58.4296,125.969L58.0364,125.933L57.644,125.894L57.2521,125.853L56.8611,125.81L56.4708,125.764L56.081,125.716L55.6921,125.665L55.304,125.612L54.9164,125.556L54.5298,125.499L54.1439,125.438L53.7587,125.376L53.3744,125.311L52.9908,125.244L52.6079,125.174L52.226,125.102L51.8448,125.028L51.4644,124.951L51.0849,124.872L50.7062,124.791L50.3283,124.708L49.9513,124.622L49.5753,124.534L49.2,124.443L48.8256,124.351L48.4521,124.256L48.0796,124.159L47.7079,124.059L47.3371,123.958L46.9672,123.854L46.5984,123.748L46.2304,123.64L45.8633,123.529L45.4973,123.417L45.1321,123.302L44.768,123.185L44.4048,123.066L44.0427,122.945L43.6815,122.821L43.3213,122.696L42.9621,122.568L42.604,122.438L42.2469,122.306L41.8908,122.172L41.5358,122.036L41.1818,121.897L40.8288,121.757L40.477,121.614L40.1262,121.47L39.7765,121.323L39.4279,121.174L39.0804,121.024L38.734,120.871L38.3887,120.716L38.0445,120.559L37.7015,120.4L37.3596,120.239L37.0188,120.076L36.6792,119.911L36.3408,119.745L36.0035,119.576L35.6673,119.405L35.3325,119.232L34.9988,119.057L34.6662,118.88L34.3349,118.702L34.0048,118.521L33.676,118.339L33.3483,118.154L33.0218,117.968L32.6967,117.779L32.3727,117.589L32.0501,117.397L31.7287,117.203L31.4086,117.007L31.0897,116.81L30.7722,116.61L30.4559,116.409L30.141,116.205L29.8273,116L29.515,115.793L29.2041,115.585L28.8944,115.374L28.5861,115.162L28.2791,114.948L27.9735,114.732L27.6693,114.514L27.3665,114.294L27.065,114.073L26.7648,113.85L26.4662,113.625L26.1688,113.399L25.8729,113.171L25.5785,112.941L25.2854,112.709L24.9938,112.475L24.7036,112.24L24.4149,112.003L24.1276,111.765L23.8418,111.525L23.5574,111.283L23.2745,111.039L22.9931,110.794L22.7132,110.547L22.4348,110.299L22.158,110.048L21.8825,109.797L21.6087,109.543L21.3363,109.288L21.0655,109.032L20.7963,108.773L20.5286,108.513L20.2624,108.252L19.9978,107.989L19.7348,107.724L19.4734,107.458L19.2135,107.191L18.9553,106.921L18.6986,106.65L18.4436,106.378L18.1902,106.104L17.9384,105.829L17.6882,105.552L17.4397,105.274L17.1928,104.994L16.9476,104.712L16.704,104.429L16.4621,104.145L16.2219,103.859L15.9833,103.572L15.7465,103.283L15.5114,102.993L15.2779,102.701L15.0462,102.408L14.8162,102.114L14.588,101.818L14.3614,101.521L14.1366,101.222L13.9136,100.922L13.6923,100.62L13.4728,100.318L13.2551,100.013L13.0392,99.7077L12.825,99.4007L12.6126,99.0924L12.4021,98.7827L12.1934,98.4718L11.9864,98.1594L11.7813,97.8458L11.5781,97.5309L11.3767,97.2146L11.1771,96.8971L10.9794,96.5782L10.7836,96.2581L10.5896,95.9367L10.3976,95.6141L10.2074,95.2901L10.0191,94.965L9.83271,94.6385L9.64823,94.3109L9.46569,93.982L9.28507,93.6519L9.10638,93.3206L8.92964,92.988L8.75486,92.6543L8.58203,92.3194L8.41116,91.9833L8.24227,91.646L8.07538,91.3076L7.91046,90.968L7.74754,90.6272L7.58664,90.2853L7.42774,89.9423L7.27086,89.5981L7.11602,89.2528L6.96321,88.9064L6.81246,88.5589L6.66374,88.2103L6.5171,87.8606L6.37252,87.5098L6.23001,87.1579L6.08959,86.805L5.95126,86.451L5.81504,86.096L5.68091,85.7399L5.54891,85.3828L5.41903,85.0246L5.29128,84.6655L5.16566,84.3053L5.0422,83.9441L4.92089,83.582L4.80174,83.2188L4.68476,82.8546L4.56996,82.4895L4.45734,82.1235L4.34692,81.7564L4.23869,81.3885L4.13268,81.0195L4.02889,80.6497L3.92732,80.2789L3.82798,79.9073L3.73088,79.5347L3.63603,79.1612L3.54343,78.7868L3.4531,78.4116L3.36504,78.0354L3.27925,77.6584L3.19576,77.2806L3.11456,76.9019L3.03566,76.5224L2.95906,76.142L2.88479,75.7608L2.81284,75.3788L2.74323,74.9961L2.67595,74.6125L2.61102,74.2281L2.54845,73.8429L2.48824,73.457L2.4304,73.0703L2.37494,72.6828L2.32186,72.2947L2.27118,71.9057L2.22289,71.5161L2.17702,71.1257L2.13356,70.7346L2.09252,70.3429L2.05392,69.9504L2.01775,69.5572L1.98403,69.1634L1.95276,68.7689L1.92395,68.3737L1.89761,67.9779L1.87374,67.5815L1.85235,67.1844L1.83345,66.7868L1.81705,66.3884L1.80316,65.9895L1.79177,65.5901L1.7829,65.19L1.77656,64.7893L1.77275,64.3881L1.77147,63.9863L1.77275,63.5845L1.77656,63.1833L1.7829,62.7826L1.79177,62.3825L1.80316,61.9831L1.81705,61.5842L1.83345,61.1858L1.85235,60.7882L1.87374,60.3911L1.89761,59.9947L1.92395,59.5989L1.95276,59.2037L1.98403,58.8092L2.01775,58.4154L2.05392,58.0222L2.09252,57.6297L2.13356,57.238L2.17702,56.8469L2.22289,56.4565L2.27118,56.0669L2.32186,55.6779L2.37494,55.2898L2.4304,54.9023L2.48824,54.5156L2.54845,54.1297L2.61102,53.7445L2.67595,53.3601L2.74323,52.9765L2.81284,52.5938L2.88479,52.2118L2.95906,51.8306L3.03566,51.4502L3.11456,51.0707L3.19576,50.692L3.27925,50.3142L3.36504,49.9372L3.4531,49.561L3.54343,49.1858L3.63603,48.8114L3.73088,48.4379L3.82798,48.0653L3.92732,47.6937L4.02889,47.3229L4.13268,46.9531L4.23869,46.5841L4.34692,46.2162L4.45734,45.8491L4.56996,45.4831L4.68476,45.118L4.80174,44.7538L4.92089,44.3906L5.0422,44.0285L5.16566,43.6673L5.29128,43.3071L5.41903,42.948L5.54891,42.5898L5.68091,42.2327L5.81504,41.8766L5.95126,41.5216L6.08959,41.1676L6.23001,40.8147L6.37252,40.4628L6.51709,40.112L6.66375,39.7623L6.81245,39.4137L6.96321,39.0662L7.11602,38.7198L7.27087,38.3745L7.42774,38.0303L7.58663,37.6873L7.74755,37.3454L7.91046,37.0046L8.07537,36.665L8.24227,36.3266L8.41116,35.9893L8.58203,35.6532L8.75486,35.3183L8.92965,34.9845L9.10638,34.652L9.28506,34.3207L9.46569,33.9906L9.64824,33.6617L9.8327,33.3341L10.0191,33.0076L10.2074,32.6825L10.3976,32.3586L10.5896,32.0359L10.7836,31.7145L10.9794,31.3944L11.1771,31.0755L11.3767,30.758L11.5781,30.4417L11.7813,30.1268L11.9864,29.8132L12.1934,29.5008L12.4021,29.1899L12.6126,28.8802L12.825,28.5719L13.0392,28.2649L13.2551,27.9593L13.4728,27.6551L13.6923,27.3522L13.9136,27.0507L14.1367,26.7506L14.3614,26.4519L14.588,26.1546L14.8162,25.8587L15.0462,25.5643L15.2779,25.2712L15.5114,24.9796L15.7465,24.6894L15.9834,24.4007L16.2219,24.1134L16.4621,23.8276L16.704,23.5432L16.9476,23.2603L17.1928,22.9789L17.4397,22.699L17.6882,22.4206L17.9384,22.1437L18.1902,21.8683L18.4436,21.5945L18.6986,21.3221L18.9553,21.0513L19.2135,20.7821L19.4734,20.5144L19.7348,20.2482L19.9978,19.9836L20.2624,19.7206L20.5286,19.4592L20.7963,19.1993L21.0655,18.9411L21.3363,18.6844L21.6087,18.4294L21.8825,18.176L22.1579,17.9242L22.4348,17.674L22.7132,17.4255L22.9931,17.1786L23.2745,16.9334L23.5574,16.6898L23.8418,16.4479L24.1276,16.2077L24.4149,15.9692L24.7036,15.7323L24.9938,15.4972L25.2854,15.2637L25.5785,15.032L25.8729,14.802L26.1688,14.5738L26.4661,14.3472L26.7648,14.1224L27.065,13.8994L27.3664,13.6781L27.6693,13.4586L27.9735,13.2409L28.2791,13.025L28.5861,12.8108L28.8944,12.5984L29.2041,12.3879L29.515,12.1792L29.8274,11.9722L30.141,11.7671L30.4559,11.5639L30.7722,11.3625L31.0897,11.1629L31.4086,10.9652L31.7287,10.7694L32.0501,10.5754L32.3727,10.3834L32.6967,10.1932L33.0218,10.0049L33.3483,9.81851L33.6759,9.63403L34.0048,9.45149L34.3349,9.27087L34.6662,9.09218L34.9988,8.91544L35.3325,8.74065L35.6674,8.56783L36.0035,8.39697L36.3408,8.22808L36.6792,8.06118L37.0188,7.89626L37.3596,7.73334L37.7015,7.57244L38.0445,7.41354L38.3887,7.25666L38.734,7.10182L39.0804,6.94902L39.4279,6.79825L39.7765,6.64954L40.1262,6.5029L40.477,6.35832L40.8289,6.21581L41.1818,6.07539L41.5358,5.93706L41.8908,5.80084L42.2469,5.66672L42.604,5.53471L42.9622,5.40483L43.3213,5.27708L43.6815,5.15147L44.0427,5.028L44.4049,4.90669L44.768,4.78754L45.1321,4.67056L45.4973,4.55575L45.8633,4.44314L46.2304,4.33272L46.5983,4.2245L46.9673,4.11848L47.3371,4.01469L47.7079,3.91312L48.0795,3.81378L48.4521,3.71668L48.8256,3.62183L49.2,3.52923L49.5752,3.4389L49.9514,3.35084L50.3284,3.26505L50.7062,3.18156L51.0849,3.10035L51.4644,3.02146L51.8448,2.94487L52.2259,2.87059L52.6079,2.79864L52.9907,2.72903L53.3743,2.66175L53.7587,2.59682L54.1439,2.53425L54.5298,2.47404L54.9165,2.4162L55.304,2.36073L55.6921,2.30766L56.0811,2.25698L56.4707,2.20869L56.8611,2.16282L57.2522,2.11936L57.6439,2.07832L58.0364,2.03972L58.4296,2.00355L58.8234,1.96983L59.2179,1.93856L59.6131,1.90975L60.0089,1.88341L60.4053,1.85954L60.8024,1.83815L61.2001,1.81925L61.5983,1.80285L61.9973,1.78896L62.3968,1.77757L62.7968,1.7687L63.1975,1.76236L63.5987,1.75855L64.0005,1.75728L64.4023,1.75855L64.8035,1.76236L65.2042,1.7687L65.6042,1.77757L66.0038,1.78896L66.4027,1.80285L66.8009,1.81925L67.1986,1.83815L67.5957,1.85954L67.9921,1.88341L68.3879,1.90975L68.7831,1.93856L69.1776,1.96983L69.5714,2.00355L69.9646,2.03972L70.3571,2.07832L70.7488,2.11936L71.1399,2.16282L71.5303,2.20869L71.9199,2.25698L72.3089,2.30766L72.697,2.36073L73.0845,2.4162L73.4712,2.47404L73.8571,2.53425L74.2423,2.59682L74.6267,2.66175L75.0103,2.72903L75.393,2.79864L75.775,2.87059L76.1562,2.94487L76.5366,3.02146L76.9161,3.10035L77.2948,3.18156L77.6727,3.26506L78.0496,3.35084L78.4258,3.4389L78.801,3.52923L79.1754,3.62183L79.5489,3.71668L79.9214,3.81378L80.2931,3.91312L80.6639,4.01469L81.0338,4.11849L81.4027,4.2245L81.7706,4.33271L82.1377,4.44314L82.5037,4.55576L82.8688,4.67056L83.233,4.78754L83.5962,4.90669L83.9583,5.028L84.3195,5.15146L84.6797,5.27708L85.0388,5.40483L85.397,5.53471L85.7541,5.66672L86.1102,5.80084L86.4652,5.93706L86.8192,6.07539L87.1721,6.21581L87.524,6.35832L87.8748,6.50289L88.2245,6.64954L88.5731,6.79825L88.9206,6.94901L89.267,7.10182L89.6123,7.25667L89.9565,7.41354L90.2995,7.57243L90.6414,7.73334L90.9822,7.89626L91.3218,8.06118L91.6602,8.22807L91.9975,8.39696L92.3336,8.56783L92.6685,8.74066L93.0023,8.91544L93.3348,9.09218L93.6661,9.27086L93.9962,9.45149L94.3251,9.63404L94.6527,9.8185L94.9792,10.0049L95.3043,10.1932L95.6283,10.3834L95.9509,10.5754L96.2723,10.7694L96.5924,10.9652L96.9113,11.1629L97.2288,11.3625L97.5451,11.5639L97.86,11.7672L98.1736,11.9722L98.486,12.1792L98.7969,12.3879L99.1066,12.5984L99.4149,12.8108L99.7218,13.0249L100.027,13.2409L100.332,13.4586L100.635,13.6781L100.936,13.8994L101.236,14.1225L101.535,14.3472L101.832,14.5737L102.128,14.802L102.423,15.032L102.716,15.2637L103.007,15.4972L103.297,15.7323L103.586,15.9692L103.873,16.2077L104.159,16.4479L104.444,16.6898L104.726,16.9333L105.008,17.1786L105.288,17.4255L105.566,17.674L105.843,17.9242L106.118,18.1759L106.392,18.4294L106.665,18.6845L106.935,18.9411L107.205,19.1993L107.472,19.4591L107.739,19.7206L108.003,19.9836L108.266,20.2482L108.528,20.5144L108.787,20.7821L109.046,21.0513L109.302,21.3221L109.557,21.5945L109.811,21.8683L110.063,22.1437L110.313,22.4206L110.561,22.6991L110.808,22.9789L111.053,23.2603L111.297,23.5432L111.539,23.8275L111.779,24.1134L112.018,24.4007L112.255,24.6894L112.49,24.9796L112.723,25.2712L112.955,25.5642L113.185,25.8588L113.413,26.1547L113.64,26.452L113.864,26.7506L114.087,27.0507L114.309,27.3523L114.528,27.6551L114.746,27.9593L114.962,28.2649L115.176,28.5719L115.388,28.8802L115.599,29.1899L115.808,29.5009L116.015,29.8131L116.22,30.1268L116.423,30.4417L116.624,30.758L116.824,31.0755L117.022,31.3944L117.217,31.7145L117.411,32.0359L117.603,32.3586L117.794,32.6824L117.982,33.0076L118.168,33.3341L118.353,33.6617L118.535,33.9906L118.716,34.3207L118.895,34.652L119.071,34.9845L119.246,35.3183L119.419,35.6532L119.59,35.9893L119.759,36.3266L119.926,36.665L120.091,37.0046L120.253,37.3454L120.414,37.6873L120.573,38.0303L120.73,38.3744L120.885,38.7198L121.038,39.0662L121.189,39.4137L121.337,39.7623L121.484,40.112L121.629,40.4629L121.771,40.8147L121.911,41.1676L122.05,41.5216L122.186,41.8767L122.32,42.2327L122.452,42.5898L122.582,42.948L122.71,43.3071L122.835,43.6673L122.959,44.0285L123.08,44.3907L123.199,44.7538L123.316,45.1179L123.431,45.4831L123.544,45.8491L123.654,46.2161L123.762,46.5841L123.868,46.9531L123.972,47.3229L124.074,47.6937L124.173,48.0653L124.27,48.4379L124.365,48.8115L124.458,49.1858L124.548,49.561L124.636,49.9371L124.722,50.3142L124.805,50.692L124.886,51.0707L124.965,51.4502L125.042,51.8305L125.116,52.2118L125.188,52.5938L125.258,52.9765L125.325,53.3601L125.39,53.7445L125.453,54.1297L125.513,54.5156L125.571,54.9023L125.626,55.2897L125.679,55.6779L125.73,56.0669L125.778,56.4565L125.824,56.8469L125.867,57.238L125.908,57.6297L125.947,58.0222L125.983,58.4154L126.017,58.8092L126.048,59.2037L126.077,59.5988L126.103,59.9947L126.127,60.3911L126.149,60.7882L126.168,61.1859L126.184,61.5841L126.198,61.983L126.209,62.3825L126.218,62.7827L126.224,63.1834L126.228,63.5845L126.229,63.9704L126.229,63.9863L126.229,64.0022L126.228,64.3881L126.224,64.7892L126.218,65.1899L126.209,65.5901L126.198,65.9896L126.184,66.3885L126.168,66.7867L126.149,67.1844L126.127,67.5815L126.103,67.9779L126.077,68.3738L126.048,68.7689L126.017,69.1634L125.983,69.5572L125.947,69.9504L125.908,70.3429L125.867,70.7346L125.824,71.1257L125.778,71.5161L125.73,71.9057L125.679,72.2947L125.626,72.6829L125.571,73.0703L125.513,73.457L125.453,73.8429L125.39,74.2281L125.325,74.6125L125.258,74.9961L125.188,75.3788L125.116,75.7608L125.042,76.1421L124.965,76.5224L124.886,76.9019L124.805,77.2806L124.722,77.6584L124.636,78.0355L124.548,78.4116L124.458,78.7868L124.365,79.1611L124.27,79.5347L124.173,79.9073L124.074,80.2789L123.972,80.6497L123.868,81.0195L123.762,81.3885L123.654,81.7565L123.544,82.1235L123.431,82.4895L123.316,82.8547L123.199,83.2188L123.08,83.5819L122.959,83.9441L122.835,84.3053L122.71,84.6655L122.582,85.0246L122.452,85.3828L122.32,85.7399L122.186,86.096L122.05,86.451L121.911,86.805L121.771,87.1579L121.629,87.5097L121.484,87.8606L121.337,88.2103L121.189,88.5589L121.038,88.9064L120.885,89.2528L120.73,89.5982L120.573,89.9423L120.414,90.2853L120.253,90.6272L120.091,90.968L119.926,91.3076L119.759,91.646L119.59,91.9833L119.419,92.3194L119.246,92.6543L119.071,92.988L118.895,93.3206L118.716,93.6519L118.535,93.982L118.353,94.3109L118.168,94.6386L117.982,94.965L117.794,95.2902L117.603,95.614L117.411,95.9367L117.217,96.2582L117.022,96.5782L116.824,96.897L116.624,97.2146L116.423,97.5309L116.22,97.8458L116.015,98.1595L115.808,98.4717L115.599,98.7827L115.388,99.0924L115.176,99.4007L114.962,99.7077L114.746,100.013L114.528,100.317L114.309,100.62L114.087,100.922L113.864,101.222L113.64,101.521L113.413,101.818L113.185,102.114L112.955,102.408L112.723,102.701L112.49,102.993L112.254,103.283L112.018,103.572L111.779,103.859L111.539,104.145L111.297,104.429L111.053,104.712L110.808,104.994L110.561,105.274L110.313,105.552L110.063,105.829L109.811,106.104L109.557,106.378L109.302,106.65L109.046,106.921L108.787,107.191L108.528,107.458L108.266,107.724L108.003,107.989L107.739,108.252L107.472,108.513L107.205,108.773L106.936,109.031L106.665,109.288L106.392,109.543L106.118,109.797L105.843,110.048L105.566,110.299L105.288,110.547L105.008,110.794L104.726,111.039L104.444,111.283L104.159,111.525L103.873,111.765L103.586,112.003L103.297,112.24L103.007,112.475L102.716,112.709L102.423,112.941L102.128,113.171L101.832,113.399L101.535,113.625L101.236,113.85L100.936,114.073L100.635,114.294L100.332,114.514L100.027,114.732L99.7218,114.948L99.4149,115.162L99.1066,115.374L98.7969,115.585L98.486,115.793L98.1737,116L97.86,116.205L97.5451,116.409L97.2288,116.61L96.9113,116.81L96.5924,117.007L96.2723,117.203L95.951,117.397L95.6283,117.589L95.3043,117.779L94.9792,117.968L94.6527,118.154L94.325,118.339L93.9962,118.521L93.6661,118.702L93.3348,118.88L93.0023,119.057L92.6685,119.232L92.3337,119.405L91.9975,119.576L91.6602,119.745L91.3218,119.911L90.9822,120.076L90.6414,120.239L90.2995,120.4L89.9565,120.559L89.6123,120.716L89.267,120.871L88.9206,121.024L88.5731,121.174L88.2245,121.323L87.8748,121.47L87.524,121.614L87.1722,121.757L86.8192,121.897L86.4652,122.036L86.1102,122.172L85.7541,122.306L85.397,122.438L85.0389,122.568L84.6797,122.696L84.3195,122.821L83.9583,122.945L83.5962,123.066L83.233,123.185L82.8688,123.302L82.5037,123.417L82.1376,123.529L81.7706,123.64L81.4026,123.748L81.0338,123.854L80.6639,123.958L80.2931,124.059L79.9214,124.159L79.5489,124.256L79.1754,124.351L78.801,124.443L78.4257,124.534L78.0497,124.622L77.6727,124.708L77.2948,124.791L76.9161,124.872L76.5366,124.951L76.1562,125.028L75.775,125.102L75.3931,125.174L75.0102,125.244L74.6266,125.311L74.2423,125.376L73.8571,125.438L73.4712,125.499L73.0846,125.556L72.697,125.612L72.3089,125.665L71.92,125.716L71.5302,125.764L71.1399,125.81L70.7489,125.853L70.357,125.894L69.9645,125.933L69.5714,125.969L69.1776,126.003L68.7831,126.034L68.388,126.063L67.9922,126.089L67.5957,126.113L67.1986,126.134L66.8009,126.153L66.4027,126.17L66.0038,126.184L65.6042,126.195L65.2041,126.204L64.8035,126.21L64.4023,126.214L64.0005,126.215ZM64.0005,116.215L64.339,116.214L64.6768,116.211L65.0142,116.206L65.351,116.198L65.6872,116.189L66.0228,116.177L66.3579,116.163L66.6924,116.147L67.0263,116.129L67.3596,116.109L67.6923,116.087L68.0244,116.063L68.3559,116.037L68.6868,116.008L69.0171,115.978L69.3468,115.945L69.6757,115.911L70.0041,115.874L70.3319,115.836L70.6589,115.795L70.9854,115.753L71.3112,115.708L71.6363,115.662L71.9607,115.613L72.2846,115.563L72.6077,115.51L72.9302,115.456L73.2519,115.399L73.5729,115.341L73.8933,115.281L74.213,115.218L74.5318,115.154L74.8501,115.088L75.1676,115.02L75.4843,114.95L75.8004,114.878L76.1158,114.804L76.4303,114.728L76.7441,114.651L77.0571,114.571L77.3695,114.49L77.681,114.407L77.9917,114.322L78.3017,114.235L78.611,114.146L78.9194,114.055L79.227,113.962L79.5338,113.868L79.8398,113.772L80.145,113.674L80.4493,113.574L80.7529,113.472L81.0557,113.369L81.3575,113.263L81.6585,113.156L81.9588,113.047L82.2581,112.937L82.5566,112.824L82.8542,112.71L83.1509,112.594L83.4467,112.477L83.7417,112.357L84.0358,112.236L84.329,112.113L84.6213,111.988L84.9126,111.862L85.2031,111.734L85.4926,111.604L85.7812,111.472L86.0689,111.339L86.3556,111.204L86.6414,111.068L86.9262,110.929L87.21,110.789L87.4929,110.648L87.7748,110.504L88.0558,110.359L88.3357,110.213L88.6147,110.064L88.8927,109.915L89.1696,109.763L89.4456,109.61L89.7205,109.455L89.9944,109.299L90.2673,109.141L90.539,108.981L90.8098,108.82L91.0796,108.657L91.3483,108.493L91.6159,108.327L91.8824,108.159L92.1479,107.99L92.4123,107.82L92.6756,107.647L92.9378,107.474L93.1989,107.298L93.4589,107.122L93.7177,106.943L93.9755,106.763L94.2321,106.582L94.4876,106.399L94.742,106.215L94.9951,106.029L95.2471,105.842L95.498,105.653L95.7477,105.463L95.9962,105.271L96.2436,105.078L96.4898,104.883L96.7347,104.687L96.9785,104.49L97.221,104.291L97.4624,104.09L97.7025,103.889L97.9413,103.685L98.179,103.481L98.4155,103.275L98.6506,103.067L98.8845,102.858L99.1172,102.648L99.3485,102.437L99.5786,102.224L99.8074,102.01L100.035,101.794L100.261,101.577L100.486,101.359L100.71,101.139L100.932,100.918L101.153,100.696L101.373,100.472L101.591,100.247L101.808,100.021L102.024,99.7932L102.238,99.5644L102.451,99.3343L102.662,99.1029L102.873,98.8703L103.081,98.6364L103.289,98.4012L103.495,98.1648L103.699,97.9272L103.903,97.6882L104.105,97.4481L104.305,97.2069L104.504,96.9643L104.701,96.7205L104.897,96.4756L105.092,96.2294L105.285,95.982L105.477,95.7335L105.667,95.4838L105.856,95.233L106.043,94.9809L106.229,94.7277L106.414,94.4734L106.596,94.2179L106.778,93.9613L106.958,93.7036L107.136,93.4447L107.313,93.1847L107.488,92.9236L107.662,92.6614L107.834,92.3981L108.004,92.1337L108.173,91.8682L108.341,91.6017L108.507,91.3341L108.671,91.0653L108.834,90.7957L108.995,90.5249L109.155,90.253L109.313,89.9801L109.469,89.7063L109.624,89.4313L109.777,89.1554L109.929,88.8784L110.079,88.6005L110.227,88.3215L110.374,88.0416L110.518,87.7606L110.662,87.4787L110.803,87.1958L110.943,86.9119L111.082,86.6272L111.218,86.3414L111.353,86.0547L111.487,85.767L111.618,85.4783L111.748,85.1889L111.876,84.8984L112.002,84.607L112.127,84.3148L112.25,84.0216L112.371,83.7276L112.491,83.4326L112.608,83.1367L112.724,82.84L112.839,82.5424L112.951,82.2439L113.062,81.9445L113.171,81.6444L113.278,81.3433L113.383,81.0414L113.486,80.7388L113.588,80.4352L113.688,80.1308L113.786,79.8256L113.882,79.5196L113.977,79.2128L114.069,78.9051L114.16,78.5967L114.249,78.2876L114.336,77.9776L114.421,77.6668L114.504,77.3552L114.585,77.0429L114.665,76.73L114.743,76.4161L114.818,76.1015L114.892,75.7862L114.964,75.4702L115.034,75.1534L115.102,74.8359L115.168,74.5176L115.233,74.1987L115.295,73.8791L115.355,73.5588L115.414,73.2376L115.47,72.9159L115.524,72.5935L115.577,72.2704L115.627,71.9466L115.676,71.6221L115.723,71.297L115.767,70.9712L115.81,70.6447L115.85,70.3176L115.889,69.9899L115.925,69.6616L115.96,69.3325L115.992,69.0028L116.022,68.6726L116.051,68.3417L116.077,68.0102L116.101,67.6781L116.123,67.3454L116.143,67.0121L116.161,66.6782L116.177,66.3437L116.191,66.0086L116.203,65.673L116.212,65.3368L116.22,65L116.225,64.6627L116.228,64.3248L116.229,63.9863L116.228,63.6479L116.225,63.3099L116.22,62.9726L116.212,62.6358L116.203,62.2996L116.191,61.964L116.177,61.6289L116.161,61.2944L116.143,60.9605L116.123,60.6272L116.101,60.2945L116.077,59.9624L116.051,59.6309L116.022,59.3L115.992,58.9698L115.96,58.6401L115.925,58.311L115.889,57.9827L115.85,57.655L115.81,57.3279L115.767,57.0014L115.723,56.6756L115.676,56.3505L115.627,56.026L115.577,55.7022L115.524,55.3791L115.47,55.0567L115.414,54.735L115.355,54.4138L115.295,54.0935L115.233,53.7739L115.168,53.455L115.102,53.1367L115.034,52.8192L114.964,52.5024L114.892,52.1864L114.818,51.8711L114.743,51.5565L114.665,51.2426L114.585,50.9297L114.504,50.6174L114.421,50.3058L114.336,49.995L114.249,49.685L114.16,49.3759L114.069,49.0675L113.977,48.7598L113.882,48.453L113.786,48.147L113.688,47.8418L113.588,47.5374L113.486,47.2338L113.383,46.9312L113.278,46.6293L113.171,46.3282L113.062,46.0281L112.951,45.7287L112.839,45.4302L112.724,45.1326L112.608,44.8359L112.491,44.54L112.371,44.245L112.25,43.951L112.127,43.6578L112.002,43.3656L111.876,43.0742L111.748,42.7837L111.618,42.4943L111.487,42.2056L111.353,41.9179L111.218,41.6312L111.082,41.3454L110.943,41.0606L110.803,40.7768L110.662,40.4939L110.518,40.212L110.374,39.931L110.227,39.6511L110.079,39.3721L109.929,39.0941L109.777,38.8172L109.624,38.5413L109.469,38.2663L109.313,37.9924L109.155,37.7196L108.995,37.4477L108.834,37.1769L108.671,36.9072L108.507,36.6385L108.341,36.3709L108.173,36.1044L108.004,35.8389L107.834,35.5745L107.662,35.3112L107.488,35.049L107.313,34.7879L107.136,34.5279L106.958,34.2691L106.778,34.0113L106.596,33.7547L106.414,33.4992L106.229,33.2449L106.043,32.9917L105.856,32.7397L105.667,32.4888L105.477,32.239L105.285,31.9905L105.092,31.7432L104.897,31.4971L104.701,31.2521L104.504,31.0083L104.305,30.7658L104.105,30.5245L103.903,30.2843L103.699,30.0454L103.495,29.8078L103.289,29.5714L103.081,29.3362L102.873,29.1023L102.662,28.8697L102.451,28.6383L102.238,28.4082L102.024,28.1794L101.808,27.9519L101.591,27.7256L101.373,27.5006L101.153,27.277L100.932,27.0547L100.71,26.8338L100.486,26.6141L100.261,26.3957L100.035,26.1787L99.8074,25.9631L99.5786,25.7488L99.3485,25.5359L99.1171,25.3243L98.8845,25.1142L98.6506,24.9054L98.4154,24.698L98.179,24.4919L97.9413,24.2873L97.7025,24.0841L97.4624,23.8823L97.221,23.6819L96.9785,23.483L96.7347,23.2854L96.4897,23.0893L96.2436,22.8947L95.9963,22.7015L95.7477,22.5098L95.498,22.3195L95.2471,22.1307L94.9951,21.9434L94.7419,21.7576L94.4876,21.5733L94.2321,21.3904L93.9755,21.2091L93.7177,21.0293L93.4589,20.851L93.1989,20.6742L92.9378,20.4989L92.6756,20.3252L92.4123,20.153L92.1479,19.9824L91.8824,19.8134L91.6159,19.6458L91.3483,19.4799L91.0796,19.3155L90.8098,19.1527L90.5391,18.9916L90.2672,18.832L89.9944,18.674L89.7205,18.5176L89.4455,18.3628L89.1696,18.2096L88.8927,18.0581L88.6147,17.9082L88.3357,17.7599L88.0558,17.6133L87.7748,17.4683L87.4929,17.325L87.21,17.1833L86.9262,17.0433L86.6414,16.905L86.3556,16.7684L86.0689,16.6335L85.7812,16.5002L85.4926,16.3687L85.2031,16.2389L84.9126,16.1107L84.6213,15.9843L84.329,15.8597L84.0358,15.7367L83.7417,15.6155L83.4468,15.496L83.1509,15.3783L82.8542,15.2624L82.5565,15.1482L82.2581,15.0357L81.9588,14.9251L81.6586,14.8162L81.3575,14.7092L81.0556,14.6039L80.7529,14.5004L80.4494,14.3987L80.145,14.2989L79.8398,14.2008L79.5338,14.1046L79.227,14.0102L78.9194,13.9177L78.6109,13.827L78.3017,13.7381L77.9918,13.6511L77.681,13.566L77.3695,13.4827L77.0572,13.4013L76.7441,13.3218L76.4303,13.2442L76.1157,13.1685L75.8004,13.0947L75.4844,13.0227L75.1676,12.9527L74.8501,12.8847L74.5319,12.8185L74.2129,12.7543L73.8933,12.692L73.5729,12.6317L73.2519,12.5733L72.9301,12.5168L72.6077,12.4624L72.2846,12.4099L71.9608,12.3594L71.6363,12.3108L71.3112,12.2643L70.9854,12.2197L70.6589,12.1772L70.3318,12.1367L70.0041,12.0982L69.6757,12.0617L69.3467,12.0272L69.0171,11.9948L68.6868,11.9644L68.3559,11.9361L68.0244,11.9098L67.6923,11.8856L67.3596,11.8634L67.0263,11.8434L66.6924,11.8254L66.3579,11.8095L66.0229,11.7957L65.6872,11.784L65.351,11.7744L65.0142,11.7669L64.6769,11.7616L64.339,11.7584L64.0005,11.7573L63.662,11.7584L63.3241,11.7616L62.9868,11.7669L62.65,11.7744L62.3138,11.784L61.9782,11.7957L61.6431,11.8095L61.3086,11.8254L60.9747,11.8434L60.6414,11.8634L60.3087,11.8856L59.9766,11.9098L59.6451,11.9361L59.3142,11.9644L58.9839,11.9948L58.6543,12.0272L58.3253,12.0617L57.9969,12.0982L57.6692,12.1367L57.3421,12.1772L57.0156,12.2197L56.6898,12.2643L56.3647,12.3108L56.0402,12.3594L55.7164,12.4099L55.3933,12.4624L55.0709,12.5168L54.7491,12.5733L54.4281,12.6317L54.1077,12.692L53.7881,12.7543L53.4691,12.8185L53.1509,12.8847L52.8334,12.9527L52.5166,13.0227L52.2006,13.0947L51.8853,13.1685L51.5707,13.2442L51.2569,13.3218L50.9438,13.4013L50.6315,13.4827L50.32,13.566L50.0092,13.6511L49.6993,13.7381L49.39,13.827L49.0816,13.9177L48.774,14.0102L48.4672,14.1046L48.1612,14.2008L47.856,14.2989L47.5516,14.3987L47.2481,14.5004L46.9454,14.6039L46.6435,14.7092L46.3424,14.8162L46.0422,14.9251L45.7429,15.0358L45.4444,15.1482L45.1468,15.2624L44.8501,15.3783L44.5542,15.496L44.2593,15.6155L43.9652,15.7367L43.672,15.8597L43.3797,15.9843L43.0884,16.1107L42.7979,16.2389L42.5084,16.3687L42.2198,16.5002L41.9321,16.6335L41.6454,16.7684L41.3596,16.905L41.0748,17.0433L40.791,17.1833L40.5081,17.325L40.2262,17.4683L39.9452,17.6133L39.6653,17.7599L39.3863,17.9082L39.1084,18.0581L38.8314,18.2096L38.5555,18.3628L38.2805,18.5176L38.0066,18.674L37.7338,18.832L37.4619,18.9916L37.1911,19.1528L36.9214,19.3155L36.6527,19.4799L36.3851,19.6458L36.1186,19.8133L35.8531,19.9824L35.5887,20.153L35.3254,20.3252L35.0632,20.4989L34.8021,20.6742L34.5421,20.851L34.2833,21.0293L34.0255,21.2091L33.7689,21.3904L33.5134,21.5733L33.2591,21.7576L33.0059,21.9434L32.7539,22.1307L32.503,22.3195L32.2533,22.5098L32.0047,22.7015L31.7574,22.8947L31.5112,23.0893L31.2663,23.2854L31.0225,23.4829L30.78,23.6819L30.5386,23.8823L30.2985,24.0841L30.0596,24.2873L29.822,24.4919L29.5856,24.6979L29.3504,24.9054L29.1165,25.1142L28.8839,25.3243L28.6525,25.5359L28.4224,25.7488L28.1936,25.9631L27.966,26.1788L27.7398,26.3957L27.5149,26.6141L27.2912,26.8337L27.0689,27.0547L26.8479,27.277L26.6283,27.5007L26.4099,27.7256L26.193,27.9518L25.9773,28.1794L25.763,28.4082L25.5501,28.6383L25.3385,28.8697L25.1284,29.1023L24.9196,29.3362L24.7121,29.5714L24.5061,29.8078L24.3015,30.0454L24.0983,30.2843L23.8965,30.5244L23.6961,30.7658L23.4971,31.0083L23.2996,31.2521L23.1035,31.497L22.9089,31.7432L22.7157,31.9906L22.524,32.2391L22.3337,32.4888L22.1449,32.7397L21.9576,32.9917L21.7718,33.2449L21.5875,33.4992L21.4046,33.7547L21.2233,34.0113L21.0435,34.2691L20.8652,34.5279L20.6884,34.7879L20.5131,35.049L20.3394,35.3112L20.1672,35.5745L19.9966,35.8389L19.8275,36.1044L19.66,36.3709L19.4941,36.6385L19.3297,36.9072L19.167,37.1769L19.0058,37.4477L18.8462,37.7196L18.6882,37.9924L18.5318,38.2663L18.377,38.5413L18.2238,38.8172L18.0723,39.0941L17.9224,39.3721L17.7741,39.6511L17.6275,39.931L17.4825,40.212L17.3392,40.4939L17.1975,40.7768L17.0576,41.0606L16.9192,41.3455L16.7826,41.6312L16.6477,41.9179L16.5144,42.2056L16.3829,42.4942L16.2531,42.7837L16.1249,43.0742L15.9985,43.3655L15.8738,43.6578L15.7509,43.951L15.6297,44.2451L15.5102,44.54L15.3925,44.8359L15.2766,45.1326L15.1624,45.4302L15.05,45.7287L14.9393,46.028L14.8304,46.3282L14.7234,46.6293L14.6181,46.9312L14.5146,47.2339L14.4129,47.5374L14.3131,47.8418L14.215,48.147L14.1188,48.453L14.0244,48.7598L13.9319,49.0674L13.8412,49.3758L13.7523,49.685L13.6653,49.995L13.5802,50.3058L13.4969,50.6173L13.4155,50.9296L13.336,51.2427L13.2584,51.5565L13.1827,51.8711L13.1089,52.1864L13.0369,52.5024L12.9669,52.8192L12.8989,53.1367L12.8327,53.4549L12.7685,53.7739L12.7062,54.0935L12.6459,54.4139L12.5875,54.7349L12.531,55.0567L12.4766,55.3791L12.4241,55.7022L12.3736,56.026L12.325,56.3505L12.2785,56.6756L12.2339,57.0014L12.1914,57.3279L12.1509,57.655L12.1124,57.9827L12.0759,58.3111L12.0414,58.6401L12.009,58.9697L11.9786,59.3L11.9503,59.6309L11.924,59.9624L11.8998,60.2945L11.8776,60.6272L11.8576,60.9605L11.8396,61.2944L11.8237,61.6289L11.8099,61.9639L11.7982,62.2996L11.7886,62.6358L11.7811,62.9726L11.7758,63.3099L11.7726,63.6478L11.7715,63.9863L11.7726,64.3248L11.7758,64.6627L11.7811,65L11.7886,65.3368L11.7982,65.673L11.8099,66.0087L11.8237,66.3437L11.8396,66.6782L11.8576,67.0121L11.8776,67.3454L11.8998,67.6781L11.924,68.0102L11.9503,68.3417L11.9786,68.6726L12.009,69.0029L12.0414,69.3325L12.0759,69.6615L12.1124,69.9899L12.1509,70.3176L12.1914,70.6447L12.2339,70.9712L12.2785,71.297L12.325,71.6221L12.3736,71.9466L12.4241,72.2704L12.4766,72.5935L12.531,72.9159L12.5875,73.2377L12.6459,73.5587L12.7062,73.8791L12.7685,74.1987L12.8327,74.5177L12.8989,74.8359L12.9669,75.1534L13.0369,75.4702L13.1089,75.7862L13.1827,76.1015L13.2584,76.4161L13.336,76.7299L13.4155,77.043L13.4969,77.3553L13.5802,77.6668L13.6653,77.9776L13.7523,78.2876L13.8412,78.5968L13.9319,78.9052L14.0244,79.2128L14.1188,79.5196L14.215,79.8256L14.3131,80.1308L14.4129,80.4352L14.5146,80.7387L14.6181,81.0414L14.7234,81.3433L14.8304,81.6444L14.9393,81.9446L15.05,82.2439L15.1624,82.5424L15.2766,82.84L15.3925,83.1367L15.5102,83.4326L15.6297,83.7275L15.7509,84.0216L15.8739,84.3148L15.9985,84.6071L16.1249,84.8984L16.2531,85.1889L16.3829,85.4784L16.5144,85.767L16.6477,86.0546L16.7826,86.3414L16.9192,86.6272L17.0575,86.912L17.1975,87.1958L17.3392,87.4787L17.4825,87.7606L17.6275,88.0416L17.7741,88.3215L17.9224,88.6005L18.0723,88.8784L18.2238,89.1554L18.377,89.4313L18.5318,89.7063L18.6882,89.9802L18.8462,90.253L19.0058,90.5249L19.167,90.7957L19.3297,91.0654L19.4941,91.3341L19.66,91.6017L19.8275,91.8682L19.9966,92.1337L20.1672,92.3981L20.3394,92.6614L20.5131,92.9236L20.6884,93.1847L20.8652,93.4447L21.0435,93.7036L21.2233,93.9613L21.4046,94.2179L21.5875,94.4734L21.7718,94.7277L21.9576,94.9809L22.1449,95.233L22.3337,95.4838L22.524,95.7335L22.7157,95.982L22.9089,96.2294L23.1036,96.4756L23.2996,96.7205L23.4971,96.9643L23.6961,97.2068L23.8965,97.4482L24.0983,97.6883L24.3015,97.9272L24.5061,98.1648L24.7121,98.4012L24.9196,98.6364L25.1284,98.8703L25.3385,99.1029L25.5501,99.3343L25.763,99.5644L25.9773,99.7932L26.193,100.021L26.4099,100.247L26.6283,100.472L26.8479,100.696L27.0689,100.918L27.2913,101.139L27.5149,101.359L27.7398,101.577L27.9661,101.794L28.1936,102.009L28.4224,102.224L28.6525,102.437L28.8838,102.648L29.1165,102.858L29.3504,103.067L29.5856,103.275L29.822,103.481L30.0597,103.685L30.2985,103.888L30.5386,104.09L30.78,104.291L31.0225,104.49L31.2663,104.687L31.5112,104.883L31.7574,105.078L32.0048,105.271L32.2533,105.463L32.503,105.653L32.7539,105.842L33.0059,106.029L33.2591,106.215L33.5134,106.399L33.7689,106.582L34.0255,106.764L34.2833,106.943L34.5421,107.122L34.8021,107.298L35.0632,107.474L35.3254,107.647L35.5887,107.82L35.8531,107.99L36.1186,108.159L36.3851,108.327L36.6527,108.493L36.9214,108.657L37.1912,108.82L37.462,108.981L37.7338,109.141L38.0067,109.299L38.2805,109.455L38.5554,109.61L38.8314,109.763L39.1084,109.915L39.3863,110.064L39.6653,110.213L39.9452,110.359L40.2262,110.504L40.5081,110.648L40.791,110.789L41.0748,110.929L41.3596,111.068L41.6454,111.204L41.9321,111.339L42.2198,111.472L42.5084,111.604L42.7979,111.734L43.0884,111.862L43.3797,111.988L43.672,112.113L43.9652,112.236L44.2593,112.357L44.5543,112.477L44.8501,112.594L45.1468,112.71L45.4444,112.824L45.7429,112.937L46.0422,113.047L46.3425,113.156L46.6435,113.263L46.9453,113.369L47.2481,113.472L47.5517,113.574L47.8561,113.674L48.1612,113.772L48.4672,113.868L48.774,113.962L49.0816,114.055L49.39,114.146L49.6993,114.234L50.0093,114.322L50.32,114.407L50.6315,114.49L50.9439,114.571L51.2569,114.651L51.5707,114.728L51.8852,114.804L52.2006,114.878L52.5167,114.95L52.8334,115.02L53.1509,115.088L53.4692,115.154L53.788,115.218L54.1077,115.281L54.4281,115.341L54.7491,115.399L55.0709,115.456L55.3933,115.51L55.7164,115.563L56.0403,115.613L56.3648,115.662L56.6898,115.708L57.0156,115.753L57.3421,115.795L57.6691,115.836L57.9969,115.874L58.3253,115.911L58.6542,115.945L58.9839,115.978L59.3142,116.008L59.6451,116.037L59.9766,116.063L60.3087,116.087L60.6414,116.109L60.9747,116.129L61.3086,116.147L61.6431,116.163L61.9782,116.177L62.3138,116.189L62.65,116.198L62.9868,116.206L63.3242,116.211L63.6621,116.214L64.0005,116.215Z" style="fill:rgb(153,153,153);"/>
            </g>
            <g>
                <path d="M74.545,66.4925L71.413,59.3985C67.578,50.6215 64.479,44.7305 62.114,41.7275C59.75,38.7235 57.075,37.2215 54.094,37.2215C49.876,37.2215 46.413,39.8215 43.708,45.0185C41.002,50.2175 39.65,56.8425 39.65,64.8945C39.65,72.6915 40.917,78.9665 43.452,83.7165C45.987,88.4675 49.342,90.8425 53.519,90.8425C57.139,90.8425 60.462,89.0955 63.488,85.6015C66.513,82.1085 70.199,75.7385 74.545,66.4925M81,52.9435C83.982,44.8055 86.24,36.9245 87.774,29.2965L99.533,29.2965C97.274,39.0115 92.695,50.5575 85.793,63.9355L87.071,67.0035C87.624,68.2405 88.945,71.0725 91.033,75.5035C92.312,78.2305 93.802,81.4695 95.507,85.2185C98.064,91.0555 100.15,95.5505 101.771,98.7025L88.349,98.7025C87.838,97.6385 87.539,96.9995 87.454,96.7855L84.578,90.1385L81.958,84.0035L79.849,79.0825L78.827,76.7185C74.906,85.4095 70.934,91.5135 66.907,95.0285C62.881,98.5435 57.864,100.3 51.857,100.3C44.102,100.3 37.893,97.2645 33.227,91.1935C28.562,85.1215 26.229,77.0375 26.229,66.9395C26.229,55.1385 28.902,45.6475 34.25,38.4685C39.596,31.2895 46.68,27.6995 55.5,27.6995C61.379,27.6995 66.066,29.4245 69.56,32.8755C73.053,36.3265 76.866,43.0165 81,52.9435" style="fill:rgb(230,230,230);fill-rule:nonzero;"/>
            </g>
        </g>
    </g>
</svg>
