<?xml version="1.0" standalone="no"?>
<!DOCTYPE svg PUBLIC "-//W3C//DTD SVG 1.1//EN" "http://www.w3.org/Graphics/SVG/1.1/DTD/svg11.dtd">
<svg width="100%" height="100%" viewBox="0 0 128 128" version="1.1" xmlns="http://www.w3.org/2000/svg" xmlns:xlink="http://www.w3.org/1999/xlink" xml:space="preserve" style="fill-rule:evenodd;clip-rule:evenodd;stroke-linejoin:round;stroke-miterlimit:1.41421;">
    <g id="Me Merge PLUS">
        <g>
            <path d="M121.23,63.986C121.23,95.593 95.608,121.215 64,121.215C32.394,121.215 6.772,95.593 6.772,63.986C6.772,32.379 32.394,6.757 64,6.757C95.608,6.757 121.23,32.379 121.23,63.986" style="fill:rgb(102,102,102);fill-rule:nonzero;"/>
            <path d="M64,126.215L63.599,126.214L63.197,126.21L62.797,126.204L62.397,126.195L61.997,126.184L61.598,126.17L61.2,126.153L60.802,126.134L60.405,126.113L60.009,126.089L59.613,126.063L59.218,126.034L58.823,126.003L58.43,125.969L58.036,125.933L57.644,125.894L57.252,125.853L56.861,125.81L56.471,125.764L56.081,125.716L55.692,125.665L55.304,125.612L54.916,125.556L54.53,125.499L54.144,125.438L53.759,125.376L53.374,125.311L52.991,125.244L52.608,125.174L52.226,125.102L51.845,125.028L51.464,124.951L51.085,124.872L50.706,124.791L50.328,124.708L49.951,124.622L49.575,124.534L49.2,124.443L48.826,124.351L48.452,124.256L48.08,124.159L47.708,124.059L47.337,123.958L46.967,123.854L46.598,123.748L46.23,123.64L45.863,123.529L45.497,123.417L45.132,123.302L44.768,123.185L44.405,123.066L44.043,122.945L43.682,122.821L43.321,122.696L42.962,122.568L42.604,122.438L42.247,122.306L41.891,122.172L41.536,122.036L41.182,121.897L40.829,121.757L40.477,121.614L40.126,121.47L39.777,121.323L39.428,121.174L39.08,121.024L38.734,120.871L38.389,120.716L38.045,120.559L37.701,120.4L37.36,120.239L37.019,120.076L36.679,119.911L36.341,119.745L36.004,119.576L35.667,119.405L35.332,119.232L34.999,119.057L34.666,118.88L34.335,118.702L34.005,118.521L33.676,118.339L33.348,118.154L33.022,117.968L32.697,117.779L32.373,117.589L32.05,117.397L31.729,117.203L31.409,117.007L31.09,116.81L30.772,116.61L30.456,116.409L30.141,116.205L29.827,116L29.515,115.793L29.204,115.585L28.894,115.374L28.586,115.162L28.279,114.948L27.974,114.732L27.669,114.514L27.366,114.294L27.065,114.073L26.765,113.85L26.466,113.625L26.169,113.399L25.873,113.171L25.578,112.941L25.285,112.709L24.994,112.475L24.704,112.24L24.415,112.003L24.128,111.765L23.842,111.525L23.557,111.283L23.275,111.039L22.993,110.794L22.713,110.547L22.435,110.299L22.158,110.048L21.883,109.797L21.609,109.543L21.336,109.288L21.066,109.032L20.796,108.773L20.529,108.513L20.262,108.252L19.998,107.989L19.735,107.724L19.473,107.458L19.214,107.191L18.955,106.921L18.699,106.65L18.444,106.378L18.19,106.104L17.938,105.829L17.688,105.552L17.44,105.274L17.193,104.994L16.948,104.712L16.704,104.429L16.462,104.145L16.222,103.859L15.983,103.572L15.747,103.283L15.511,102.993L15.278,102.701L15.046,102.408L14.816,102.114L14.588,101.818L14.361,101.521L14.137,101.222L13.914,100.922L13.692,100.62L13.473,100.318L13.255,100.013L13.039,99.708L12.825,99.401L12.613,99.092L12.402,98.783L12.193,98.472L11.986,98.159L11.781,97.846L11.578,97.531L11.377,97.215L11.177,96.897L10.979,96.578L10.784,96.258L10.59,95.937L10.398,95.614L10.207,95.29L10.019,94.965L9.833,94.639L9.648,94.311L9.466,93.982L9.285,93.652L9.106,93.321L8.93,92.988L8.755,92.654L8.582,92.319L8.411,91.983L8.242,91.646L8.075,91.308L7.91,90.968L7.748,90.627L7.587,90.285L7.428,89.942L7.271,89.598L7.116,89.253L6.963,88.906L6.812,88.559L6.664,88.21L6.517,87.861L6.373,87.51L6.23,87.158L6.09,86.805L5.951,86.451L5.815,86.096L5.681,85.74L5.549,85.383L5.419,85.025L5.291,84.665L5.166,84.305L5.042,83.944L4.921,83.582L4.802,83.219L4.685,82.855L4.57,82.49L4.457,82.123L4.347,81.756L4.239,81.388L4.133,81.02L4.029,80.65L3.927,80.279L3.828,79.907L3.731,79.535L3.636,79.161L3.543,78.787L3.453,78.412L3.365,78.035L3.279,77.658L3.196,77.281L3.115,76.902L3.036,76.522L2.959,76.142L2.885,75.761L2.813,75.379L2.743,74.996L2.676,74.612L2.611,74.228L2.548,73.843L2.488,73.457L2.43,73.07L2.375,72.683L2.322,72.295L2.271,71.906L2.223,71.516L2.177,71.126L2.134,70.735L2.093,70.343L2.054,69.95L2.018,69.557L1.984,69.163L1.953,68.769L1.924,68.374L1.898,67.978L1.874,67.582L1.852,67.184L1.833,66.787L1.817,66.388L1.803,65.99L1.792,65.59L1.783,65.19L1.777,64.789L1.773,64.388L1.771,63.986L1.773,63.585L1.777,63.183L1.783,62.783L1.792,62.383L1.803,61.983L1.817,61.584L1.833,61.186L1.852,60.788L1.874,60.391L1.898,59.995L1.924,59.599L1.953,59.204L1.984,58.809L2.018,58.415L2.054,58.022L2.093,57.63L2.134,57.238L2.177,56.847L2.223,56.457L2.271,56.067L2.322,55.678L2.375,55.29L2.43,54.902L2.488,54.516L2.548,54.13L2.611,53.745L2.676,53.36L2.743,52.977L2.813,52.594L2.885,52.212L2.959,51.831L3.036,51.45L3.115,51.071L3.196,50.692L3.279,50.314L3.365,49.937L3.453,49.561L3.543,49.186L3.636,48.811L3.731,48.438L3.828,48.065L3.927,47.694L4.029,47.323L4.133,46.953L4.239,46.584L4.347,46.216L4.457,45.849L4.57,45.483L4.685,45.118L4.802,44.754L4.921,44.391L5.042,44.028L5.166,43.667L5.291,43.307L5.419,42.948L5.549,42.59L5.681,42.233L5.815,41.877L5.951,41.522L6.09,41.168L6.23,40.815L6.373,40.463L6.517,40.112L6.664,39.762L6.812,39.414L6.963,39.066L7.116,38.72L7.271,38.374L7.428,38.03L7.587,37.687L7.748,37.345L7.91,37.005L8.075,36.665L8.242,36.327L8.411,35.989L8.582,35.653L8.755,35.318L8.93,34.985L9.106,34.652L9.285,34.321L9.466,33.991L9.648,33.662L9.833,33.334L10.019,33.008L10.207,32.682L10.398,32.359L10.59,32.036L10.784,31.714L10.979,31.394L11.177,31.076L11.377,30.758L11.578,30.442L11.781,30.127L11.986,29.813L12.193,29.501L12.402,29.19L12.613,28.88L12.825,28.572L13.039,28.265L13.255,27.959L13.473,27.655L13.692,27.352L13.914,27.051L14.137,26.751L14.361,26.452L14.588,26.155L14.816,25.859L15.046,25.564L15.278,25.271L15.511,24.98L15.747,24.689L15.983,24.401L16.222,24.113L16.462,23.828L16.704,23.543L16.948,23.26L17.193,22.979L17.44,22.699L17.688,22.421L17.938,22.144L18.19,21.868L18.444,21.594L18.699,21.322L18.955,21.051L19.214,20.782L19.473,20.514L19.735,20.248L19.998,19.984L20.262,19.721L20.529,19.459L20.796,19.199L21.066,18.941L21.336,18.684L21.609,18.429L21.883,18.176L22.158,17.924L22.435,17.674L22.713,17.425L22.993,17.179L23.275,16.933L23.557,16.69L23.842,16.448L24.128,16.208L24.415,15.969L24.704,15.732L24.994,15.497L25.285,15.264L25.578,15.032L25.873,14.802L26.169,14.574L26.466,14.347L26.765,14.122L27.065,13.899L27.366,13.678L27.669,13.459L27.974,13.241L28.279,13.025L28.586,12.811L28.894,12.598L29.204,12.388L29.515,12.179L29.827,11.972L30.141,11.767L30.456,11.564L30.772,11.362L31.09,11.163L31.409,10.965L31.729,10.769L32.05,10.575L32.373,10.383L32.697,10.193L33.022,10.005L33.348,9.819L33.676,9.634L34.005,9.451L34.335,9.271L34.666,9.092L34.999,8.915L35.332,8.741L35.667,8.568L36.003,8.397L36.341,8.228L36.679,8.061L37.019,7.896L37.36,7.733L37.701,7.572L38.045,7.414L38.389,7.257L38.734,7.102L39.08,6.949L39.428,6.798L39.777,6.65L40.126,6.503L40.477,6.358L40.829,6.216L41.182,6.075L41.536,5.937L41.891,5.801L42.247,5.667L42.604,5.535L42.962,5.405L43.321,5.277L43.681,5.151L44.043,5.028L44.405,4.907L44.768,4.788L45.132,4.671L45.497,4.556L45.863,4.443L46.23,4.333L46.598,4.224L46.967,4.118L47.337,4.015L47.708,3.913L48.08,3.814L48.452,3.717L48.826,3.622L49.2,3.529L49.575,3.439L49.951,3.351L50.328,3.265L50.706,3.182L51.085,3.1L51.464,3.021L51.845,2.945L52.226,2.871L52.608,2.799L52.991,2.729L53.374,2.662L53.759,2.597L54.144,2.534L54.53,2.474L54.917,2.416L55.304,2.361L55.692,2.308L56.081,2.257L56.471,2.209L56.861,2.163L57.252,2.119L57.644,2.078L58.036,2.04L58.43,2.004L58.823,1.97L59.218,1.939L59.613,1.91L60.009,1.883L60.405,1.86L60.802,1.838L61.2,1.819L61.598,1.803L61.997,1.789L62.397,1.778L62.797,1.769L63.197,1.762L63.599,1.759L64,1.757L64.402,1.759L64.804,1.762L65.204,1.769L65.604,1.778L66.004,1.789L66.403,1.803L66.801,1.819L67.199,1.838L67.596,1.86L67.992,1.883L68.388,1.91L68.783,1.939L69.178,1.97L69.571,2.004L69.965,2.04L70.357,2.078L70.749,2.119L71.14,2.163L71.53,2.209L71.92,2.257L72.309,2.308L72.697,2.361L73.084,2.416L73.471,2.474L73.857,2.534L74.242,2.597L74.627,2.662L75.01,2.729L75.393,2.799L75.775,2.871L76.156,2.945L76.537,3.021L76.916,3.1L77.295,3.182L77.673,3.265L78.05,3.351L78.426,3.439L78.801,3.529L79.175,3.622L79.549,3.717L79.921,3.814L80.293,3.913L80.664,4.015L81.034,4.118L81.403,4.224L81.771,4.333L82.138,4.443L82.504,4.556L82.869,4.671L83.233,4.788L83.596,4.907L83.958,5.028L84.32,5.151L84.68,5.277L85.039,5.405L85.397,5.535L85.754,5.667L86.11,5.801L86.465,5.937L86.819,6.075L87.172,6.216L87.524,6.358L87.875,6.503L88.224,6.65L88.573,6.798L88.921,6.949L89.267,7.102L89.612,7.257L89.956,7.414L90.3,7.572L90.641,7.733L90.982,7.896L91.322,8.061L91.66,8.228L91.997,8.397L92.334,8.568L92.669,8.741L93.002,8.915L93.335,9.092L93.666,9.271L93.996,9.451L94.325,9.634L94.653,9.819L94.979,10.005L95.304,10.193L95.628,10.383L95.951,10.575L96.272,10.769L96.592,10.965L96.911,11.163L97.229,11.362L97.545,11.564L97.86,11.767L98.174,11.972L98.486,12.179L98.797,12.388L99.107,12.598L99.415,12.811L99.722,13.025L100.027,13.241L100.332,13.459L100.635,13.678L100.936,13.899L101.236,14.122L101.535,14.347L101.832,14.574L102.128,14.802L102.423,15.032L102.716,15.264L103.007,15.497L103.297,15.732L103.586,15.969L103.873,16.208L104.159,16.448L104.444,16.69L104.726,16.933L105.008,17.179L105.288,17.425L105.566,17.674L105.843,17.924L106.118,18.176L106.392,18.429L106.665,18.684L106.935,18.941L107.205,19.199L107.472,19.459L107.739,19.721L108.003,19.984L108.266,20.248L108.528,20.514L108.787,20.782L109.046,21.051L109.302,21.322L109.557,21.594L109.811,21.868L110.063,22.144L110.313,22.421L110.561,22.699L110.808,22.979L111.053,23.26L111.297,23.543L111.539,23.828L111.779,24.113L112.018,24.401L112.255,24.689L112.49,24.98L112.723,25.271L112.955,25.564L113.185,25.859L113.413,26.155L113.64,26.452L113.864,26.751L114.087,27.051L114.309,27.352L114.528,27.655L114.746,27.959L114.962,28.265L115.176,28.572L115.388,28.88L115.599,29.19L115.808,29.501L116.015,29.813L116.22,30.127L116.423,30.442L116.624,30.758L116.824,31.076L117.022,31.394L117.217,31.714L117.411,32.036L117.603,32.359L117.794,32.682L117.982,33.008L118.168,33.334L118.353,33.662L118.535,33.991L118.716,34.321L118.895,34.652L119.071,34.985L119.246,35.318L119.419,35.653L119.59,35.989L119.759,36.327L119.926,36.665L120.091,37.005L120.253,37.345L120.414,37.687L120.573,38.03L120.73,38.374L120.885,38.72L121.038,39.066L121.189,39.414L121.337,39.762L121.484,40.112L121.629,40.463L121.771,40.815L121.911,41.168L122.05,41.522L122.186,41.877L122.32,42.233L122.452,42.59L122.582,42.948L122.71,43.307L122.835,43.667L122.959,44.029L123.08,44.391L123.199,44.754L123.316,45.118L123.431,45.483L123.544,45.849L123.654,46.216L123.762,46.584L123.868,46.953L123.972,47.323L124.074,47.694L124.173,48.065L124.27,48.438L124.365,48.811L124.458,49.186L124.548,49.561L124.636,49.937L124.722,50.314L124.805,50.692L124.886,51.071L124.965,51.45L125.042,51.831L125.116,52.212L125.188,52.594L125.258,52.977L125.325,53.36L125.39,53.745L125.453,54.13L125.513,54.516L125.571,54.902L125.626,55.29L125.679,55.678L125.73,56.067L125.778,56.457L125.824,56.847L125.867,57.238L125.908,57.63L125.947,58.022L125.983,58.415L126.017,58.809L126.048,59.204L126.077,59.599L126.103,59.995L126.127,60.391L126.149,60.788L126.168,61.186L126.184,61.584L126.198,61.983L126.209,62.383L126.218,62.783L126.224,63.183L126.228,63.585L126.229,63.97L126.229,63.986L126.229,64.002L126.228,64.388L126.224,64.789L126.218,65.19L126.209,65.59L126.198,65.99L126.184,66.388L126.168,66.787L126.149,67.184L126.127,67.581L126.103,67.978L126.077,68.374L126.048,68.769L126.017,69.163L125.983,69.557L125.947,69.95L125.908,70.343L125.867,70.735L125.824,71.126L125.778,71.516L125.73,71.906L125.679,72.295L125.626,72.683L125.571,73.07L125.513,73.457L125.453,73.843L125.39,74.228L125.325,74.613L125.258,74.996L125.188,75.379L125.116,75.761L125.042,76.142L124.965,76.522L124.886,76.902L124.805,77.281L124.722,77.658L124.636,78.035L124.548,78.412L124.458,78.787L124.365,79.161L124.27,79.535L124.173,79.907L124.074,80.279L123.972,80.65L123.868,81.02L123.762,81.389L123.654,81.756L123.544,82.123L123.431,82.49L123.316,82.855L123.199,83.219L123.08,83.582L122.959,83.944L122.835,84.305L122.71,84.665L122.582,85.025L122.452,85.383L122.32,85.74L122.186,86.096L122.05,86.451L121.911,86.805L121.771,87.158L121.629,87.51L121.484,87.861L121.337,88.21L121.189,88.559L121.038,88.906L120.885,89.253L120.73,89.598L120.573,89.942L120.414,90.285L120.253,90.627L120.091,90.968L119.926,91.308L119.759,91.646L119.59,91.983L119.419,92.319L119.246,92.654L119.071,92.988L118.895,93.321L118.716,93.652L118.535,93.982L118.353,94.311L118.168,94.639L117.982,94.965L117.794,95.29L117.603,95.614L117.411,95.937L117.217,96.258L117.022,96.578L116.824,96.897L116.624,97.215L116.423,97.531L116.22,97.846L116.015,98.159L115.808,98.472L115.599,98.783L115.388,99.092L115.176,99.401L114.962,99.708L114.746,100.013L114.528,100.317L114.309,100.62L114.087,100.922L113.864,101.222L113.64,101.521L113.413,101.818L113.185,102.114L112.955,102.408L112.723,102.701L112.49,102.993L112.254,103.283L112.018,103.572L111.779,103.859L111.539,104.145L111.297,104.429L111.053,104.712L110.808,104.994L110.561,105.274L110.313,105.552L110.063,105.829L109.811,106.104L109.557,106.378L109.302,106.65L109.046,106.921L108.787,107.191L108.528,107.458L108.266,107.724L108.003,107.989L107.739,108.252L107.472,108.513L107.205,108.773L106.936,109.031L106.665,109.288L106.392,109.543L106.118,109.797L105.843,110.048L105.566,110.299L105.288,110.547L105.008,110.794L104.726,111.039L104.444,111.283L104.159,111.525L103.873,111.765L103.586,112.003L103.297,112.24L103.007,112.475L102.716,112.709L102.423,112.941L102.128,113.171L101.832,113.399L101.535,113.625L101.236,113.85L100.936,114.073L100.635,114.294L100.332,114.514L100.027,114.732L99.722,114.948L99.415,115.162L99.107,115.374L98.797,115.585L98.486,115.793L98.174,116L97.86,116.205L97.545,116.409L97.229,116.61L96.911,116.81L96.592,117.007L96.272,117.203L95.951,117.397L95.628,117.589L95.304,117.779L94.979,117.968L94.653,118.154L94.325,118.339L93.996,118.521L93.666,118.702L93.335,118.88L93.002,119.057L92.669,119.232L92.334,119.405L91.997,119.576L91.66,119.745L91.322,119.911L90.982,120.076L90.641,120.239L90.3,120.4L89.957,120.559L89.612,120.716L89.267,120.871L88.921,121.024L88.573,121.174L88.224,121.323L87.875,121.47L87.524,121.614L87.172,121.757L86.819,121.897L86.465,122.036L86.11,122.172L85.754,122.306L85.397,122.438L85.039,122.568L84.68,122.696L84.319,122.821L83.958,122.945L83.596,123.066L83.233,123.185L82.869,123.302L82.504,123.417L82.138,123.529L81.771,123.64L81.403,123.748L81.034,123.854L80.664,123.958L80.293,124.059L79.921,124.159L79.549,124.256L79.175,124.351L78.801,124.443L78.426,124.534L78.05,124.622L77.673,124.708L77.295,124.791L76.916,124.872L76.537,124.951L76.156,125.028L75.775,125.102L75.393,125.174L75.01,125.244L74.627,125.311L74.242,125.376L73.857,125.438L73.471,125.499L73.085,125.556L72.697,125.612L72.309,125.665L71.92,125.716L71.53,125.764L71.14,125.81L70.749,125.853L70.357,125.894L69.965,125.933L69.571,125.969L69.178,126.003L68.783,126.034L68.388,126.063L67.992,126.089L67.596,126.113L67.199,126.134L66.801,126.153L66.403,126.17L66.004,126.184L65.604,126.195L65.204,126.204L64.804,126.21L64.402,126.214L64,126.215ZM64,116.215L64.339,116.214L64.677,116.211L65.014,116.206L65.351,116.198L65.687,116.189L66.023,116.177L66.358,116.163L66.692,116.147L67.026,116.129L67.36,116.109L67.692,116.087L68.024,116.063L68.356,116.037L68.687,116.008L69.017,115.978L69.347,115.945L69.676,115.911L70.004,115.874L70.332,115.836L70.659,115.795L70.985,115.753L71.311,115.708L71.636,115.662L71.961,115.613L72.285,115.563L72.608,115.51L72.93,115.456L73.252,115.399L73.573,115.341L73.893,115.281L74.213,115.218L74.532,115.154L74.85,115.088L75.168,115.02L75.484,114.95L75.8,114.878L76.116,114.804L76.43,114.728L76.744,114.651L77.057,114.571L77.37,114.49L77.681,114.407L77.992,114.322L78.302,114.235L78.611,114.146L78.919,114.055L79.227,113.962L79.534,113.868L79.84,113.772L80.145,113.674L80.449,113.574L80.753,113.472L81.056,113.369L81.358,113.263L81.659,113.156L81.959,113.047L82.258,112.937L82.557,112.824L82.854,112.71L83.151,112.594L83.447,112.477L83.742,112.357L84.036,112.236L84.329,112.113L84.621,111.988L84.913,111.862L85.203,111.734L85.493,111.604L85.781,111.472L86.069,111.339L86.356,111.204L86.641,111.068L86.926,110.929L87.21,110.789L87.493,110.648L87.775,110.504L88.056,110.359L88.336,110.213L88.615,110.064L88.893,109.915L89.17,109.763L89.446,109.61L89.72,109.455L89.994,109.299L90.267,109.141L90.539,108.981L90.81,108.82L91.08,108.657L91.348,108.493L91.616,108.327L91.882,108.159L92.148,107.99L92.412,107.82L92.676,107.647L92.938,107.474L93.199,107.298L93.459,107.122L93.718,106.943L93.976,106.763L94.232,106.582L94.488,106.399L94.742,106.215L94.995,106.029L95.247,105.842L95.498,105.653L95.748,105.463L95.996,105.271L96.244,105.078L96.49,104.883L96.735,104.687L96.978,104.49L97.221,104.291L97.462,104.09L97.702,103.889L97.941,103.685L98.179,103.481L98.415,103.275L98.651,103.067L98.884,102.858L99.117,102.648L99.349,102.437L99.579,102.224L99.807,102.01L100.035,101.794L100.261,101.577L100.486,101.359L100.71,101.139L100.932,100.918L101.153,100.696L101.373,100.472L101.591,100.247L101.808,100.021L102.024,99.793L102.238,99.564L102.451,99.334L102.662,99.103L102.873,98.87L103.081,98.636L103.289,98.401L103.495,98.165L103.699,97.927L103.903,97.688L104.105,97.448L104.305,97.207L104.504,96.964L104.701,96.721L104.897,96.476L105.092,96.229L105.285,95.982L105.477,95.734L105.667,95.484L105.856,95.233L106.043,94.981L106.229,94.728L106.414,94.473L106.596,94.218L106.778,93.961L106.958,93.704L107.136,93.445L107.313,93.185L107.488,92.924L107.662,92.661L107.834,92.398L108.004,92.134L108.173,91.868L108.341,91.602L108.507,91.334L108.671,91.065L108.834,90.796L108.995,90.525L109.155,90.253L109.313,89.98L109.469,89.706L109.624,89.431L109.777,89.155L109.929,88.878L110.079,88.6L110.227,88.322L110.374,88.042L110.518,87.761L110.662,87.479L110.803,87.196L110.943,86.912L111.082,86.627L111.218,86.341L111.353,86.055L111.487,85.767L111.618,85.478L111.748,85.189L111.876,84.898L112.002,84.607L112.127,84.315L112.25,84.022L112.371,83.728L112.491,83.433L112.608,83.137L112.724,82.84L112.839,82.542L112.951,82.244L113.062,81.945L113.171,81.644L113.278,81.343L113.383,81.041L113.486,80.739L113.588,80.435L113.688,80.131L113.786,79.826L113.882,79.52L113.977,79.213L114.069,78.905L114.16,78.597L114.249,78.288L114.336,77.978L114.421,77.667L114.504,77.355L114.585,77.043L114.665,76.73L114.743,76.416L114.818,76.101L114.892,75.786L114.964,75.47L115.034,75.153L115.102,74.836L115.168,74.518L115.233,74.199L115.295,73.879L115.355,73.559L115.414,73.238L115.47,72.916L115.524,72.593L115.577,72.27L115.627,71.947L115.676,71.622L115.723,71.297L115.767,70.971L115.81,70.645L115.85,70.318L115.889,69.99L115.925,69.662L115.96,69.332L115.992,69.003L116.022,68.673L116.051,68.342L116.077,68.01L116.101,67.678L116.123,67.345L116.143,67.012L116.161,66.678L116.177,66.344L116.191,66.009L116.203,65.673L116.212,65.337L116.22,65L116.225,64.663L116.228,64.325L116.229,63.986L116.228,63.648L116.225,63.31L116.22,62.973L116.212,62.636L116.203,62.3L116.191,61.964L116.177,61.629L116.161,61.294L116.143,60.96L116.123,60.627L116.101,60.294L116.077,59.962L116.051,59.631L116.022,59.3L115.992,58.97L115.96,58.64L115.925,58.311L115.889,57.983L115.85,57.655L115.81,57.328L115.767,57.001L115.723,56.676L115.676,56.35L115.627,56.026L115.577,55.702L115.524,55.379L115.47,55.057L115.414,54.735L115.355,54.414L115.295,54.094L115.233,53.774L115.168,53.455L115.102,53.137L115.034,52.819L114.964,52.502L114.892,52.186L114.818,51.871L114.743,51.556L114.665,51.243L114.585,50.93L114.504,50.617L114.421,50.306L114.336,49.995L114.249,49.685L114.16,49.376L114.069,49.067L113.977,48.76L113.882,48.453L113.786,48.147L113.688,47.842L113.588,47.537L113.486,47.234L113.383,46.931L113.278,46.629L113.171,46.328L113.062,46.028L112.951,45.729L112.839,45.43L112.724,45.133L112.608,44.836L112.491,44.54L112.371,44.245L112.25,43.951L112.127,43.658L112.002,43.366L111.876,43.074L111.748,42.784L111.618,42.494L111.487,42.206L111.353,41.918L111.218,41.631L111.082,41.345L110.943,41.061L110.803,40.777L110.662,40.494L110.518,40.212L110.374,39.931L110.227,39.651L110.079,39.372L109.929,39.094L109.777,38.817L109.624,38.541L109.469,38.266L109.313,37.992L109.155,37.72L108.995,37.448L108.834,37.177L108.671,36.907L108.507,36.639L108.341,36.371L108.173,36.104L108.004,35.839L107.834,35.575L107.662,35.311L107.488,35.049L107.313,34.788L107.136,34.528L106.958,34.269L106.778,34.011L106.596,33.755L106.414,33.499L106.229,33.245L106.043,32.992L105.856,32.74L105.667,32.489L105.477,32.239L105.285,31.991L105.092,31.743L104.897,31.497L104.701,31.252L104.504,31.008L104.305,30.766L104.105,30.524L103.903,30.284L103.699,30.045L103.495,29.808L103.289,29.571L103.081,29.336L102.873,29.102L102.662,28.87L102.451,28.638L102.238,28.408L102.024,28.179L101.808,27.952L101.591,27.726L101.373,27.501L101.153,27.277L100.932,27.055L100.71,26.834L100.486,26.614L100.261,26.396L100.035,26.179L99.807,25.963L99.579,25.749L99.349,25.536L99.117,25.324L98.884,25.114L98.651,24.905L98.415,24.698L98.179,24.492L97.941,24.287L97.702,24.084L97.462,23.882L97.221,23.682L96.979,23.483L96.735,23.285L96.49,23.089L96.244,22.895L95.996,22.702L95.748,22.51L95.498,22.32L95.247,22.131L94.995,21.943L94.742,21.758L94.488,21.573L94.232,21.39L93.975,21.209L93.718,21.029L93.459,20.851L93.199,20.674L92.938,20.499L92.676,20.325L92.412,20.153L92.148,19.982L91.882,19.813L91.616,19.646L91.348,19.48L91.08,19.316L90.81,19.153L90.539,18.992L90.267,18.832L89.994,18.674L89.72,18.518L89.446,18.363L89.17,18.21L88.893,18.058L88.615,17.908L88.336,17.76L88.056,17.613L87.775,17.468L87.493,17.325L87.21,17.183L86.926,17.043L86.641,16.905L86.356,16.768L86.069,16.633L85.781,16.5L85.493,16.369L85.203,16.239L84.913,16.111L84.621,15.984L84.329,15.86L84.036,15.737L83.742,15.615L83.447,15.496L83.151,15.378L82.854,15.262L82.557,15.148L82.258,15.036L81.959,14.925L81.659,14.816L81.358,14.709L81.056,14.604L80.753,14.5L80.449,14.399L80.145,14.299L79.84,14.201L79.534,14.105L79.227,14.01L78.919,13.918L78.611,13.827L78.302,13.738L77.992,13.651L77.681,13.566L77.369,13.483L77.057,13.401L76.744,13.322L76.43,13.244L76.116,13.168L75.8,13.095L75.484,13.023L75.168,12.953L74.85,12.885L74.532,12.818L74.213,12.754L73.893,12.692L73.573,12.632L73.252,12.573L72.93,12.517L72.608,12.462L72.285,12.41L71.961,12.359L71.636,12.311L71.311,12.264L70.985,12.22L70.659,12.177L70.332,12.137L70.004,12.098L69.676,12.062L69.347,12.027L69.017,11.995L68.687,11.964L68.356,11.936L68.024,11.91L67.692,11.886L67.36,11.863L67.026,11.843L66.692,11.825L66.358,11.809L66.023,11.796L65.687,11.784L65.351,11.774L65.014,11.767L64.677,11.762L64.339,11.758L64,11.757L63.662,11.758L63.324,11.762L62.987,11.767L62.65,11.774L62.314,11.784L61.978,11.796L61.643,11.809L61.309,11.825L60.975,11.843L60.641,11.863L60.309,11.886L59.977,11.91L59.645,11.936L59.314,11.964L58.984,11.995L58.654,12.027L58.325,12.062L57.997,12.098L57.669,12.137L57.342,12.177L57.016,12.22L56.69,12.264L56.365,12.311L56.04,12.359L55.716,12.41L55.393,12.462L55.071,12.517L54.749,12.573L54.428,12.632L54.108,12.692L53.788,12.754L53.469,12.819L53.151,12.885L52.833,12.953L52.517,13.023L52.201,13.095L51.885,13.168L51.571,13.244L51.257,13.322L50.944,13.401L50.632,13.483L50.32,13.566L50.009,13.651L49.699,13.738L49.39,13.827L49.082,13.918L48.774,14.01L48.467,14.105L48.161,14.201L47.856,14.299L47.552,14.399L47.248,14.5L46.945,14.604L46.643,14.709L46.342,14.816L46.042,14.925L45.743,15.036L45.444,15.148L45.147,15.262L44.85,15.378L44.554,15.496L44.259,15.615L43.965,15.737L43.672,15.86L43.38,15.984L43.088,16.111L42.798,16.239L42.508,16.369L42.22,16.5L41.932,16.633L41.645,16.768L41.36,16.905L41.075,17.043L40.791,17.183L40.508,17.325L40.226,17.468L39.945,17.613L39.665,17.76L39.386,17.908L39.108,18.058L38.831,18.21L38.555,18.363L38.281,18.518L38.007,18.674L37.734,18.832L37.462,18.992L37.191,19.153L36.921,19.316L36.653,19.48L36.385,19.646L36.119,19.813L35.853,19.982L35.589,20.153L35.325,20.325L35.063,20.499L34.802,20.674L34.542,20.851L34.283,21.029L34.026,21.209L33.769,21.39L33.513,21.573L33.259,21.758L33.006,21.943L32.754,22.131L32.503,22.32L32.253,22.51L32.005,22.702L31.757,22.895L31.511,23.089L31.266,23.285L31.023,23.483L30.78,23.682L30.539,23.882L30.299,24.084L30.06,24.287L29.822,24.492L29.586,24.698L29.35,24.905L29.117,25.114L28.884,25.324L28.652,25.536L28.422,25.749L28.194,25.963L27.966,26.179L27.74,26.396L27.515,26.614L27.291,26.834L27.069,27.055L26.848,27.277L26.628,27.501L26.41,27.726L26.193,27.952L25.977,28.179L25.763,28.408L25.55,28.638L25.339,28.87L25.128,29.102L24.92,29.336L24.712,29.571L24.506,29.808L24.302,30.045L24.098,30.284L23.896,30.524L23.696,30.766L23.497,31.008L23.3,31.252L23.104,31.497L22.909,31.743L22.716,31.991L22.524,32.239L22.334,32.489L22.145,32.74L21.958,32.992L21.772,33.245L21.587,33.499L21.405,33.755L21.223,34.011L21.043,34.269L20.865,34.528L20.688,34.788L20.513,35.049L20.339,35.311L20.167,35.575L19.997,35.839L19.828,36.104L19.66,36.371L19.494,36.639L19.33,36.907L19.167,37.177L19.006,37.448L18.846,37.72L18.688,37.992L18.532,38.266L18.377,38.541L18.224,38.817L18.072,39.094L17.922,39.372L17.774,39.651L17.627,39.931L17.483,40.212L17.339,40.494L17.198,40.777L17.058,41.061L16.919,41.345L16.783,41.631L16.648,41.918L16.514,42.206L16.383,42.494L16.253,42.784L16.125,43.074L15.999,43.366L15.874,43.658L15.751,43.951L15.63,44.245L15.51,44.54L15.393,44.836L15.277,45.133L15.162,45.43L15.05,45.729L14.939,46.028L14.83,46.328L14.723,46.629L14.618,46.931L14.515,47.234L14.413,47.537L14.313,47.842L14.215,48.147L14.119,48.453L14.024,48.76L13.932,49.067L13.841,49.376L13.752,49.685L13.665,49.995L13.58,50.306L13.497,50.617L13.416,50.93L13.336,51.243L13.258,51.557L13.183,51.871L13.109,52.186L13.037,52.502L12.967,52.819L12.899,53.137L12.833,53.455L12.768,53.774L12.706,54.094L12.646,54.414L12.587,54.735L12.531,55.057L12.477,55.379L12.424,55.702L12.374,56.026L12.325,56.35L12.278,56.676L12.234,57.001L12.191,57.328L12.151,57.655L12.112,57.983L12.076,58.311L12.041,58.64L12.009,58.97L11.979,59.3L11.95,59.631L11.924,59.962L11.9,60.294L11.878,60.627L11.858,60.96L11.84,61.294L11.824,61.629L11.81,61.964L11.798,62.3L11.789,62.636L11.781,62.973L11.776,63.31L11.773,63.648L11.772,63.986L11.773,64.325L11.776,64.663L11.781,65L11.789,65.337L11.798,65.673L11.81,66.009L11.824,66.344L11.84,66.678L11.858,67.012L11.878,67.345L11.9,67.678L11.924,68.01L11.95,68.342L11.979,68.673L12.009,69.003L12.041,69.333L12.076,69.662L12.112,69.99L12.151,70.318L12.191,70.645L12.234,70.971L12.278,71.297L12.325,71.622L12.374,71.947L12.424,72.27L12.477,72.593L12.531,72.916L12.587,73.238L12.646,73.559L12.706,73.879L12.768,74.199L12.833,74.518L12.899,74.836L12.967,75.153L13.037,75.47L13.109,75.786L13.183,76.102L13.258,76.416L13.336,76.73L13.416,77.043L13.497,77.355L13.58,77.667L13.665,77.978L13.752,78.288L13.841,78.597L13.932,78.905L14.024,79.213L14.119,79.52L14.215,79.826L14.313,80.131L14.413,80.435L14.515,80.739L14.618,81.041L14.723,81.343L14.83,81.644L14.939,81.945L15.05,82.244L15.162,82.542L15.277,82.84L15.393,83.137L15.51,83.433L15.63,83.728L15.751,84.022L15.874,84.315L15.999,84.607L16.125,84.898L16.253,85.189L16.383,85.478L16.514,85.767L16.648,86.055L16.783,86.341L16.919,86.627L17.058,86.912L17.198,87.196L17.339,87.479L17.482,87.761L17.627,88.042L17.774,88.322L17.922,88.6L18.072,88.878L18.224,89.155L18.377,89.431L18.532,89.706L18.688,89.98L18.846,90.253L19.006,90.525L19.167,90.796L19.33,91.065L19.494,91.334L19.66,91.602L19.828,91.868L19.997,92.134L20.167,92.398L20.339,92.661L20.513,92.924L20.688,93.185L20.865,93.445L21.043,93.704L21.223,93.961L21.405,94.218L21.587,94.473L21.772,94.728L21.958,94.981L22.145,95.233L22.334,95.484L22.524,95.734L22.716,95.982L22.909,96.229L23.104,96.476L23.3,96.721L23.497,96.964L23.696,97.207L23.896,97.448L24.098,97.688L24.302,97.927L24.506,98.165L24.712,98.401L24.92,98.636L25.128,98.87L25.339,99.103L25.55,99.334L25.763,99.564L25.977,99.793L26.193,100.021L26.41,100.247L26.628,100.472L26.848,100.696L27.069,100.918L27.291,101.139L27.515,101.359L27.74,101.577L27.966,101.794L28.194,102.009L28.422,102.224L28.652,102.437L28.884,102.648L29.116,102.858L29.35,103.067L29.586,103.275L29.822,103.481L30.06,103.685L30.298,103.888L30.539,104.09L30.78,104.291L31.023,104.49L31.266,104.687L31.511,104.883L31.757,105.078L32.005,105.271L32.253,105.463L32.503,105.653L32.754,105.842L33.006,106.029L33.259,106.215L33.513,106.399L33.769,106.582L34.026,106.764L34.283,106.943L34.542,107.122L34.802,107.298L35.063,107.474L35.325,107.647L35.589,107.82L35.853,107.99L36.119,108.159L36.385,108.327L36.653,108.493L36.921,108.657L37.191,108.82L37.462,108.981L37.734,109.141L38.007,109.299L38.281,109.455L38.555,109.61L38.831,109.763L39.108,109.915L39.386,110.064L39.665,110.213L39.945,110.359L40.226,110.504L40.508,110.648L40.791,110.789L41.075,110.929L41.36,111.068L41.645,111.204L41.932,111.339L42.22,111.472L42.508,111.604L42.798,111.734L43.088,111.862L43.38,111.988L43.672,112.113L43.965,112.236L44.259,112.357L44.554,112.477L44.85,112.594L45.147,112.71L45.444,112.824L45.743,112.937L46.042,113.047L46.342,113.156L46.643,113.263L46.945,113.369L47.248,113.472L47.552,113.574L47.856,113.674L48.161,113.772L48.467,113.868L48.774,113.962L49.082,114.055L49.39,114.146L49.699,114.234L50.009,114.322L50.32,114.407L50.632,114.49L50.944,114.571L51.257,114.651L51.571,114.728L51.885,114.804L52.201,114.878L52.517,114.95L52.833,115.02L53.151,115.088L53.469,115.154L53.788,115.218L54.108,115.281L54.428,115.341L54.749,115.399L55.071,115.456L55.393,115.51L55.716,115.563L56.04,115.613L56.365,115.662L56.69,115.708L57.016,115.753L57.342,115.795L57.669,115.836L57.997,115.874L58.325,115.911L58.654,115.945L58.984,115.978L59.314,116.008L59.645,116.037L59.977,116.063L60.309,116.087L60.641,116.109L60.975,116.129L61.309,116.147L61.643,116.163L61.978,116.177L62.314,116.189L62.65,116.198L62.987,116.206L63.324,116.211L63.662,116.214L64,116.215Z" style="fill:rgb(200,200,200);"/>
        </g>
        <g transform="matrix(1,0,0,1,-0.8755,-2.5669)">
            <path d="M30.626,58.692L57.001,58.692L57.001,32.317L72.751,32.317L72.751,58.692L99.126,58.692L99.126,74.442L72.751,74.442L72.751,100.817L57.001,100.817L57.001,74.442L30.626,74.442L30.626,58.692Z" style="fill:rgb(230,230,230);fill-rule:nonzero;"/>
        </g>
    </g>
</svg>
