<?xml version="1.0" encoding="UTF-8" standalone="no"?>
<!-- Created with Inkscape (http://www.inkscape.org/) -->

<svg
   xmlns:dc="http://purl.org/dc/elements/1.1/"
   xmlns:cc="http://creativecommons.org/ns#"
   xmlns:rdf="http://www.w3.org/1999/02/22-rdf-syntax-ns#"
   xmlns:svg="http://www.w3.org/2000/svg"
   xmlns="http://www.w3.org/2000/svg"
   xmlns:sodipodi="http://sodipodi.sourceforge.net/DTD/sodipodi-0.dtd"
   xmlns:inkscape="http://www.inkscape.org/namespaces/inkscape"
   width="512"
   height="512"
   id="svg2"
   version="1.1"
   inkscape:version="0.48.2 r9819"
   inkscape:export-filename="/Users/Lex/Desktop/test.png"
   inkscape:export-xdpi="45"
   inkscape:export-ydpi="45"
   sodipodi:docname="New document 1">
  <defs
     id="defs4" />
  <sodipodi:namedview
     id="base"
     pagecolor="#ffffff"
     bordercolor="#666666"
     borderopacity="1.0"
     inkscape:pageopacity="0.0"
     inkscape:pageshadow="2"
     inkscape:zoom="1.4"
     inkscape:cx="199.42858"
     inkscape:cy="255.4038"
     inkscape:document-units="px"
     inkscape:current-layer="layer1"
     showgrid="true"
     showguides="true"
     inkscape:guide-bbox="true"
     inkscape:window-width="1280"
     inkscape:window-height="752"
     inkscape:window-x="0"
     inkscape:window-y="0"
     inkscape:window-maximized="1">
    <inkscape:grid
       type="xygrid"
       id="grid2985"
       empspacing="1"
       visible="true"
       enabled="true"
       snapvisiblegridlinesonly="true" />
    <sodipodi:guide
       orientation="0,1"
       position="240,250"
       id="guide2987" />
    <sodipodi:guide
       orientation="1,0"
       position="250,270"
       id="guide2989" />
  </sodipodi:namedview>
  <metadata
     id="metadata7">
    <rdf:RDF>
      <cc:Work
         rdf:about="">
        <dc:format>image/svg+xml</dc:format>
        <dc:type
           rdf:resource="http://purl.org/dc/dcmitype/StillImage" />
        <dc:title></dc:title>
      </cc:Work>
    </rdf:RDF>
  </metadata>
  <g
     inkscape:label="Layer 1"
     inkscape:groupmode="layer"
     id="layer1"
     transform="translate(0,-540.36218)">
    <path
       sodipodi:type="arc"
       style="fill:#000000;stroke:none;stroke-width:2.70000004999999987;stroke-linecap:round;stroke-linejoin:round;stroke-miterlimit:4;stroke-opacity:1;stroke-dasharray:none;stroke-dashoffset:0;fill-opacity:1"
       id="path2993"
       sodipodi:cx="250"
       sodipodi:cy="262"
       sodipodi:rx="230"
       sodipodi:ry="240"
       d="m 480,262 a 230,240 0 1 1 -460,0 230,240 0 1 1 460,0 z"
       transform="matrix(1.0434783,0,0,1.0208333,-10.869566,534.90386)" />
    <path
       sodipodi:type="arc"
       style="fill:#f38900;fill-opacity:1;fill-rule:nonzero;stroke:none"
       id="path3771"
       sodipodi:cx="250"
       sodipodi:cy="262"
       sodipodi:rx="312.65497"
       sodipodi:ry="322.73099"
       d="m 450.97074,509.22628 a 312.65497,322.73099 0 1 1 0,-494.452556 L 250,262 z"
       transform="matrix(0.62302178,0,0,0.60332864,94.035409,644.00292)"
       sodipodi:start="0.87266463"
       sodipodi:end="5.4105207" />
    <path
       sodipodi:type="arc"
       style="fill:#000000;fill-opacity:1;fill-rule:nonzero;stroke:none"
       id="path3773"
       sodipodi:cx="250"
       sodipodi:cy="262"
       sodipodi:rx="180"
       sodipodi:ry="110"
       d="m 430,262 a 180,110 0 1 1 -360,0 180,110 0 1 1 360,0 z"
       transform="matrix(0.97222223,0,0,1.6363636,11.944443,373.63491)" />
    <path
       sodipodi:type="arc"
       style="fill:#f38900;fill-opacity:1;fill-rule:nonzero;stroke:none"
       id="path3775"
       sodipodi:cx="-55"
       sodipodi:cy="87"
       sodipodi:rx="15"
       sodipodi:ry="15"
       d="m -40,87 a 15,15 0 1 1 -30,0 15,15 0 1 1 30,0 z"
       transform="matrix(1.3333333,0,0,1.3333333,473.33333,586.36218)" />
    <path
       transform="matrix(1.3333333,0,0,1.3333333,503.33333,646.36218)"
       d="m -40,87 a 15,15 0 1 1 -30,0 15,15 0 1 1 30,0 z"
       sodipodi:ry="15"
       sodipodi:rx="15"
       sodipodi:cy="87"
       sodipodi:cx="-55"
       id="path3777"
       style="fill:#f38900;fill-opacity:1;fill-rule:nonzero;stroke:none"
       sodipodi:type="arc" />
    <path
       sodipodi:type="arc"
       style="fill:#f38900;fill-opacity:1;fill-rule:nonzero;stroke:none"
       id="path3779"
       sodipodi:cx="-55"
       sodipodi:cy="87"
       sodipodi:rx="15"
       sodipodi:ry="15"
       d="m -40,87 a 15,15 0 1 1 -30,0 15,15 0 1 1 30,0 z"
       transform="matrix(1.3333333,0,0,1.3333333,503.33333,726.36218)" />
    <path
       transform="matrix(1.3333333,0,0,1.3333333,473.33333,786.36218)"
       d="m -40,87 a 15,15 0 1 1 -30,0 15,15 0 1 1 30,0 z"
       sodipodi:ry="15"
       sodipodi:rx="15"
       sodipodi:cy="87"
       sodipodi:cx="-55"
       id="path3781"
       style="fill:#f38900;fill-opacity:1;fill-rule:nonzero;stroke:none"
       sodipodi:type="arc" />
    <text
       xml:space="preserve"
       style="font-size:193.06311035px;font-style:normal;font-variant:normal;font-weight:normal;font-stretch:normal;text-align:start;line-height:125%;letter-spacing:0px;word-spacing:0px;writing-mode:lr-tb;text-anchor:start;fill:#f38900;fill-opacity:1;stroke:none;font-family:Georgia;-inkscape-font-specification:Georgia"
       x="176.01746"
       y="862.34845"
       id="text3783"
       sodipodi:linespacing="125%"
       transform="scale(0.9942196,1.005814)"><tspan
         sodipodi:role="line"
         id="tspan3785"
         x="176.01746"
         y="862.34845">N</tspan></text>
  </g>
</svg>
