<?xml version="1.0" encoding="UTF-8" standalone="no"?>
<!-- Created with Inkscape (http://www.inkscape.org/) -->

<svg
   xmlns:dc="http://purl.org/dc/elements/1.1/"
   xmlns:cc="http://creativecommons.org/ns#"
   xmlns:rdf="http://www.w3.org/1999/02/22-rdf-syntax-ns#"
   xmlns:svg="http://www.w3.org/2000/svg"
   xmlns="http://www.w3.org/2000/svg"
   version="1.1"
   width="640"
   height="640"
   id="svg3036"
   xml:space="preserve"><metadata
     id="metadata3042"><rdf:RDF><cc:Work
         rdf:about=""><dc:format>image/svg+xml</dc:format><dc:type
           rdf:resource="http://purl.org/dc/dcmitype/StillImage" /><dc:title></dc:title></cc:Work></rdf:RDF></metadata><defs
     id="defs3040"><clipPath
       id="clipPath3050"><path
         d="M 0,512 512,512 512,0 0,0 0,512 z"
         id="path3052" /></clipPath></defs><g
     transform="matrix(1.25,0,0,-1.25,0,640)"
     id="g3044"><g
       id="g3046"><g
         clip-path="url(#clipPath3050)"
         id="g3048"><g
           transform="translate(496,256)"
           id="g3054"><path
             d="m 0,0 c 0,-132.548 -107.452,-240 -240,-240 -132.548,0 -240,107.452 -240,240 0,132.548 107.452,240 240,240 C -107.452,240 0,132.548 0,0"
             id="path3056"
             style="fill:#000000;fill-opacity:1;fill-rule:nonzero;stroke:none" /></g><g
           transform="translate(261,76)"
           id="g3058"><path
             d="m 0,0 c -96.65,0 -175,80.589 -175,180 0,99.411 78.35,180 175,180 42.238,0 80.979,-15.392 111.215,-41.019 L 120,329.446 c -72.415,60.739 -178.004,60.739 -250.418,0 -82.411,-69.124 -93.161,-191.94 -24.01,-274.318 69.152,-82.378 192.017,-93.123 274.428,-24 l -8.504,10.131 C 81.219,15.489 42.369,0 0,0"
             id="path3060"
             style="fill:#f38900;fill-opacity:1;fill-rule:nonzero;stroke:none" /></g><g
           transform="translate(426,156)"
           id="g3062"><path
             d="m 0,0 c 0,-11.046 -8.954,-20 -20,-20 -11.046,0 -20,8.954 -20,20 0,11.046 8.954,20 20,20 C -8.954,20 0,11.046 0,0"
             id="path3064"
             style="fill:#f38900;fill-opacity:1;fill-rule:nonzero;stroke:none" /></g><g
           transform="translate(456,216)"
           id="g3066"><path
             d="m 0,0 c 0,-11.046 -8.954,-20 -20,-20 -11.046,0 -20,8.954 -20,20 0,11.046 8.954,20 20,20 C -8.954,20 0,11.046 0,0"
             id="path3068"
             style="fill:#f38900;fill-opacity:1;fill-rule:nonzero;stroke:none" /></g><g
           transform="translate(456,296)"
           id="g3070"><path
             d="m 0,0 c 0,-11.046 -8.954,-20 -20,-20 -11.046,0 -20,8.954 -20,20 0,11.046 8.954,20 20,20 C -8.954,20 0,11.046 0,0"
             id="path3072"
             style="fill:#f38900;fill-opacity:1;fill-rule:nonzero;stroke:none" /></g><g
           transform="translate(426,356)"
           id="g3074"><path
             d="m 0,0 c 0,-11.046 -8.954,-20 -20,-20 -11.046,0 -20,8.954 -20,20 0,11.046 8.954,20 20,20 C -8.954,20 0,11.046 0,0"
             id="path3076"
             style="fill:#f38900;fill-opacity:1;fill-rule:nonzero;stroke:none" /></g><g
           transform="translate(327.6475,315.439)"
           id="g3078"><path
             d="m 0,0 c -1.75,-0.063 -4.437,-0.569 -8.061,-1.517 -3.624,-0.948 -6.217,-1.929 -7.779,-2.94 -2.249,-1.58 -3.764,-4.614 -4.545,-9.102 -0.782,-4.489 -1.172,-10.178 -1.172,-17.067 l 0,-98.515 -8.153,0 -80.603,110.083 0,-69.406 c 0,-7.776 0.483,-13.749 1.453,-17.921 0.968,-4.172 2.451,-7.144 4.452,-8.913 1.436,-1.391 4.405,-2.687 8.904,-3.887 4.498,-1.202 7.465,-1.834 8.903,-1.897 l 0,-6.732 -54.547,0 0,6.732 c 1.687,0.126 4.529,0.743 8.529,1.849 3.997,1.106 6.497,2.101 7.497,2.987 2.187,1.769 3.686,4.471 4.499,8.107 0.811,3.634 1.219,9.845 1.219,18.632 l 0,66.277 c 0,2.907 -0.501,5.815 -1.5,8.723 -1,2.907 -2.343,5.152 -4.03,6.732 -2.249,2.086 -5.295,3.871 -9.138,5.357 -3.843,1.485 -6.952,2.291 -9.325,2.418 l 0,6.732 37.996,0 74.754,-102.573 0,63.988 c 0,7.838 -0.501,13.857 -1.5,18.06 -1,4.202 -2.437,6.999 -4.312,8.39 -1.75,1.2 -4.608,2.369 -8.575,3.507 -3.969,1.138 -6.983,1.769 -9.045,1.896 l 0,6.732 L 0,6.732 0,0 z"
             id="path3080"
             style="fill:#f38900;fill-opacity:1;fill-rule:nonzero;stroke:none" /></g></g></g></g></svg>