<?xml version="1.0" encoding="iso-8859-1"?>
<!-- Generator: Adobe Illustrator 16.0.3, SVG Export Plug-In . SVG Version: 6.00 Build 0)  -->
<!DOCTYPE svg PUBLIC "-//W3C//DTD SVG 1.1//EN" "http://www.w3.org/Graphics/SVG/1.1/DTD/svg11.dtd">
<svg version="1.1" id="NATRON_LOGO" xmlns="http://www.w3.org/2000/svg" xmlns:xlink="http://www.w3.org/1999/xlink" x="0px"
	 y="0px" width="512px" height="512px" viewBox="0 0 512 512" style="enable-background:new 0 0 512 512;" xml:space="preserve">
<g id="Natron_LOGO">
	<g>
		<path style="fill:#808080;" d="M152.755,479c-13.75,0-30.618-9.747-37.484-21.66L11.995,278.16
			c-6.866-11.913-6.866-31.407,0-43.32L115.271,55.66C122.137,43.747,139.005,34,152.755,34h206.49
			c13.75,0,30.618,9.747,37.483,21.66l103.277,179.18c6.866,11.913,6.866,31.407,0,43.32L396.729,457.34
			c-6.865,11.913-23.733,21.66-37.483,21.66H152.755z"/>
		<path d="M479.028,247.475c2.759,4.758,2.761,12.544,0.005,17.304L375.142,444.215c-2.756,4.76-9.511,8.651-15.011,8.648
			l-208.042-0.115c-5.5-0.003-12.257-3.899-15.016-8.657L32.972,264.525c-2.759-4.758-2.761-12.545-0.005-17.305L136.858,67.786
			c2.756-4.76,9.511-8.652,15.011-8.649l208.043,0.116c5.5,0.003,12.257,3.898,15.016,8.657L479.028,247.475z"/>
		<path style="fill:#FFFFFF;" d="M479.028,247.475l-10.382,6.019l0.001,0.001c0.022,0.037,0.167,0.364,0.271,0.854
			c0.107,0.489,0.182,1.133,0.18,1.777c0.002,0.69-0.083,1.382-0.2,1.882c-0.06,0.25-0.123,0.451-0.175,0.584l-0.061,0.145
			l-0.015,0.031l0,0L364.757,438.202l-0.001,0.001c-0.021,0.043-0.252,0.352-0.652,0.704c-0.591,0.539-1.558,1.157-2.421,1.516
			c-0.429,0.184-0.827,0.309-1.115,0.372c-0.144,0.032-0.259,0.051-0.333,0.061l-0.082,0.008l-0.018,0.001l0.002,0.057v-0.057
			h-0.002l0.002,0.057v-0.057v11.693l0.03-11.693h-0.03v11.693l0.03-11.693l-0.025,9.896l0.028-9.896h-0.003l-0.025,9.896
			l0.028-9.896c-0.018,0.001-0.203-0.004-0.593,0.013l0.554,11.987l0.007-12l-208.042-0.115h-0.002
			c-0.049,0.002-0.434-0.043-0.942-0.213c-0.766-0.243-1.79-0.771-2.535-1.342c-0.375-0.28-0.685-0.565-0.885-0.782
			c-0.101-0.108-0.175-0.199-0.221-0.26l-0.048-0.067l-0.009-0.014l-0.045,0.026l0.045-0.025v-0.001l-0.045,0.026l0.045-0.025
			l-104.1-179.564v-0.001v-0.001c-0.023-0.036-0.167-0.363-0.271-0.854c-0.108-0.489-0.181-1.135-0.18-1.778
			c-0.002-0.691,0.083-1.382,0.202-1.882c0.058-0.25,0.123-0.452,0.173-0.584l0.061-0.145l0.015-0.03l0,0L147.243,73.798
			l0.001-0.001c0.022-0.042,0.252-0.352,0.652-0.704c0.591-0.539,1.558-1.158,2.421-1.516c0.429-0.183,0.829-0.308,1.116-0.372
			c0.143-0.032,0.258-0.051,0.333-0.06l0.082-0.008l0.016-0.001l-0.002-0.058v0.058h0.002l-0.002-0.058v0.058v-5.304l-0.002,5.304
			h0.002v-5.304l-0.002,5.304l0.005-11.368l-0.062,11.368h0.057l0.005-11.368l-0.062,11.368h0.03l208.071,0.116h0.003
			c0.05-0.001,0.435,0.043,0.941,0.213c0.767,0.243,1.789,0.771,2.534,1.341c0.376,0.281,0.686,0.565,0.885,0.782
			c0.103,0.108,0.176,0.199,0.222,0.26l0.048,0.067l0.009,0.014l0.045-0.028l-0.045,0.027v0.001l0.045-0.028l-0.045,0.027h-0.001
			l104.102,179.565L479.028,247.475l10.382-6.019L385.31,61.891h-0.001c-1.403-2.412-3.095-4.394-4.926-6.11
			c-2.757-2.562-5.844-4.548-9.219-6.035c-1.69-0.739-3.457-1.346-5.322-1.784c-1.865-0.436-3.83-0.706-5.923-0.709l-208.043-0.116
			h0.059h-0.063h-0.011l0.002,7.57v-7.57h-0.002l0.002,7.57v-7.57c-2.791,0.005-5.354,0.474-7.757,1.198
			c-3.599,1.101-6.865,2.776-9.843,4.952c-1.486,1.093-2.897,2.318-4.21,3.713c-1.311,1.396-2.529,2.962-3.58,4.773L22.583,241.208
			c-1.397,2.423-2.275,4.881-2.851,7.327c-0.569,2.448-0.828,4.894-0.83,7.339c0.002,2.45,0.263,4.897,0.834,7.347
			c0.578,2.446,1.458,4.903,2.855,7.324v-0.001l104.101,179.565v0.001c1.404,2.411,3.095,4.394,4.926,6.108
			c2.757,2.562,5.843,4.548,9.218,6.035c1.69,0.739,3.457,1.346,5.322,1.784c1.865,0.436,3.83,0.706,5.924,0.709l208.322,0.115
			l0.279-0.014l-0.551-11.915l0.045,11.929c0.089-0.001,0.253-0.001,0.506-0.014l-0.551-11.915l0.045,11.929l-0.044-11.763
			l-0.032,11.763h0.076l-0.044-11.763l-0.032,11.763h0.004h0.03c2.791-0.005,5.354-0.476,7.757-1.198
			c3.6-1.101,6.864-2.775,9.844-4.951c1.485-1.093,2.896-2.317,4.21-3.713c1.312-1.396,2.528-2.963,3.58-4.773l103.892-179.435
			c1.396-2.423,2.275-4.881,2.851-7.326c0.569-2.448,0.828-4.895,0.83-7.34c-0.002-2.449-0.263-4.898-0.834-7.347
			c-0.577-2.447-1.458-4.904-2.854-7.324L479.028,247.475z"/>
		<path style="fill:#FFFFFF;" d="M347.648,122.996c-4.12-7.147-7.526-12.996-7.57-12.996c-0.043,0-0.078,6.75-0.078,15v115
			c0,8.25-3.384,9.159-7.52,2.021L263.52,122.979C259.384,115.841,249.25,110,241,110h-54.158c-8.25,0-18.371,5.848-22.491,12.996
			L95.175,243.004c-4.12,7.147-4.12,18.844,0,25.992l69.176,120.008c4.12,7.148,7.526,12.996,7.569,12.996s0.079-6.75,0.079-15V270
			c0-8.25,3.349-9.141,7.442-1.977l69.116,120.953C252.651,396.141,262.75,402,271,402h54.157c8.25,0,18.371-5.848,22.491-12.995
			l69.176-120.01c4.12-7.147,4.12-18.843,0-25.991L347.648,122.996z"/>
	</g>
</g>
</svg>
