<?xml version="1.0" encoding="iso-8859-1"?>
<!-- Generator: Adobe Illustrator 16.0.3, SVG Export Plug-In . SVG Version: 6.00 Build 0)  -->
<!DOCTYPE svg PUBLIC "-//W3C//DTD SVG 1.1//EN" "http://www.w3.org/Graphics/SVG/1.1/DTD/svg11.dtd">
<svg version="1.1" id="Layer_11" xmlns="http://www.w3.org/2000/svg" xmlns:xlink="http://www.w3.org/1999/xlink" x="0px" y="0px"
	 width="767px" height="465px" viewBox="0 0 767 465" style="enable-background:new 0 0 767 465;" xml:space="preserve">
<rect x="4.75" y="1.75" style="fill:#1A1A1A;stroke:#000000;stroke-width:2;stroke-miterlimit:10;" width="759" height="461"/>
<g>
	<path style="fill:#333333;" d="M782.839,121.609c-5.494-9.53-18.989-17.327-29.989-17.327h-73.062
		c-11,0-24.495,7.797-29.989,17.327l-36.555,63.408c-5.494,9.53-5.494,25.125,0,34.654l36.555,63.408
		c5.494,9.53,18.989,17.327,29.989,17.327h73.062c11,0,24.495-7.797,29.989-17.327l36.554-63.408c5.494-9.53,5.494-25.125,0-34.654
		L782.839,121.609z M779.699,276.715c-5.512,9.52-19.021,17.303-30.021,17.297l-66.617-0.037c-11-0.006-24.514-7.797-30.031-17.313
		l-33.297-57.436c-5.517-9.517-5.521-25.091-0.01-34.611l33.215-57.367c5.511-9.52,19.021-17.303,30.021-17.297l66.616,0.037
		c11,0.006,24.514,7.797,30.031,17.314l33.298,57.435c5.518,9.517,5.521,25.091,0.01,34.611L779.699,276.715z"/>
</g>
<g>
	<path style="fill:#333333;" d="M803.78,197.706c1.379,2.379,1.381,6.273,0.003,8.653l-39.931,68.968
		c-1.378,2.38-4.755,4.326-7.505,4.324l-79.972-0.043c-2.75-0.001-6.128-1.95-7.508-4.329l-40.014-69.021
		c-1.379-2.379-1.38-6.273-0.002-8.653l39.933-68.968c1.378-2.38,4.755-4.326,7.505-4.324l79.97,0.044
		c2.75,0.001,6.129,1.95,7.508,4.329L803.78,197.706z"/>
</g>
<g>
	<path style="fill:#333333;" d="M782.839,325.677c-5.494-9.53-18.989-17.327-29.989-17.327h-73.062
		c-11,0-24.495,7.797-29.989,17.327l-36.555,63.408c-5.494,9.53-5.494,25.124,0,34.654l36.555,63.408
		c5.494,9.53,18.989,17.327,29.989,17.327h73.062c11,0,24.495-7.797,29.989-17.327l36.554-63.408c5.494-9.53,5.494-25.124,0-34.654
		L782.839,325.677z M779.699,480.369c-5.512,9.52-19.021,17.304-30.021,17.298l-66.617-0.037c-11-0.006-24.514-7.797-30.031-17.313
		l-33.297-57.437c-5.517-9.517-5.521-25.092-0.009-34.611l33.214-57.365c5.512-9.52,19.021-17.303,30.021-17.297l66.616,0.038
		c11,0.006,24.514,7.797,30.031,17.314l33.298,57.435c5.518,9.517,5.521,25.092,0.01,34.611L779.699,480.369z"/>
</g>
<g>
	<path style="fill:#333333;" d="M803.78,401.359c1.379,2.38,1.381,6.273,0.003,8.653l-39.931,68.969
		c-1.378,2.38-4.755,4.326-7.505,4.324l-79.972-0.043c-2.75-0.002-6.128-1.949-7.508-4.328l-40.014-69.022
		c-1.379-2.379-1.38-6.272-0.002-8.652l39.933-68.968c1.378-2.38,4.755-4.326,7.505-4.324l79.97,0.044
		c2.75,0.001,6.129,1.95,7.508,4.329L803.78,401.359z"/>
</g>
<g>
	<path style="fill:#333333;" d="M431.907,325.677c-5.494-9.53-18.989-17.327-29.989-17.327h-73.062
		c-11,0-24.495,7.797-29.989,17.327l-36.555,63.408c-5.494,9.53-5.494,25.124,0,34.654l36.555,63.408
		c5.494,9.53,18.989,17.327,29.989,17.327h73.062c11,0,24.495-7.797,29.989-17.327l36.554-63.408c5.494-9.53,5.494-25.124,0-34.654
		L431.907,325.677z M428.768,480.617c-5.512,9.52-19.021,17.304-30.021,17.298l-66.616-0.037c-11-0.006-24.514-7.797-30.031-17.313
		l-33.297-57.435c-5.517-9.517-5.521-25.092-0.01-34.611l33.215-57.366c5.511-9.52,19.021-17.303,30.021-17.297l66.616,0.037
		c11,0.006,24.514,7.797,30.031,17.314l33.298,57.435c5.517,9.517,5.521,25.092,0.009,34.611L428.768,480.617z"/>
</g>
<g>
	<path style="fill:#333333;" d="M269.173,296.074c1.379,2.379,1.38,6.273,0.002,8.653l-39.931,68.968
		c-1.378,2.38-4.755,4.326-7.505,4.324l-79.972-0.043c-2.75-0.001-6.128-1.95-7.508-4.329l-40.013-69.021
		c-1.379-2.379-1.38-6.273-0.002-8.653l39.932-68.968c1.378-2.38,4.755-4.326,7.505-4.324l79.971,0.044
		c2.75,0.001,6.128,1.95,7.508,4.329L269.173,296.074z"/>
</g>
<rect x="4.75" y="4.75" style="fill:none;stroke:#4D4D4D;stroke-width:12;stroke-miterlimit:10;" width="758" height="457"/>
<g>
	<g>
		<path style="fill:#808080;" d="M495.074,402.717c-6.077,0-13.533-4.418-16.567-9.683l-45.646-79.249
			c-3.035-5.265-3.035-13.909,0-19.173l45.646-79.097c3.034-5.265,10.49-9.477,16.567-9.477h91.263
			c6.077,0,13.532,4.198,16.567,9.462l45.645,79.138c3.035,5.266,3.035,13.854,0,19.119l-45.645,79.29
			c-3.035,5.265-10.49,9.669-16.567,9.669H495.074z"/>
	</g>
	<g>
		<path d="M639.277,300.168c1.22,2.103,1.221,5.545,0.003,7.649l-45.917,79.305c-1.218,2.104-4.204,3.823-6.634,3.823l-91.949-0.052
			c-2.431-0.002-5.417-1.724-6.637-3.826l-46.009-79.363c-1.22-2.104-1.22-5.545-0.002-7.649l45.917-79.305
			c1.218-2.104,4.203-3.824,6.634-3.822l91.95,0.052c2.43,0,5.417,1.722,6.637,3.825L639.277,300.168z"/>
		<path style="fill:#FFFFFF;" d="M586.731,396.088h-0.006l-91.949,0.029c-4.331-0.002-9.05-2.684-11.222-6.43l-46.009-79.343
			c-2.177-3.755-2.18-9.199-0.003-12.956l45.917-79.3c2.17-3.749,6.89-6.467,11.221-6.467l91.955,0.053
			c4.33,0.002,9.049,2.724,11.221,6.471l46.01,79.364c2.178,3.755,2.179,9.208,0.003,12.965l-45.917,79.224
			C595.782,393.447,591.063,396.088,586.731,396.088z M494.68,222.231c-0.553,0.011-1.755,0.704-2.042,1.178l-45.916,79.304
			c-0.264,0.479-0.264,1.853,0.001,2.333l46.008,79.362c0.287,0.474,1.496,1.171,2.052,1.182l91.948,0.051
			c0.552-0.01,1.755-0.703,2.042-1.178l45.916-79.303c0.264-0.479,0.264-1.853-0.001-2.333l-46.009-79.361
			c-0.287-0.475-1.495-1.172-2.052-1.182L494.68,222.231z"/>
	</g>
	<g>
		<path style="fill:#FFFFFF;" d="M581.212,245.151c-1.821-3.158-3.327-5.743-3.346-5.743s-0.035,2.983-0.035,6.629v50.828
			c0,3.646-1.495,4.048-3.324,0.893l-30.478-52.502c-1.828-3.155-6.307-5.626-9.954-5.626H510.14c-3.646,0-8.12,2.473-9.94,5.633
			l-30.574,52.985c-1.82,3.159-1.82,8.301,0,11.459l30.574,53.027c1.82,3.16,3.327,5.737,3.346,5.737s0.035-2.989,0.035-6.637
			v-51.71c0-3.646,1.48-4.04,3.29-0.874l30.547,53.568c1.809,3.166,6.272,5.866,9.918,5.866h23.937c3.646,0,8.119-2.694,9.94-5.854
			l30.573-53.095c1.821-3.159,1.821-8.356,0-11.515L581.212,245.151z"/>
	</g>
</g>
</svg>
