<?xml version="1.0" standalone="no"?>
<!DOCTYPE svg PUBLIC "-//W3C//DTD SVG 1.1//EN" "http://www.w3.org/Graphics/SVG/1.1/DTD/svg11.dtd">
<svg width="100%" height="100%" viewBox="0 0 512 512" version="1.1" xmlns="http://www.w3.org/2000/svg" xmlns:xlink="http://www.w3.org/1999/xlink" xml:space="preserve" style="fill-rule:evenodd;clip-rule:evenodd;stroke-linejoin:round;stroke-miterlimit:1.41421;">
    <g id="TIME 2">
        <g>
            <path d="M257,255.088L181.183,204.025" style="fill:rgb(200,200,200);fill-rule:nonzero;"/>
            <path d="M250.297,265.041L174.48,213.978L187.886,194.072L263.703,245.135L250.297,265.041Z" style="fill:rgb(200,200,200);"/>
        </g>
        <g>
            <path d="M257,255.088L355.562,196.73" style="fill:rgb(200,200,200);fill-rule:nonzero;"/>
            <path d="M263.114,265.414L250.886,244.762L349.448,186.404L361.676,207.056L263.114,265.414Z" style="fill:rgb(200,200,200);"/>
        </g>
        <g>
            <path d="M264.581,255.088C264.581,259.117 261.186,262.383 257,262.383C252.812,262.383 249.418,259.117 249.418,255.088C249.418,251.06 252.812,247.793 257,247.793C261.186,247.793 264.581,251.06 264.581,255.088" style="fill:rgb(200,200,200);fill-rule:nonzero;"/>
            <path d="M257,267.883L256.835,267.882L256.67,267.879L256.505,267.874L256.342,267.867L256.178,267.858L256.016,267.847L255.852,267.834L255.69,267.819L255.528,267.802L255.367,267.784L255.206,267.763L255.045,267.74L254.886,267.716L254.726,267.69L254.568,267.661L254.409,267.631L254.252,267.599L254.096,267.565L253.939,267.53L253.783,267.492L253.628,267.453L253.475,267.412L253.321,267.369L253.168,267.324L253.017,267.278L252.866,267.23L252.715,267.18L252.566,267.128L252.417,267.074L252.268,267.019L252.122,266.963L251.976,266.904L251.83,266.844L251.685,266.782L251.542,266.719L251.399,266.653L251.258,266.587L251.117,266.518L250.977,266.448L250.838,266.377L250.701,266.304L250.564,266.229L250.427,266.153L250.293,266.075L250.159,265.996L250.025,265.915L249.894,265.832L249.763,265.748L249.634,265.663L249.505,265.577L249.377,265.488L249.251,265.398L249.126,265.307L249.001,265.214L248.878,265.12L248.757,265.025L248.636,264.927L248.517,264.829L248.399,264.73L248.282,264.628L248.165,264.525L248.051,264.421L247.937,264.316L247.825,264.21L247.714,264.102L247.605,263.992L247.496,263.882L247.389,263.77L247.284,263.656L247.179,263.542L247.076,263.426L246.974,263.309L246.874,263.19L246.775,263.071L246.678,262.95L246.582,262.828L246.487,262.704L246.393,262.58L246.302,262.454L246.212,262.327L246.123,262.199L246.035,262.069L245.949,261.939L245.865,261.807L245.782,261.674L245.701,261.54L245.622,261.405L245.544,261.269L245.467,261.132L245.392,260.993L245.319,260.854L245.248,260.713L245.178,260.571L245.11,260.429L245.044,260.286L244.979,260.141L244.916,259.995L244.855,259.849L244.795,259.7L244.737,259.552L244.682,259.403L244.628,259.252L244.576,259.101L244.525,258.949L244.477,258.796L244.43,258.642L244.386,258.487L244.343,258.332L244.303,258.175L244.264,258.019L244.227,257.861L244.192,257.702L244.159,257.543L244.129,257.383L244.1,257.222L244.073,257.062L244.049,256.9L244.026,256.738L244.006,256.574L243.987,256.411L243.971,256.247L243.957,256.083L243.945,255.918L243.935,255.753L243.928,255.587L243.922,255.421L243.919,255.254L243.918,255.088L243.919,254.922L243.922,254.755L243.928,254.589L243.935,254.423L243.945,254.258L243.957,254.093L243.971,253.929L243.988,253.765L244.006,253.602L244.026,253.438L244.049,253.276L244.073,253.114L244.1,252.954L244.129,252.793L244.16,252.633L244.192,252.474L244.227,252.315L244.264,252.157L244.303,252.001L244.343,251.844L244.386,251.689L244.431,251.534L244.477,251.38L244.525,251.227L244.576,251.075L244.628,250.924L244.682,250.773L244.737,250.624L244.795,250.476L244.855,250.328L244.916,250.181L244.979,250.036L245.043,249.891L245.11,249.747L245.178,249.605L245.248,249.463L245.319,249.323L245.392,249.183L245.467,249.044L245.544,248.907L245.622,248.771L245.701,248.636L245.782,248.502L245.865,248.369L245.949,248.238L246.035,248.107L246.123,247.977L246.211,247.849L246.302,247.722L246.394,247.596L246.486,247.472L246.581,247.349L246.678,247.226L246.775,247.105L246.874,246.986L246.974,246.867L247.076,246.75L247.179,246.635L247.283,246.52L247.389,246.406L247.496,246.295L247.604,246.184L247.714,246.075L247.825,245.967L247.937,245.86L248.051,245.755L248.165,245.651L248.281,245.548L248.398,245.447L248.516,245.347L248.636,245.249L248.756,245.152L248.878,245.056L249.001,244.962L249.125,244.87L249.251,244.778L249.377,244.689L249.504,244.6L249.633,244.513L249.763,244.428L249.894,244.344L250.025,244.261L250.158,244.181L250.292,244.101L250.427,244.023L250.563,243.947L250.7,243.872L250.837,243.8L250.976,243.728L251.116,243.658L251.258,243.589L251.399,243.523L251.542,243.458L251.685,243.394L251.83,243.332L251.975,243.272L252.121,243.214L252.268,243.157L252.416,243.102L252.565,243.048L252.715,242.996L252.865,242.946L253.017,242.898L253.168,242.852L253.321,242.807L253.475,242.764L253.628,242.723L253.783,242.684L253.939,242.646L254.095,242.611L254.251,242.577L254.409,242.545L254.568,242.514L254.726,242.486L254.885,242.46L255.045,242.435L255.206,242.413L255.367,242.392L255.528,242.373L255.69,242.357L255.852,242.342L256.015,242.329L256.178,242.318L256.342,242.309L256.506,242.302L256.67,242.297L256.835,242.294L257,242.293L257.165,242.294L257.33,242.297L257.494,242.302L257.658,242.309L257.822,242.318L257.985,242.329L258.148,242.342L258.311,242.357L258.473,242.373L258.633,242.392L258.794,242.413L258.955,242.435L259.115,242.46L259.274,242.486L259.432,242.515L259.59,242.545L259.748,242.577L259.905,242.611L260.061,242.646L260.217,242.684L260.372,242.723L260.525,242.764L260.679,242.807L260.832,242.852L260.983,242.898L261.134,242.947L261.285,242.997L261.435,243.048L261.584,243.102L261.731,243.157L261.878,243.214L262.025,243.272L262.17,243.332L262.314,243.394L262.458,243.458L262.6,243.523L262.742,243.589L262.883,243.658L263.023,243.728L263.162,243.8L263.3,243.873L263.436,243.947L263.572,244.023L263.707,244.101L263.841,244.181L263.974,244.262L264.106,244.344L264.236,244.428L264.366,244.513L264.495,244.6L264.622,244.689L264.748,244.778L264.874,244.87L264.997,244.962L265.121,245.056L265.243,245.152L265.363,245.249L265.483,245.347L265.601,245.447L265.718,245.548L265.834,245.651L265.948,245.755L266.062,245.86L266.174,245.967L266.285,246.075L266.395,246.184L266.503,246.295L266.61,246.406L266.715,246.52L266.82,246.635L266.923,246.75L267.025,246.867L267.125,246.986L267.223,247.105L267.321,247.226L267.418,247.349L267.512,247.472L267.605,247.596L267.697,247.722L267.787,247.849L267.876,247.977L267.964,248.107L268.05,248.237L268.134,248.369L268.217,248.502L268.298,248.636L268.377,248.77L268.455,248.907L268.532,249.044L268.607,249.183L268.68,249.322L268.751,249.462L268.821,249.604L268.889,249.747L268.956,249.891L269.02,250.036L269.083,250.181L269.144,250.327L269.204,250.475L269.261,250.624L269.317,250.773L269.371,250.924L269.423,251.075L269.474,251.227L269.522,251.38L269.568,251.534L269.613,251.688L269.656,251.844L269.697,252.001L269.735,252.157L269.772,252.315L269.807,252.473L269.839,252.632L269.87,252.792L269.899,252.953L269.926,253.114L269.95,253.276L269.973,253.438L269.993,253.601L270.012,253.765L270.028,253.929L270.042,254.093L270.054,254.258L270.064,254.423L270.071,254.589L270.077,254.755L270.08,254.921L270.081,255.052L264.581,255.088L270.081,255.124L270.08,255.255L270.077,255.421L270.071,255.587L270.064,255.753L270.054,255.918L270.042,256.083L270.028,256.247L270.012,256.411L269.993,256.575L269.973,256.738L269.95,256.9L269.926,257.062L269.899,257.223L269.87,257.384L269.84,257.543L269.807,257.703L269.772,257.861L269.735,258.019L269.697,258.175L269.656,258.332L269.613,258.488L269.568,258.642L269.522,258.796L269.474,258.949L269.423,259.101L269.371,259.252L269.317,259.403L269.261,259.552L269.204,259.701L269.144,259.849L269.083,259.995L269.02,260.141L268.955,260.286L268.889,260.429L268.821,260.572L268.751,260.714L268.68,260.854L268.607,260.994L268.532,261.132L268.455,261.269L268.377,261.406L268.298,261.54L268.217,261.674L268.134,261.808L268.05,261.939L267.964,262.069L267.876,262.199L267.787,262.328L267.697,262.454L267.606,262.58L267.512,262.705L267.417,262.828L267.321,262.95L267.223,263.071L267.125,263.19L267.025,263.309L266.923,263.426L266.82,263.542L266.715,263.657L266.61,263.77L266.503,263.882L266.394,263.992L266.284,264.102L266.174,264.21L266.062,264.316L265.948,264.421L265.834,264.525L265.717,264.628L265.6,264.73L265.482,264.829L265.363,264.927L265.242,265.024L265.121,265.12L264.997,265.214L264.874,265.307L264.748,265.398L264.622,265.488L264.494,265.576L264.365,265.663L264.236,265.748L264.106,265.832L263.974,265.914L263.84,265.996L263.707,266.075L263.572,266.153L263.436,266.229L263.299,266.304L263.162,266.377L263.022,266.448L262.882,266.518L262.742,266.587L262.6,266.653L262.457,266.719L262.314,266.782L262.17,266.844L262.024,266.904L261.878,266.963L261.731,267.019L261.583,267.074L261.434,267.128L261.284,267.18L261.134,267.23L260.983,267.278L260.831,267.324L260.679,267.369L260.525,267.412L260.371,267.453L260.217,267.492L260.061,267.53L259.904,267.565L259.748,267.599L259.59,267.631L259.432,267.661L259.274,267.69L259.114,267.716L258.955,267.74L258.794,267.763L258.633,267.784L258.472,267.802L258.311,267.819L258.148,267.834L257.984,267.847L257.822,267.858L257.658,267.867L257.495,267.874L257.33,267.879L257.165,267.882L257,267.883ZM257,256.883L257.031,256.883L257.061,256.882L257.091,256.881L257.122,256.88L257.152,256.878L257.182,256.876L257.211,256.874L257.24,256.871L257.269,256.868L257.298,256.865L257.326,256.861L257.354,256.857L257.383,256.853L257.41,256.848L257.438,256.843L257.465,256.838L257.492,256.833L257.519,256.827L257.546,256.821L257.572,256.814L257.599,256.808L257.625,256.801L257.651,256.794L257.677,256.786L257.703,256.778L257.729,256.77L257.754,256.761L257.778,256.753L257.803,256.744L257.828,256.735L257.853,256.725L257.877,256.715L257.901,256.705L257.925,256.695L257.949,256.684L257.973,256.674L257.996,256.663L258.02,256.651L258.042,256.64L258.065,256.628L258.088,256.616L258.111,256.604L258.132,256.592L258.155,256.579L258.177,256.566L258.198,256.553L258.219,256.539L258.241,256.526L258.262,256.512L258.282,256.498L258.303,256.484L258.323,256.469L258.343,256.455L258.363,256.44L258.382,256.425L258.402,256.41L258.42,256.395L258.44,256.379L258.458,256.363L258.477,256.347L258.494,256.332L258.512,256.316L258.53,256.299L258.547,256.283L258.564,256.266L258.58,256.25L258.597,256.233L258.613,256.216L258.629,256.199L258.645,256.182L258.66,256.165L258.675,256.148L258.689,256.13L258.704,256.112L258.718,256.095L258.732,256.077L258.746,256.059L258.759,256.042L258.772,256.024L258.785,256.005L258.797,255.988L258.809,255.97L258.821,255.952L258.833,255.934L258.844,255.916L258.855,255.898L258.866,255.879L258.877,255.861L258.887,255.843L258.897,255.824L258.906,255.806L258.916,255.788L258.925,255.769L258.933,255.751L258.942,255.732L258.95,255.714L258.958,255.696L258.966,255.677L258.973,255.659L258.981,255.64L258.988,255.621L258.994,255.603L259.001,255.584L259.007,255.566L259.013,255.547L259.018,255.528L259.024,255.508L259.029,255.49L259.034,255.472L259.039,255.452L259.043,255.433L259.047,255.414L259.051,255.394L259.055,255.375L259.058,255.356L259.062,255.336L259.065,255.317L259.067,255.297L259.07,255.277L259.072,255.257L259.074,255.236L259.076,255.216L259.077,255.195L259.079,255.174L259.08,255.153L259.08,255.131L259.081,255.109L259.081,255.088L259.081,255.066L259.08,255.045L259.08,255.023L259.079,255.002L259.077,254.981L259.076,254.96L259.074,254.94L259.072,254.919L259.07,254.9L259.067,254.88L259.065,254.859L259.062,254.84L259.058,254.82L259.055,254.801L259.051,254.782L259.047,254.763L259.043,254.743L259.039,254.724L259.034,254.705L259.029,254.686L259.024,254.668L259.018,254.649L259.013,254.629L259.007,254.61L259.001,254.592L258.994,254.574L258.988,254.555L258.981,254.536L258.973,254.518L258.966,254.5L258.958,254.481L258.95,254.462L258.942,254.444L258.933,254.425L258.925,254.407L258.916,254.389L258.906,254.37L258.897,254.352L258.887,254.333L258.877,254.315L258.866,254.297L258.855,254.278L258.844,254.26L258.833,254.242L258.821,254.224L258.809,254.206L258.797,254.188L258.785,254.171L258.772,254.152L258.759,254.134L258.746,254.117L258.732,254.099L258.718,254.081L258.704,254.064L258.689,254.046L258.675,254.029L258.66,254.011L258.644,253.994L258.629,253.977L258.613,253.96L258.597,253.943L258.58,253.926L258.564,253.91L258.547,253.893L258.529,253.876L258.512,253.861L258.494,253.844L258.476,253.829L258.458,253.812L258.439,253.797L258.42,253.781L258.401,253.766L258.382,253.751L258.363,253.736L258.342,253.721L258.323,253.707L258.302,253.692L258.281,253.678L258.261,253.664L258.241,253.65L258.219,253.637L258.198,253.623L258.176,253.61L258.154,253.597L258.132,253.584L258.11,253.572L258.087,253.56L258.064,253.547L258.042,253.536L258.019,253.524L257.996,253.513L257.973,253.502L257.949,253.491L257.925,253.481L257.901,253.47L257.877,253.46L257.852,253.451L257.828,253.441L257.803,253.432L257.778,253.423L257.753,253.414L257.728,253.406L257.703,253.398L257.676,253.39L257.651,253.382L257.625,253.375L257.598,253.368L257.572,253.361L257.546,253.355L257.519,253.349L257.492,253.343L257.465,253.338L257.438,253.332L257.41,253.327L257.382,253.323L257.354,253.318L257.326,253.315L257.298,253.311L257.268,253.308L257.24,253.305L257.211,253.302L257.181,253.3L257.152,253.298L257.122,253.296L257.092,253.295L257.061,253.294L257.031,253.293L257,253.293L256.969,253.293L256.939,253.294L256.908,253.295L256.878,253.296L256.848,253.298L256.818,253.3L256.789,253.302L256.76,253.305L256.731,253.308L256.702,253.311L256.673,253.315L256.646,253.319L256.618,253.323L256.589,253.328L256.561,253.332L256.534,253.338L256.508,253.343L256.48,253.349L256.453,253.355L256.427,253.361L256.401,253.368L256.374,253.375L256.348,253.383L256.323,253.39L256.296,253.398L256.271,253.406L256.246,253.415L256.221,253.423L256.196,253.432L256.171,253.441L256.147,253.451L256.122,253.461L256.098,253.471L256.074,253.481L256.05,253.491L256.026,253.502L256.003,253.513L255.98,253.524L255.957,253.536L255.934,253.548L255.911,253.56L255.889,253.572L255.866,253.585L255.845,253.597L255.823,253.61L255.801,253.623L255.779,253.637L255.758,253.65L255.738,253.664L255.717,253.678L255.697,253.692L255.676,253.707L255.656,253.721L255.636,253.736L255.617,253.751L255.598,253.766L255.578,253.782L255.56,253.797L255.541,253.812L255.523,253.829L255.505,253.844L255.487,253.861L255.47,253.876L255.452,253.893L255.435,253.91L255.419,253.926L255.402,253.943L255.386,253.96L255.37,253.977L255.355,253.994L255.339,254.012L255.324,254.029L255.309,254.046L255.295,254.064L255.281,254.081L255.267,254.099L255.254,254.116L255.24,254.134L255.227,254.152L255.214,254.17L255.202,254.188L255.19,254.206L255.178,254.224L255.166,254.242L255.155,254.26L255.144,254.278L255.133,254.297L255.122,254.315L255.112,254.334L255.103,254.351L255.093,254.37L255.084,254.388L255.075,254.406L255.066,254.425L255.057,254.444L255.049,254.462L255.041,254.481L255.033,254.499L255.026,254.517L255.019,254.536L255.012,254.555L255.005,254.574L254.999,254.592L254.992,254.61L254.986,254.629L254.981,254.648L254.975,254.667L254.97,254.686L254.965,254.705L254.96,254.724L254.956,254.743L254.952,254.762L254.948,254.781L254.944,254.801L254.941,254.82L254.937,254.84L254.934,254.86L254.932,254.88L254.929,254.899L254.927,254.919L254.925,254.94L254.923,254.96L254.922,254.981L254.92,255.002L254.919,255.023L254.919,255.044L254.918,255.066L254.918,255.088L254.918,255.11L254.919,255.132L254.919,255.153L254.92,255.174L254.922,255.195L254.923,255.216L254.925,255.236L254.927,255.257L254.929,255.277L254.932,255.297L254.934,255.316L254.937,255.336L254.941,255.356L254.944,255.376L254.948,255.395L254.952,255.414L254.956,255.433L254.961,255.452L254.965,255.472L254.97,255.49L254.975,255.509L254.981,255.528L254.987,255.547L254.992,255.566L254.999,255.584L255.005,255.603L255.012,255.622L255.019,255.641L255.026,255.659L255.033,255.677L255.041,255.696L255.049,255.714L255.057,255.732L255.066,255.751L255.075,255.77L255.084,255.788L255.093,255.807L255.103,255.825L255.112,255.842L255.122,255.861L255.133,255.879L255.144,255.898L255.155,255.916L255.166,255.934L255.178,255.953L255.19,255.97L255.202,255.988L255.214,256.006L255.227,256.024L255.24,256.042L255.253,256.06L255.267,256.077L255.281,256.095L255.295,256.113L255.309,256.13L255.324,256.148L255.339,256.165L255.354,256.182L255.37,256.199L255.386,256.216L255.402,256.233L255.419,256.25L255.435,256.266L255.452,256.283L255.469,256.299L255.487,256.316L255.505,256.332L255.522,256.347L255.54,256.363L255.559,256.379L255.578,256.394L255.597,256.41L255.617,256.425L255.636,256.44L255.656,256.455L255.676,256.469L255.696,256.484L255.716,256.498L255.737,256.512L255.758,256.526L255.779,256.539L255.801,256.553L255.822,256.566L255.844,256.578L255.866,256.591L255.888,256.604L255.911,256.616L255.934,256.628L255.956,256.64L255.979,256.651L256.003,256.663L256.026,256.674L256.049,256.684L256.074,256.695L256.098,256.705L256.121,256.715L256.146,256.725L256.171,256.735L256.196,256.744L256.22,256.753L256.245,256.761L256.27,256.77L256.296,256.778L256.322,256.786L256.348,256.793L256.374,256.801L256.4,256.808L256.427,256.814L256.453,256.821L256.48,256.827L256.507,256.833L256.534,256.838L256.561,256.843L256.589,256.848L256.617,256.853L256.645,256.857L256.673,256.861L256.702,256.865L256.731,256.868L256.76,256.871L256.789,256.874L256.818,256.876L256.848,256.878L256.878,256.88L256.909,256.881L256.939,256.882L256.969,256.883L257,256.883Z" style="fill:rgb(200,200,200);"/>
        </g>
        <path d="M164.328,417L150.106,392.758L174.258,378.59L180.364,389L192,389L192,417L164.328,417Z" style="fill:rgb(200,200,200);"/>
        <path d="M125.975,350.416L109.807,322.378L134.063,308.391L150.231,336.429L125.975,350.416Z" style="fill:rgb(200,200,200);"/>
        <path d="M85.555,280.32L71.531,256L85.555,231.681L109.811,245.668L103.853,256L109.811,266.333L85.555,280.32Z" style="fill:rgb(200,200,200);"/>
        <path d="M134.063,203.609L109.807,189.622L125.975,161.582L150.232,175.569L134.063,203.609Z" style="fill:rgb(200,200,200);"/>
        <path d="M174.258,133.41L150.107,119.242L164.328,95L192,95L192,123L180.364,123L174.258,133.41Z" style="fill:rgb(200,200,200);"/>
        <rect x="241" y="95" width="32" height="28" style="fill:rgb(200,200,200);"/>
        <path d="M339.74,133.409L333.634,123L322,123L322,95L349.672,95L363.892,119.243L339.74,133.409Z" style="fill:rgb(200,200,200);"/>
        <path d="M379.936,203.609L363.767,175.57L388.024,161.583L404.192,189.622L379.936,203.609Z" style="fill:rgb(200,200,200);"/>
        <path d="M428.445,280.319L404.188,266.333L410.146,256L404.188,245.667L428.445,231.681L442.467,256L428.445,280.319Z" style="fill:rgb(200,200,200);"/>
        <path d="M388.024,350.416L363.768,336.428L379.936,308.39L404.193,322.377L388.024,350.416Z" style="fill:rgb(200,200,200);"/>
        <path d="M322,417L322,389L333.635,389L339.741,378.59L363.892,392.757L349.672,417L322,417Z" style="fill:rgb(200,200,200);"/>
        <rect x="241" y="389" width="32" height="28" style="fill:rgb(200,200,200);"/>
        <path d="M364.515,472.38L147.699,472.26L147.472,472.259L147.213,472.254L146.954,472.247L146.697,472.237L146.441,472.225L146.186,472.21L145.933,472.192L145.681,472.172L145.431,472.149L145.18,472.124L144.932,472.097L144.685,472.068L144.438,472.036L144.195,472.002L143.951,471.966L143.708,471.928L143.467,471.888L143.228,471.845L142.987,471.801L142.75,471.755L142.514,471.707L142.277,471.657L142.042,471.605L141.808,471.551L141.576,471.495L141.345,471.438L141.113,471.379L140.885,471.318L140.656,471.256L140.428,471.191L140.202,471.126L139.976,471.058L139.751,470.989L139.527,470.918L139.304,470.846L139.081,470.771L138.861,470.696L138.641,470.619L138.421,470.54L138.204,470.461L137.986,470.379L137.769,470.296L137.553,470.211L137.338,470.125L137.124,470.038L136.91,469.949L136.698,469.858L136.487,469.767L136.276,469.673L136.066,469.579L135.857,469.483L135.648,469.386L135.441,469.287L135.233,469.186L135.027,469.085L134.823,468.982L134.619,468.878L134.415,468.772L134.212,468.665L134.01,468.557L133.808,468.447L133.609,468.336L133.409,468.224L133.209,468.11L133.011,467.994L132.814,467.878L132.618,467.761L132.422,467.641L132.227,467.52L132.032,467.398L131.839,467.275L131.647,467.151L131.455,467.025L131.263,466.897L131.073,466.768L130.884,466.639L130.695,466.507L130.507,466.374L130.321,466.24L130.134,466.103L129.949,465.967L129.764,465.828L129.581,465.688L129.397,465.546L129.215,465.403L129.034,465.259L128.854,465.113L128.674,464.966L128.496,464.817L128.318,464.667L128.14,464.514L127.964,464.361L127.79,464.206L127.615,464.049L127.442,463.891L127.269,463.731L127.098,463.57L126.927,463.407L126.758,463.242L126.59,463.076L126.422,462.908L126.255,462.737L126.089,462.566L125.924,462.392L125.761,462.217L125.599,462.04L125.437,461.861L125.277,461.68L125.118,461.498L124.96,461.313L124.803,461.126L124.647,460.938L124.493,460.748L124.34,460.555L124.188,460.36L124.037,460.163L123.887,459.963L123.739,459.763L123.593,459.56L123.448,459.354L123.304,459.146L123.162,458.935L123.022,458.723L122.883,458.508L122.745,458.291L122.609,458.07L122.476,457.848L122.36,457.651L13.869,270.512L13.756,270.314L13.629,270.087L13.505,269.86L13.384,269.632L13.266,269.404L13.152,269.176L13.04,268.948L12.93,268.719L12.824,268.49L12.72,268.262L12.619,268.033L12.52,267.804L12.424,267.575L12.33,267.346L12.239,267.116L12.15,266.887L12.064,266.658L11.98,266.428L11.898,266.199L11.819,265.969L11.742,265.74L11.666,265.511L11.594,265.281L11.523,265.052L11.454,264.822L11.388,264.593L11.323,264.363L11.261,264.134L11.2,263.904L11.142,263.675L11.085,263.445L11.03,263.215L10.977,262.986L10.926,262.756L10.877,262.527L10.83,262.297L10.785,262.068L10.741,261.838L10.699,261.609L10.659,261.379L10.621,261.15L10.584,260.92L10.549,260.691L10.516,260.461L10.484,260.232L10.455,260.002L10.426,259.773L10.4,259.543L10.375,259.314L10.352,259.085L10.33,258.855L10.31,258.626L10.292,258.396L10.275,258.167L10.26,257.937L10.247,257.708L10.235,257.478L10.224,257.249L10.216,257.019L10.209,256.79L10.203,256.561L10.199,256.331L10.197,256.102L10.196,255.872L10.196,255.643L10.199,255.413L10.203,255.184L10.208,254.954L10.215,254.725L10.224,254.495L10.234,254.266L10.246,254.036L10.259,253.807L10.274,253.578L10.291,253.348L10.309,253.119L10.329,252.889L10.35,252.66L10.373,252.43L10.398,252.201L10.424,251.971L10.452,251.742L10.482,251.512L10.513,251.283L10.546,251.053L10.581,250.824L10.618,250.594L10.656,250.365L10.696,250.135L10.738,249.906L10.781,249.676L10.826,249.447L10.874,249.217L10.923,248.988L10.973,248.758L11.026,248.529L11.081,248.299L11.137,248.069L11.195,247.84L11.256,247.61L11.318,247.381L11.383,247.151L11.449,246.922L11.518,246.692L11.588,246.462L11.661,246.233L11.736,246.004L11.813,245.774L11.892,245.544L11.974,245.315L12.058,245.086L12.144,244.856L12.232,244.627L12.324,244.398L12.417,244.169L12.513,243.94L12.611,243.711L12.712,243.482L12.816,243.253L12.923,243.024L13.032,242.796L13.144,242.567L13.258,242.339L13.376,242.111L13.497,241.883L13.62,241.656L13.747,241.429L13.86,241.231L122.132,54.23L122.247,54.034L122.381,53.811L122.517,53.591L122.654,53.373L122.793,53.158L122.933,52.945L123.076,52.734L123.219,52.526L123.364,52.32L123.511,52.116L123.659,51.915L123.808,51.715L123.959,51.518L124.111,51.323L124.264,51.13L124.419,50.939L124.574,50.751L124.731,50.564L124.89,50.379L125.049,50.196L125.209,50.015L125.37,49.836L125.533,49.659L125.697,49.483L125.861,49.309L126.027,49.138L126.194,48.967L126.361,48.799L126.53,48.633L126.7,48.467L126.87,48.304L127.042,48.143L127.214,47.983L127.388,47.824L127.562,47.668L127.737,47.512L127.914,47.359L128.091,47.207L128.269,47.056L128.448,46.907L128.627,46.76L128.807,46.614L128.989,46.469L129.172,46.326L129.354,46.185L129.538,46.044L129.723,45.906L129.909,45.768L130.095,45.633L130.282,45.498L130.47,45.365L130.659,45.234L130.848,45.103L131.039,44.975L131.23,44.847L131.422,44.721L131.615,44.596L131.808,44.473L132.002,44.351L132.198,44.231L132.394,44.111L132.59,43.994L132.788,43.877L132.986,43.762L133.185,43.648L133.385,43.536L133.585,43.425L133.787,43.315L133.989,43.207L134.192,43.1L134.396,42.994L134.601,42.89L134.806,42.787L135.011,42.685L135.218,42.585L135.426,42.487L135.635,42.389L135.844,42.293L136.054,42.199L136.265,42.106L136.477,42.014L136.69,41.924L136.903,41.835L137.117,41.748L137.333,41.662L137.548,41.577L137.765,41.494L137.983,41.413L138.202,41.333L138.421,41.254L138.642,41.177L138.863,41.102L139.085,41.028L139.308,40.956L139.532,40.885L139.757,40.816L139.983,40.749L140.209,40.683L140.437,40.619L140.666,40.557L140.896,40.496L141.127,40.437L141.358,40.38L141.591,40.324L141.825,40.271L142.06,40.219L142.296,40.169L142.533,40.121L142.771,40.075L143.01,40.031L143.25,39.989L143.492,39.949L143.734,39.911L143.978,39.875L144.223,39.842L144.469,39.81L144.716,39.781L144.965,39.754L145.215,39.729L145.466,39.707L145.718,39.687L145.971,39.67L146.226,39.655L146.482,39.643L146.739,39.633L146.997,39.626L147.257,39.622L147.485,39.621L364.3,39.742L364.528,39.743L364.787,39.748L365.045,39.755L365.303,39.765L365.558,39.777L365.813,39.792L366.066,39.81L366.318,39.83L366.569,39.853L366.818,39.877L367.067,39.905L367.314,39.934L367.56,39.966L367.804,40L368.048,40.036L368.291,40.074L368.532,40.114L368.772,40.156L369.011,40.201L369.249,40.247L369.486,40.295L369.722,40.345L369.956,40.397L370.19,40.451L370.423,40.506L370.654,40.563L370.885,40.623L371.114,40.683L371.343,40.746L371.57,40.81L371.797,40.876L372.023,40.943L372.248,41.013L372.471,41.083L372.694,41.156L372.916,41.229L373.137,41.305L373.358,41.382L373.577,41.461L373.795,41.541L374.013,41.622L374.23,41.705L374.445,41.79L374.66,41.876L374.875,41.963L375.088,42.052L375.3,42.142L375.512,42.234L375.723,42.327L375.933,42.422L376.142,42.518L376.351,42.615L376.558,42.714L376.765,42.814L376.971,42.915L377.176,43.018L377.38,43.123L377.584,43.228L377.787,43.335L377.989,43.444L378.19,43.553L378.39,43.664L378.59,43.777L378.79,43.891L378.987,44.005L379.185,44.122L379.382,44.24L379.577,44.359L379.772,44.48L379.967,44.602L380.16,44.725L380.352,44.849L380.544,44.975L380.735,45.103L380.926,45.232L381.115,45.362L381.304,45.493L381.492,45.627L381.679,45.76L381.865,45.896L382.051,46.034L382.235,46.172L382.419,46.312L382.603,46.454L382.785,46.597L382.965,46.741L383.146,46.887L383.326,47.035L383.505,47.183L383.682,47.333L383.859,47.485L384.036,47.639L384.211,47.794L384.385,47.951L384.558,48.109L384.731,48.269L384.903,48.431L385.073,48.593L385.242,48.758L385.411,48.925L385.578,49.092L385.745,49.263L385.912,49.435L386.076,49.609L386.239,49.783L386.401,49.96L386.563,50.139L386.724,50.321L386.883,50.504L387.041,50.688L387.198,50.874L387.353,51.063L387.508,51.254L387.661,51.446L387.813,51.641L387.964,51.838L388.114,52.038L388.261,52.238L388.407,52.441L388.554,52.648L388.697,52.856L388.839,53.065L388.98,53.279L389.118,53.493L389.256,53.711L389.392,53.932L389.526,54.154L389.641,54.35L498.133,241.49L498.246,241.688L498.372,241.913L498.495,242.141L498.617,242.369L498.734,242.597L498.849,242.825L498.962,243.054L499.071,243.283L499.177,243.51L499.281,243.74L499.382,243.968L499.481,244.197L499.577,244.427L499.671,244.656L499.761,244.884L499.85,245.113L499.937,245.343L500.021,245.573L500.103,245.802L500.182,246.03L500.259,246.261L500.334,246.49L500.407,246.719L500.478,246.949L500.546,247.178L500.613,247.409L500.678,247.638L500.74,247.867L500.801,248.096L500.859,248.326L500.916,248.556L500.971,248.786L501.023,249.014L501.074,249.244L501.124,249.475L501.171,249.703L501.216,249.932L501.26,250.163L501.302,250.392L501.342,250.621L501.38,250.85L501.417,251.08L501.452,251.31L501.485,251.54L501.516,251.769L501.546,251.998L501.574,252.227L501.601,252.458L501.626,252.687L501.649,252.915L501.67,253.146L501.69,253.376L501.709,253.604L501.725,253.833L501.741,254.064L501.754,254.293L501.766,254.522L501.776,254.751L501.785,254.981L501.792,255.211L501.798,255.44L501.802,255.67L501.804,255.899L501.805,256.128L501.804,256.357L501.802,256.588L501.798,256.817L501.793,257.046L501.786,257.277L501.777,257.505L501.767,257.734L501.755,257.964L501.742,258.194L501.727,258.423L501.71,258.652L501.692,258.882L501.672,259.112L501.651,259.34L501.628,259.57L501.603,259.801L501.577,260.029L501.549,260.258L501.519,260.488L501.487,260.718L501.454,260.947L501.419,261.177L501.383,261.407L501.345,261.635L501.305,261.865L501.263,262.095L501.22,262.324L501.174,262.554L501.127,262.784L501.078,263.012L501.027,263.242L500.974,263.473L500.92,263.701L500.864,263.93L500.805,264.161L500.745,264.39L500.683,264.619L500.618,264.849L500.552,265.078L500.483,265.309L500.413,265.538L500.34,265.767L500.265,265.997L500.188,266.227L500.108,266.456L500.027,266.685L499.943,266.915L499.857,267.143L499.768,267.373L499.677,267.603L499.584,267.832L499.488,268.061L499.39,268.289L499.288,268.518L499.184,268.748L499.078,268.976L498.969,269.204L498.857,269.433L498.742,269.661L498.625,269.888L498.505,270.116L498.38,270.344L498.254,270.571L498.141,270.769L389.868,457.771L389.753,457.968L389.619,458.192L389.483,458.412L389.346,458.629L389.207,458.844L389.066,459.057L388.924,459.269L388.78,459.477L388.635,459.682L388.489,459.885L388.341,460.087L388.191,460.287L388.04,460.484L387.889,460.679L387.736,460.872L387.581,461.063L387.426,461.251L387.269,461.438L387.11,461.623L386.951,461.806L386.791,461.986L386.63,462.166L386.467,462.343L386.303,462.519L386.138,462.693L385.973,462.864L385.806,463.034L385.639,463.202L385.47,463.369L385.3,463.534L385.129,463.698L384.958,463.859L384.785,464.019L384.612,464.177L384.438,464.334L384.262,464.49L384.086,464.642L383.909,464.795L383.731,464.945L383.552,465.094L383.372,465.242L383.192,465.387L383.01,465.532L382.828,465.675L382.645,465.817L382.461,465.957L382.276,466.096L382.092,466.232L381.905,466.369L381.718,466.503L381.53,466.636L381.341,466.767L381.151,466.898L380.961,467.027L380.77,467.154L380.577,467.281L380.385,467.405L380.192,467.528L379.997,467.65L379.801,467.771L379.606,467.89L379.41,468.008L379.211,468.125L379.014,468.239L378.816,468.353L378.615,468.466L378.414,468.577L378.213,468.686L378.011,468.795L377.808,468.902L377.605,469.007L377.399,469.112L377.194,469.214L376.988,469.316L376.78,469.416L376.574,469.514L376.365,469.612L376.155,469.708L375.946,469.802L375.734,469.896L375.523,469.987L375.31,470.077L375.096,470.166L374.883,470.253L374.667,470.339L374.451,470.424L374.234,470.507L374.017,470.588L373.798,470.668L373.578,470.747L373.359,470.823L373.137,470.899L372.914,470.973L372.693,471.045L372.469,471.115L372.243,471.185L372.016,471.252L371.79,471.318L371.563,471.382L371.333,471.444L371.104,471.505L370.873,471.564L370.642,471.621L370.41,471.676L370.175,471.73L369.939,471.782L369.704,471.832L369.467,471.88L369.229,471.926L368.99,471.97L368.75,472.012L368.509,472.052L368.265,472.09L368.021,472.126L367.777,472.159L367.531,472.191L367.283,472.22L367.035,472.247L366.786,472.272L366.534,472.294L366.283,472.314L366.029,472.331L365.773,472.346L365.519,472.358L365.261,472.368L365.002,472.375L364.743,472.379L364.515,472.38ZM364.462,448.38L364.492,448.38L364.492,448.38L364.494,448.38L364.496,448.38L364.503,448.379L364.51,448.379L364.52,448.378L364.532,448.377L364.545,448.376L364.561,448.375L364.578,448.373L364.598,448.37L364.618,448.368L364.641,448.365L364.666,448.361L364.69,448.357L364.718,448.353L364.747,448.347L364.778,448.342L364.81,448.336L364.843,448.329L364.878,448.321L364.914,448.314L364.95,448.305L364.989,448.296L365.029,448.286L365.071,448.276L365.112,448.265L365.155,448.253L365.2,448.24L365.245,448.227L365.29,448.214L365.336,448.2L365.384,448.184L365.434,448.168L365.483,448.152L365.532,448.135L365.585,448.117L365.635,448.099L365.687,448.08L365.74,448.06L365.793,448.04L365.847,448.019L365.901,447.997L365.956,447.975L366.011,447.952L366.066,447.928L366.123,447.904L366.178,447.88L366.235,447.854L366.291,447.828L366.348,447.802L366.406,447.774L366.461,447.747L366.519,447.719L366.576,447.69L366.633,447.661L366.691,447.631L366.748,447.601L366.804,447.571L366.862,447.539L366.919,447.508L366.975,447.477L367.032,447.444L367.089,447.411L367.144,447.378L367.2,447.345L367.257,447.31L367.311,447.277L367.365,447.243L367.42,447.208L367.474,447.173L367.528,447.138L367.581,447.103L367.633,447.067L367.685,447.032L367.736,446.996L367.787,446.96L367.837,446.924L367.886,446.888L367.936,446.851L367.984,446.815L368.031,446.779L368.078,446.743L368.124,446.707L368.169,446.671L368.213,446.635L368.257,446.599L368.299,446.564L368.341,446.529L368.381,446.494L368.422,446.458L368.46,446.425L368.499,446.39L368.536,446.356L368.572,446.323L368.607,446.29L368.64,446.258L368.673,446.226L368.705,446.195L368.735,446.164L368.765,446.133L368.794,446.104L368.821,446.075L368.847,446.047L368.872,446.021L368.895,445.994L368.919,445.968L368.94,445.944L368.959,445.921L368.978,445.898L368.997,445.876L369.013,445.856L369.028,445.837L369.043,445.818L369.055,445.802L369.066,445.787L369.076,445.773L369.086,445.76L369.094,445.748L369.101,445.739L369.106,445.731L369.11,445.725L369.113,445.72L369.116,445.716L369.116,445.716L369.131,445.69L477.338,258.801L477.353,258.775L477.354,258.772L477.357,258.766L477.361,258.76L477.364,258.752L477.37,258.741L477.375,258.729L477.381,258.716L477.388,258.7L477.396,258.682L477.404,258.663L477.412,258.642L477.421,258.62L477.43,258.597L477.44,258.57L477.45,258.544L477.46,258.514L477.471,258.484L477.481,258.452L477.492,258.419L477.503,258.384L477.514,258.348L477.525,258.311L477.537,258.272L477.548,258.232L477.559,258.19L477.571,258.147L477.582,258.104L477.593,258.059L477.604,258.011L477.615,257.965L477.625,257.918L477.636,257.867L477.646,257.816L477.656,257.765L477.666,257.713L477.676,257.659L477.685,257.606L477.695,257.55L477.704,257.494L477.712,257.438L477.72,257.381L477.728,257.323L477.736,257.265L477.743,257.205L477.75,257.144L477.756,257.085L477.763,257.025L477.768,256.962L477.774,256.9L477.779,256.838L477.783,256.775L477.787,256.712L477.791,256.649L477.794,256.586L477.797,256.522L477.8,256.456L477.801,256.393L477.803,256.329L477.804,256.264L477.805,256.2L477.805,256.135L477.805,256.071L477.804,256.006L477.803,255.941L477.801,255.877L477.799,255.813L477.797,255.749L477.794,255.685L477.791,255.621L477.787,255.558L477.783,255.496L477.778,255.433L477.773,255.369L477.768,255.308L477.762,255.248L477.756,255.185L477.749,255.125L477.743,255.066L477.735,255.006L477.728,254.948L477.72,254.889L477.711,254.832L477.703,254.776L477.694,254.72L477.685,254.665L477.675,254.611L477.665,254.557L477.656,254.506L477.645,254.454L477.635,254.403L477.624,254.354L477.614,254.307L477.603,254.258L477.592,254.211L477.581,254.168L477.57,254.124L477.558,254.081L477.547,254.039L477.536,253.999L477.525,253.961L477.513,253.923L477.502,253.887L477.491,253.852L477.48,253.818L477.47,253.788L477.459,253.756L477.448,253.727L477.439,253.701L477.43,253.676L477.42,253.652L477.411,253.628L477.402,253.607L477.395,253.589L477.387,253.572L477.38,253.556L477.374,253.543L477.368,253.53L477.363,253.519L477.359,253.512L477.356,253.505L477.353,253.5L477.352,253.498L477.352,253.497L477.351,253.496L477.336,253.47L368.912,66.446L368.896,66.42L368.896,66.42L368.896,66.419L368.894,66.416L368.891,66.41L368.887,66.404L368.881,66.396L368.873,66.385L368.866,66.375L368.857,66.362L368.846,66.347L368.835,66.332L368.822,66.315L368.808,66.298L368.792,66.278L368.776,66.258L368.758,66.236L368.739,66.213L368.718,66.189L368.697,66.164L368.675,66.14L368.651,66.113L368.625,66.085L368.599,66.057L368.571,66.028L368.544,65.999L368.514,65.969L368.483,65.937L368.451,65.906L368.418,65.874L368.383,65.841L368.348,65.808L368.313,65.775L368.276,65.741L368.237,65.706L368.198,65.672L368.158,65.638L368.117,65.602L368.075,65.566L368.032,65.531L367.989,65.495L367.944,65.459L367.898,65.423L367.852,65.386L367.806,65.351L367.758,65.314L367.71,65.278L367.661,65.242L367.611,65.206L367.56,65.169L367.51,65.133L367.458,65.097L367.406,65.061L367.354,65.026L367.3,64.991L367.247,64.955L367.192,64.92L367.138,64.885L367.083,64.851L367.028,64.817L366.972,64.783L366.916,64.749L366.86,64.716L366.803,64.683L366.746,64.651L366.69,64.619L366.633,64.587L366.575,64.556L366.518,64.525L366.461,64.495L366.403,64.465L366.346,64.436L366.289,64.407L366.231,64.379L366.174,64.351L366.117,64.324L366.06,64.297L366.003,64.271L365.946,64.246L365.89,64.221L365.835,64.197L365.778,64.173L365.723,64.15L365.668,64.128L365.614,64.106L365.56,64.085L365.507,64.064L365.454,64.045L365.402,64.025L365.35,64.007L365.299,63.989L365.249,63.972L365.199,63.955L365.15,63.94L365.102,63.924L365.055,63.91L365.009,63.896L364.964,63.883L364.92,63.871L364.876,63.859L364.834,63.847L364.793,63.837L364.753,63.827L364.715,63.818L364.677,63.809L364.641,63.801L364.606,63.794L364.572,63.787L364.54,63.781L364.509,63.775L364.48,63.77L364.452,63.765L364.426,63.761L364.402,63.758L364.379,63.754L364.358,63.752L364.339,63.749L364.322,63.748L364.306,63.746L364.292,63.745L364.28,63.744L364.27,63.743L364.262,63.743L364.256,63.742L364.253,63.742L364.251,63.742L364.221,63.742L147.538,63.621L147.508,63.621L147.507,63.621L147.503,63.621L147.497,63.622L147.489,63.622L147.48,63.623L147.468,63.624L147.454,63.625L147.439,63.626L147.422,63.628L147.403,63.631L147.382,63.633L147.359,63.636L147.335,63.64L147.309,63.644L147.282,63.648L147.253,63.654L147.222,63.659L147.19,63.665L147.157,63.672L147.122,63.679L147.086,63.687L147.049,63.696L147.01,63.705L146.97,63.715L146.93,63.725L146.888,63.736L146.845,63.748L146.801,63.76L146.756,63.774L146.71,63.787L146.663,63.802L146.615,63.817L146.566,63.832L146.517,63.849L146.467,63.866L146.416,63.884L146.365,63.902L146.313,63.921L146.26,63.941L146.207,63.961L146.153,63.982L146.099,64.004L146.044,64.026L145.989,64.049L145.934,64.073L145.878,64.097L145.822,64.121L145.766,64.147L145.709,64.173L145.652,64.199L145.595,64.226L145.538,64.254L145.481,64.282L145.424,64.311L145.367,64.34L145.309,64.369L145.252,64.399L145.195,64.43L145.138,64.461L145.081,64.493L145.025,64.525L144.968,64.557L144.912,64.59L144.856,64.623L144.8,64.656L144.745,64.69L144.689,64.724L144.635,64.758L144.58,64.793L144.526,64.828L144.473,64.863L144.42,64.898L144.368,64.934L144.316,64.969L144.264,65.005L144.213,65.041L144.163,65.077L144.114,65.113L144.065,65.149L144.017,65.185L143.969,65.222L143.923,65.258L143.877,65.294L143.832,65.329L143.787,65.366L143.744,65.401L143.701,65.437L143.66,65.472L143.619,65.507L143.579,65.542L143.54,65.576L143.502,65.61L143.465,65.644L143.429,65.677L143.394,65.71L143.36,65.743L143.328,65.774L143.296,65.806L143.265,65.837L143.236,65.867L143.207,65.896L143.18,65.925L143.154,65.953L143.129,65.98L143.106,66.006L143.083,66.032L143.061,66.056L143.042,66.079L143.023,66.102L143.005,66.124L142.989,66.144L142.973,66.163L142.959,66.181L142.947,66.198L142.935,66.213L142.925,66.227L142.916,66.24L142.908,66.251L142.901,66.261L142.896,66.268L142.892,66.275L142.888,66.28L142.887,66.283L142.886,66.284L142.87,66.31L34.663,253.199L34.648,253.225L34.648,253.226L34.646,253.229L34.644,253.233L34.64,253.24L34.636,253.249L34.631,253.259L34.626,253.271L34.619,253.285L34.613,253.3L34.605,253.318L34.597,253.337L34.589,253.358L34.58,253.38L34.57,253.404L34.561,253.429L34.551,253.457L34.541,253.486L34.53,253.516L34.519,253.548L34.509,253.581L34.498,253.616L34.486,253.652L34.475,253.689L34.464,253.728L34.453,253.768L34.442,253.81L34.43,253.853L34.419,253.897L34.408,253.942L34.397,253.988L34.386,254.035L34.375,254.084L34.365,254.133L34.355,254.183L34.344,254.235L34.334,254.287L34.325,254.341L34.315,254.395L34.306,254.45L34.297,254.506L34.289,254.562L34.28,254.619L34.273,254.677L34.265,254.736L34.258,254.795L34.251,254.855L34.244,254.916L34.238,254.977L34.232,255.038L34.227,255.1L34.222,255.162L34.218,255.225L34.214,255.288L34.21,255.351L34.207,255.415L34.204,255.479L34.201,255.543L34.199,255.607L34.198,255.672L34.197,255.736L34.196,255.801L34.196,255.865L34.196,255.93L34.197,255.995L34.198,256.059L34.199,256.123L34.201,256.188L34.204,256.252L34.207,256.316L34.21,256.379L34.214,256.443L34.218,256.506L34.223,256.568L34.228,256.631L34.233,256.693L34.239,256.754L34.245,256.815L34.251,256.875L34.258,256.935L34.266,256.995L34.273,257.053L34.281,257.111L34.289,257.168L34.298,257.225L34.307,257.281L34.316,257.336L34.326,257.39L34.335,257.443L34.345,257.495L34.355,257.547L34.366,257.598L34.376,257.647L34.387,257.695L34.398,257.743L34.409,257.789L34.42,257.834L34.431,257.878L34.443,257.92L34.454,257.962L34.465,258.002L34.477,258.041L34.488,258.078L34.499,258.114L34.51,258.149L34.521,258.182L34.531,258.214L34.542,258.244L34.552,258.273L34.562,258.3L34.572,258.326L34.581,258.35L34.59,258.372L34.598,258.393L34.606,258.412L34.614,258.429L34.621,258.445L34.627,258.459L34.637,258.481L34.649,258.504L34.664,258.53L143.089,445.555L143.104,445.581L143.114,445.597L143.126,445.614L143.134,445.625L143.144,445.639L143.155,445.654L143.166,445.668L143.179,445.685L143.193,445.703L143.208,445.723L143.225,445.743L143.243,445.765L143.262,445.788L143.282,445.811L143.304,445.836L143.327,445.862L143.35,445.888L143.376,445.916L143.402,445.944L143.429,445.973L143.458,446.002L143.487,446.032L143.518,446.063L143.55,446.095L143.584,446.127L143.618,446.16L143.653,446.193L143.689,446.227L143.726,446.26L143.764,446.294L143.803,446.329L143.844,446.364L143.884,446.399L143.926,446.435L143.969,446.47L144.013,446.506L144.057,446.542L144.103,446.579L144.149,446.615L144.196,446.651L144.243,446.687L144.291,446.723L144.341,446.76L144.39,446.796L144.441,446.833L144.492,446.868L144.543,446.904L144.596,446.94L144.649,446.976L144.701,447.011L144.754,447.046L144.809,447.082L144.864,447.117L144.919,447.151L144.974,447.185L145.029,447.219L145.086,447.253L145.143,447.286L145.199,447.319L145.255,447.351L145.312,447.383L145.369,447.415L145.427,447.446L145.484,447.477L145.541,447.507L145.598,447.537L145.656,447.566L145.714,447.595L145.771,447.623L145.827,447.651L145.885,447.678L145.942,447.705L145.999,447.731L146.055,447.756L146.112,447.781L146.168,447.806L146.223,447.829L146.278,447.852L146.333,447.874L146.387,447.896L146.442,447.917L146.495,447.938L146.547,447.957L146.6,447.977L146.651,447.995L146.703,448.013L146.754,448.031L146.802,448.047L146.851,448.062L146.899,448.078L146.946,448.092L146.992,448.106L147.038,448.119L147.081,448.132L147.125,448.143L147.168,448.155L147.208,448.165L147.248,448.175L147.287,448.184L147.325,448.193L147.361,448.201L147.394,448.208L147.429,448.215L147.462,448.221L147.491,448.227L147.52,448.232L147.548,448.237L147.574,448.241L147.598,448.244L147.622,448.248L147.642,448.25L147.661,448.253L147.679,448.255L147.694,448.256L147.72,448.258L147.749,448.26L147.78,448.26L364.462,448.38Z" style="fill:rgb(77,77,77);"/>
    </g>
</svg>
