<?xml version="1.0" standalone="no"?>
<!DOCTYPE svg PUBLIC "-//W3C//DTD SVG 1.1//EN" "http://www.w3.org/Graphics/SVG/1.1/DTD/svg11.dtd">
<svg width="100%" height="100%" viewBox="0 0 512 512" version="1.1" xmlns="http://www.w3.org/2000/svg" xmlns:xlink="http://www.w3.org/1999/xlink" xml:space="preserve" style="fill-rule:evenodd;clip-rule:evenodd;stroke-linejoin:round;stroke-miterlimit:1.41421;">
    <g id="TRANSFORM">
        <path d="M135,202L103.492,202L72.311,256L103.492,310L135,310L135,202Z" style="fill:rgb(200,200,200);fill-rule:nonzero;"/>
        <path d="M202,378L202,409.506L256,440.688L310,409.506L310,378L202,378Z" style="fill:rgb(200,200,200);fill-rule:nonzero;"/>
        <path d="M379,310L410.508,310L441.688,256L410.508,202L379,202L379,310Z" style="fill:rgb(200,200,200);fill-rule:nonzero;"/>
        <path d="M310,134L310,102.492L256,71.311L202,102.492L202,134L310,134Z" style="fill:rgb(200,200,200);fill-rule:nonzero;"/>
        <path d="M256.989,353.514L256.694,353.514L256.399,353.512L256.104,353.51L255.809,353.507L255.514,353.504L255.219,353.499L254.924,353.493L254.629,353.487L254.334,353.479L254.038,353.471L253.743,353.462L253.448,353.452L253.152,353.441L252.857,353.429L252.562,353.416L252.267,353.402L251.971,353.388L251.676,353.372L251.38,353.356L251.084,353.338L250.789,353.32L250.493,353.301L250.198,353.281L249.903,353.26L249.607,353.238L249.311,353.215L249.016,353.192L248.72,353.167L248.424,353.142L248.129,353.115L247.833,353.088L247.538,353.06L247.242,353.031L246.947,353.001L246.651,352.97L246.355,352.938L246.06,352.905L245.765,352.871L245.469,352.836L245.174,352.801L244.878,352.764L244.583,352.727L244.288,352.689L243.992,352.65L243.697,352.609L243.402,352.568L243.107,352.526L242.812,352.483L242.516,352.44L242.221,352.395L241.926,352.349L241.631,352.302L241.336,352.255L241.042,352.207L240.747,352.157L240.452,352.107L240.157,352.056L239.863,352.003L239.568,351.95L239.274,351.896L238.979,351.841L238.685,351.786L238.391,351.729L238.097,351.671L237.802,351.612L237.508,351.553L237.214,351.492L236.92,351.431L236.627,351.368L236.333,351.305L236.039,351.241L235.746,351.176L235.452,351.109L235.159,351.042L234.866,350.974L234.573,350.905L234.28,350.836L233.986,350.765L233.693,350.693L233.401,350.62L233.109,350.547L232.816,350.472L232.523,350.396L232.231,350.32L231.939,350.242L231.647,350.164L231.355,350.085L231.063,350.004L230.772,349.923L230.48,349.841L230.189,349.758L229.898,349.674L229.607,349.589L229.316,349.503L229.025,349.416L228.734,349.328L228.444,349.24L228.154,349.15L227.863,349.059L227.573,348.968L227.283,348.875L226.993,348.781L226.704,348.687L226.415,348.592L226.126,348.495L225.836,348.398L225.547,348.3L225.259,348.2L224.97,348.1L224.682,347.999L224.393,347.897L224.106,347.794L223.817,347.69L223.529,347.585L223.242,347.479L222.955,347.372L222.668,347.264L222.381,347.155L222.094,347.046L221.808,346.935L221.522,346.823L221.236,346.711L220.949,346.597L220.664,346.482L220.378,346.367L220.093,346.25L219.808,346.133L219.523,346.014L219.239,345.895L218.954,345.775L218.67,345.653L218.386,345.531L218.102,345.408L217.819,345.284L217.536,345.158L217.253,345.032L216.97,344.905L216.687,344.777L216.405,344.648L216.123,344.518L215.841,344.387L215.56,344.255L215.278,344.122L214.997,343.988L214.716,343.853L214.436,343.718L214.155,343.581L213.875,343.443L213.596,343.304L213.316,343.164L213.037,343.024L212.758,342.882L212.48,342.74L212.201,342.596L211.923,342.451L211.645,342.305L211.367,342.159L211.091,342.012L210.813,341.863L210.536,341.714L210.26,341.563L209.984,341.412L209.709,341.26L209.434,341.107L209.16,340.953L208.887,340.799L208.615,340.644L208.342,340.488L208.071,340.331L207.801,340.174L207.53,340.016L207.261,339.857L206.993,339.697L206.725,339.537L206.458,339.376L206.191,339.213L205.925,339.051L205.66,338.888L205.395,338.723L205.131,338.558L204.868,338.393L204.606,338.227L204.344,338.059L204.083,337.892L203.822,337.723L203.563,337.554L203.304,337.384L203.045,337.213L202.787,337.041L202.53,336.869L202.274,336.697L202.019,336.523L201.764,336.349L201.509,336.174L201.255,335.998L201.003,335.822L200.751,335.645L200.499,335.467L200.249,335.289L199.998,335.109L199.749,334.929L199.5,334.749L199.252,334.568L199.005,334.386L198.758,334.203L198.512,334.02L198.267,333.836L198.023,333.651L197.779,333.466L197.536,333.28L197.294,333.093L197.052,332.906L196.811,332.718L196.571,332.529L196.331,332.34L196.092,332.15L195.855,331.959L195.617,331.768L195.38,331.576L195.144,331.383L194.909,331.19L194.674,330.996L194.44,330.801L194.207,330.606L193.975,330.41L193.744,330.214L193.512,330.017L193.282,329.819L193.053,329.621L192.824,329.422L192.596,329.222L192.369,329.022L192.142,328.821L191.916,328.619L191.691,328.418L191.467,328.215L191.242,328.011L191.019,327.807L190.797,327.602L190.576,327.398L190.355,327.192L190.135,326.985L189.915,326.778L189.697,326.57L189.479,326.362L189.262,326.153L189.046,325.944L188.83,325.734L188.615,325.524L188.401,325.312L188.187,325.101L187.974,324.888L187.762,324.675L187.551,324.462L187.341,324.248L187.131,324.033L186.922,323.818L186.714,323.602L186.506,323.386L186.299,323.169L186.093,322.951L185.888,322.733L185.683,322.514L185.479,322.295L185.276,322.076L185.074,321.855L184.872,321.635L184.671,321.413L184.471,321.191L184.272,320.969L184.074,320.746L183.876,320.522L183.678,320.298L183.482,320.073L183.287,319.848L183.092,319.623L182.897,319.396L182.704,319.169L182.511,318.942L182.32,318.714L182.129,318.486L181.939,318.257L181.749,318.028L181.56,317.798L181.372,317.568L181.185,317.336L180.998,317.105L180.813,316.873L180.627,316.641L180.443,316.408L180.26,316.175L180.077,315.94L179.895,315.706L179.714,315.471L179.534,315.236L179.354,315L179.175,314.763L178.997,314.527L178.82,314.289L178.643,314.052L178.467,313.813L178.292,313.574L178.118,313.335L177.945,313.095L177.772,312.855L177.6,312.614L177.429,312.373L177.258,312.131L177.089,311.889L176.92,311.647L176.752,311.404L176.585,311.16L176.418,310.916L176.252,310.672L176.087,310.427L175.923,310.182L175.76,309.936L175.597,309.69L175.435,309.443L175.274,309.196L175.114,308.949L174.955,308.701L174.796,308.452L174.638,308.203L174.481,307.955L174.324,307.705L174.168,307.454L174.014,307.204L173.86,306.953L173.707,306.702L173.554,306.45L173.402,306.198L173.252,305.945L173.101,305.692L172.952,305.438L172.804,305.185L172.656,304.93L172.509,304.676L172.363,304.421L172.218,304.166L172.073,303.909L171.929,303.653L171.786,303.397L171.644,303.14L171.503,302.882L171.362,302.624L171.222,302.366L171.083,302.108L170.945,301.849L170.808,301.589L170.671,301.329L170.535,301.069L170.4,300.809L170.266,300.548L170.133,300.287L170,300.026L169.868,299.763L169.737,299.501L169.607,299.239L169.478,298.975L169.349,298.712L169.221,298.448L169.095,298.184L168.968,297.92L168.843,297.655L168.718,297.39L168.595,297.124L168.472,296.858L168.35,296.592L168.228,296.326L168.108,296.059L167.988,295.791L167.869,295.524L167.751,295.256L167.634,294.988L167.517,294.72L167.402,294.451L167.287,294.181L167.173,293.912L167.06,293.642L166.947,293.372L166.835,293.102L166.725,292.831L166.615,292.56L166.506,292.288L166.397,292.017L166.29,291.745L166.183,291.472L166.077,291.2L165.972,290.927L165.868,290.654L165.765,290.38L165.662,290.106L165.56,289.832L165.459,289.558L165.359,289.283L165.26,289.008L165.161,288.733L165.064,288.458L164.967,288.182L164.871,287.906L164.776,287.629L164.682,287.353L164.588,287.076L164.495,286.798L164.403,286.521L164.313,286.244L164.222,285.965L164.133,285.687L164.044,285.409L163.957,285.13L163.87,284.851L163.784,284.572L163.699,284.292L163.614,284.012L163.531,283.732L163.448,283.452L163.366,283.172L163.285,282.891L163.205,282.61L163.126,282.328L163.047,282.047L162.97,281.766L162.893,281.483L162.817,281.201L162.741,280.919L162.667,280.636L162.594,280.353L162.521,280.07L162.449,279.787L162.378,279.503L162.308,279.22L162.239,278.936L162.171,278.652L162.103,278.367L162.036,278.082L161.97,277.798L161.905,277.513L161.841,277.227L161.778,276.942L161.715,276.656L161.654,276.371L161.593,276.085L161.533,275.799L161.474,275.512L161.416,275.225L161.358,274.939L161.302,274.652L161.246,274.365L161.191,274.077L161.137,273.79L161.084,273.502L161.032,273.214L160.981,272.926L160.93,272.638L160.881,272.35L160.832,272.061L160.784,271.772L160.737,271.483L160.69,271.194L160.645,270.905L160.601,270.616L160.557,270.326L160.514,270.037L160.472,269.747L160.431,269.457L160.391,269.167L160.352,268.876L160.313,268.586L160.276,268.295L160.239,268.005L160.203,267.714L160.168,267.423L160.134,267.132L160.101,266.84L160.068,266.549L160.037,266.258L160.006,265.966L159.976,265.674L159.947,265.383L159.919,265.09L159.892,264.798L159.866,264.506L159.841,264.214L159.816,263.921L159.792,263.628L159.77,263.336L159.748,263.043L159.727,262.75L159.707,262.457L159.687,262.164L159.669,261.871L159.651,261.578L159.635,261.284L159.619,260.991L159.604,260.697L159.59,260.404L159.577,260.11L159.565,259.816L159.554,259.522L159.543,259.228L159.534,258.934L159.525,258.64L159.517,258.346L159.51,258.051L159.504,257.757L159.499,257.462L159.495,257.168L159.492,256.873L159.489,256.578L159.488,256.284L159.487,255.989L159.487,255.695L159.489,255.4L159.491,255.104L159.493,254.81L159.497,254.515L159.502,254.219L159.508,253.924L159.514,253.629L159.522,253.334L159.53,253.039L159.539,252.743L159.549,252.448L159.56,252.153L159.572,251.858L159.585,251.562L159.599,251.267L159.613,250.971L159.629,250.676L159.645,250.38L159.663,250.085L159.681,249.789L159.7,249.493L159.72,249.198L159.741,248.903L159.763,248.607L159.786,248.311L159.809,248.016L159.834,247.72L159.859,247.425L159.886,247.129L159.913,246.833L159.941,246.538L159.97,246.243L160.001,245.947L160.031,245.651L160.063,245.356L160.096,245.06L160.13,244.765L160.165,244.469L160.2,244.174L160.237,243.879L160.274,243.583L160.312,243.288L160.351,242.992L160.392,242.697L160.433,242.402L160.475,242.107L160.518,241.812L160.561,241.517L160.606,241.221L160.652,240.926L160.698,240.632L160.746,240.336L160.794,240.042L160.844,239.747L160.894,239.452L160.945,239.157L160.998,238.863L161.051,238.568L161.105,238.274L161.16,237.979L161.215,237.685L161.272,237.391L161.33,237.096L161.389,236.802L161.448,236.508L161.509,236.214L161.57,235.92L161.633,235.627L161.696,235.333L161.76,235.039L161.825,234.746L161.892,234.452L161.959,234.159L162.027,233.866L162.096,233.572L162.166,233.279L162.236,232.986L162.308,232.693L162.381,232.401L162.455,232.108L162.529,231.816L162.605,231.524L162.681,231.231L162.759,230.939L162.837,230.647L162.916,230.355L162.997,230.063L163.078,229.772L163.16,229.48L163.243,229.189L163.327,228.898L163.412,228.607L163.498,228.316L163.585,228.025L163.673,227.734L163.761,227.444L163.851,227.153L163.942,226.863L164.033,226.573L164.126,226.283L164.22,225.993L164.314,225.703L164.409,225.414L164.506,225.125L164.603,224.836L164.702,224.547L164.801,224.258L164.901,223.97L165.002,223.681L165.104,223.393L165.207,223.105L165.311,222.817L165.416,222.529L165.522,222.242L165.629,221.955L165.737,221.668L165.846,221.381L165.956,221.094L166.066,220.807L166.178,220.521L166.291,220.235L166.404,219.949L166.519,219.664L166.634,219.378L166.751,219.093L166.868,218.808L166.987,218.523L167.106,218.238L167.227,217.954L167.348,217.67L167.47,217.386L167.594,217.102L167.718,216.818L167.843,216.535L167.969,216.252L168.096,215.969L168.224,215.687L168.353,215.404L168.483,215.122L168.614,214.841L168.746,214.559L168.879,214.278L169.013,213.996L169.148,213.716L169.284,213.435L169.421,213.155L169.558,212.875L169.697,212.595L169.837,212.315L169.978,212.036L170.119,211.757L170.262,211.479L170.406,211.2L170.55,210.922L170.696,210.644L170.842,210.367L170.99,210.09L171.138,209.812L171.288,209.536L171.438,209.259L171.589,208.983L171.742,208.708L171.894,208.433L172.048,208.16L172.202,207.886L172.358,207.614L172.513,207.342L172.67,207.07L172.828,206.8L172.986,206.53L173.145,206.261L173.304,205.992L173.465,205.724L173.626,205.457L173.788,205.19L173.951,204.924L174.114,204.659L174.278,204.395L174.443,204.131L174.609,203.867L174.775,203.605L174.942,203.343L175.11,203.082L175.278,202.822L175.448,202.562L175.618,202.303L175.788,202.044L175.96,201.787L176.132,201.53L176.305,201.273L176.478,201.018L176.653,200.763L176.828,200.508L177.003,200.255L177.18,200.002L177.357,199.75L177.534,199.499L177.713,199.248L177.892,198.998L178.072,198.748L178.253,198.5L178.434,198.252L178.616,198.004L178.798,197.758L178.982,197.512L179.166,197.267L179.35,197.022L179.536,196.778L179.722,196.535L179.908,196.293L180.096,196.051L180.284,195.811L180.472,195.57L180.662,195.33L180.852,195.092L181.042,194.854L181.234,194.616L181.426,194.38L181.618,194.144L181.812,193.908L182.005,193.674L182.2,193.44L182.395,193.207L182.591,192.975L182.787,192.743L182.985,192.512L183.182,192.282L183.381,192.052L183.58,191.823L183.779,191.595L183.979,191.368L184.18,191.141L184.382,190.915L184.584,190.69L184.787,190.466L184.99,190.242L185.194,190.019L185.399,189.797L185.604,189.576L185.81,189.355L186.016,189.134L186.223,188.915L186.431,188.696L186.639,188.479L186.848,188.261L187.057,188.045L187.267,187.829L187.478,187.614L187.689,187.4L187.901,187.187L188.113,186.974L188.326,186.762L188.54,186.551L188.754,186.34L188.968,186.131L189.184,185.921L189.399,185.713L189.616,185.506L189.833,185.299L190.05,185.093L190.268,184.887L190.487,184.683L190.706,184.479L190.926,184.276L191.146,184.074L191.367,183.872L191.588,183.671L191.81,183.471L192.033,183.272L192.256,183.073L192.479,182.875L192.703,182.678L192.928,182.482L193.153,182.286L193.379,182.092L193.605,181.897L193.832,181.704L194.059,181.512L194.287,181.32L194.515,181.128L194.744,180.938L194.973,180.749L195.203,180.56L195.434,180.372L195.664,180.185L195.896,179.998L196.128,179.812L196.36,179.627L196.593,179.443L196.827,179.26L197.061,179.077L197.295,178.895L197.53,178.714L197.766,178.534L198.001,178.354L198.238,178.175L198.475,177.997L198.712,177.82L198.95,177.643L199.188,177.467L199.427,177.292L199.667,177.118L199.906,176.945L200.146,176.772L200.387,176.6L200.628,176.429L200.87,176.258L201.112,176.089L201.354,175.92L201.598,175.752L201.841,175.585L202.085,175.418L202.329,175.252L202.574,175.087L202.82,174.923L203.065,174.76L203.311,174.597L203.558,174.435L203.805,174.274L204.052,174.114L204.3,173.954L204.549,173.796L204.798,173.638L205.047,173.481L205.296,173.324L205.547,173.169L205.797,173.014L206.048,172.86L206.3,172.707L206.551,172.554L206.803,172.403L207.056,172.252L207.309,172.101L207.563,171.952L207.816,171.804L208.071,171.656L208.325,171.509L208.58,171.363L208.836,171.218L209.092,171.073L209.348,170.929L209.605,170.786L209.861,170.644L210.119,170.503L210.377,170.362L210.635,170.223L210.893,170.084L211.153,169.945L211.412,169.808L211.672,169.671L211.932,169.536L212.192,169.401L212.453,169.266L212.714,169.133L212.976,169L213.238,168.869L213.5,168.738L213.763,168.607L214.026,168.478L214.289,168.349L214.553,168.222L214.817,168.095L215.081,167.968L215.346,167.843L215.611,167.719L215.877,167.595L216.143,167.472L216.409,167.35L216.675,167.228L216.942,167.108L217.21,166.988L217.477,166.869L217.745,166.751L218.013,166.634L218.281,166.518L218.551,166.402L218.82,166.287L219.089,166.173L219.359,166.06L219.629,165.947L219.899,165.836L220.17,165.725L220.441,165.615L220.713,165.506L220.984,165.398L221.256,165.29L221.529,165.183L221.801,165.078L222.074,164.973L222.347,164.868L222.621,164.765L222.895,164.662L223.169,164.561L223.443,164.46L223.718,164.36L223.993,164.26L224.268,164.162L224.544,164.064L224.819,163.967L225.095,163.871L225.372,163.776L225.648,163.682L225.925,163.588L226.203,163.496L226.48,163.404L226.758,163.313L227.036,163.223L227.314,163.133L227.592,163.045L227.871,162.957L228.15,162.87L228.43,162.784L228.709,162.699L228.988,162.615L229.269,162.531L229.549,162.448L229.829,162.367L230.11,162.286L230.391,162.205L230.672,162.126L230.954,162.048L231.236,161.97L231.518,161.893L231.8,161.817L232.082,161.742L232.365,161.668L232.647,161.594L232.931,161.522L233.214,161.45L233.497,161.379L233.781,161.309L234.065,161.239L234.35,161.171L234.634,161.103L234.918,161.037L235.203,160.971L235.488,160.906L235.773,160.842L236.059,160.778L236.345,160.716L236.63,160.654L236.916,160.594L237.203,160.534L237.489,160.475L237.775,160.416L238.062,160.359L238.349,160.302L238.636,160.247L238.924,160.192L239.211,160.138L239.499,160.085L239.787,160.033L240.075,159.981L240.363,159.931L240.651,159.881L240.94,159.832L241.229,159.784L241.517,159.737L241.806,159.691L242.096,159.646L242.385,159.601L242.675,159.557L242.964,159.515L243.254,159.473L243.544,159.432L243.834,159.392L244.124,159.352L244.415,159.314L244.706,159.276L244.996,159.239L245.287,159.204L245.578,159.169L245.869,159.134L246.16,159.101L246.452,159.069L246.743,159.037L247.035,159.007L247.326,158.977L247.618,158.948L247.91,158.92L248.203,158.893L248.495,158.867L248.787,158.841L249.079,158.817L249.372,158.793L249.665,158.77L249.958,158.748L250.25,158.727L250.543,158.707L250.837,158.688L251.13,158.67L251.423,158.652L251.716,158.635L252.01,158.62L252.304,158.605L252.597,158.591L252.891,158.578L253.185,158.566L253.479,158.554L253.773,158.544L254.067,158.534L254.361,158.526L254.655,158.518L254.949,158.511L255.244,158.505L255.538,158.5L255.833,158.496L256.127,158.492L256.422,158.49L256.717,158.488L257.012,158.488L257.306,158.488L257.601,158.489L257.896,158.491L258.191,158.494L258.486,158.498L258.781,158.503L259.076,158.508L259.371,158.515L259.667,158.522L259.962,158.53L260.257,158.54L260.552,158.55L260.848,158.561L261.143,158.573L261.439,158.586L261.734,158.599L262.03,158.614L262.325,158.629L262.62,158.646L262.916,158.663L263.212,158.681L263.507,158.701L263.802,158.721L264.098,158.742L264.394,158.763L264.689,158.786L264.984,158.81L265.28,158.834L265.576,158.86L265.872,158.886L266.167,158.914L266.463,158.942L266.758,158.971L267.054,159.001L267.349,159.032L267.645,159.064L267.94,159.097L268.236,159.13L268.531,159.165L268.827,159.201L269.122,159.237L269.417,159.275L269.713,159.313L270.008,159.352L270.303,159.392L270.598,159.433L270.894,159.475L271.189,159.518L271.484,159.562L271.779,159.607L272.074,159.652L272.369,159.699L272.664,159.747L272.959,159.795L273.254,159.844L273.548,159.895L273.843,159.946L274.138,159.998L274.432,160.051L274.727,160.105L275.021,160.16L275.316,160.216L275.61,160.273L275.904,160.331L276.198,160.389L276.492,160.449L276.786,160.509L277.08,160.571L277.374,160.633L277.668,160.697L277.961,160.761L278.255,160.826L278.548,160.892L278.842,160.959L279.135,161.027L279.428,161.096L279.721,161.166L280.014,161.237L280.307,161.309L280.599,161.381L280.892,161.455L281.185,161.53L281.477,161.605L281.769,161.682L282.061,161.759L282.353,161.838L282.645,161.917L282.937,161.997L283.229,162.078L283.52,162.16L283.812,162.243L284.103,162.328L284.394,162.412L284.685,162.498L284.976,162.585L285.266,162.673L285.557,162.762L285.847,162.852L286.137,162.942L286.427,163.034L286.717,163.126L287.007,163.22L287.297,163.314L287.586,163.41L287.875,163.506L288.164,163.604L288.453,163.702L288.742,163.801L289.031,163.901L289.319,164.002L289.607,164.105L289.895,164.208L290.183,164.312L290.471,164.417L290.759,164.523L291.046,164.63L291.333,164.737L291.62,164.846L291.906,164.956L292.193,165.067L292.479,165.178L292.765,165.291L293.051,165.405L293.337,165.519L293.622,165.635L293.908,165.751L294.193,165.869L294.478,165.987L294.762,166.107L295.047,166.227L295.331,166.348L295.615,166.471L295.898,166.594L296.182,166.718L296.465,166.843L296.748,166.969L297.031,167.096L297.314,167.225L297.596,167.354L297.878,167.484L298.16,167.615L298.441,167.747L298.723,167.879L299.004,168.013L299.284,168.148L299.565,168.284L299.845,168.421L300.125,168.559L300.405,168.697L300.685,168.837L300.964,168.978L301.243,169.12L301.521,169.262L301.8,169.406L302.078,169.55L302.356,169.696L302.633,169.842L302.911,169.99L303.188,170.139L303.465,170.288L303.741,170.438L304.017,170.59L304.293,170.742L304.567,170.895L304.841,171.048L305.114,171.203L305.387,171.358L305.659,171.514L305.93,171.67L306.201,171.828L306.47,171.986L306.74,172.145L307.008,172.305L307.276,172.465L307.544,172.626L307.81,172.788L308.076,172.951L308.342,173.114L308.606,173.278L308.869,173.443L309.133,173.609L309.395,173.775L309.657,173.942L309.918,174.11L310.179,174.279L310.438,174.448L310.697,174.618L310.956,174.789L311.214,174.96L311.471,175.132L311.727,175.305L311.983,175.478L312.237,175.653L312.492,175.828L312.745,176.003L312.998,176.18L313.251,176.357L313.502,176.535L313.753,176.713L314.003,176.892L314.252,177.072L314.501,177.253L314.749,177.434L314.996,177.616L315.243,177.799L315.489,177.982L315.734,178.166L315.978,178.351L316.222,178.536L316.465,178.722L316.707,178.908L316.949,179.096L317.19,179.284L317.43,179.472L317.67,179.662L317.908,179.852L318.147,180.043L318.384,180.234L318.621,180.426L318.857,180.618L319.092,180.812L319.327,181.006L319.56,181.2L319.793,181.395L320.026,181.591L320.258,181.788L320.489,181.985L320.719,182.182L320.948,182.381L321.177,182.58L321.405,182.779L321.632,182.98L321.859,183.18L322.085,183.382L322.31,183.584L322.535,183.787L322.758,183.99L322.981,184.194L323.204,184.399L323.425,184.604L323.646,184.81L323.866,185.016L324.086,185.224L324.304,185.431L324.522,185.639L324.739,185.848L324.955,186.057L325.171,186.267L325.386,186.478L325.6,186.689L325.814,186.901L326.026,187.113L326.238,187.326L326.449,187.539L326.66,187.754L326.87,187.968L327.079,188.183L327.287,188.399L327.495,188.616L327.702,188.833L327.908,189.05L328.113,189.268L328.318,189.487L328.521,189.706L328.724,189.926L328.927,190.146L329.129,190.367L329.329,190.588L329.529,190.81L329.729,191.033L329.927,191.256L330.125,191.479L330.322,191.703L330.519,191.928L330.714,192.153L330.909,192.379L331.103,192.605L331.297,192.832L331.489,193.059L331.681,193.287L331.872,193.515L332.062,193.744L332.252,193.974L332.441,194.203L332.629,194.434L332.816,194.665L333.002,194.896L333.188,195.128L333.373,195.36L333.557,195.593L333.741,195.827L333.923,196.061L334.105,196.295L334.287,196.53L334.467,196.766L334.647,197.002L334.825,197.238L335.003,197.475L335.181,197.712L335.358,197.95L335.533,198.188L335.708,198.427L335.883,198.667L336.056,198.906L336.229,199.146L336.4,199.387L336.572,199.628L336.742,199.87L336.912,200.112L337.08,200.354L337.249,200.597L337.416,200.841L337.583,201.085L337.748,201.329L337.913,201.574L338.078,201.82L338.241,202.065L338.403,202.311L338.565,202.558L338.726,202.805L338.886,203.052L339.046,203.3L339.205,203.549L339.363,203.798L339.52,204.047L339.676,204.296L339.832,204.547L339.987,204.797L340.141,205.048L340.294,205.299L340.446,205.551L340.598,205.804L340.749,206.056L340.899,206.309L341.048,206.562L341.197,206.816L341.345,207.07L341.492,207.325L341.638,207.58L341.783,207.835L341.928,208.092L342.071,208.348L342.214,208.604L342.356,208.862L342.498,209.119L342.638,209.377L342.778,209.635L342.917,209.893L343.055,210.153L343.193,210.412L343.329,210.671L343.465,210.932L343.6,211.192L343.734,211.453L343.868,211.714L344,211.976L344.132,212.238L344.263,212.5L344.393,212.762L344.523,213.026L344.651,213.289L344.779,213.553L344.906,213.817L345.032,214.081L345.158,214.346L345.282,214.611L345.406,214.876L345.529,215.142L345.651,215.409L345.772,215.676L345.893,215.942L346.012,216.209L346.131,216.477L346.25,216.745L346.367,217.013L346.483,217.281L346.599,217.55L346.714,217.82L346.828,218.089L346.941,218.359L347.053,218.629L347.165,218.899L347.276,219.17L347.386,219.441L347.495,219.713L347.603,219.984L347.711,220.256L347.817,220.529L347.923,220.801L348.028,221.074L348.132,221.347L348.236,221.621L348.338,221.895L348.44,222.168L348.541,222.443L348.641,222.718L348.74,222.992L348.839,223.268L348.936,223.543L349.033,223.819L349.129,224.095L349.224,224.371L349.319,224.648L349.412,224.925L349.505,225.202L349.597,225.479L349.688,225.757L349.778,226.036L349.867,226.314L349.956,226.592L350.044,226.871L350.131,227.15L350.216,227.429L350.302,227.708L350.386,227.988L350.47,228.269L350.552,228.549L350.634,228.829L350.715,229.11L350.795,229.391L350.875,229.672L350.953,229.954L351.031,230.236L351.108,230.517L351.184,230.799L351.259,231.082L351.333,231.365L351.407,231.647L351.479,231.931L351.551,232.214L351.622,232.497L351.692,232.781L351.761,233.065L351.83,233.349L351.897,233.633L351.964,233.918L352.03,234.203L352.095,234.488L352.159,234.773L352.222,235.059L352.285,235.344L352.347,235.63L352.407,235.916L352.467,236.202L352.526,236.489L352.585,236.775L352.642,237.062L352.698,237.349L352.754,237.636L352.809,237.923L352.863,238.211L352.916,238.499L352.968,238.786L353.02,239.074L353.07,239.362L353.12,239.651L353.169,239.94L353.217,240.228L353.264,240.517L353.31,240.806L353.355,241.095L353.4,241.385L353.443,241.674L353.486,241.964L353.528,242.254L353.569,242.544L353.609,242.834L353.649,243.124L353.687,243.415L353.725,243.705L353.761,243.996L353.797,244.287L353.832,244.578L353.866,244.868L353.9,245.16L353.932,245.452L353.964,245.743L353.994,246.034L354.024,246.326L354.053,246.618L354.081,246.91L354.108,247.202L354.134,247.494L354.16,247.787L354.184,248.079L354.208,248.372L354.231,248.665L354.252,248.957L354.274,249.25L354.294,249.543L354.313,249.836L354.331,250.129L354.349,250.423L354.365,250.716L354.381,251.01L354.396,251.303L354.41,251.597L354.423,251.891L354.435,252.184L354.447,252.479L354.457,252.773L354.467,253.066L354.475,253.361L354.483,253.655L354.49,253.949L354.496,254.244L354.501,254.538L354.505,254.832L354.508,255.127L354.511,255.422L354.512,255.716L354.513,256.012L354.513,256.307L354.512,256.601L354.51,256.896L354.507,257.191L354.503,257.486L354.498,257.781L354.493,258.076L354.486,258.372L354.479,258.667L354.47,258.962L354.461,259.257L354.451,259.552L354.44,259.847L354.428,260.143L354.415,260.439L354.402,260.733L354.387,261.029L354.371,261.325L354.355,261.62L354.338,261.916L354.319,262.211L354.3,262.507L354.28,262.802L354.259,263.098L354.237,263.393L354.215,263.689L354.191,263.984L354.166,264.28L354.141,264.576L354.114,264.871L354.087,265.167L354.059,265.463L354.03,265.758L354,266.053L353.969,266.349L353.937,266.644L353.904,266.94L353.87,267.236L353.836,267.531L353.8,267.826L353.764,268.122L353.726,268.417L353.688,268.712L353.649,269.008L353.609,269.303L353.567,269.598L353.526,269.893L353.483,270.189L353.439,270.484L353.394,270.779L353.348,271.073L353.302,271.369L353.254,271.664L353.206,271.959L353.156,272.254L353.106,272.548L353.055,272.843L353.003,273.138L352.95,273.432L352.896,273.726L352.841,274.021L352.785,274.316L352.728,274.61L352.67,274.904L352.612,275.198L352.552,275.492L352.491,275.786L352.43,276.08L352.367,276.374L352.304,276.668L352.24,276.961L352.175,277.254L352.109,277.548L352.041,277.842L351.973,278.135L351.904,278.428L351.835,278.721L351.764,279.013L351.692,279.307L351.619,279.6L351.546,279.892L351.471,280.184L351.396,280.477L351.319,280.77L351.242,281.061L351.163,281.353L351.084,281.645L351.004,281.937L350.922,282.228L350.84,282.52L350.757,282.812L350.673,283.103L350.588,283.394L350.502,283.685L350.416,283.975L350.328,284.266L350.239,284.557L350.149,284.847L350.058,285.137L349.967,285.428L349.874,285.718L349.781,286.007L349.686,286.296L349.591,286.586L349.494,286.875L349.397,287.164L349.299,287.453L349.2,287.742L349.099,288.031L348.998,288.319L348.896,288.607L348.793,288.896L348.689,289.184L348.584,289.471L348.478,289.758L348.371,290.046L348.263,290.333L348.155,290.619L348.045,290.906L347.934,291.193L347.822,291.479L347.709,291.765L347.596,292.051L347.481,292.337L347.366,292.622L347.249,292.908L347.132,293.193L347.013,293.478L346.894,293.762L346.774,294.046L346.652,294.331L346.53,294.615L346.407,294.899L346.283,295.182L346.157,295.465L346.031,295.748L345.904,296.031L345.776,296.314L345.647,296.596L345.517,296.878L345.386,297.159L345.254,297.441L345.121,297.723L344.987,298.004L344.852,298.285L344.716,298.565L344.58,298.846L344.442,299.126L344.303,299.405L344.163,299.685L344.022,299.964L343.881,300.243L343.738,300.522L343.594,300.801L343.45,301.078L343.305,301.356L343.158,301.634L343.011,301.911L342.862,302.188L342.713,302.465L342.562,302.741L342.411,303.017L342.259,303.292L342.106,303.567L341.952,303.841L341.798,304.114L341.643,304.387L341.487,304.659L341.33,304.93L341.173,305.2L341.014,305.471L340.855,305.74L340.696,306.008L340.536,306.276L340.374,306.544L340.213,306.81L340.05,307.076L339.886,307.342L339.722,307.606L339.557,307.87L339.392,308.133L339.225,308.395L339.058,308.657L338.891,308.918L338.722,309.179L338.553,309.439L338.383,309.698L338.212,309.956L338.041,310.214L337.869,310.471L337.696,310.727L337.522,310.983L337.348,311.237L337.173,311.492L336.997,311.746L336.821,311.999L336.644,312.251L336.466,312.502L336.288,312.753L336.108,313.003L335.928,313.253L335.748,313.501L335.567,313.749L335.385,313.996L335.202,314.243L335.019,314.489L334.835,314.734L334.65,314.978L334.465,315.222L334.279,315.465L334.092,315.708L333.905,315.949L333.717,316.191L333.528,316.431L333.339,316.67L333.149,316.909L332.958,317.147L332.767,317.384L332.575,317.621L332.382,317.857L332.189,318.092L331.995,318.327L331.801,318.561L331.605,318.794L331.41,319.026L331.213,319.258L331.016,319.489L330.818,319.719L330.62,319.949L330.421,320.178L330.221,320.405L330.021,320.633L329.82,320.86L329.619,321.085L329.417,321.31L329.214,321.535L329.01,321.759L328.806,321.982L328.602,322.204L328.396,322.426L328.191,322.646L327.985,322.866L327.777,323.086L327.57,323.304L327.362,323.522L327.152,323.74L326.943,323.956L326.733,324.171L326.523,324.387L326.312,324.601L326.1,324.814L325.888,325.027L325.674,325.239L325.461,325.45L325.247,325.661L325.032,325.871L324.817,326.079L324.601,326.288L324.385,326.496L324.168,326.702L323.95,326.908L323.733,327.113L323.514,327.318L323.295,327.522L323.075,327.725L322.855,327.927L322.634,328.129L322.412,328.33L322.19,328.53L321.968,328.729L321.745,328.928L321.521,329.126L321.297,329.323L321.073,329.519L320.848,329.715L320.621,329.91L320.396,330.104L320.169,330.297L319.941,330.49L319.714,330.681L319.485,330.873L319.257,331.063L319.027,331.252L318.797,331.441L318.567,331.629L318.336,331.817L318.104,332.003L317.873,332.189L317.64,332.374L317.407,332.558L317.174,332.741L316.94,332.924L316.705,333.106L316.47,333.287L316.235,333.468L315.999,333.647L315.763,333.826L315.526,334.004L315.289,334.181L315.051,334.358L314.812,334.534L314.574,334.709L314.334,334.883L314.094,335.057L313.854,335.229L313.613,335.401L313.372,335.573L313.131,335.743L312.889,335.912L312.646,336.081L312.403,336.249L312.16,336.416L311.915,336.583L311.671,336.749L311.426,336.914L311.181,337.078L310.936,337.241L310.689,337.404L310.442,337.566L310.195,337.727L309.948,337.887L309.7,338.047L309.452,338.206L309.203,338.364L308.954,338.521L308.704,338.677L308.454,338.833L308.203,338.988L307.952,339.141L307.701,339.295L307.449,339.447L307.197,339.599L306.944,339.75L306.691,339.9L306.438,340.049L306.184,340.198L305.93,340.345L305.675,340.492L305.42,340.638L305.165,340.783L304.909,340.928L304.652,341.072L304.396,341.215L304.139,341.357L303.882,341.498L303.624,341.639L303.365,341.779L303.107,341.918L302.848,342.056L302.589,342.193L302.329,342.33L302.069,342.466L301.809,342.601L301.547,342.735L301.286,342.869L301.025,343.001L300.763,343.133L300.501,343.264L300.237,343.394L299.975,343.523L299.712,343.652L299.447,343.78L299.183,343.907L298.919,344.033L298.654,344.158L298.389,344.283L298.124,344.406L297.858,344.53L297.592,344.652L297.325,344.773L297.058,344.893L296.791,345.013L296.523,345.132L296.256,345.25L295.987,345.368L295.719,345.484L295.45,345.6L295.181,345.714L294.911,345.828L294.641,345.942L294.371,346.054L294.101,346.166L293.83,346.276L293.559,346.386L293.288,346.495L293.016,346.604L292.744,346.711L292.472,346.818L292.199,346.924L291.927,347.029L291.653,347.133L291.379,347.237L291.105,347.339L290.832,347.441L290.557,347.542L290.283,347.642L290.007,347.741L289.732,347.84L289.457,347.937L289.181,348.034L288.905,348.13L288.628,348.225L288.352,348.319L288.075,348.413L287.798,348.506L287.521,348.597L287.243,348.689L286.965,348.779L286.687,348.868L286.408,348.957L286.129,349.044L285.85,349.131L285.571,349.217L285.291,349.302L285.012,349.387L284.732,349.47L284.452,349.553L284.17,349.635L283.89,349.716L283.609,349.796L283.328,349.875L283.047,349.954L282.764,350.032L282.482,350.109L282.201,350.184L281.919,350.259L281.636,350.334L281.352,350.407L281.069,350.48L280.787,350.552L280.503,350.623L280.219,350.693L279.935,350.762L279.651,350.83L279.366,350.898L279.082,350.965L278.798,351.031L278.512,351.096L278.227,351.16L277.942,351.223L277.656,351.286L277.37,351.347L277.084,351.408L276.798,351.468L276.512,351.527L276.225,351.585L275.939,351.643L275.651,351.699L275.364,351.755L275.076,351.81L274.789,351.864L274.502,351.917L274.214,351.969L273.926,352.02L273.637,352.071L273.349,352.12L273.061,352.169L272.772,352.217L272.483,352.264L272.193,352.311L271.904,352.356L271.616,352.4L271.326,352.444L271.036,352.487L270.747,352.529L270.456,352.57L270.166,352.61L269.876,352.649L269.585,352.688L269.295,352.725L269.004,352.762L268.713,352.798L268.422,352.833L268.131,352.867L267.84,352.9L267.549,352.933L267.257,352.964L266.965,352.995L266.674,353.025L266.382,353.054L266.09,353.082L265.798,353.109L265.506,353.135L265.213,353.16L264.921,353.185L264.628,353.209L264.335,353.231L264.043,353.253L263.75,353.274L263.457,353.294L263.164,353.314L262.871,353.332L262.577,353.35L262.284,353.366L261.99,353.382L261.697,353.397L261.403,353.411L261.109,353.424L260.816,353.436L260.522,353.447L260.227,353.458L259.933,353.467L259.639,353.476L259.345,353.484L259.051,353.491L258.756,353.497L258.462,353.502L258.168,353.506L257.873,353.509L257.578,353.512L257.283,353.513L256.989,353.514ZM256.975,333.514L257.21,333.513L257.444,333.512L257.678,333.51L257.911,333.507L258.145,333.504L258.38,333.5L258.613,333.495L258.847,333.49L259.081,333.484L259.315,333.477L259.549,333.469L259.782,333.461L260.016,333.452L260.249,333.442L260.483,333.432L260.716,333.421L260.95,333.409L261.183,333.396L261.417,333.383L261.649,333.369L261.883,333.355L262.116,333.339L262.348,333.323L262.581,333.307L262.815,333.289L263.047,333.271L263.279,333.252L263.512,333.233L263.744,333.213L263.977,333.192L264.209,333.17L264.441,333.148L264.674,333.125L264.906,333.101L265.138,333.077L265.369,333.052L265.601,333.026L265.833,333L266.064,332.972L266.296,332.945L266.527,332.916L266.758,332.887L266.99,332.857L267.22,332.826L267.452,332.795L267.682,332.763L267.912,332.731L268.144,332.697L268.374,332.663L268.604,332.628L268.835,332.593L269.065,332.557L269.295,332.52L269.524,332.483L269.754,332.444L269.984,332.406L270.214,332.366L270.442,332.326L270.672,332.285L270.901,332.243L271.13,332.201L271.359,332.158L271.588,332.115L271.815,332.07L272.044,332.025L272.272,331.98L272.5,331.933L272.728,331.886L272.956,331.839L273.184,331.79L273.411,331.741L273.638,331.692L273.866,331.641L274.093,331.59L274.319,331.538L274.546,331.486L274.773,331.433L274.999,331.379L275.225,331.324L275.452,331.269L275.677,331.214L275.902,331.157L276.129,331.1L276.354,331.042L276.579,330.984L276.803,330.925L277.028,330.865L277.254,330.804L277.478,330.743L277.702,330.681L277.926,330.619L278.15,330.556L278.373,330.492L278.597,330.427L278.82,330.362L279.043,330.296L279.266,330.23L279.489,330.163L279.711,330.095L279.934,330.026L280.156,329.957L280.378,329.887L280.599,329.817L280.821,329.746L281.042,329.674L281.263,329.602L281.484,329.528L281.705,329.455L281.925,329.38L282.146,329.305L282.365,329.229L282.585,329.153L282.804,329.076L283.024,328.998L283.243,328.92L283.462,328.841L283.68,328.761L283.899,328.681L284.117,328.6L284.335,328.518L284.552,328.436L284.77,328.353L284.987,328.269L285.204,328.185L285.421,328.1L285.638,328.015L285.853,327.929L286.069,327.842L286.285,327.754L286.501,327.666L286.716,327.577L286.931,327.488L287.145,327.398L287.359,327.307L287.574,327.216L287.788,327.123L288.002,327.031L288.215,326.938L288.428,326.844L288.641,326.749L288.854,326.654L289.066,326.558L289.278,326.461L289.49,326.364L289.701,326.266L289.912,326.168L290.123,326.069L290.334,325.969L290.545,325.869L290.755,325.768L290.964,325.666L291.174,325.564L291.383,325.461L291.592,325.357L291.8,325.253L292.009,325.149L292.217,325.043L292.425,324.937L292.632,324.83L292.839,324.723L293.046,324.615L293.252,324.506L293.459,324.397L293.665,324.287L293.871,324.176L294.075,324.065L294.28,323.954L294.485,323.841L294.69,323.728L294.894,323.614L295.097,323.5L295.3,323.386L295.504,323.27L295.707,323.153L295.909,323.037L296.111,322.919L296.313,322.801L296.514,322.683L296.715,322.563L296.916,322.444L297.116,322.323L297.316,322.202L297.516,322.08L297.716,321.958L297.915,321.835L298.113,321.711L298.312,321.587L298.51,321.462L298.708,321.336L298.905,321.211L299.102,321.084L299.298,320.956L299.495,320.828L299.691,320.7L299.886,320.571L300.081,320.441L300.276,320.31L300.471,320.179L300.665,320.048L300.858,319.916L301.052,319.783L301.245,319.649L301.437,319.515L301.629,319.381L301.822,319.245L302.013,319.109L302.204,318.973L302.395,318.835L302.585,318.698L302.775,318.559L302.965,318.42L303.154,318.281L303.343,318.141L303.532,318L303.72,317.858L303.907,317.716L304.095,317.574L304.281,317.431L304.468,317.287L304.654,317.143L304.839,316.998L305.025,316.852L305.21,316.705L305.394,316.559L305.578,316.411L305.762,316.263L305.945,316.115L306.128,315.965L306.311,315.816L306.493,315.665L306.675,315.514L306.855,315.363L307.036,315.21L307.216,315.058L307.396,314.904L307.576,314.75L307.755,314.596L307.934,314.44L308.113,314.284L308.29,314.128L308.467,313.972L308.644,313.814L308.821,313.655L308.997,313.496L309.172,313.337L309.348,313.177L309.522,313.017L309.697,312.856L309.871,312.694L310.044,312.532L310.217,312.369L310.39,312.205L310.562,312.041L310.734,311.876L310.904,311.711L311.075,311.545L311.246,311.379L311.416,311.212L311.585,311.044L311.754,310.876L311.922,310.707L312.09,310.538L312.258,310.368L312.425,310.198L312.591,310.027L312.758,309.854L312.923,309.682L313.088,309.51L313.254,309.336L313.417,309.162L313.581,308.988L313.745,308.812L313.908,308.636L314.07,308.46L314.232,308.283L314.393,308.105L314.554,307.928L314.714,307.749L314.875,307.569L315.034,307.39L315.193,307.209L315.351,307.028L315.509,306.846L315.667,306.664L315.824,306.481L315.98,306.298L316.136,306.114L316.291,305.93L316.447,305.745L316.601,305.559L316.755,305.373L316.908,305.186L317.061,304.999L317.213,304.811L317.366,304.622L317.517,304.433L317.668,304.244L317.819,304.053L317.968,303.862L318.118,303.671L318.266,303.479L318.415,303.287L318.562,303.093L318.71,302.9L318.856,302.705L319.003,302.51L319.148,302.315L319.293,302.119L319.438,301.923L319.582,301.725L319.726,301.527L319.869,301.329L320.011,301.131L320.153,300.931L320.294,300.731L320.435,300.531L320.576,300.329L320.715,300.128L320.854,299.926L320.993,299.723L321.131,299.52L321.268,299.316L321.406,299.111L321.542,298.906L321.678,298.7L321.813,298.494L321.948,298.287L322.082,298.08L322.216,297.872L322.349,297.663L322.481,297.454L322.613,297.245L322.745,297.034L322.876,296.823L323.006,296.612L323.135,296.401L323.264,296.188L323.393,295.975L323.521,295.761L323.648,295.546L323.775,295.332L323.901,295.117L324.027,294.901L324.152,294.684L324.276,294.467L324.4,294.25L324.523,294.032L324.646,293.813L324.768,293.594L324.889,293.374L325.01,293.153L325.13,292.933L325.25,292.712L325.368,292.49L325.486,292.269L325.603,292.048L325.719,291.826L325.835,291.603L325.949,291.382L326.063,291.16L326.176,290.936L326.288,290.714L326.4,290.491L326.51,290.268L326.62,290.045L326.729,289.821L326.837,289.598L326.945,289.374L327.052,289.15L327.157,288.926L327.262,288.702L327.367,288.477L327.471,288.252L327.573,288.027L327.675,287.802L327.777,287.577L327.877,287.352L327.976,287.127L328.075,286.901L328.174,286.675L328.271,286.449L328.367,286.223L328.463,285.996L328.558,285.77L328.652,285.544L328.746,285.317L328.838,285.09L328.93,284.863L329.021,284.636L329.112,284.408L329.201,284.181L329.29,283.953L329.378,283.726L329.465,283.498L329.552,283.27L329.638,283.041L329.723,282.813L329.807,282.585L329.89,282.356L329.973,282.127L330.055,281.899L330.136,281.67L330.216,281.44L330.296,281.212L330.375,280.982L330.453,280.752L330.53,280.523L330.607,280.293L330.682,280.064L330.757,279.834L330.832,279.603L330.905,279.373L330.978,279.143L331.05,278.913L331.121,278.682L331.192,278.451L331.261,278.221L331.33,277.99L331.398,277.759L331.466,277.528L331.533,277.296L331.599,277.065L331.664,276.834L331.728,276.602L331.792,276.371L331.855,276.14L331.917,275.907L331.979,275.675L332.039,275.444L332.099,275.212L332.158,274.98L332.217,274.747L332.274,274.515L332.331,274.283L332.388,274.05L332.443,273.818L332.498,273.585L332.552,273.353L332.605,273.12L332.657,272.888L332.709,272.655L332.76,272.421L332.81,272.188L332.86,271.955L332.909,271.722L332.957,271.489L333.004,271.256L333.051,271.022L333.096,270.788L333.141,270.555L333.186,270.322L333.229,270.088L333.272,269.854L333.314,269.62L333.356,269.387L333.396,269.153L333.436,268.919L333.476,268.685L333.514,268.451L333.552,268.217L333.589,267.984L333.625,267.749L333.66,267.515L333.695,267.281L333.729,267.047L333.763,266.812L333.795,266.578L333.827,266.344L333.858,266.109L333.888,265.875L333.918,265.64L333.947,265.407L333.975,265.172L334.003,264.937L334.03,264.703L334.056,264.468L334.081,264.233L334.105,263.999L334.129,263.765L334.153,263.53L334.175,263.295L334.197,263.061L334.218,262.826L334.238,262.592L334.257,262.357L334.276,262.122L334.294,261.888L334.312,261.653L334.328,261.418L334.344,261.184L334.359,260.949L334.374,260.714L334.388,260.48L334.401,260.245L334.413,260.011L334.424,259.776L334.435,259.541L334.446,259.307L334.455,259.072L334.464,258.838L334.472,258.603L334.479,258.368L334.486,258.134L334.492,257.899L334.497,257.665L334.501,257.431L334.505,257.197L334.508,256.962L334.51,256.728L334.512,256.494L334.513,256.259L334.513,256.025L334.513,255.791L334.511,255.556L334.509,255.322L334.507,255.089L334.503,254.854L334.499,254.62L334.495,254.387L334.489,254.153L334.483,253.919L334.476,253.685L334.468,253.451L334.46,253.217L334.451,252.985L334.442,252.751L334.431,252.517L334.42,252.284L334.408,252.05L334.396,251.817L334.382,251.583L334.369,251.351L334.354,251.117L334.339,250.884L334.323,250.652L334.306,250.419L334.289,250.185L334.27,249.953L334.252,249.721L334.232,249.488L334.212,249.256L334.191,249.023L334.169,248.791L334.147,248.558L334.124,248.326L334.101,248.095L334.076,247.862L334.051,247.63L334.025,247.399L333.999,247.168L333.972,246.936L333.944,246.704L333.915,246.473L333.886,246.242L333.856,246.01L333.826,245.78L333.794,245.548L333.762,245.318L333.73,245.087L333.696,244.856L333.662,244.626L333.628,244.396L333.592,244.166L333.556,243.936L333.519,243.706L333.482,243.475L333.444,243.246L333.405,243.017L333.365,242.787L333.325,242.558L333.284,242.328L333.243,242.099L333.2,241.87L333.158,241.642L333.114,241.412L333.07,241.185L333.025,240.956L332.979,240.728L332.933,240.5L332.886,240.272L332.838,240.044L332.79,239.816L332.741,239.589L332.691,239.361L332.64,239.134L332.589,238.908L332.538,238.68L332.485,238.454L332.432,238.228L332.378,238.001L332.324,237.775L332.269,237.549L332.213,237.323L332.156,237.097L332.099,236.872L332.042,236.647L331.983,236.421L331.924,236.196L331.864,235.972L331.804,235.747L331.742,235.522L331.68,235.298L331.618,235.074L331.555,234.85L331.491,234.627L331.427,234.403L331.361,234.18L331.296,233.957L331.229,233.734L331.162,233.512L331.094,233.289L331.025,233.066L330.956,232.844L330.887,232.623L330.816,232.401L330.745,232.179L330.673,231.958L330.601,231.737L330.528,231.516L330.454,231.295L330.38,231.075L330.305,230.855L330.229,230.635L330.152,230.415L330.075,230.196L329.998,229.976L329.919,229.758L329.84,229.538L329.761,229.32L329.68,229.102L329.599,228.883L329.517,228.665L329.435,228.448L329.352,228.231L329.269,228.013L329.184,227.796L329.1,227.58L329.014,227.363L328.928,227.147L328.841,226.931L328.754,226.716L328.665,226.5L328.577,226.284L328.487,226.07L328.397,225.855L328.306,225.64L328.215,225.426L328.123,225.213L328.03,224.999L327.937,224.785L327.843,224.572L327.748,224.36L327.653,224.147L327.557,223.934L327.461,223.722L327.364,223.511L327.266,223.299L327.167,223.088L327.068,222.877L326.969,222.667L326.868,222.456L326.767,222.246L326.665,222.036L326.563,221.827L326.46,221.618L326.357,221.409L326.252,221.2L326.148,220.991L326.042,220.784L325.936,220.576L325.829,220.368L325.722,220.161L325.614,219.955L325.506,219.748L325.396,219.541L325.287,219.336L325.176,219.131L325.065,218.925L324.953,218.72L324.84,218.515L324.728,218.311L324.614,218.107L324.5,217.903L324.385,217.7L324.269,217.497L324.153,217.294L324.036,217.092L323.919,216.89L323.801,216.688L323.682,216.486L323.563,216.285L323.443,216.084L323.323,215.884L323.201,215.684L323.079,215.484L322.957,215.285L322.834,215.086L322.711,214.887L322.586,214.689L322.461,214.49L322.336,214.293L322.21,214.096L322.083,213.899L321.956,213.702L321.828,213.506L321.699,213.31L321.57,213.114L321.44,212.919L321.31,212.725L321.179,212.53L321.047,212.336L320.915,212.142L320.782,211.949L320.649,211.756L320.514,211.563L320.38,211.371L320.245,211.179L320.109,210.988L319.972,210.796L319.835,210.605L319.697,210.415L319.559,210.225L319.42,210.035L319.28,209.846L319.14,209.658L318.999,209.469L318.858,209.281L318.716,209.093L318.573,208.906L318.43,208.719L318.286,208.533L318.142,208.347L317.997,208.161L317.851,207.976L317.705,207.791L317.558,207.606L317.411,207.422L317.263,207.238L317.114,207.055L316.965,206.872L316.815,206.69L316.665,206.508L316.514,206.327L316.362,206.145L316.21,205.964L316.057,205.784L315.904,205.604L315.749,205.424L315.595,205.245L315.44,205.067L315.284,204.889L315.127,204.711L314.97,204.533L314.813,204.356L314.655,204.18L314.496,204.004L314.337,203.828L314.177,203.653L314.016,203.478L313.855,203.304L313.693,203.13L313.531,202.956L313.368,202.783L313.205,202.611L313.041,202.439L312.876,202.267L312.711,202.096L312.545,201.925L312.378,201.755L312.211,201.585L312.044,201.416L311.875,201.247L311.707,201.078L311.537,200.91L311.367,200.743L311.197,200.576L311.026,200.409L310.854,200.243L310.682,200.077L310.509,199.912L310.335,199.747L310.161,199.583L309.987,199.419L309.811,199.256L309.636,199.093L309.46,198.931L309.283,198.769L309.105,198.607L308.926,198.446L308.748,198.286L308.569,198.126L308.389,197.967L308.209,197.808L308.027,197.649L307.846,197.491L307.664,197.334L307.481,197.177L307.298,197.02L307.114,196.865L306.929,196.709L306.744,196.554L306.558,196.399L306.372,196.246L306.185,196.092L305.998,195.939L305.81,195.787L305.622,195.635L305.433,195.484L305.243,195.333L305.053,195.182L304.862,195.032L304.67,194.883L304.479,194.734L304.286,194.586L304.093,194.438L303.899,194.291L303.705,194.144L303.51,193.998L303.315,193.852L303.119,193.707L302.922,193.563L302.725,193.419L302.527,193.275L302.329,193.132L302.13,192.99L301.931,192.848L301.731,192.706L301.53,192.565L301.329,192.425L301.127,192.285L300.925,192.146L300.722,192.007L300.519,191.869L300.315,191.732L300.11,191.595L299.905,191.458L299.7,191.323L299.493,191.187L299.286,191.052L299.079,190.918L298.871,190.785L298.663,190.652L298.454,190.519L298.244,190.387L298.034,190.256L297.823,190.125L297.612,189.995L297.4,189.865L297.187,189.736L296.974,189.608L296.761,189.48L296.546,189.352L296.332,189.226L296.116,189.099L295.9,188.974L295.684,188.849L295.467,188.724L295.249,188.601L295.031,188.477L294.812,188.354L294.593,188.232L294.374,188.111L294.153,187.99L293.932,187.87L293.711,187.751L293.49,187.632L293.269,187.515L293.047,187.398L292.825,187.281L292.603,187.166L292.381,187.051L292.159,186.938L291.937,186.825L291.714,186.712L291.491,186.601L291.268,186.49L291.045,186.381L290.821,186.271L290.598,186.163L290.374,186.056L290.15,185.949L289.925,185.843L289.701,185.738L289.477,185.634L289.252,185.53L289.027,185.427L288.802,185.325L288.577,185.224L288.352,185.124L288.127,185.024L287.901,184.925L287.675,184.827L287.449,184.73L287.223,184.633L286.997,184.538L286.77,184.442L286.544,184.348L286.317,184.255L286.09,184.162L285.863,184.07L285.636,183.979L285.409,183.889L285.181,183.799L284.954,183.711L284.726,183.623L284.498,183.535L284.27,183.449L284.042,183.363L283.813,183.278L283.585,183.194L283.356,183.111L283.128,183.028L282.899,182.946L282.67,182.865L282.441,182.785L282.211,182.705L281.982,182.626L281.753,182.548L281.523,182.471L281.293,182.394L281.064,182.318L280.833,182.243L280.604,182.169L280.373,182.096L280.143,182.023L279.913,181.951L279.682,181.88L279.451,181.809L279.221,181.739L278.99,181.671L278.759,181.602L278.528,181.535L278.297,181.468L278.066,181.402L277.834,181.337L277.603,181.273L277.371,181.209L277.139,181.146L276.908,181.084L276.676,181.022L276.444,180.962L276.212,180.902L275.98,180.842L275.748,180.784L275.516,180.726L275.283,180.669L275.051,180.613L274.818,180.558L274.586,180.503L274.353,180.449L274.12,180.396L273.887,180.343L273.654,180.292L273.422,180.241L273.189,180.19L272.955,180.141L272.722,180.092L272.489,180.044L272.255,179.997L272.022,179.95L271.789,179.904L271.555,179.859L271.322,179.815L271.088,179.771L270.855,179.729L270.621,179.686L270.387,179.645L270.154,179.604L269.919,179.565L269.685,179.525L269.452,179.487L269.218,179.449L268.983,179.412L268.749,179.376L268.515,179.34L268.281,179.306L268.047,179.272L267.813,179.238L267.578,179.206L267.344,179.174L267.11,179.143L266.875,179.112L266.641,179.083L266.406,179.054L266.172,179.025L265.938,178.998L265.703,178.971L265.468,178.945L265.234,178.92L265,178.895L264.765,178.871L264.53,178.848L264.296,178.826L264.061,178.804L263.826,178.783L263.592,178.763L263.357,178.744L263.123,178.725L262.888,178.707L262.653,178.689L262.419,178.673L262.184,178.657L261.949,178.642L261.715,178.627L261.48,178.613L261.245,178.6L261.011,178.588L260.776,178.576L260.542,178.565L260.307,178.555L260.072,178.546L259.838,178.537L259.603,178.529L259.369,178.522L259.134,178.515L258.9,178.509L258.665,178.504L258.431,178.5L258.197,178.496L257.962,178.493L257.728,178.49L257.494,178.489L257.259,178.488L257.025,178.488L256.791,178.488L256.557,178.49L256.323,178.491L256.089,178.494L255.855,178.497L255.621,178.501L255.387,178.506L255.153,178.512L254.919,178.518L254.685,178.525L254.452,178.532L254.218,178.541L253.984,178.55L253.751,178.559L253.517,178.57L253.284,178.581L253.051,178.593L252.817,178.605L252.584,178.618L252.351,178.632L252.118,178.647L251.885,178.662L251.652,178.678L251.419,178.695L251.186,178.712L250.953,178.73L250.721,178.749L250.488,178.769L250.256,178.789L250.023,178.81L249.791,178.831L249.559,178.854L249.327,178.877L249.095,178.9L248.863,178.925L248.631,178.95L248.399,178.975L248.168,179.002L247.936,179.029L247.704,179.057L247.473,179.085L247.242,179.115L247.011,179.145L246.78,179.175L246.549,179.206L246.318,179.238L246.088,179.271L245.857,179.304L245.626,179.338L245.396,179.373L245.166,179.409L244.936,179.445L244.706,179.481L244.476,179.519L244.246,179.557L244.016,179.596L243.787,179.635L243.558,179.676L243.329,179.717L243.1,179.758L242.87,179.8L242.642,179.843L242.413,179.887L242.185,179.931L241.956,179.976L241.728,180.022L241.5,180.068L241.272,180.115L241.044,180.163L240.816,180.211L240.589,180.26L240.362,180.31L240.135,180.36L239.907,180.412L239.681,180.463L239.454,180.516L239.227,180.569L239.001,180.623L238.775,180.677L238.549,180.732L238.323,180.788L238.097,180.844L237.872,180.902L237.647,180.959L237.421,181.018L237.196,181.077L236.972,181.137L236.747,181.197L236.523,181.258L236.298,181.32L236.075,181.383L235.85,181.446L235.627,181.51L235.404,181.574L235.18,181.639L234.957,181.705L234.734,181.772L234.512,181.839L234.289,181.907L234.066,181.975L233.845,182.044L233.622,182.114L233.401,182.185L233.179,182.256L232.958,182.327L232.737,182.4L232.516,182.473L232.295,182.547L232.075,182.621L231.855,182.696L231.635,182.772L231.415,182.848L231.196,182.926L230.976,183.003L230.757,183.082L230.538,183.161L230.32,183.24L230.102,183.321L229.883,183.402L229.666,183.483L229.448,183.566L229.23,183.648L229.013,183.732L228.796,183.816L228.579,183.901L228.363,183.987L228.147,184.073L227.931,184.16L227.715,184.247L227.5,184.335L227.284,184.424L227.07,184.514L226.855,184.604L226.64,184.695L226.426,184.786L226.212,184.878L225.999,184.971L225.785,185.064L225.572,185.158L225.359,185.252L225.147,185.348L224.934,185.444L224.722,185.54L224.511,185.637L224.299,185.735L224.088,185.833L223.877,185.932L223.666,186.032L223.456,186.133L223.246,186.234L223.036,186.335L222.827,186.437L222.617,186.54L222.408,186.644L222.2,186.748L221.992,186.853L221.784,186.958L221.576,187.065L221.368,187.171L221.161,187.279L220.954,187.387L220.748,187.495L220.542,187.604L220.336,187.714L220.13,187.825L219.925,187.936L219.72,188.048L219.516,188.16L219.311,188.273L219.107,188.387L218.903,188.501L218.7,188.616L218.497,188.731L218.294,188.848L218.092,188.964L217.89,189.082L217.688,189.2L217.486,189.319L217.285,189.438L217.085,189.558L216.884,189.678L216.684,189.799L216.484,189.921L216.285,190.044L216.086,190.167L215.887,190.29L215.689,190.415L215.49,190.539L215.293,190.665L215.096,190.791L214.899,190.918L214.702,191.045L214.506,191.173L214.31,191.301L214.114,191.431L213.919,191.561L213.724,191.691L213.53,191.822L213.336,191.953L213.142,192.086L212.949,192.219L212.756,192.352L212.563,192.486L212.371,192.621L212.179,192.756L211.987,192.892L211.796,193.029L211.605,193.166L211.415,193.304L211.225,193.442L211.036,193.581L210.846,193.72L210.657,193.861L210.469,194.001L210.281,194.143L210.093,194.285L209.906,194.427L209.719,194.57L209.533,194.714L209.346,194.859L209.161,195.004L208.975,195.149L208.791,195.296L208.606,195.443L208.422,195.59L208.239,195.738L208.055,195.887L207.872,196.036L207.69,196.185L207.508,196.336L207.326,196.487L207.145,196.639L206.964,196.791L206.784,196.944L206.604,197.097L206.424,197.251L206.245,197.406L206.067,197.561L205.888,197.717L205.711,197.873L205.533,198.03L205.356,198.188L205.18,198.346L205.003,198.505L204.828,198.664L204.653,198.824L204.478,198.984L204.304,199.145L204.13,199.307L203.956,199.47L203.783,199.632L203.611,199.796L203.439,199.96L203.267,200.125L203.096,200.29L202.925,200.456L202.755,200.622L202.585,200.789L202.415,200.957L202.246,201.125L202.078,201.294L201.91,201.463L201.742,201.633L201.575,201.804L201.409,201.975L201.243,202.147L201.077,202.319L200.912,202.492L200.747,202.665L200.583,202.839L200.419,203.014L200.256,203.189L200.093,203.365L199.931,203.541L199.769,203.718L199.607,203.896L199.446,204.074L199.286,204.253L199.126,204.432L198.967,204.611L198.808,204.792L198.649,204.973L198.491,205.155L198.334,205.337L198.177,205.52L198.02,205.703L197.864,205.887L197.709,206.071L197.554,206.256L197.399,206.442L197.245,206.628L197.092,206.815L196.939,207.002L196.787,207.19L196.635,207.379L196.483,207.568L196.332,207.758L196.182,207.948L196.032,208.139L195.883,208.33L195.734,208.522L195.586,208.715L195.438,208.908L195.291,209.101L195.144,209.296L194.998,209.49L194.852,209.686L194.707,209.882L194.562,210.078L194.418,210.275L194.275,210.473L194.132,210.672L193.989,210.87L193.847,211.07L193.706,211.27L193.565,211.47L193.425,211.671L193.285,211.873L193.146,212.075L193.007,212.278L192.869,212.482L192.732,212.686L192.595,212.89L192.458,213.095L192.322,213.301L192.187,213.507L192.052,213.714L191.918,213.921L191.784,214.129L191.651,214.338L191.519,214.547L191.387,214.756L191.256,214.967L191.125,215.178L190.994,215.389L190.865,215.6L190.736,215.813L190.607,216.026L190.479,216.24L190.352,216.454L190.225,216.669L190.099,216.884L189.973,217.1L189.849,217.316L189.724,217.533L189.6,217.751L189.477,217.969L189.354,218.188L189.232,218.407L189.111,218.627L188.99,218.848L188.87,219.068L188.75,219.289L188.632,219.51L188.514,219.732L188.397,219.953L188.281,220.175L188.166,220.397L188.051,220.619L187.937,220.841L187.824,221.064L187.712,221.287L187.601,221.51L187.49,221.733L187.38,221.956L187.271,222.179L187.163,222.403L187.055,222.627L186.949,222.851L186.843,223.075L186.738,223.299L186.633,223.524L186.53,223.749L186.427,223.973L186.325,224.198L186.224,224.423L186.123,224.649L186.024,224.874L185.925,225.1L185.827,225.325L185.729,225.551L185.633,225.778L185.537,226.004L185.442,226.23L185.348,226.457L185.254,226.684L185.162,226.911L185.07,227.137L184.979,227.365L184.888,227.592L184.799,227.82L184.71,228.047L184.622,228.275L184.535,228.503L184.448,228.731L184.363,228.959L184.278,229.187L184.193,229.416L184.11,229.644L184.027,229.873L183.945,230.102L183.864,230.331L183.784,230.56L183.704,230.789L183.626,231.019L183.548,231.248L183.47,231.477L183.394,231.707L183.318,231.937L183.243,232.167L183.169,232.397L183.095,232.627L183.022,232.857L182.95,233.088L182.879,233.318L182.809,233.549L182.739,233.78L182.67,234.011L182.602,234.241L182.534,234.473L182.468,234.704L182.402,234.935L182.336,235.167L182.272,235.398L182.208,235.629L182.145,235.861L182.083,236.093L182.022,236.324L181.961,236.556L181.901,236.789L181.842,237.021L181.784,237.253L181.726,237.485L181.669,237.717L181.613,237.95L181.557,238.182L181.502,238.415L181.448,238.648L181.395,238.881L181.343,239.113L181.291,239.346L181.24,239.579L181.19,239.812L181.14,240.045L181.092,240.278L181.044,240.512L180.996,240.745L180.95,240.978L180.904,241.212L180.859,241.445L180.814,241.679L180.771,241.912L180.728,242.146L180.686,242.38L180.644,242.614L180.604,242.847L180.564,243.081L180.525,243.315L180.486,243.549L180.449,243.783L180.412,244.017L180.375,244.251L180.34,244.485L180.305,244.72L180.271,244.954L180.238,245.188L180.205,245.422L180.173,245.657L180.142,245.891L180.112,246.125L180.082,246.36L180.053,246.594L180.025,246.829L179.997,247.063L179.971,247.297L179.945,247.532L179.919,247.767L179.895,248.001L179.871,248.235L179.848,248.47L179.825,248.705L179.804,248.94L179.783,249.174L179.762,249.409L179.743,249.643L179.724,249.878L179.706,250.113L179.689,250.347L179.672,250.582L179.656,250.817L179.641,251.051L179.626,251.286L179.613,251.52L179.6,251.755L179.587,251.99L179.576,252.224L179.565,252.459L179.555,252.693L179.545,252.928L179.536,253.163L179.528,253.397L179.521,253.632L179.515,253.866L179.509,254.101L179.503,254.335L179.499,254.57L179.495,254.804L179.492,255.038L179.49,255.273L179.488,255.507L179.487,255.741L179.487,255.976L179.488,256.21L179.489,256.444L179.491,256.678L179.493,256.912L179.497,257.146L179.501,257.38L179.506,257.614L179.511,257.847L179.517,258.082L179.524,258.316L179.532,258.549L179.54,258.783L179.549,259.017L179.559,259.25L179.569,259.483L179.58,259.717L179.592,259.95L179.605,260.184L179.618,260.417L179.632,260.65L179.646,260.883L179.662,261.116L179.678,261.349L179.694,261.582L179.712,261.815L179.73,262.048L179.749,262.28L179.768,262.512L179.788,262.745L179.809,262.978L179.831,263.21L179.853,263.442L179.876,263.674L179.9,263.906L179.924,264.138L179.949,264.37L179.975,264.602L180.001,264.833L180.028,265.065L180.056,265.296L180.085,265.527L180.114,265.759L180.144,265.99L180.175,266.221L180.206,266.452L180.238,266.683L180.271,266.913L180.304,267.144L180.338,267.374L180.373,267.605L180.408,267.835L180.444,268.065L180.481,268.295L180.518,268.525L180.557,268.755L180.595,268.984L180.635,269.214L180.675,269.443L180.716,269.672L180.758,269.901L180.8,270.13L180.843,270.359L180.886,270.587L180.931,270.816L180.976,271.045L181.021,271.273L181.068,271.501L181.115,271.729L181.162,271.957L181.211,272.184L181.26,272.412L181.31,272.639L181.36,272.866L181.411,273.093L181.463,273.32L181.515,273.547L181.568,273.773L181.622,274L181.677,274.226L181.732,274.452L181.787,274.678L181.844,274.903L181.901,275.129L181.959,275.354L182.017,275.579L182.076,275.804L182.136,276.029L182.197,276.254L182.258,276.478L182.32,276.702L182.382,276.927L182.445,277.151L182.509,277.374L182.574,277.597L182.639,277.821L182.705,278.044L182.771,278.267L182.838,278.49L182.906,278.712L182.975,278.934L183.044,279.156L183.114,279.378L183.184,279.6L183.255,279.822L183.327,280.043L183.4,280.264L183.473,280.485L183.546,280.705L183.621,280.926L183.696,281.146L183.772,281.366L183.848,281.585L183.925,281.805L184.003,282.025L184.081,282.244L184.16,282.462L184.24,282.681L184.32,282.899L184.401,283.118L184.483,283.336L184.565,283.553L184.648,283.77L184.732,283.988L184.816,284.205L184.901,284.421L184.986,284.637L185.073,284.854L185.16,285.07L185.247,285.285L185.335,285.501L185.424,285.717L185.513,285.931L185.603,286.146L185.694,286.361L185.786,286.575L185.877,286.788L185.97,287.002L186.063,287.215L186.158,287.429L186.252,287.642L186.347,287.854L186.443,288.066L186.54,288.279L186.637,288.491L186.735,288.702L186.833,288.913L186.932,289.124L187.032,289.334L187.132,289.545L187.233,289.755L187.335,289.965L187.437,290.174L187.54,290.383L187.644,290.593L187.748,290.801L187.853,291.009L187.958,291.217L188.064,291.425L188.171,291.633L188.278,291.84L188.386,292.047L188.495,292.253L188.604,292.459L188.714,292.665L188.825,292.871L188.936,293.076L189.048,293.281L189.16,293.486L189.273,293.69L189.387,293.894L189.501,294.098L189.616,294.301L189.731,294.504L189.847,294.707L189.964,294.91L190.082,295.112L190.2,295.313L190.318,295.515L190.438,295.716L190.558,295.917L190.678,296.117L190.799,296.317L190.921,296.517L191.043,296.716L191.167,296.915L191.29,297.114L191.414,297.312L191.539,297.511L191.665,297.708L191.791,297.905L191.917,298.102L192.045,298.299L192.173,298.495L192.301,298.691L192.431,298.887L192.56,299.082L192.691,299.277L192.822,299.471L192.953,299.665L193.086,299.859L193.219,300.052L193.352,300.246L193.486,300.438L193.621,300.63L193.756,300.822L193.892,301.014L194.029,301.205L194.166,301.396L194.303,301.586L194.442,301.776L194.581,301.966L194.72,302.155L194.861,302.344L195.001,302.532L195.143,302.72L195.285,302.908L195.427,303.095L195.57,303.282L195.714,303.469L195.859,303.655L196.004,303.84L196.149,304.026L196.296,304.211L196.442,304.395L196.59,304.579L196.738,304.763L196.886,304.946L197.036,305.129L197.186,305.312L197.336,305.493L197.487,305.675L197.639,305.856L197.791,306.037L197.944,306.217L198.097,306.397L198.251,306.577L198.406,306.756L198.561,306.935L198.717,307.113L198.873,307.291L199.03,307.468L199.188,307.645L199.346,307.822L199.505,307.998L199.664,308.173L199.824,308.348L199.984,308.523L200.146,308.698L200.308,308.872L200.47,309.045L200.633,309.218L200.796,309.39L200.96,309.563L201.125,309.734L201.29,309.906L201.456,310.076L201.622,310.247L201.79,310.417L201.957,310.586L202.125,310.755L202.294,310.923L202.463,311.091L202.633,311.259L202.804,311.426L202.975,311.592L203.147,311.759L203.319,311.924L203.492,312.09L203.666,312.254L203.839,312.418L204.014,312.582L204.189,312.745L204.365,312.909L204.542,313.071L204.719,313.233L204.896,313.394L205.074,313.555L205.253,313.716L205.432,313.875L205.612,314.035L205.792,314.194L205.973,314.352L206.155,314.51L206.338,314.668L206.52,314.825L206.703,314.981L206.887,315.137L207.072,315.293L207.257,315.448L207.442,315.602L207.628,315.756L207.815,315.909L208.003,316.062L208.191,316.215L208.379,316.366L208.568,316.518L208.758,316.669L208.948,316.819L209.139,316.969L209.33,317.119L209.522,317.267L209.715,317.416L209.908,317.564L210.102,317.711L210.296,317.857L210.491,318.004L210.687,318.149L210.882,318.294L211.079,318.439L211.276,318.583L211.474,318.727L211.672,318.87L211.871,319.012L212.07,319.154L212.27,319.295L212.471,319.436L212.672,319.577L212.874,319.716L213.076,319.855L213.279,319.994L213.482,320.132L213.686,320.27L213.891,320.407L214.096,320.543L214.301,320.679L214.508,320.814L214.715,320.949L214.922,321.083L215.13,321.217L215.338,321.35L215.547,321.482L215.757,321.615L215.968,321.746L216.178,321.876L216.389,322.007L216.601,322.137L216.814,322.265L217.027,322.394L217.241,322.522L217.455,322.649L217.67,322.776L217.884,322.902L218.101,323.028L218.317,323.153L218.534,323.277L218.752,323.401L218.97,323.525L219.188,323.647L219.408,323.769L219.628,323.891L219.848,324.011L220.069,324.132L220.29,324.251L220.511,324.369L220.733,324.487L220.954,324.604L221.176,324.72L221.398,324.836L221.62,324.95L221.842,325.064L222.065,325.177L222.287,325.289L222.51,325.401L222.734,325.512L222.957,325.621L223.18,325.73L223.404,325.839L223.628,325.946L223.851,326.053L224.075,326.158L224.3,326.264L224.525,326.368L224.749,326.472L224.974,326.574L225.199,326.676L225.424,326.777L225.649,326.878L225.874,326.978L226.101,327.077L226.326,327.175L226.552,327.272L226.778,327.368L227.004,327.464L227.23,327.559L227.457,327.653L227.684,327.747L227.911,327.839L228.138,327.931L228.365,328.023L228.592,328.113L228.82,328.202L229.048,328.291L229.275,328.379L229.503,328.466L229.731,328.553L229.959,328.639L230.188,328.724L230.416,328.808L230.645,328.891L230.873,328.974L231.102,329.056L231.331,329.137L231.56,329.217L231.789,329.297L232.019,329.376L232.248,329.454L232.477,329.531L232.707,329.607L232.937,329.683L233.168,329.758L233.398,329.833L233.627,329.906L233.858,329.979L234.088,330.051L234.318,330.122L234.549,330.193L234.78,330.262L235.01,330.331L235.242,330.399L235.473,330.467L235.704,330.533L235.935,330.599L236.166,330.665L236.398,330.729L236.63,330.793L236.861,330.856L237.093,330.918L237.324,330.979L237.557,331.04L237.788,331.1L238.02,331.159L238.253,331.218L238.486,331.275L238.718,331.332L238.95,331.388L239.182,331.444L239.415,331.499L239.648,331.553L239.881,331.606L240.113,331.658L240.346,331.71L240.579,331.761L240.812,331.811L241.045,331.861L241.278,331.909L241.512,331.958L241.745,332.005L241.978,332.051L242.211,332.097L242.445,332.142L242.679,332.187L242.912,332.23L243.146,332.273L243.38,332.315L243.614,332.357L243.847,332.397L244.081,332.437L244.315,332.476L244.549,332.515L244.783,332.552L245.017,332.589L245.251,332.626L245.485,332.661L245.719,332.696L245.954,332.73L246.188,332.763L246.422,332.796L246.656,332.828L246.891,332.859L247.125,332.889L247.36,332.919L247.594,332.948L247.828,332.976L248.063,333.004L248.297,333.03L248.532,333.056L248.766,333.082L249.001,333.106L249.235,333.13L249.47,333.153L249.705,333.176L249.939,333.197L250.174,333.218L250.408,333.239L250.643,333.258L250.878,333.277L251.112,333.295L251.347,333.312L251.582,333.329L251.816,333.345L252.051,333.36L252.286,333.375L252.521,333.388L252.755,333.401L252.989,333.414L253.224,333.425L253.459,333.436L253.693,333.446L253.928,333.456L254.162,333.465L254.397,333.473L254.632,333.48L254.866,333.486L255.1,333.492L255.335,333.498L255.569,333.502L255.804,333.506L256.039,333.509L256.272,333.511L256.506,333.513L256.741,333.514L256.975,333.514Z" style="fill:rgb(150,150,150);"/>
        <path d="M364.515,472.38L147.699,472.26L147.472,472.259L147.213,472.254L146.954,472.247L146.697,472.237L146.441,472.225L146.186,472.21L145.933,472.192L145.681,472.172L145.431,472.149L145.18,472.124L144.932,472.097L144.685,472.068L144.438,472.036L144.195,472.002L143.951,471.966L143.708,471.928L143.467,471.888L143.228,471.845L142.987,471.801L142.75,471.755L142.514,471.707L142.277,471.657L142.042,471.605L141.808,471.551L141.576,471.495L141.345,471.438L141.113,471.379L140.885,471.318L140.656,471.256L140.428,471.191L140.202,471.126L139.976,471.058L139.751,470.989L139.527,470.918L139.304,470.846L139.081,470.771L138.861,470.696L138.641,470.619L138.421,470.54L138.204,470.461L137.986,470.379L137.769,470.296L137.553,470.211L137.338,470.125L137.124,470.038L136.91,469.949L136.698,469.858L136.487,469.767L136.276,469.673L136.066,469.579L135.857,469.483L135.648,469.386L135.441,469.287L135.233,469.186L135.027,469.085L134.823,468.982L134.619,468.878L134.415,468.772L134.212,468.665L134.01,468.557L133.808,468.447L133.609,468.336L133.409,468.224L133.209,468.11L133.011,467.994L132.814,467.878L132.618,467.761L132.422,467.641L132.227,467.52L132.032,467.398L131.839,467.275L131.647,467.151L131.455,467.025L131.263,466.897L131.073,466.768L130.884,466.639L130.695,466.507L130.507,466.374L130.321,466.24L130.134,466.103L129.949,465.967L129.764,465.828L129.581,465.688L129.397,465.546L129.215,465.403L129.034,465.259L128.854,465.113L128.674,464.966L128.496,464.817L128.318,464.667L128.14,464.514L127.964,464.361L127.79,464.206L127.615,464.049L127.442,463.891L127.269,463.731L127.098,463.57L126.927,463.407L126.758,463.242L126.59,463.076L126.422,462.908L126.255,462.737L126.089,462.566L125.924,462.392L125.761,462.217L125.599,462.04L125.437,461.861L125.277,461.68L125.118,461.498L124.96,461.313L124.803,461.126L124.647,460.938L124.493,460.748L124.34,460.555L124.188,460.36L124.037,460.163L123.887,459.963L123.739,459.763L123.593,459.56L123.448,459.354L123.304,459.146L123.162,458.935L123.022,458.723L122.883,458.508L122.745,458.291L122.609,458.07L122.476,457.848L122.36,457.651L13.869,270.512L13.756,270.314L13.629,270.087L13.505,269.86L13.384,269.632L13.266,269.404L13.152,269.176L13.04,268.948L12.93,268.719L12.824,268.49L12.72,268.262L12.619,268.033L12.52,267.804L12.424,267.575L12.33,267.346L12.239,267.116L12.15,266.887L12.064,266.658L11.98,266.428L11.898,266.199L11.819,265.969L11.742,265.74L11.666,265.511L11.594,265.281L11.523,265.052L11.454,264.822L11.388,264.593L11.323,264.363L11.261,264.134L11.2,263.904L11.142,263.675L11.085,263.445L11.03,263.215L10.977,262.986L10.926,262.756L10.877,262.527L10.83,262.297L10.785,262.068L10.741,261.838L10.699,261.609L10.659,261.379L10.621,261.15L10.584,260.92L10.549,260.691L10.516,260.461L10.484,260.232L10.455,260.002L10.426,259.773L10.4,259.543L10.375,259.314L10.352,259.085L10.33,258.855L10.31,258.626L10.292,258.396L10.275,258.167L10.26,257.937L10.247,257.708L10.235,257.478L10.224,257.249L10.216,257.019L10.209,256.79L10.203,256.561L10.199,256.331L10.197,256.102L10.196,255.872L10.196,255.643L10.199,255.413L10.203,255.184L10.208,254.954L10.215,254.725L10.224,254.495L10.234,254.266L10.246,254.036L10.259,253.807L10.274,253.578L10.291,253.348L10.309,253.119L10.329,252.889L10.35,252.66L10.373,252.43L10.398,252.201L10.424,251.971L10.452,251.742L10.482,251.512L10.513,251.283L10.546,251.053L10.581,250.824L10.618,250.594L10.656,250.365L10.696,250.135L10.738,249.906L10.781,249.676L10.826,249.447L10.874,249.217L10.923,248.988L10.973,248.758L11.026,248.529L11.081,248.299L11.137,248.069L11.195,247.84L11.256,247.61L11.318,247.381L11.383,247.151L11.449,246.922L11.518,246.692L11.588,246.462L11.661,246.233L11.736,246.004L11.813,245.774L11.892,245.544L11.974,245.315L12.058,245.086L12.144,244.856L12.232,244.627L12.324,244.398L12.417,244.169L12.513,243.94L12.611,243.711L12.712,243.482L12.816,243.253L12.923,243.024L13.032,242.796L13.144,242.567L13.258,242.339L13.376,242.111L13.497,241.883L13.62,241.656L13.747,241.429L13.86,241.231L122.132,54.23L122.247,54.034L122.381,53.811L122.517,53.591L122.654,53.373L122.793,53.158L122.933,52.945L123.076,52.734L123.219,52.526L123.364,52.32L123.511,52.116L123.659,51.915L123.808,51.715L123.959,51.518L124.111,51.323L124.264,51.13L124.419,50.939L124.574,50.751L124.731,50.564L124.89,50.379L125.049,50.196L125.209,50.015L125.37,49.836L125.533,49.659L125.697,49.483L125.861,49.309L126.027,49.138L126.194,48.967L126.361,48.799L126.53,48.633L126.7,48.467L126.87,48.304L127.042,48.143L127.214,47.983L127.388,47.824L127.562,47.668L127.737,47.512L127.914,47.359L128.091,47.207L128.269,47.056L128.448,46.907L128.627,46.76L128.807,46.614L128.989,46.469L129.172,46.326L129.354,46.185L129.538,46.044L129.723,45.906L129.909,45.768L130.095,45.633L130.282,45.498L130.47,45.365L130.659,45.234L130.848,45.103L131.039,44.975L131.23,44.847L131.422,44.721L131.615,44.596L131.808,44.473L132.002,44.351L132.198,44.231L132.394,44.111L132.59,43.994L132.788,43.877L132.986,43.762L133.185,43.648L133.385,43.536L133.585,43.425L133.787,43.315L133.989,43.207L134.192,43.1L134.396,42.994L134.601,42.89L134.806,42.787L135.011,42.685L135.218,42.585L135.426,42.487L135.635,42.389L135.844,42.293L136.054,42.199L136.265,42.106L136.477,42.014L136.69,41.924L136.903,41.835L137.117,41.748L137.333,41.662L137.548,41.577L137.765,41.494L137.983,41.413L138.202,41.333L138.421,41.254L138.642,41.177L138.863,41.102L139.085,41.028L139.308,40.956L139.532,40.885L139.757,40.816L139.983,40.749L140.209,40.683L140.437,40.619L140.666,40.557L140.896,40.496L141.127,40.437L141.358,40.38L141.591,40.324L141.825,40.271L142.06,40.219L142.296,40.169L142.533,40.121L142.771,40.075L143.01,40.031L143.25,39.989L143.492,39.949L143.734,39.911L143.978,39.875L144.223,39.842L144.469,39.81L144.716,39.781L144.965,39.754L145.215,39.729L145.466,39.707L145.718,39.687L145.971,39.67L146.226,39.655L146.482,39.643L146.739,39.633L146.997,39.626L147.257,39.622L147.485,39.621L364.3,39.742L364.528,39.743L364.787,39.748L365.045,39.755L365.303,39.765L365.558,39.777L365.813,39.792L366.066,39.81L366.318,39.83L366.569,39.853L366.818,39.877L367.067,39.905L367.314,39.934L367.56,39.966L367.804,40L368.048,40.036L368.291,40.074L368.532,40.114L368.772,40.156L369.011,40.201L369.249,40.247L369.486,40.295L369.722,40.345L369.956,40.397L370.19,40.451L370.423,40.506L370.654,40.563L370.885,40.623L371.114,40.683L371.343,40.746L371.57,40.81L371.797,40.876L372.023,40.943L372.248,41.013L372.471,41.083L372.694,41.156L372.916,41.229L373.137,41.305L373.358,41.382L373.577,41.461L373.795,41.541L374.013,41.622L374.23,41.705L374.445,41.79L374.66,41.876L374.875,41.963L375.088,42.052L375.3,42.142L375.512,42.234L375.723,42.327L375.933,42.422L376.142,42.518L376.351,42.615L376.558,42.714L376.765,42.814L376.971,42.915L377.176,43.018L377.38,43.123L377.584,43.228L377.787,43.335L377.989,43.444L378.19,43.553L378.39,43.664L378.59,43.777L378.79,43.891L378.987,44.005L379.185,44.122L379.382,44.24L379.577,44.359L379.772,44.48L379.967,44.602L380.16,44.725L380.352,44.849L380.544,44.975L380.735,45.103L380.926,45.232L381.115,45.362L381.304,45.493L381.492,45.627L381.679,45.76L381.865,45.896L382.051,46.034L382.235,46.172L382.419,46.312L382.603,46.454L382.785,46.597L382.965,46.741L383.146,46.887L383.326,47.035L383.505,47.183L383.682,47.333L383.859,47.485L384.036,47.639L384.211,47.794L384.385,47.951L384.558,48.109L384.731,48.269L384.903,48.431L385.073,48.593L385.242,48.758L385.411,48.925L385.578,49.092L385.745,49.263L385.912,49.435L386.076,49.609L386.239,49.783L386.401,49.96L386.563,50.139L386.724,50.321L386.883,50.504L387.041,50.688L387.198,50.874L387.353,51.063L387.508,51.254L387.661,51.446L387.813,51.641L387.964,51.838L388.114,52.038L388.261,52.238L388.407,52.441L388.554,52.648L388.697,52.856L388.839,53.065L388.98,53.279L389.118,53.493L389.256,53.711L389.392,53.932L389.526,54.154L389.641,54.35L498.133,241.49L498.246,241.688L498.372,241.913L498.495,242.141L498.617,242.369L498.734,242.597L498.849,242.825L498.962,243.054L499.071,243.283L499.177,243.51L499.281,243.74L499.382,243.968L499.481,244.197L499.577,244.427L499.671,244.656L499.761,244.884L499.85,245.113L499.937,245.343L500.021,245.573L500.103,245.802L500.182,246.03L500.259,246.261L500.334,246.49L500.407,246.719L500.478,246.949L500.546,247.178L500.613,247.409L500.678,247.638L500.74,247.867L500.801,248.096L500.859,248.326L500.916,248.556L500.971,248.786L501.023,249.014L501.074,249.244L501.124,249.475L501.171,249.703L501.216,249.932L501.26,250.163L501.302,250.392L501.342,250.621L501.38,250.85L501.417,251.08L501.452,251.31L501.485,251.54L501.516,251.769L501.546,251.998L501.574,252.227L501.601,252.458L501.626,252.687L501.649,252.915L501.67,253.146L501.69,253.376L501.709,253.604L501.725,253.833L501.741,254.064L501.754,254.293L501.766,254.522L501.776,254.751L501.785,254.981L501.792,255.211L501.798,255.44L501.802,255.67L501.804,255.899L501.805,256.128L501.804,256.357L501.802,256.588L501.798,256.817L501.793,257.046L501.786,257.277L501.777,257.505L501.767,257.734L501.755,257.964L501.742,258.194L501.727,258.423L501.71,258.652L501.692,258.882L501.672,259.112L501.651,259.34L501.628,259.57L501.603,259.801L501.577,260.029L501.549,260.258L501.519,260.488L501.487,260.718L501.454,260.947L501.419,261.177L501.383,261.407L501.345,261.635L501.305,261.865L501.263,262.095L501.22,262.324L501.174,262.554L501.127,262.784L501.078,263.012L501.027,263.242L500.974,263.473L500.92,263.701L500.864,263.93L500.805,264.161L500.745,264.39L500.683,264.619L500.618,264.849L500.552,265.078L500.483,265.309L500.413,265.538L500.34,265.767L500.265,265.997L500.188,266.227L500.108,266.456L500.027,266.685L499.943,266.915L499.857,267.143L499.768,267.373L499.677,267.603L499.584,267.832L499.488,268.061L499.39,268.289L499.288,268.518L499.184,268.748L499.078,268.976L498.969,269.204L498.857,269.433L498.742,269.661L498.625,269.888L498.505,270.116L498.38,270.344L498.254,270.571L498.141,270.769L389.868,457.771L389.753,457.968L389.619,458.192L389.483,458.412L389.346,458.629L389.207,458.844L389.066,459.057L388.924,459.269L388.78,459.477L388.635,459.682L388.489,459.885L388.341,460.087L388.191,460.287L388.04,460.484L387.889,460.679L387.736,460.872L387.581,461.063L387.426,461.251L387.269,461.438L387.11,461.623L386.951,461.806L386.791,461.986L386.63,462.166L386.467,462.343L386.303,462.519L386.138,462.693L385.973,462.864L385.806,463.034L385.639,463.202L385.47,463.369L385.3,463.534L385.129,463.698L384.958,463.859L384.785,464.019L384.612,464.177L384.438,464.334L384.262,464.49L384.086,464.642L383.909,464.795L383.731,464.945L383.552,465.094L383.372,465.242L383.192,465.387L383.01,465.532L382.828,465.675L382.645,465.817L382.461,465.957L382.276,466.096L382.092,466.232L381.905,466.369L381.718,466.503L381.53,466.636L381.341,466.767L381.151,466.898L380.961,467.027L380.77,467.154L380.577,467.281L380.385,467.405L380.192,467.528L379.997,467.65L379.801,467.771L379.606,467.89L379.41,468.008L379.211,468.125L379.014,468.239L378.816,468.353L378.615,468.466L378.414,468.577L378.213,468.686L378.011,468.795L377.808,468.902L377.605,469.007L377.399,469.112L377.194,469.214L376.988,469.316L376.78,469.416L376.574,469.514L376.365,469.612L376.155,469.708L375.946,469.802L375.734,469.896L375.523,469.987L375.31,470.077L375.096,470.166L374.883,470.253L374.667,470.339L374.451,470.424L374.234,470.507L374.017,470.588L373.798,470.668L373.578,470.747L373.359,470.823L373.137,470.899L372.914,470.973L372.693,471.045L372.469,471.115L372.243,471.185L372.016,471.252L371.79,471.318L371.563,471.382L371.333,471.444L371.104,471.505L370.873,471.564L370.642,471.621L370.41,471.676L370.175,471.73L369.939,471.782L369.704,471.832L369.467,471.88L369.229,471.926L368.99,471.97L368.75,472.012L368.509,472.052L368.265,472.09L368.021,472.126L367.777,472.159L367.531,472.191L367.283,472.22L367.035,472.247L366.786,472.272L366.534,472.294L366.283,472.314L366.029,472.331L365.773,472.346L365.519,472.358L365.261,472.368L365.002,472.375L364.743,472.379L364.515,472.38ZM364.462,448.38L364.492,448.38L364.492,448.38L364.494,448.38L364.496,448.38L364.503,448.379L364.51,448.379L364.52,448.378L364.532,448.377L364.545,448.376L364.561,448.375L364.578,448.373L364.598,448.37L364.618,448.368L364.641,448.365L364.666,448.361L364.69,448.357L364.718,448.353L364.747,448.347L364.778,448.342L364.81,448.336L364.843,448.329L364.878,448.321L364.914,448.314L364.95,448.305L364.989,448.296L365.029,448.286L365.071,448.276L365.112,448.265L365.155,448.253L365.2,448.24L365.245,448.227L365.29,448.214L365.336,448.2L365.384,448.184L365.434,448.168L365.483,448.152L365.532,448.135L365.585,448.117L365.635,448.099L365.687,448.08L365.74,448.06L365.793,448.04L365.847,448.019L365.901,447.997L365.956,447.975L366.011,447.952L366.066,447.928L366.123,447.904L366.178,447.88L366.235,447.854L366.291,447.828L366.348,447.802L366.406,447.774L366.461,447.747L366.519,447.719L366.576,447.69L366.633,447.661L366.691,447.631L366.748,447.601L366.804,447.571L366.862,447.539L366.919,447.508L366.975,447.477L367.032,447.444L367.089,447.411L367.144,447.378L367.2,447.345L367.257,447.31L367.311,447.277L367.365,447.243L367.42,447.208L367.474,447.173L367.528,447.138L367.581,447.103L367.633,447.067L367.685,447.032L367.736,446.996L367.787,446.96L367.837,446.924L367.886,446.888L367.936,446.851L367.984,446.815L368.031,446.779L368.078,446.743L368.124,446.707L368.169,446.671L368.213,446.635L368.257,446.599L368.299,446.564L368.341,446.529L368.381,446.494L368.422,446.458L368.46,446.425L368.499,446.39L368.536,446.356L368.572,446.323L368.607,446.29L368.64,446.258L368.673,446.226L368.705,446.195L368.735,446.164L368.765,446.133L368.794,446.104L368.821,446.075L368.847,446.047L368.872,446.021L368.895,445.994L368.919,445.968L368.94,445.944L368.959,445.921L368.978,445.898L368.997,445.876L369.013,445.856L369.028,445.837L369.043,445.818L369.055,445.802L369.066,445.787L369.076,445.773L369.086,445.76L369.094,445.748L369.101,445.739L369.106,445.731L369.11,445.725L369.113,445.72L369.116,445.716L369.116,445.716L369.131,445.69L477.338,258.801L477.353,258.775L477.354,258.772L477.357,258.766L477.361,258.76L477.364,258.752L477.37,258.741L477.375,258.729L477.381,258.716L477.388,258.7L477.396,258.682L477.404,258.663L477.412,258.642L477.421,258.62L477.43,258.597L477.44,258.57L477.45,258.544L477.46,258.514L477.471,258.484L477.481,258.452L477.492,258.419L477.503,258.384L477.514,258.348L477.525,258.311L477.537,258.272L477.548,258.232L477.559,258.19L477.571,258.147L477.582,258.104L477.593,258.059L477.604,258.011L477.615,257.965L477.625,257.918L477.636,257.867L477.646,257.816L477.656,257.765L477.666,257.713L477.676,257.659L477.685,257.606L477.695,257.55L477.704,257.494L477.712,257.438L477.72,257.381L477.728,257.323L477.736,257.265L477.743,257.205L477.75,257.144L477.756,257.085L477.763,257.025L477.768,256.962L477.774,256.9L477.779,256.838L477.783,256.775L477.787,256.712L477.791,256.649L477.794,256.586L477.797,256.522L477.8,256.456L477.801,256.393L477.803,256.329L477.804,256.264L477.805,256.2L477.805,256.135L477.805,256.071L477.804,256.006L477.803,255.941L477.801,255.877L477.799,255.813L477.797,255.749L477.794,255.685L477.791,255.621L477.787,255.558L477.783,255.496L477.778,255.433L477.773,255.369L477.768,255.308L477.762,255.248L477.756,255.185L477.749,255.125L477.743,255.066L477.735,255.006L477.728,254.948L477.72,254.889L477.711,254.832L477.703,254.776L477.694,254.72L477.685,254.665L477.675,254.611L477.665,254.557L477.656,254.506L477.645,254.454L477.635,254.403L477.624,254.354L477.614,254.307L477.603,254.258L477.592,254.211L477.581,254.168L477.57,254.124L477.558,254.081L477.547,254.039L477.536,253.999L477.525,253.961L477.513,253.923L477.502,253.887L477.491,253.852L477.48,253.818L477.47,253.788L477.459,253.756L477.448,253.727L477.439,253.701L477.43,253.676L477.42,253.652L477.411,253.628L477.402,253.607L477.395,253.589L477.387,253.572L477.38,253.556L477.374,253.543L477.368,253.53L477.363,253.519L477.359,253.512L477.356,253.505L477.353,253.5L477.352,253.498L477.352,253.497L477.351,253.496L477.336,253.47L368.912,66.446L368.896,66.42L368.896,66.42L368.896,66.419L368.894,66.416L368.891,66.41L368.887,66.404L368.881,66.396L368.873,66.385L368.866,66.375L368.857,66.362L368.846,66.347L368.835,66.332L368.822,66.315L368.808,66.298L368.792,66.278L368.776,66.258L368.758,66.236L368.739,66.213L368.718,66.189L368.697,66.164L368.675,66.14L368.651,66.113L368.625,66.085L368.599,66.057L368.571,66.028L368.544,65.999L368.514,65.969L368.483,65.937L368.451,65.906L368.418,65.874L368.383,65.841L368.348,65.808L368.313,65.775L368.276,65.741L368.237,65.706L368.198,65.672L368.158,65.638L368.117,65.602L368.075,65.566L368.032,65.531L367.989,65.495L367.944,65.459L367.898,65.423L367.852,65.386L367.806,65.351L367.758,65.314L367.71,65.278L367.661,65.242L367.611,65.206L367.56,65.169L367.51,65.133L367.458,65.097L367.406,65.061L367.354,65.026L367.3,64.991L367.247,64.955L367.192,64.92L367.138,64.885L367.083,64.851L367.028,64.817L366.972,64.783L366.916,64.749L366.86,64.716L366.803,64.683L366.746,64.651L366.69,64.619L366.633,64.587L366.575,64.556L366.518,64.525L366.461,64.495L366.403,64.465L366.346,64.436L366.289,64.407L366.231,64.379L366.174,64.351L366.117,64.324L366.06,64.297L366.003,64.271L365.946,64.246L365.89,64.221L365.835,64.197L365.778,64.173L365.723,64.15L365.668,64.128L365.614,64.106L365.56,64.085L365.507,64.064L365.454,64.045L365.402,64.025L365.35,64.007L365.299,63.989L365.249,63.972L365.199,63.955L365.15,63.94L365.102,63.924L365.055,63.91L365.009,63.896L364.964,63.883L364.92,63.871L364.876,63.859L364.834,63.847L364.793,63.837L364.753,63.827L364.715,63.818L364.677,63.809L364.641,63.801L364.606,63.794L364.572,63.787L364.54,63.781L364.509,63.775L364.48,63.77L364.452,63.765L364.426,63.761L364.402,63.758L364.379,63.754L364.358,63.752L364.339,63.749L364.322,63.748L364.306,63.746L364.292,63.745L364.28,63.744L364.27,63.743L364.262,63.743L364.256,63.742L364.253,63.742L364.251,63.742L364.221,63.742L147.538,63.621L147.508,63.621L147.507,63.621L147.503,63.621L147.497,63.622L147.489,63.622L147.48,63.623L147.468,63.624L147.454,63.625L147.439,63.626L147.422,63.628L147.403,63.631L147.382,63.633L147.359,63.636L147.335,63.64L147.309,63.644L147.282,63.648L147.253,63.654L147.222,63.659L147.19,63.665L147.157,63.672L147.122,63.679L147.086,63.687L147.049,63.696L147.01,63.705L146.97,63.715L146.93,63.725L146.888,63.736L146.845,63.748L146.801,63.76L146.756,63.774L146.71,63.787L146.663,63.802L146.615,63.817L146.566,63.832L146.517,63.849L146.467,63.866L146.416,63.884L146.365,63.902L146.313,63.921L146.26,63.941L146.207,63.961L146.153,63.982L146.099,64.004L146.044,64.026L145.989,64.049L145.934,64.073L145.878,64.097L145.822,64.121L145.766,64.147L145.709,64.173L145.652,64.199L145.595,64.226L145.538,64.254L145.481,64.282L145.424,64.311L145.367,64.34L145.309,64.369L145.252,64.399L145.195,64.43L145.138,64.461L145.081,64.493L145.025,64.525L144.968,64.557L144.912,64.59L144.856,64.623L144.8,64.656L144.745,64.69L144.689,64.724L144.635,64.758L144.58,64.793L144.526,64.828L144.473,64.863L144.42,64.898L144.368,64.934L144.316,64.969L144.264,65.005L144.213,65.041L144.163,65.077L144.114,65.113L144.065,65.149L144.017,65.185L143.969,65.222L143.923,65.258L143.877,65.294L143.832,65.329L143.787,65.366L143.744,65.401L143.701,65.437L143.66,65.472L143.619,65.507L143.579,65.542L143.54,65.576L143.502,65.61L143.465,65.644L143.429,65.677L143.394,65.71L143.36,65.743L143.328,65.774L143.296,65.806L143.265,65.837L143.236,65.867L143.207,65.896L143.18,65.925L143.154,65.953L143.129,65.98L143.106,66.006L143.083,66.032L143.061,66.056L143.042,66.079L143.023,66.102L143.005,66.124L142.989,66.144L142.973,66.163L142.959,66.181L142.947,66.198L142.935,66.213L142.925,66.227L142.916,66.24L142.908,66.251L142.901,66.261L142.896,66.268L142.892,66.275L142.888,66.28L142.887,66.283L142.886,66.284L142.87,66.31L34.663,253.199L34.648,253.225L34.648,253.226L34.646,253.229L34.644,253.233L34.64,253.24L34.636,253.249L34.631,253.259L34.626,253.271L34.619,253.285L34.613,253.3L34.605,253.318L34.597,253.337L34.589,253.358L34.58,253.38L34.57,253.404L34.561,253.429L34.551,253.457L34.541,253.486L34.53,253.516L34.519,253.548L34.509,253.581L34.498,253.616L34.486,253.652L34.475,253.689L34.464,253.728L34.453,253.768L34.442,253.81L34.43,253.853L34.419,253.897L34.408,253.942L34.397,253.988L34.386,254.035L34.375,254.084L34.365,254.133L34.355,254.183L34.344,254.235L34.334,254.287L34.325,254.341L34.315,254.395L34.306,254.45L34.297,254.506L34.289,254.562L34.28,254.619L34.273,254.677L34.265,254.736L34.258,254.795L34.251,254.855L34.244,254.916L34.238,254.977L34.232,255.038L34.227,255.1L34.222,255.162L34.218,255.225L34.214,255.288L34.21,255.351L34.207,255.415L34.204,255.479L34.201,255.543L34.199,255.607L34.198,255.672L34.197,255.736L34.196,255.801L34.196,255.865L34.196,255.93L34.197,255.995L34.198,256.059L34.199,256.123L34.201,256.188L34.204,256.252L34.207,256.316L34.21,256.379L34.214,256.443L34.218,256.506L34.223,256.568L34.228,256.631L34.233,256.693L34.239,256.754L34.245,256.815L34.251,256.875L34.258,256.935L34.266,256.995L34.273,257.053L34.281,257.111L34.289,257.168L34.298,257.225L34.307,257.281L34.316,257.336L34.326,257.39L34.335,257.443L34.345,257.495L34.355,257.547L34.366,257.598L34.376,257.647L34.387,257.695L34.398,257.743L34.409,257.789L34.42,257.834L34.431,257.878L34.443,257.92L34.454,257.962L34.465,258.002L34.477,258.041L34.488,258.078L34.499,258.114L34.51,258.149L34.521,258.182L34.531,258.214L34.542,258.244L34.552,258.273L34.562,258.3L34.572,258.326L34.581,258.35L34.59,258.372L34.598,258.393L34.606,258.412L34.614,258.429L34.621,258.445L34.627,258.459L34.637,258.481L34.649,258.504L34.664,258.53L143.089,445.555L143.104,445.581L143.114,445.597L143.126,445.614L143.134,445.625L143.144,445.639L143.155,445.654L143.166,445.668L143.179,445.685L143.193,445.703L143.208,445.723L143.225,445.743L143.243,445.765L143.262,445.788L143.282,445.811L143.304,445.836L143.327,445.862L143.35,445.888L143.376,445.916L143.402,445.944L143.429,445.973L143.458,446.002L143.487,446.032L143.518,446.063L143.55,446.095L143.584,446.127L143.618,446.16L143.653,446.193L143.689,446.227L143.726,446.26L143.764,446.294L143.803,446.329L143.844,446.364L143.884,446.399L143.926,446.435L143.969,446.47L144.013,446.506L144.057,446.542L144.103,446.579L144.149,446.615L144.196,446.651L144.243,446.687L144.291,446.723L144.341,446.76L144.39,446.796L144.441,446.833L144.492,446.868L144.543,446.904L144.596,446.94L144.649,446.976L144.701,447.011L144.754,447.046L144.809,447.082L144.864,447.117L144.919,447.151L144.974,447.185L145.029,447.219L145.086,447.253L145.143,447.286L145.199,447.319L145.255,447.351L145.312,447.383L145.369,447.415L145.427,447.446L145.484,447.477L145.541,447.507L145.598,447.537L145.656,447.566L145.714,447.595L145.771,447.623L145.827,447.651L145.885,447.678L145.942,447.705L145.999,447.731L146.055,447.756L146.112,447.781L146.168,447.806L146.223,447.829L146.278,447.852L146.333,447.874L146.387,447.896L146.442,447.917L146.495,447.938L146.547,447.957L146.6,447.977L146.651,447.995L146.703,448.013L146.754,448.031L146.802,448.047L146.851,448.062L146.899,448.078L146.946,448.092L146.992,448.106L147.038,448.119L147.081,448.132L147.125,448.143L147.168,448.155L147.208,448.165L147.248,448.175L147.287,448.184L147.325,448.193L147.361,448.201L147.394,448.208L147.429,448.215L147.462,448.221L147.491,448.227L147.52,448.232L147.548,448.237L147.574,448.241L147.598,448.244L147.622,448.248L147.642,448.25L147.661,448.253L147.679,448.255L147.694,448.256L147.72,448.258L147.749,448.26L147.78,448.26L364.462,448.38Z" style="fill:rgb(77,77,77);"/>
    </g>
</svg>
